<!DOCTYPE svg PUBLIC "-//W3C//DTD SVG 1.1//EN" "http://www.w3.org/Graphics/SVG/1.1/DTD/svg11.dtd" [
	<!ENTITY ns_flows "http://ns.adobe.com/Flows/1.0/">
]>
<svg xmlns="http://www.w3.org/2000/svg" width="221" height="279" viewBox="-0.346 -1.015 221 279">
  <path fill="none" stroke="#404041" stroke-width="1.5" stroke-linecap="round" stroke-linejoin="round" stroke-miterlimit="10" d="M85.753 191.598v75.04h-75.04v-75.04"/>
  <path fill="none" stroke="#404041" stroke-width="1.5" stroke-linecap="round" stroke-linejoin="round" stroke-miterlimit="10" d="M10.713 241.45l37.518-12.332 37.522 12.332M10.713 191.598l37.518-12.335 37.522 12.335M48.232 229.118v-49.856M38.446 245.213h19.577v12.098H38.446zM194.082 191.598v75.04h-75.04v-75.04"/>
  <path fill="none" stroke="#404041" stroke-width="1.5" stroke-linecap="round" stroke-linejoin="round" stroke-miterlimit="10" d="M119.043 241.45l37.52-12.332 37.518 12.332M119.043 191.598l37.52-12.335 37.518 12.335M156.563 229.118v-49.856M146.772 245.213h19.577v12.098H146.77zM197.382 31.073V79.04l-3.3 4.282v70.76h-75.04V83.32l-4.478-4.28V31.07"/>
  <path fill="none" stroke="#404041" stroke-width="1.5" stroke-linecap="round" stroke-linejoin="round" stroke-miterlimit="10" d="M114.565 79.042l41.998-13.702 40.82 13.702"/>
  <path fill="none" stroke="#404041" stroke-width="1.5" stroke-linecap="round" stroke-linejoin="round" stroke-miterlimit="10" d="M119.043 83.324l37.52-12.335 37.518 12.334M114.565 31.073l41.998-13.7 40.82 13.7M156.563 65.34V17.375"/>
  <path fill="none" stroke="#404041" stroke-width="1.5" stroke-linecap="round" stroke-linejoin="round" stroke-miterlimit="10" d="M142.432 83.323h19.576V95.42h-19.576zM142.432 107.52h19.576v12.096h-19.576zM142.432 131.712h19.576v12.1h-19.576zM85.753 79.042v75.04h-75.04V79.04"/>
  <path fill="none" stroke="#404041" stroke-width="1.5" stroke-linecap="round" stroke-linejoin="round" stroke-miterlimit="10" d="M10.713 128.894l37.518-12.332 37.522 12.332M10.713 79.042L48.23 66.706l37.522 12.336M48.232 116.56V66.708M38.446 132.657h19.577v12.1H38.446zM143.787 89.373h4.342M143.787 113.567h4.342M38.446 138.705h4.34M38.446 251.262h4.34M146.77 251.262h4.343M143.787 137.76h4.342M194.082 154.08h9.924M194.082 266.637h9.924M85.753 154.08h33.29M85.753 266.637h33.29M.75 154.08h9.963M.75 266.637h9.963M194.082 215.255h9.924M85.753 215.255h33.29M85.753 102.495h33.29M.75 215.255h9.963M.75 163.495h203.926M175.008 131.712h11.52v22.37h-11.52z"/>
  <path fill="#404041" d="M182.094 113.237c0 .732-.592 1.325-1.325 1.325s-1.326-.593-1.326-1.325.592-1.325 1.325-1.325 1.324.593 1.324 1.325M95.145 221.76c0 .732-.592 1.325-1.325 1.325-.734 0-1.326-.593-1.326-1.325 0-.73.592-1.324 1.326-1.324.733 0 1.325.593 1.325 1.324M112.55 221.76c0 .732-.59 1.325-1.323 1.325s-1.326-.593-1.326-1.325c0-.73.594-1.324 1.327-1.324.732 0 1.324.593 1.324 1.324M104.04 231.044c0 .732-.593 1.325-1.326 1.325-.734 0-1.326-.594-1.326-1.326s.592-1.325 1.326-1.325c.733 0 1.325.592 1.325 1.324M95.145 240.703c0 .73-.592 1.325-1.325 1.325-.734 0-1.326-.594-1.326-1.325 0-.732.592-1.325 1.326-1.325.733 0 1.325.592 1.325 1.325M112.55 240.703c0 .73-.59 1.325-1.323 1.325s-1.326-.594-1.326-1.325c0-.732.594-1.325 1.327-1.325.732 0 1.324.592 1.324 1.325M104.04 249.986c0 .732-.593 1.325-1.326 1.325-.734 0-1.326-.592-1.326-1.324 0-.73.592-1.325 1.326-1.325.733 0 1.325.594 1.325 1.326M95.145 259.763c0 .73-.592 1.325-1.325 1.325-.734 0-1.326-.594-1.326-1.325 0-.732.592-1.325 1.326-1.325.733 0 1.325.593 1.325 1.325M7.058 221.76c0 .732-.592 1.325-1.325 1.325s-1.326-.593-1.326-1.325c0-.73.593-1.324 1.326-1.324s1.325.593 1.325 1.324M7.058 240.703c0 .73-.592 1.325-1.325 1.325s-1.326-.594-1.326-1.325c0-.732.593-1.325 1.326-1.325s1.325.592 1.325 1.325M7.058 259.763c0 .73-.592 1.325-1.325 1.325s-1.326-.594-1.326-1.325c0-.732.593-1.325 1.326-1.325s1.325.593 1.325 1.325M112.55 259.763c0 .73-.59 1.325-1.323 1.325s-1.326-.594-1.326-1.325c0-.732.594-1.325 1.327-1.325.732 0 1.324.593 1.324 1.325M200.742 221.76c0 .732-.592 1.325-1.325 1.325s-1.325-.593-1.325-1.325c0-.73.592-1.324 1.325-1.324s1.325.593 1.325 1.324M200.742 240.703c0 .73-.592 1.325-1.325 1.325s-1.325-.594-1.325-1.325c0-.732.592-1.325 1.325-1.325s1.325.592 1.325 1.325M200.742 259.763c0 .73-.592 1.325-1.325 1.325s-1.325-.594-1.325-1.325c0-.732.592-1.325 1.325-1.325s1.325.593 1.325 1.325M7.058 109.473c0 .732-.592 1.325-1.325 1.325s-1.326-.593-1.326-1.325.593-1.325 1.326-1.325 1.325.593 1.325 1.325M7.058 128.415c0 .732-.592 1.325-1.325 1.325s-1.326-.593-1.326-1.325.593-1.325 1.326-1.325 1.325.593 1.325 1.325M7.058 147.475c0 .732-.592 1.324-1.325 1.324s-1.326-.593-1.326-1.325.593-1.325 1.326-1.325 1.325.593 1.325 1.325M95.145 109.473c0 .732-.592 1.325-1.325 1.325-.734 0-1.326-.593-1.326-1.325s.592-1.325 1.326-1.325c.733 0 1.325.593 1.325 1.325M112.55 109.473c0 .732-.59 1.325-1.323 1.325s-1.326-.593-1.326-1.325.594-1.325 1.327-1.325c.732 0 1.324.593 1.324 1.325M104.04 118.756c0 .732-.593 1.325-1.326 1.325-.734 0-1.326-.592-1.326-1.324s.592-1.325 1.326-1.325c.733 0 1.325.594 1.325 1.326M95.145 128.415c0 .732-.592 1.325-1.325 1.325-.734 0-1.326-.593-1.326-1.325s.592-1.325 1.326-1.325c.733 0 1.325.593 1.325 1.325M112.55 128.415c0 .732-.59 1.325-1.323 1.325s-1.326-.593-1.326-1.325.594-1.325 1.327-1.325c.732 0 1.324.593 1.324 1.325M104.04 137.698c0 .732-.593 1.326-1.326 1.326-.734 0-1.326-.594-1.326-1.326s.592-1.325 1.326-1.325c.733 0 1.325.593 1.325 1.325M95.145 147.475c0 .732-.592 1.324-1.325 1.324-.734 0-1.326-.593-1.326-1.325s.592-1.325 1.326-1.325c.733 0 1.325.593 1.325 1.325M112.55 147.475c0 .732-.59 1.324-1.323 1.324s-1.326-.593-1.326-1.325.594-1.325 1.327-1.325c.732 0 1.324.593 1.324 1.325M200.91 109.473c0 .732-.593 1.325-1.326 1.325-.732 0-1.326-.593-1.326-1.325s.594-1.325 1.326-1.325c.733 0 1.325.593 1.325 1.325M200.91 128.415c0 .732-.593 1.325-1.326 1.325-.732 0-1.326-.593-1.326-1.325s.594-1.325 1.326-1.325c.733 0 1.325.593 1.325 1.325M200.91 147.475c0 .732-.593 1.324-1.326 1.324-.732 0-1.326-.593-1.326-1.325s.594-1.325 1.326-1.325c.733 0 1.325.593 1.325 1.325M182.094 89.373c0 .732-.592 1.325-1.325 1.325s-1.326-.593-1.326-1.325.592-1.325 1.325-1.325 1.324.593 1.324 1.325"/>
  <path fill="none" stroke="#404041" stroke-width="1.5" stroke-linecap="round" stroke-linejoin="round" stroke-miterlimit="10" d="M119.043 38.825l33.176-10.908M119.043 52.766l33.176-10.91M119.043 66.707l33.176-10.91M192.874 38.327l-31.97-10.41M192.874 52.268l-31.97-10.412M192.874 66.208l-31.97-10.41M132.598 47.31V39.94h5.843v6.45M180.77 61.25v-7.51h-5.846v6.587M119.043 158.987h75.297M194.082 102.495h3.02c4.184 0 7.575 3.39 7.575 7.572v159.728c0 4.182-3.392 7.572-7.574 7.572H8.323c-4.18 0-7.572-3.39-7.572-7.572V110.067c0-4.182 3.392-7.572 7.574-7.572h2.39M92.494 39.938l14.923 9.016M219.6 39.938l-14.924 9.016M185.947.75l-5.254 16.624M127.177 1.327l8.04 15.47"/>
</svg>
