<?xml version="1.0" encoding="utf-8"?>
<!-- Generator: Adobe Illustrator 15.0.2, SVG Export Plug-In  -->
<!DOCTYPE svg PUBLIC "-//W3C//DTD SVG 1.1//EN" "http://www.w3.org/Graphics/SVG/1.1/DTD/svg11.dtd" [
	<!ENTITY ns_flows "http://ns.adobe.com/Flows/1.0/">
]>
<svg version="1.1"
	 xmlns="http://www.w3.org/2000/svg" xmlns:xlink="http://www.w3.org/1999/xlink" xmlns:a="http://ns.adobe.com/AdobeSVGViewerExtensions/3.0/"
	 x="0px" y="0px" width="50px" height="66px" viewBox="-1.016 -0.638 50 66" enable-background="new -1.016 -0.638 50 66"
	 xml:space="preserve">
<defs>
</defs>
<polyline fill="none" stroke="#404041" stroke-width="1.5" stroke-linecap="round" stroke-linejoin="round" stroke-miterlimit="10" points="
	20.009,45.464 20.009,64.724 0.75,64.724 0.75,45.464 "/>
<polyline fill="none" stroke="#404041" stroke-width="1.5" stroke-linecap="round" stroke-linejoin="round" stroke-miterlimit="10" points="
	0.75,58.259 10.379,55.094 20.009,58.259 "/>
<polyline fill="none" stroke="#404041" stroke-width="1.5" stroke-linecap="round" stroke-linejoin="round" stroke-miterlimit="10" points="
	0.75,45.464 10.379,42.298 20.009,45.464 "/>
<line fill="none" stroke="#404041" stroke-width="1.5" stroke-linecap="round" stroke-linejoin="round" stroke-miterlimit="10" x1="10.379" y1="55.093" x2="10.379" y2="42.298"/>
<rect x="7.868" y="59.224" fill="none" stroke="#404041" stroke-width="1.5" stroke-linecap="round" stroke-linejoin="round" stroke-miterlimit="10" width="5.024" height="3.105"/>
<polyline fill="none" stroke="#404041" stroke-width="1.5" stroke-linecap="round" stroke-linejoin="round" stroke-miterlimit="10" points="
	47.811,45.464 47.811,64.724 28.552,64.724 28.552,45.464 "/>
<polyline fill="none" stroke="#404041" stroke-width="1.5" stroke-linecap="round" stroke-linejoin="round" stroke-miterlimit="10" points="
	28.552,58.259 38.182,55.094 47.811,58.259 "/>
<polyline fill="none" stroke="#404041" stroke-width="1.5" stroke-linecap="round" stroke-linejoin="round" stroke-miterlimit="10" points="
	28.552,45.464 38.182,42.298 47.811,45.464 "/>
<line fill="none" stroke="#404041" stroke-width="1.5" stroke-linecap="round" stroke-linejoin="round" stroke-miterlimit="10" x1="38.182" y1="55.093" x2="38.182" y2="42.298"/>
<rect x="35.669" y="59.224" fill="none" stroke="#404041" stroke-width="1.5" stroke-linecap="round" stroke-linejoin="round" stroke-miterlimit="10" width="5.024" height="3.105"/>
<polyline fill="none" stroke="#404041" stroke-width="1.5" stroke-linecap="round" stroke-linejoin="round" stroke-miterlimit="10" points="
	47.811,3.916 47.811,35.836 28.552,35.836 28.552,3.916 "/>
<polyline fill="none" stroke="#404041" stroke-width="1.5" stroke-linecap="round" stroke-linejoin="round" stroke-miterlimit="10" points="
	28.552,16.71 38.182,13.544 47.811,16.71 "/>
<polyline fill="none" stroke="#404041" stroke-width="1.5" stroke-linecap="round" stroke-linejoin="round" stroke-miterlimit="10" points="
	28.552,3.916 38.182,0.75 47.811,3.916 "/>
<line fill="none" stroke="#404041" stroke-width="1.5" stroke-linecap="round" stroke-linejoin="round" stroke-miterlimit="10" x1="38.182" y1="13.544" x2="38.182" y2="0.75"/>
<rect x="35.669" y="17.676" fill="none" stroke="#404041" stroke-width="1.5" stroke-linecap="round" stroke-linejoin="round" stroke-miterlimit="10" width="5.024" height="3.105"/>
<rect x="35.669" y="23.885" fill="none" stroke="#404041" stroke-width="1.5" stroke-linecap="round" stroke-linejoin="round" stroke-miterlimit="10" width="5.024" height="3.105"/>
<rect x="35.669" y="30.095" fill="none" stroke="#404041" stroke-width="1.5" stroke-linecap="round" stroke-linejoin="round" stroke-miterlimit="10" width="5.024" height="3.105"/>
<polyline fill="none" stroke="#404041" stroke-width="1.5" stroke-linecap="round" stroke-linejoin="round" stroke-miterlimit="10" points="
	20.009,16.577 20.009,35.836 0.75,35.836 0.75,16.577 "/>
<polyline fill="none" stroke="#404041" stroke-width="1.5" stroke-linecap="round" stroke-linejoin="round" stroke-miterlimit="10" points="
	0.75,29.371 10.379,26.206 20.009,29.371 "/>
<polyline fill="none" stroke="#404041" stroke-width="1.5" stroke-linecap="round" stroke-linejoin="round" stroke-miterlimit="10" points="
	0.75,16.577 10.379,13.411 20.009,16.577 "/>
<line fill="none" stroke="#404041" stroke-width="1.5" stroke-linecap="round" stroke-linejoin="round" stroke-miterlimit="10" x1="10.379" y1="26.206" x2="10.379" y2="13.411"/>
<rect x="7.868" y="30.337" fill="none" stroke="#404041" stroke-width="1.5" stroke-linecap="round" stroke-linejoin="round" stroke-miterlimit="10" width="5.024" height="3.105"/>
</svg>
