<!DOCTYPE svg PUBLIC "-//W3C//DTD SVG 1.1//EN" "http://www.w3.org/Graphics/SVG/1.1/DTD/svg11.dtd" [
	<!ENTITY ns_flows "http://ns.adobe.com/Flows/1.0/">
]>
<svg xmlns="http://www.w3.org/2000/svg" width="258" height="291" viewBox="-0.806 -0.64 258 291">
  <path fill="none" stroke="#404041" stroke-width="1.5" stroke-linecap="round" stroke-linejoin="round" stroke-miterlimit="10" d="M186.57 179.402v72.086c0 15.61-12.77 28.386-28.384 28.386H57.233c-15.607 0-28.384-12.774-28.384-28.386V88.79c0-15.61 12.776-28.386 28.383-28.386h67.114"/>
  <path fill="none" stroke="#404041" stroke-width="1.5" stroke-linecap="round" stroke-linejoin="round" stroke-miterlimit="10" d="M58.447 279.874H48.05c-15.612 0-28.386-12.774-28.386-28.386V88.79c0-15.612 12.774-28.386 28.387-28.386h10.397M104.87 16.166l11.397 15.953M214.072 23.038l-9.528 15.55M157.122.75l1.214 33.575M229.974 136.665l-13.633-10.697M256.224 73.69l-34.616 4.195M121.91 76.424l18.06-19.778 24.695 36.217 32.3-47.2 7.58 4.195-31.058 65.28h-20.515z"/>
  <path fill="none" stroke="#404041" stroke-width="1.5" stroke-linecap="round" stroke-linejoin="round" stroke-miterlimit="10" d="M177.86 271.876h11.89c4.712 0 8.533 3.82 8.533 8.53v.464c0 4.712-3.82 8.53-8.533 8.53H14.938c-4.712 0-8.53-3.818-8.53-8.53v-.463c0-4.71 3.818-8.53 8.53-8.53h12.374M19.664 279.874h31.894M158.187 279.874h28.383M198.69 63.583c.19.658-.375-.47 0 0 2.36 2.958 10.14 2.573 11.802 6.017 1.634 3.387-3.498 9.224-2.646 12.98.83 3.635 8.004 6.664 8.004 10.55 0 3.888-7.178 6.918-8.004 10.556-.853 3.755 4.28 9.59 2.643 12.978-1.662 3.443-9.442 3.056-11.805 6.015-2.372 2.97-.28 10.467-3.25 12.84-2.957 2.36-9.794-1.344-13.24.318-3.388 1.632-4.746 9.304-8.502 10.158-3.636.825-8.177-5.478-12.062-5.478-3.886 0-8.43 6.303-12.068 5.476-3.75-.854-5.108-8.524-8.494-10.158-3.444-1.662-10.285 2.04-13.24-.322-2.973-2.372-.877-9.87-3.252-12.84-2.36-2.958-10.14-2.573-11.8-6.015-1.635-3.388 3.496-9.222 2.644-12.977-.826-3.636-8.003-6.665-8.003-10.552 0-3.886 7.177-6.917 8.003-10.554.852-3.755-4.28-9.59-2.645-12.976 1.664-3.445 9.44-3.06 11.804-6.017 2.37-2.973.275-10.468 3.247-12.84 2.956-2.363 9.797 1.34 13.238-.322 3.39-1.633 4.747-9.305 8.503-10.158 3.633-.827 8.177 5.476 12.063 5.476 3.89 0 8.43-6.303 12.068-5.476 3.757.853 5.11 8.522 8.497 10.158 2.584 1.244 7.075-.525 10.408-.493"/>
  <path fill="none" stroke="#404041" stroke-width="1.5" stroke-linecap="round" stroke-linejoin="round" stroke-miterlimit="10" d="M175.017 145.81c-1.04 1.462-2.99 2.43-4.433 2.758-3.64.824-5.544-2.693-9.43-2.693-3.888 0-7.054 6.584-12.726 5.078-6.07-1.61-6.65-8.747-9.414-9.968-3.498-1.545-10.968.845-14.667-1.883-3.91-2.882-.764-10.158-3.14-13.13-2.36-2.957-10.263-.84-13.1-6.245-3.01-5.737 3.46-10.433 2.608-14.186-.83-3.637-8.918-6.6-8.91-12.41.013-6.81 7.625-7.648 8.454-11.285.852-3.755-2.29-6.83-.653-10.218.664-1.38 2.672-3.06 4.52-3.536"/>
  <path fill="none" stroke="#404041" stroke-width="1.5" stroke-linecap="round" stroke-linejoin="round" stroke-miterlimit="10" d="M193.48 73.69c4.012 5.945 5.446 11.728 5.446 19.44 0 20.593-16.703 37.286-37.295 37.286-20.587 0-37.284-16.693-37.284-37.286 0-4.376.505-6.976 1.575-10.757M143.743 60.404c5.31-2.91 11.406-4.565 17.888-4.565 8.257 0 15.89 2.683 22.066 7.224"/>
  <path fill="none" stroke="#404041" stroke-width="1.5" stroke-linecap="round" stroke-linejoin="round" stroke-miterlimit="10" d="M146.312 64.145c4.57-2.423 9.785-3.794 15.32-3.794 7.303 0 14.05 2.39 19.5 6.43M190.946 78.442c2.525 4.646 3.47 9.03 3.47 14.69 0 18.1-14.683 32.774-32.785 32.774-18.096 0-32.77-14.674-32.77-32.775 0-2.856.152-3.904.84-6.545M138.182 141.735c.908 26.96 8.168 34.843 8.168 34.843s10.87-8.577 19.675-18.798c12.54 15.872 29.937 18.22 29.937 18.22s-7.327-13.028-7.327-39.335"/>
  <path fill="none" stroke="#404041" stroke-width="1.5" stroke-linecap="round" stroke-linejoin="round" stroke-miterlimit="10" d="M162.76 161.404c12.54 15.872 29.34 17.998 29.34 17.998l3.86-3.402M133.42 140.984c.81 27.682 9.064 38.997 9.064 38.997s1.552-1.224 3.963-3.298M146.962 194.437c0 1.195-.968 2.163-2.164 2.163H48.12c-1.195 0-2.162-.968-2.162-2.163 0-1.194.967-2.162 2.163-2.162H144.8c1.196 0 2.164.967 2.164 2.162zM146.962 204.595c0 1.195-.968 2.163-2.164 2.163H48.12c-1.195 0-2.162-.968-2.162-2.163s.967-2.163 2.163-2.163H144.8c1.196 0 2.164.967 2.164 2.163zM146.962 214.754c0 1.195-.968 2.163-2.164 2.163H48.12c-1.195 0-2.162-.968-2.162-2.163s.967-2.163 2.163-2.163H144.8c1.196 0 2.164.97 2.164 2.164zM146.962 224.912c0 1.194-.968 2.163-2.164 2.163H48.12c-1.195 0-2.162-.97-2.162-2.163 0-1.195.967-2.163 2.163-2.163H144.8c1.196 0 2.164.967 2.164 2.162zM78.513 254.037c0 1.194-.967 2.163-2.163 2.163H48.122c-1.197 0-2.164-.97-2.164-2.163 0-1.195.967-2.163 2.164-2.163H76.35c1.196 0 2.163.968 2.163 2.163zM78.513 102.545c0 1.195-.967 2.163-2.163 2.163H48.122c-1.197 0-2.164-.968-2.164-2.163 0-1.195.967-2.163 2.164-2.163H76.35c1.196 0 2.163.968 2.163 2.163zM78.513 93.128c0 1.195-.967 2.163-2.163 2.163H48.122c-1.197 0-2.164-.967-2.164-2.162s.967-2.163 2.164-2.163H76.35c1.196 0 2.163.968 2.163 2.163zM169.056 254.037c0 1.194-.967 2.163-2.164 2.163h-17.768c-1.195 0-2.162-.97-2.162-2.163 0-1.195.967-2.163 2.162-2.163h17.768c1.197 0 2.164.968 2.164 2.163z"/>
  <circle fill="none" stroke="#404041" stroke-width="1.5" stroke-linecap="round" stroke-linejoin="round" stroke-miterlimit="10" cx="37.102" cy="194.437" r="1.493"/>
  <circle fill="none" stroke="#404041" stroke-width="1.5" stroke-linecap="round" stroke-linejoin="round" stroke-miterlimit="10" cx="37.102" cy="93.128" r="1.493"/>
  <circle fill="none" stroke="#404041" stroke-width="1.5" stroke-linecap="round" stroke-linejoin="round" stroke-miterlimit="10" cx="37.102" cy="102.545" r="1.493"/>
  <circle fill="none" stroke="#404041" stroke-width="1.5" stroke-linecap="round" stroke-linejoin="round" stroke-miterlimit="10" cx="37.102" cy="204.595" r="1.493"/>
  <circle fill="none" stroke="#404041" stroke-width="1.5" stroke-linecap="round" stroke-linejoin="round" stroke-miterlimit="10" cx="37.102" cy="214.753" r="1.493"/>
  <circle fill="none" stroke="#404041" stroke-width="1.5" stroke-linecap="round" stroke-linejoin="round" stroke-miterlimit="10" cx="37.102" cy="224.911" r="1.493"/>
  <circle fill="none" stroke="#404041" stroke-width="1.5" stroke-linecap="round" stroke-linejoin="round" stroke-miterlimit="10" cx="37.102" cy="254.037" r="1.493"/>
  <circle fill="none" stroke="#404041" stroke-width="1.5" stroke-linecap="round" stroke-linejoin="round" stroke-miterlimit="10" cx="138.844" cy="254.037" r="1.493"/>
  <path fill="none" stroke="#404041" stroke-width="1.5" stroke-linecap="round" stroke-linejoin="round" stroke-miterlimit="10" d="M19.702 96.123h8.03M20.208 89.557h8.64M20.208 82.99h9.244M23.717 76.424h8.03M26.854 70.756h8.08M32.497 65.3h8.862M19.702 102.688h8.03M19.702 109.254h8.03M19.702 115.82h8.03M19.702 122.386h8.03M19.702 128.953h8.03M19.702 135.52h8.03M19.702 142.085h8.03M19.702 148.65h8.03M19.702 155.216h8.03M19.702 161.782h8.03M19.702 168.35h8.03M19.702 174.914h8.03M19.702 181.48h8.03M19.702 188.047h8.03M19.702 194.613h8.03M19.702 201.178h8.03M19.702 207.744h8.03M19.702 214.31h8.03M19.702 220.876h8.03M19.702 227.442h8.03M19.702 234.01h8.03M19.702 240.575h8.03M19.702 247.142h8.03M19.702 253.706h8.03M21.066 260.272h9.185M24.972 266.838h7.35M30.25 273.404h9.186M2.93 289.39c-1.386-2.526-2.18-5.43-2.18-8.518 0-3.288.894-6.365 2.452-9.005M201.763 271.867c1.39 2.528 2.176 5.433 2.176 8.52 0 3.288-.895 6.364-2.452 9.005M147.505 65.3h30.744M150.003 70.333h29.722M152.952 75.366h23.684M156.33 80.4h15.617M187.62 85.433h5.3M129.126 90.466h3.445M185.62 90.466h8.727M129.126 95.5h7.52M183.175 95.5h10.676M129.7 100.533h11.086M180.947 100.533h11.974M132.162 105.566h12.824M178.347 105.566h13.59M133.91 110.6H149M176.024 110.6H188.5M138.182 115.633h46.613M144.296 120.667h35.064M160.224 85.433h9.525"/>
</svg>
