<?xml version="1.0" encoding="utf-8"?>
<!-- Generator: Adobe Illustrator 15.0.2, SVG Export Plug-In  -->
<!DOCTYPE svg PUBLIC "-//W3C//DTD SVG 1.1//EN" "http://www.w3.org/Graphics/SVG/1.1/DTD/svg11.dtd" [
	<!ENTITY ns_flows "http://ns.adobe.com/Flows/1.0/">
]>
<svg version="1.1"
	 xmlns="http://www.w3.org/2000/svg" xmlns:xlink="http://www.w3.org/1999/xlink" xmlns:a="http://ns.adobe.com/AdobeSVGViewerExtensions/3.0/"
	 x="0px" y="0px" width="73px" height="62px" viewBox="-0.806 -0.51 73 62" enable-background="new -0.806 -0.51 73 62"
	 xml:space="preserve">
<defs>
</defs>
<polygon fill="none" stroke="#404041" stroke-width="1.5" stroke-linecap="round" stroke-linejoin="round" stroke-miterlimit="10" points="
	12.75,60.209 0.75,54.277 0.75,38.354 12.75,44.285 "/>
<polygon fill="none" stroke="#404041" stroke-width="1.5" stroke-linecap="round" stroke-linejoin="round" stroke-miterlimit="10" points="
	12.75,60.209 24.75,54.277 24.75,38.354 12.75,44.285 "/>
<polygon fill="none" stroke="#404041" stroke-width="1.5" stroke-linecap="round" stroke-linejoin="round" stroke-miterlimit="10" points="
	0.75,38.354 12.75,44.285 24.75,38.354 12.75,32.584 "/>
<polygon fill="none" stroke="#404041" stroke-width="1.5" stroke-linecap="round" stroke-linejoin="round" stroke-miterlimit="10" points="
	58.75,60.209 46.75,54.277 46.75,38.354 58.75,44.285 "/>
<polygon fill="none" stroke="#404041" stroke-width="1.5" stroke-linecap="round" stroke-linejoin="round" stroke-miterlimit="10" points="
	58.75,60.209 70.75,54.277 70.75,38.354 58.75,44.285 "/>
<polygon fill="none" stroke="#404041" stroke-width="1.5" stroke-linecap="round" stroke-linejoin="round" stroke-miterlimit="10" points="
	46.75,38.354 58.75,44.285 70.75,38.354 58.75,32.584 "/>
<polygon fill="none" stroke="#404041" stroke-width="1.5" stroke-linecap="round" stroke-linejoin="round" stroke-miterlimit="10" points="
	35.75,28.375 23.75,22.443 23.75,6.52 35.75,12.451 "/>
<polygon fill="none" stroke="#404041" stroke-width="1.5" stroke-linecap="round" stroke-linejoin="round" stroke-miterlimit="10" points="
	35.75,28.375 47.75,22.443 47.75,6.52 35.75,12.451 "/>
<polygon fill="none" stroke="#404041" stroke-width="1.5" stroke-linecap="round" stroke-linejoin="round" stroke-miterlimit="10" points="
	23.75,6.52 35.75,12.452 47.75,6.52 35.75,0.75 "/>
<line fill="none" stroke="#404041" stroke-width="1.5" stroke-linecap="round" stroke-linejoin="round" stroke-miterlimit="10" x1="24.75" y1="44.084" x2="46.75" y2="44.084"/>
<line fill="none" stroke="#404041" stroke-width="1.5" stroke-linecap="round" stroke-linejoin="round" stroke-miterlimit="10" x1="41.75" y1="25.657" x2="51.948" y2="35.855"/>
<line fill="none" stroke="#404041" stroke-width="1.5" stroke-linecap="round" stroke-linejoin="round" stroke-miterlimit="10" x1="30.58" y1="25.807" x2="20.339" y2="36.049"/>
<line fill="none" stroke="#404041" stroke-width="1.5" stroke-linecap="round" stroke-linejoin="round" stroke-miterlimit="10" x1="18.75" y1="35.469" x2="29.018" y2="25.049"/>
<line fill="none" stroke="#404041" stroke-width="1.5" stroke-linecap="round" stroke-linejoin="round" stroke-miterlimit="10" x1="43.117" y1="24.734" x2="53.535" y2="35.092"/>
<line fill="none" stroke="#404041" stroke-width="1.5" stroke-linecap="round" stroke-linejoin="round" stroke-miterlimit="10" x1="24.75" y1="45.783" x2="46.75" y2="45.783"/>
</svg>
