<!DOCTYPE svg PUBLIC "-//W3C//DTD SVG 1.1//EN" "http://www.w3.org/Graphics/SVG/1.1/DTD/svg11.dtd" [
	<!ENTITY ns_flows "http://ns.adobe.com/Flows/1.0/">
]>
<svg xmlns="http://www.w3.org/2000/svg" width="291" height="222" viewBox="-0.644 -1.211 291 222">
  <path fill="none" stroke="#404041" stroke-width="1.5" stroke-linecap="round" stroke-linejoin="round" stroke-miterlimit="10" d="M226.36 105.35c11.188 2.402 9.657 11.968 11.3 23.43 34.188-46.94 37.634-73.295 38.645-76.27 6.888-20.215-14.19-35.446-31.44-15.284-12.05 14.084-23.13 24.436-33.504 31.998 9.497.727 17.028.643 19.337 10.338-6.905-6.982-17.166-6.11-27.45-4.932C166.64 96.84 117.46 89.5 93.475 76.885c-1.95 7.966 20.408 17.998 13.8 39.24-.718-17.654-22.8-24.052-29.95-38.19-23.08 2.96-44.435 23.63-36.325 50.49 4.832 15.98 23.75 35.226 51.947 45.58 8.372-13.656 35.355-16.708 38.146-34.392 1.528 3.386 1.223 6.444-.3 9.45-4.144 8.203-17.324 15.986-26.912 28.886 38.038 9.16 88.96 2.59 127.74-41.84 1.02-11.422 2.67-23.266-5.26-30.76zM265.118 51.944s7.53 7.944 5.918 18.113M84.403 45.36v-.007.007zM100.374 29.384c-8.814 0-15.966-7.15-15.97-15.975-.007 8.823-7.153 15.97-15.977 15.974 8.828.006 15.976 7.156 15.976 15.97 0-8.814 7.152-15.97 15.97-15.97h.005-.004zM142.93 13.48zM147.37 9.036c-2.45 0-4.44-1.988-4.44-4.442-.002 2.453-1.99 4.44-4.442 4.442 2.454 0 4.44 1.99 4.44 4.44 0-2.45 1.99-4.44 4.442-4.44zM180.012 63.474v-.003.004z"/>
  <path fill="none" stroke="#404041" stroke-width="1.5" stroke-linecap="round" stroke-linejoin="round" stroke-miterlimit="10" d="M186.997 56.485c-3.854 0-6.983-3.128-6.985-6.988-.003 3.86-3.13 6.985-6.988 6.988 3.86.003 6.988 3.13 6.988 6.985 0-3.856 3.13-6.985 6.985-6.985H187h-.003zM129.45 63.26zM131.707 61c-1.246 0-2.257-1.01-2.258-2.26-.002 1.248-1.013 2.26-2.26 2.26 1.248 0 2.26 1.012 2.26 2.258 0-1.246 1.01-2.258 2.257-2.258zM278.024 9.035c-9.526 20.39-45.83 142.33-171.94 115.247"/>
  <path fill="none" stroke="#404041" stroke-width="1.5" stroke-linecap="round" stroke-linejoin="round" stroke-miterlimit="10" d="M273.452 7.314c1.018-2.614 3.953-3.922 6.574-2.904 2.625 1.01 3.93 3.952 2.916 6.582M231.62 137.136h16.257c18.29 0 33.105 14.825 33.105 33.105 0 18.29-14.816 33.116-33.105 33.116H40.887c-18.29 0-33.115-14.825-33.115-33.115 0-18.28 14.826-33.104 33.115-33.104h3.984"/>
  <path fill="none" stroke="#404041" stroke-width="1.5" stroke-linecap="round" stroke-linejoin="round" stroke-miterlimit="10" d="M280.983 173.507v3.907c0 18.29-14.817 33.115-33.107 33.115H40.886c-18.29 0-33.113-14.827-33.113-33.116v-3.907M29.52 147.11c0 .746-.603 1.35-1.352 1.35-.743 0-1.352-.603-1.352-1.35 0-.745.608-1.35 1.352-1.35.75.002 1.352.605 1.352 1.35zM46.163 147.11c0 .746-.602 1.35-1.35 1.35-.745 0-1.352-.603-1.352-1.35 0-.745.607-1.35 1.352-1.35.75.002 1.35.605 1.35 1.35zM229.243 147.11c0 .746-.602 1.35-1.35 1.35-.746 0-1.35-.603-1.35-1.35 0-.745.603-1.35 1.35-1.35.75.002 1.35.605 1.35 1.35z"/>
  <circle fill="none" stroke="#404041" stroke-width="1.5" stroke-linecap="round" stroke-linejoin="round" stroke-miterlimit="10" cx="244.537" cy="147.11" r="1.352"/>
  <circle fill="none" stroke="#404041" stroke-width="1.5" stroke-linecap="round" stroke-linejoin="round" stroke-miterlimit="10" cx="261.181" cy="147.11" r="1.352"/>
  <path fill="none" stroke="#404041" stroke-width="1.5" stroke-linecap="round" stroke-linejoin="round" stroke-miterlimit="10" d="M20.585 155.783c0 .747-.602 1.354-1.352 1.354-.745 0-1.35-.606-1.35-1.354 0-.742.604-1.348 1.35-1.348.75 0 1.352.606 1.352 1.348zM37.23 155.783c0 .747-.604 1.354-1.353 1.354-.746 0-1.352-.606-1.352-1.354 0-.742.605-1.348 1.352-1.348.75 0 1.352.606 1.352 1.348zM53.872 155.783c0 .747-.603 1.354-1.352 1.354-.744 0-1.35-.606-1.35-1.354 0-.742.605-1.348 1.35-1.348.75 0 1.352.606 1.352 1.348zM220.31 155.783c0 .747-.603 1.354-1.35 1.354-.746 0-1.352-.606-1.352-1.354 0-.742.605-1.348 1.35-1.348.748 0 1.353.606 1.353 1.348zM236.953 155.783c0 .747-.604 1.354-1.35 1.354s-1.353-.606-1.353-1.354c0-.742.605-1.348 1.352-1.348s1.35.606 1.35 1.348zM253.6 155.783c0 .747-.606 1.354-1.354 1.354-.746 0-1.35-.606-1.35-1.354 0-.742.603-1.348 1.35-1.348.747 0 1.353.606 1.353 1.348zM270.24 155.783c0 .747-.604 1.354-1.352 1.354-.746 0-1.35-.606-1.35-1.354 0-.742.603-1.348 1.35-1.348.748 0 1.353.606 1.353 1.348zM29.52 166.008c0 .746-.603 1.354-1.352 1.354-.743 0-1.352-.608-1.352-1.354 0-.745.608-1.348 1.352-1.348.75 0 1.352.603 1.352 1.348zM46.163 166.008c0 .746-.602 1.354-1.35 1.354-.745 0-1.352-.608-1.352-1.354 0-.745.607-1.348 1.352-1.348.75 0 1.35.603 1.35 1.348zM62.808 166.008c0 .746-.604 1.354-1.353 1.354-.745 0-1.35-.608-1.35-1.354 0-.745.604-1.348 1.35-1.348.748 0 1.353.603 1.353 1.348zM229.243 166.008c0 .746-.602 1.354-1.35 1.354-.746 0-1.35-.608-1.35-1.354 0-.745.603-1.348 1.35-1.348.75 0 1.35.603 1.35 1.348zM245.89 166.008c0 .746-.605 1.354-1.354 1.354-.745 0-1.35-.608-1.35-1.354 0-.745.604-1.348 1.35-1.348.748 0 1.353.603 1.353 1.348zM262.532 166.008c0 .746-.603 1.354-1.35 1.354-.748 0-1.354-.608-1.354-1.354 0-.745.605-1.348 1.353-1.348.75 0 1.352.603 1.352 1.348zM20.585 174.683c0 .747-.602 1.353-1.352 1.353-.745 0-1.35-.605-1.35-1.353 0-.742.604-1.348 1.35-1.348.75 0 1.352.605 1.352 1.348zM37.23 174.683c0 .747-.604 1.353-1.353 1.353-.746 0-1.352-.605-1.352-1.353 0-.742.605-1.348 1.352-1.348.75 0 1.352.605 1.352 1.348zM53.872 174.683c0 .747-.603 1.353-1.352 1.353-.744 0-1.35-.605-1.35-1.353 0-.742.605-1.348 1.35-1.348.75 0 1.352.605 1.352 1.348zM70.516 174.683c0 .747-.602 1.353-1.35 1.353-.746 0-1.353-.605-1.353-1.353 0-.742.606-1.348 1.352-1.348.75 0 1.35.605 1.35 1.348zM203.667 174.683c0 .747-.604 1.353-1.352 1.353-.746 0-1.352-.605-1.352-1.353 0-.742.605-1.348 1.352-1.348.748 0 1.352.605 1.352 1.348zM220.31 174.683c0 .747-.603 1.353-1.35 1.353-.746 0-1.352-.605-1.352-1.353 0-.742.605-1.348 1.35-1.348.748 0 1.353.605 1.353 1.348zM236.953 174.683c0 .747-.604 1.353-1.35 1.353s-1.353-.605-1.353-1.353c0-.742.605-1.348 1.352-1.348s1.35.605 1.35 1.348zM253.6 174.683c0 .747-.606 1.353-1.354 1.353-.746 0-1.35-.605-1.35-1.353 0-.742.603-1.348 1.35-1.348.747 0 1.353.605 1.353 1.348zM270.24 174.683c0 .747-.604 1.353-1.352 1.353-.746 0-1.35-.605-1.35-1.353 0-.742.603-1.348 1.35-1.348.748 0 1.353.605 1.353 1.348zM29.52 184.907c0 .746-.603 1.353-1.352 1.353-.743 0-1.352-.606-1.352-1.353 0-.745.608-1.35 1.352-1.35.75 0 1.352.605 1.352 1.35zM46.163 184.907c0 .746-.602 1.353-1.35 1.353-.745 0-1.352-.606-1.352-1.353 0-.745.607-1.35 1.352-1.35.75 0 1.35.605 1.35 1.35z"/>
  <circle fill="none" stroke="#404041" stroke-width="1.5" stroke-linecap="round" stroke-linejoin="round" stroke-miterlimit="10" cx="61.456" cy="184.907" r="1.352"/>
  <circle fill="none" stroke="#404041" stroke-width="1.5" stroke-linecap="round" stroke-linejoin="round" stroke-miterlimit="10" cx="78.101" cy="184.907" r="1.352"/>
  <circle fill="none" stroke="#404041" stroke-width="1.5" stroke-linecap="round" stroke-linejoin="round" stroke-miterlimit="10" cx="94.744" cy="184.907" r="1.351"/>
  <circle fill="none" stroke="#404041" stroke-width="1.5" stroke-linecap="round" stroke-linejoin="round" stroke-miterlimit="10" cx="177.962" cy="184.907" r="1.351"/>
  <path fill="none" stroke="#404041" stroke-width="1.5" stroke-linecap="round" stroke-linejoin="round" stroke-miterlimit="10" d="M195.957 184.907c0 .746-.603 1.353-1.352 1.353-.744 0-1.35-.606-1.35-1.353 0-.745.605-1.35 1.35-1.35.75 0 1.352.605 1.352 1.35zM212.6 184.907c0 .746-.6 1.353-1.35 1.353-.746 0-1.352-.606-1.352-1.353 0-.745.605-1.35 1.352-1.35.75 0 1.35.605 1.35 1.35zM229.243 184.907c0 .746-.602 1.353-1.35 1.353-.746 0-1.35-.606-1.35-1.353 0-.745.603-1.35 1.35-1.35.75 0 1.35.605 1.35 1.35z"/>
  <circle fill="none" stroke="#404041" stroke-width="1.5" stroke-linecap="round" stroke-linejoin="round" stroke-miterlimit="10" cx="244.537" cy="184.907" r="1.352"/>
  <circle fill="none" stroke="#404041" stroke-width="1.5" stroke-linecap="round" stroke-linejoin="round" stroke-miterlimit="10" cx="261.181" cy="184.907" r="1.352"/>
  <circle fill="none" stroke="#404041" stroke-width="1.5" stroke-linecap="round" stroke-linejoin="round" stroke-miterlimit="10" cx="35.878" cy="193.582" r="1.352"/>
  <path fill="none" stroke="#404041" stroke-width="1.5" stroke-linecap="round" stroke-linejoin="round" stroke-miterlimit="10" d="M53.872 193.582c0 .746-.603 1.352-1.352 1.352-.744 0-1.35-.605-1.35-1.352 0-.745.605-1.348 1.35-1.348.75 0 1.352.603 1.352 1.348zM70.516 193.582c0 .746-.602 1.352-1.35 1.352-.746 0-1.353-.605-1.353-1.352 0-.745.606-1.348 1.352-1.348.75 0 1.35.603 1.35 1.348z"/>
  <circle fill="none" stroke="#404041" stroke-width="1.5" stroke-linecap="round" stroke-linejoin="round" stroke-miterlimit="10" cx="85.81" cy="193.582" r="1.352"/>
  <path fill="none" stroke="#404041" stroke-width="1.5" stroke-linecap="round" stroke-linejoin="round" stroke-miterlimit="10" d="M103.804 193.582c0 .746-.602 1.352-1.352 1.352-.745 0-1.352-.605-1.352-1.352 0-.745.606-1.348 1.352-1.348.75 0 1.352.603 1.352 1.348z"/>
  <circle fill="none" stroke="#404041" stroke-width="1.5" stroke-linecap="round" stroke-linejoin="round" stroke-miterlimit="10" cx="119.097" cy="193.582" r="1.352"/>
  <circle fill="none" stroke="#404041" stroke-width="1.5" stroke-linecap="round" stroke-linejoin="round" stroke-miterlimit="10" cx="135.74" cy="193.582" r="1.352"/>
  <circle fill="none" stroke="#404041" stroke-width="1.5" stroke-linecap="round" stroke-linejoin="round" stroke-miterlimit="10" cx="152.383" cy="193.582" r="1.351"/>
  <path fill="none" stroke="#404041" stroke-width="1.5" stroke-linecap="round" stroke-linejoin="round" stroke-miterlimit="10" d="M170.38 193.582c0 .746-.605 1.352-1.354 1.352-.743 0-1.35-.605-1.35-1.352 0-.745.606-1.348 1.35-1.348.748 0 1.354.603 1.354 1.348z"/>
  <circle fill="none" stroke="#404041" stroke-width="1.5" stroke-linecap="round" stroke-linejoin="round" stroke-miterlimit="10" cx="185.671" cy="193.582" r="1.352"/>
  <circle fill="none" stroke="#404041" stroke-width="1.5" stroke-linecap="round" stroke-linejoin="round" stroke-miterlimit="10" cx="202.315" cy="193.582" r="1.352"/>
  <circle fill="none" stroke="#404041" stroke-width="1.5" stroke-linecap="round" stroke-linejoin="round" stroke-miterlimit="10" cx="218.959" cy="193.582" r="1.351"/>
  <circle fill="none" stroke="#404041" stroke-width="1.5" stroke-linecap="round" stroke-linejoin="round" stroke-miterlimit="10" cx="235.602" cy="193.582" r="1.351"/>
  <circle fill="none" stroke="#404041" stroke-width="1.5" stroke-linecap="round" stroke-linejoin="round" stroke-miterlimit="10" cx="252.247" cy="193.582" r="1.352"/>
  <path fill="none" stroke="#404041" stroke-width="1.5" stroke-linecap="round" stroke-linejoin="round" stroke-miterlimit="10" d="M62.095 210.528c0 5.32-4.313 9.636-9.635 9.636-5.32 0-9.634-4.314-9.634-9.636"/>
  <path fill="none" stroke="#404041" stroke-width="1.5" stroke-linecap="round" stroke-linejoin="round" stroke-miterlimit="10" d="M57.278 210.528c0 2.66-2.157 4.817-4.817 4.817s-4.817-2.156-4.817-4.817M147.845 210.528c0 2.66-2.157 4.817-4.817 4.817s-4.817-2.156-4.817-4.817M241.11 210.528c0 2.66-2.156 4.817-4.815 4.817-2.66 0-4.818-2.156-4.818-4.817"/>
  <path fill="none" stroke="#404041" stroke-width="1.5" stroke-linecap="round" stroke-linejoin="round" stroke-miterlimit="10" d="M152.66 210.528c0 5.32-4.313 9.636-9.635 9.636-5.32 0-9.634-4.314-9.634-9.636M245.93 210.528c0 5.32-4.314 9.636-9.636 9.636-5.32 0-9.634-4.314-9.634-9.636M106.696 29.38h6.34M55.77 29.38h6.34M191.888 56.484h3.38M164.757 56.484h3.38M180.012 68.36v3.38M180.012 41.23v3.378M84.403 51.675v6.34M84.403.75v6.34M38.97 220.163h27.344M129.354 220.163H156.7M221.93 220.163h27.346M69.165 168.604c23.87 16.972 89.14 34.753 144.878-6.882M.75 171.15c0-19.915 14.125-36.528 32.902-40.372M33.74 130.754c-1.555-4.343-2.404-9.023-2.404-13.9 0-20.752 17.773-39.434 37.09-43.907M288.598 171.15c0-19.915-14.685-36.997-32.902-40.372-6.687-1.097-9.807-.54-9.807-.54M95.375 180.975s4.202-8.586 14.03-15.688M173.023 125.42s6.988 12.51 0 28.434M209.9 99.897s5.722-1.215 7.025 2.52M243.692 53.333s-4.984-5.22-10.903-2.887M136.71 88.417s6.22 19.654 17.023 23.756M50.946 145.762s11.86-17.484 33.456-20.34"/>
</svg>
