<?xml version="1.0" encoding="utf-8"?>
<!-- Generator: Adobe Illustrator 15.0.2, SVG Export Plug-In  -->
<!DOCTYPE svg PUBLIC "-//W3C//DTD SVG 1.1//EN" "http://www.w3.org/Graphics/SVG/1.1/DTD/svg11.dtd" [
	<!ENTITY ns_flows "http://ns.adobe.com/Flows/1.0/">
]>
<svg version="1.1"
	 xmlns="http://www.w3.org/2000/svg" xmlns:xlink="http://www.w3.org/1999/xlink" xmlns:a="http://ns.adobe.com/AdobeSVGViewerExtensions/3.0/"
	 x="0px" y="0px" width="76px" height="56px" viewBox="-0.95 -0.717 76 56" enable-background="new -0.95 -0.717 76 56"
	 xml:space="preserve">
<defs>
</defs>
<path fill="none" stroke="#404041" stroke-width="1.5" stroke-linecap="round" stroke-linejoin="round" stroke-miterlimit="10" d="
	M58.063,38.249c-9.646,10.116-26.99,13.18-41.209,4.125"/>
<path fill="none" stroke="#404041" stroke-width="1.5" stroke-linecap="round" stroke-linejoin="round" stroke-miterlimit="10" d="
	M58.4,26.624c2.856,0.613,2.467,3.057,2.888,5.983c8.731-11.99,9.612-18.722,9.87-19.481c1.761-5.164-3.625-9.055-8.03-3.904
	c-3.08,3.597-5.91,6.242-8.56,8.173c2.426,0.186,4.351,0.165,4.938,2.641c-1.763-1.783-4.383-1.56-7.01-1.26
	c-9.353,5.674-21.915,3.799-28.042,0.577c-0.498,2.035,5.213,4.597,3.525,10.023c-0.184-4.51-6.961-6.065-8.787-9.676
	c-5.795,1.324-10.215,5.957-8.143,12.819c1.235,4.082,6.067,8.998,13.27,11.642c2.139-3.487,9.031-4.267,9.744-8.784
	c0.391,0.864,0.313,1.646-0.076,2.414c-1.059,2.096-4.426,4.084-6.875,7.379c9.717,2.34,22.724,0.662,32.631-10.688
	C60.003,31.564,60.425,28.537,58.4,26.624z"/>
<path fill="none" stroke="#404041" stroke-width="1.5" stroke-linecap="round" stroke-linejoin="round" stroke-miterlimit="10" d="
	M68.301,12.981c0,0,1.924,2.029,1.512,4.627"/>
<circle fill="none" stroke="#404041" stroke-width="1.5" stroke-linecap="round" stroke-linejoin="round" stroke-miterlimit="10" cx="22.137" cy="7.217" r="2.718"/>
<path fill="#231F20" d="M34.221,15.293c0,0.318-0.258,0.578-0.576,0.578c-0.317,0-0.576-0.26-0.576-0.578
	c0-0.316,0.259-0.576,0.576-0.576C33.962,14.717,34.221,14.978,34.221,15.293"/>
<path fill="none" stroke="#404041" stroke-width="1.5" stroke-miterlimit="10" d="M34.221,15.293c0,0.318-0.258,0.578-0.576,0.578
	c-0.317,0-0.576-0.26-0.576-0.578c0-0.316,0.259-0.576,0.576-0.576C33.962,14.717,34.221,14.978,34.221,15.293z"/>
<circle fill="none" stroke="#404041" stroke-width="1.5" stroke-linecap="round" stroke-linejoin="round" stroke-miterlimit="10" cx="46.561" cy="14.141" r="1.785"/>
<path fill="#231F20" d="M37.895,2.02c0,0.445-0.361,0.807-0.807,0.807c-0.445,0-0.806-0.362-0.806-0.807
	c0-0.445,0.361-0.807,0.806-0.807C37.533,1.213,37.895,1.575,37.895,2.02"/>
<circle fill="none" stroke="#404041" stroke-width="1.5" stroke-miterlimit="10" cx="37.088" cy="2.02" r="0.807"/>
<path fill="none" stroke="#404041" stroke-width="1.5" stroke-linecap="round" stroke-linejoin="round" stroke-miterlimit="10" d="
	M71.598,2.02c-2.435,5.209-11.707,36.356-43.922,29.44"/>
<path fill="none" stroke="#404041" stroke-width="1.5" stroke-linecap="round" stroke-linejoin="round" stroke-miterlimit="10" d="
	M70.43,1.581c0.26-0.668,1.01-1.002,1.681-0.742c0.67,0.258,1.004,1.01,0.743,1.681"/>
<path fill="none" stroke="#404041" stroke-width="1.5" stroke-linecap="round" stroke-linejoin="round" stroke-miterlimit="10" d="
	M14.166,40.721c0,0-1.361-1.259-2.479-2.853"/>
<path fill="none" stroke="#404041" stroke-width="1.5" stroke-linecap="round" stroke-linejoin="round" stroke-miterlimit="10" d="
	M59.744,34.743h4.151c4.672,0,8.457,3.787,8.457,8.457c0,4.672-3.785,8.459-8.457,8.459H11.021c-4.672,0-8.459-3.787-8.459-8.459
	c0-4.67,3.787-8.457,8.459-8.457h1.018"/>
<path fill="none" stroke="#404041" stroke-width="1.5" stroke-linecap="round" stroke-linejoin="round" stroke-miterlimit="10" d="
	M64.666,33.104c5.875,0,9.521,4.678,9.521,9.594v-0.692"/>
<path fill="none" stroke="#404041" stroke-width="1.5" stroke-linecap="round" stroke-linejoin="round" stroke-miterlimit="10" d="
	M9.164,33.163c-4.811,0.483-8.414,4.937-8.414,9.534v-0.69"/>
<path fill="none" stroke="#404041" stroke-width="1.5" stroke-linecap="round" stroke-linejoin="round" stroke-miterlimit="10" d="
	M72.354,44.034v0.998c0,4.672-3.785,8.459-8.457,8.459H11.021c-4.672,0-8.459-3.787-8.459-8.459v-0.998"/>
</svg>
