<?xml version="1.0" encoding="utf-8"?>
<!-- Generator: Adobe Illustrator 15.0.2, SVG Export Plug-In  -->
<!DOCTYPE svg PUBLIC "-//W3C//DTD SVG 1.1//EN" "http://www.w3.org/Graphics/SVG/1.1/DTD/svg11.dtd" [
	<!ENTITY ns_flows "http://ns.adobe.com/Flows/1.0/">
]>
<svg version="1.1"
	 xmlns="http://www.w3.org/2000/svg" xmlns:xlink="http://www.w3.org/1999/xlink" xmlns:a="http://ns.adobe.com/AdobeSVGViewerExtensions/3.0/"
	 x="0px" y="0px" width="61px" height="70px" viewBox="-0.776 -0.467 61 70" enable-background="new -0.776 -0.467 61 70"
	 xml:space="preserve">
<defs>
</defs>
<path fill="none" stroke="#404041" stroke-width="1.5" stroke-linecap="round" stroke-linejoin="round" stroke-miterlimit="10" d="
	M44.596,41.908v19.476c0,3.821-3.126,6.948-6.947,6.948H12.939c-3.821,0-6.948-3.127-6.948-6.948V21.562
	c0-3.821,3.127-6.947,6.948-6.947h12.84"/>
<path fill="none" stroke="#404041" stroke-width="1.5" stroke-linecap="round" stroke-linejoin="round" stroke-miterlimit="10" d="
	M13.236,68.332h-2.545c-3.821,0-6.947-3.127-6.947-6.948V21.562c0-3.821,3.126-6.947,6.947-6.947h2.545"/>
<path fill="none" stroke="#404041" stroke-width="1.5" stroke-linecap="round" stroke-linejoin="round" stroke-miterlimit="10" d="
	M51.493,22.683c0,1.444-1.336,2.66-1.759,3.964c-0.438,1.35-0.089,3.116-0.907,4.24c-0.826,1.135-2.619,1.344-3.754,2.17
	c-1.125,0.818-1.873,2.463-3.224,2.902c-1.304,0.424-2.869-0.455-4.313-0.455s-3.011,0.878-4.313,0.454
	c-1.351-0.438-2.099-2.083-3.223-2.902c-1.135-0.826-2.928-1.034-3.754-2.17c-0.818-1.124-0.468-2.889-0.907-4.24
	c-0.423-1.303-1.758-2.519-1.758-3.963c0-1.444,1.335-2.66,1.758-3.964c0.439-1.351,0.088-3.116,0.907-4.24
	c0.826-1.136,2.619-1.344,3.754-2.171c1.125-0.818,1.873-2.463,3.223-2.902c1.303-0.423,2.869,0.454,4.313,0.454
	s3.01-0.877,4.314-0.454c1.35,0.439,2.098,2.084,3.223,2.902c1.135,0.827,2.928,1.035,3.754,2.171
	c0.818,1.124,0.469,2.889,0.907,4.24C50.157,20.023,51.493,21.239,51.493,22.683z"/>
<circle fill="none" stroke="#404041" stroke-width="1.5" stroke-linecap="round" stroke-linejoin="round" stroke-miterlimit="10" cx="37.537" cy="22.683" r="10.53"/>
<line fill="none" stroke="#404041" stroke-width="1.5" stroke-linecap="round" stroke-linejoin="round" stroke-miterlimit="10" x1="10.182" y1="22.682" x2="18.147" y2="22.682"/>
<line fill="none" stroke="#404041" stroke-width="1.5" stroke-linecap="round" stroke-linejoin="round" stroke-miterlimit="10" x1="10.182" y1="24.929" x2="18.147" y2="24.929"/>
<line fill="none" stroke="#404041" stroke-width="1.5" stroke-linecap="round" stroke-linejoin="round" stroke-miterlimit="10" x1="10.185" y1="48.522" x2="34.901" y2="48.576"/>
<line fill="none" stroke="#404041" stroke-width="1.5" stroke-linecap="round" stroke-linejoin="round" stroke-miterlimit="10" x1="10.18" y1="50.925" x2="34.898" y2="50.978"/>
<line fill="none" stroke="#404041" stroke-width="1.5" stroke-linecap="round" stroke-linejoin="round" stroke-miterlimit="10" x1="10.185" y1="53.326" x2="34.901" y2="53.379"/>
<line fill="none" stroke="#404041" stroke-width="1.5" stroke-linecap="round" stroke-linejoin="round" stroke-miterlimit="10" x1="10.18" y1="55.729" x2="34.898" y2="55.781"/>
<line fill="none" stroke="#404041" stroke-width="1.5" stroke-linecap="round" stroke-linejoin="round" stroke-miterlimit="10" x1="10.18" y1="62.015" x2="18.147" y2="62.031"/>
<line fill="none" stroke="#404041" stroke-width="1.5" stroke-linecap="round" stroke-linejoin="round" stroke-miterlimit="10" x1="34.901" y1="62.021" x2="40.308" y2="62.031"/>
<polyline fill="none" stroke="#404041" stroke-width="1.5" stroke-linecap="round" stroke-linejoin="round" stroke-miterlimit="10" points="
	46.205,32.358 46.205,42.624 37.422,38.715 28.869,42.624 28.869,32.358 "/>
<line fill="none" stroke="#404041" stroke-width="1.5" stroke-linecap="round" stroke-linejoin="round" stroke-miterlimit="10" x1="23.225" y1="5.209" x2="27.007" y2="9.702"/>
<line fill="none" stroke="#404041" stroke-width="1.5" stroke-linecap="round" stroke-linejoin="round" stroke-miterlimit="10" x1="51.358" y1="4.563" x2="47.321" y2="8.831"/>
<line fill="none" stroke="#404041" stroke-width="1.5" stroke-linecap="round" stroke-linejoin="round" stroke-miterlimit="10" x1="36.231" y1="0.75" x2="36.528" y2="6.038"/>
<line fill="none" stroke="#404041" stroke-width="1.5" stroke-linecap="round" stroke-linejoin="round" stroke-miterlimit="10" x1="57.946" y1="31.847" x2="53.325" y2="28.221"/>
<line fill="none" stroke="#404041" stroke-width="1.5" stroke-linecap="round" stroke-linejoin="round" stroke-miterlimit="10" x1="58.98" y1="15.364" x2="53.325" y2="16.949"/>
<polygon fill="none" stroke="#404041" stroke-width="1.5" stroke-linecap="round" stroke-linejoin="round" stroke-miterlimit="10" points="
	29.753,23.57 34.038,19.223 37.536,24.61 43.5,16.949 44.596,16.949 39.079,29.489 36.231,29.489 "/>
<line fill="none" stroke="#404041" stroke-width="1.5" stroke-linecap="round" stroke-linejoin="round" stroke-miterlimit="10" x1="0.75" y1="68.332" x2="9.314" y2="68.332"/>
</svg>
