<?xml version="1.0" encoding="utf-8"?>
<!-- Generator: Adobe Illustrator 15.0.2, SVG Export Plug-In  -->
<!DOCTYPE svg PUBLIC "-//W3C//DTD SVG 1.1//EN" "http://www.w3.org/Graphics/SVG/1.1/DTD/svg11.dtd" [
	<!ENTITY ns_flows "http://ns.adobe.com/Flows/1.0/">
]>
<svg version="1.1"
	 xmlns="http://www.w3.org/2000/svg" xmlns:xlink="http://www.w3.org/1999/xlink" xmlns:a="http://ns.adobe.com/AdobeSVGViewerExtensions/3.0/"
	 x="0px" y="0px" width="167px" height="112px" viewBox="-0.313 -0.731 167 112" enable-background="new -0.313 -0.731 167 112"
	 xml:space="preserve">
<defs>
</defs>
<line fill="none" stroke="#c3c3c3" stroke-width="1.5" stroke-linecap="round" stroke-linejoin="round" stroke-miterlimit="10" x1="0.75" y1="62.544" x2="88.541" y2="62.544"/>
<line fill="none" stroke="#c3c3c3" stroke-width="1.5" stroke-linecap="round" stroke-linejoin="round" stroke-miterlimit="10" x1="0.75" y1="77.659" x2="88.541" y2="77.659"/>
<line fill="none" stroke="#c3c3c3" stroke-width="1.5" stroke-linecap="round" stroke-linejoin="round" stroke-miterlimit="10" x1="0.75" y1="92.772" x2="88.541" y2="92.772"/>
<line fill="none" stroke="#c3c3c3" stroke-width="1.5" stroke-linecap="round" stroke-linejoin="round" stroke-miterlimit="10" x1="0.75" y1="107.887" x2="105.966" y2="107.887"/>
<path fill="none" stroke="#c3c3c3" stroke-width="1.5" stroke-linecap="round" stroke-linejoin="round" stroke-miterlimit="10" d="
	M9.834,16.298c0-8.587,6.928-15.548,15.474-15.548h100.168c8.541,0,15.473,6.961,15.473,15.548V92.34
	c0,8.588-6.932,15.547-15.473,15.547H98.538"/>
<path fill="none" stroke="#c3c3c3" stroke-width="1.5" stroke-linecap="round" stroke-linejoin="round" stroke-miterlimit="10" d="
	M126.705,0.75h7.767c8.542,0,15.474,6.961,15.474,15.548V92.34c0,8.588-6.932,15.547-15.474,15.547h-8.995"/>
<line fill="none" stroke="#c3c3c3" stroke-width="1.5" stroke-linecap="round" stroke-linejoin="round" stroke-miterlimit="10" x1="88.541" y1="62.544" x2="88.541" y2="77.659"/>
<line fill="none" stroke="#c3c3c3" stroke-width="1.5" stroke-linecap="round" stroke-linejoin="round" stroke-miterlimit="10" x1="69.218" y1="77.659" x2="69.218" y2="92.773"/>
<line fill="none" stroke="#c3c3c3" stroke-width="1.5" stroke-linecap="round" stroke-linejoin="round" stroke-miterlimit="10" x1="29.157" y1="77.659" x2="29.157" y2="92.773"/>
<line fill="none" stroke="#c3c3c3" stroke-width="1.5" stroke-linecap="round" stroke-linejoin="round" stroke-miterlimit="10" x1="88.541" y1="92.772" x2="88.541" y2="107.887"/>
<line fill="none" stroke="#c3c3c3" stroke-width="1.5" stroke-linecap="round" stroke-linejoin="round" stroke-miterlimit="10" x1="48.037" y1="62.544" x2="48.037" y2="77.659"/>
<line fill="none" stroke="#c3c3c3" stroke-width="1.5" stroke-linecap="round" stroke-linejoin="round" stroke-miterlimit="10" x1="48.037" y1="92.772" x2="48.037" y2="107.887"/>
<line fill="none" stroke="#c3c3c3" stroke-width="1.5" stroke-linecap="round" stroke-linejoin="round" stroke-miterlimit="10" x1="0.75" y1="17.202" x2="69.218" y2="17.202"/>
<line fill="none" stroke="#c3c3c3" stroke-width="1.5" stroke-linecap="round" stroke-linejoin="round" stroke-miterlimit="10" x1="0.75" y1="32.315" x2="69.218" y2="32.315"/>
<line fill="none" stroke="#c3c3c3" stroke-width="1.5" stroke-linecap="round" stroke-linejoin="round" stroke-miterlimit="10" x1="0.75" y1="47.43" x2="69.218" y2="47.43"/>
<line fill="none" stroke="#c3c3c3" stroke-width="1.5" stroke-linecap="round" stroke-linejoin="round" stroke-miterlimit="10" x1="69.218" y1="17.202" x2="69.218" y2="32.315"/>
<line fill="none" stroke="#c3c3c3" stroke-width="1.5" stroke-linecap="round" stroke-linejoin="round" stroke-miterlimit="10" x1="49.895" y1="32.315" x2="49.895" y2="47.431"/>
<line fill="none" stroke="#c3c3c3" stroke-width="1.5" stroke-linecap="round" stroke-linejoin="round" stroke-miterlimit="10" x1="9.834" y1="32.315" x2="9.834" y2="47.431"/>
<line fill="none" stroke="#c3c3c3" stroke-width="1.5" stroke-linecap="round" stroke-linejoin="round" stroke-miterlimit="10" x1="9.834" y1="62.544" x2="9.834" y2="77.659"/>
<line fill="none" stroke="#c3c3c3" stroke-width="1.5" stroke-linecap="round" stroke-linejoin="round" stroke-miterlimit="10" x1="9.834" y1="92.773" x2="9.834" y2="107.888"/>
<line fill="none" stroke="#c3c3c3" stroke-width="1.5" stroke-linecap="round" stroke-linejoin="round" stroke-miterlimit="10" x1="69.218" y1="47.43" x2="69.218" y2="62.545"/>
<line fill="none" stroke="#c3c3c3" stroke-width="1.5" stroke-linecap="round" stroke-linejoin="round" stroke-miterlimit="10" x1="28.714" y1="17.202" x2="28.714" y2="32.315"/>
<line fill="none" stroke="#c3c3c3" stroke-width="1.5" stroke-linecap="round" stroke-linejoin="round" stroke-miterlimit="10" x1="28.714" y1="47.43" x2="28.714" y2="62.545"/>
<path fill="none" stroke="#c3c3c3" stroke-width="1.5" stroke-linecap="round" stroke-linejoin="round" stroke-miterlimit="10" d="
	M128.523,0.75c0,4.464-2.999,4.464-2.999,8.927s2.999,4.463,2.999,8.926c0,4.459-2.999,4.459-2.999,8.918
	c0,4.462,2.999,4.462,2.999,8.924c0,4.463-2.999,4.463-2.999,8.926c0,4.464,2.999,4.464,2.999,8.929
	c0,4.463-2.999,4.463-2.999,8.926c0,4.464,2.999,4.464,2.999,8.93c0,4.462-2.999,4.462-2.999,8.924c0,4.467,2.999,4.467,2.999,8.933
	c0,4.469-2.999,4.469-2.999,8.938s2.999,4.469,2.999,8.938"/>
<path fill="none" stroke="#c3c3c3" stroke-width="1.5" stroke-linecap="round" stroke-linejoin="round" stroke-miterlimit="10" d="
	M136.097,4.997c-0.795,1.193-1.646,2.304-1.646,4.679c0,4.463,3,4.463,3,8.927c0,4.459-3,4.459-3,8.918c0,4.462,3,4.462,3,8.924
	c0,4.463-3,4.463-3,8.927c0,4.463,3,4.463,3,8.927s-3,4.464-3,8.926c0,4.465,3,4.465,3,8.931c0,4.462-3,4.462-3,8.924
	c0,4.466,3,4.466,3,8.932c0,4.47-3,4.47-3,8.938c0,2.383,0.853,3.496,1.65,4.691"/>
<path fill="none" stroke="#c3c3c3" stroke-width="1.5" stroke-linecap="round" stroke-linejoin="round" stroke-miterlimit="10" d="
	M110.088,0.75c0,4.464-2.998,4.464-2.998,8.927s2.998,4.463,2.998,8.926c0,4.459-2.998,4.459-2.998,8.918
	c0,4.462,2.998,4.462,2.998,8.924c0,4.463-2.998,4.463-2.998,8.926c0,4.464,2.998,4.464,2.998,8.929
	c0,4.463-2.998,4.463-2.998,8.926c0,4.464,2.998,4.464,2.998,8.93c0,4.462-2.998,4.462-2.998,8.924c0,4.467,2.998,4.467,2.998,8.933
	c0,4.469-2.998,4.469-2.998,8.938s2.998,4.469,2.998,8.938"/>
<path fill="none" stroke="#c3c3c3" stroke-width="1.5" stroke-linecap="round" stroke-linejoin="round" stroke-miterlimit="10" d="
	M119.016,0.75c0,4.464-2.999,4.464-2.999,8.927s2.999,4.463,2.999,8.926c0,4.459-2.999,4.459-2.999,8.918
	c0,4.462,2.999,4.462,2.999,8.924c0,4.463-2.999,4.463-2.999,8.926c0,4.464,2.999,4.464,2.999,8.929
	c0,4.463-2.999,4.463-2.999,8.926c0,4.464,2.999,4.464,2.999,8.93c0,4.462-2.999,4.462-2.999,8.924c0,4.467,2.999,4.467,2.999,8.933
	c0,4.469-2.999,4.469-2.999,8.938s2.999,4.469,2.999,8.938"/>
<path fill="none" stroke="#c3c3c3" stroke-width="1.5" stroke-linecap="round" stroke-linejoin="round" stroke-miterlimit="10" d="
	M91.653,0.75c0,4.464-2.997,4.464-2.997,8.927s2.997,4.463,2.997,8.926c0,4.459-2.997,4.459-2.997,8.918
	c0,4.462,2.997,4.462,2.997,8.924c0,4.463-2.997,4.463-2.997,8.926c0,4.464,2.997,4.464,2.997,8.929
	c0,4.463-2.997,4.463-2.997,8.926c0,4.464,2.997,4.464,2.997,8.93c0,4.462-2.997,4.462-2.997,8.924c0,4.467,2.997,4.467,2.997,8.933
	c0,4.469-2.997,4.469-2.997,8.938s2.997,4.469,2.997,8.938"/>
<path fill="none" stroke="#c3c3c3" stroke-width="1.5" stroke-linecap="round" stroke-linejoin="round" stroke-miterlimit="10" d="
	M100.58,0.75c0,4.464-2.998,4.464-2.998,8.927s2.998,4.463,2.998,8.926c0,4.459-2.998,4.459-2.998,8.918
	c0,4.462,2.998,4.462,2.998,8.924c0,4.463-2.998,4.463-2.998,8.926c0,4.464,2.998,4.464,2.998,8.929
	c0,4.463-2.998,4.463-2.998,8.926c0,4.464,2.998,4.464,2.998,8.93c0,4.462-2.998,4.462-2.998,8.924c0,4.467,2.998,4.467,2.998,8.933
	c0,4.469-2.998,4.469-2.998,8.938s2.998,4.469,2.998,8.938"/>
<path fill="none" stroke="#c3c3c3" stroke-width="1.5" stroke-linecap="round" stroke-linejoin="round" stroke-miterlimit="10" d="
	M71.062,77.656c-0.475,0.85-0.842,1.864-0.842,3.423c0,4.465,3,4.465,3,8.931c0,1.118-0.189,1.956-0.469,2.654"/>
<path fill="none" stroke="#c3c3c3" stroke-width="1.5" stroke-linecap="round" stroke-linejoin="round" stroke-miterlimit="10" d="
	M73.22,0.75c0,4.464-3,4.464-3,8.927s3,4.463,3,8.926c0,4.459-3,4.459-3,8.918c0,4.462,3,4.462,3,8.924c0,4.463-3,4.463-3,8.926
	c0,4.464,3,4.464,3,8.929c0,4.224-2.687,4.449-2.974,8.246"/>
<path fill="none" stroke="#c3c3c3" stroke-width="1.5" stroke-linecap="round" stroke-linejoin="round" stroke-miterlimit="10" d="
	M79.989,77.656c-0.477,0.85-0.842,1.864-0.842,3.423c0,4.465,2.998,4.465,2.998,8.931c0,1.118-0.187,1.956-0.469,2.654"/>
<path fill="none" stroke="#c3c3c3" stroke-width="1.5" stroke-linecap="round" stroke-linejoin="round" stroke-miterlimit="10" d="
	M82.146,0.75c0,4.464-2.999,4.464-2.999,8.927s2.999,4.463,2.999,8.926c0,4.459-2.999,4.459-2.999,8.918
	c0,4.462,2.999,4.462,2.999,8.924c0,4.463-2.999,4.463-2.999,8.926c0,4.464,2.999,4.464,2.999,8.929
	c0,4.224-2.685,4.449-2.974,8.246"/>
<path fill="none" stroke="#c3c3c3" stroke-width="1.5" stroke-linecap="round" stroke-linejoin="round" stroke-miterlimit="10" d="
	M53.505,32.315c0.67,1.015,1.278,2.118,1.278,4.129c0,4.463-2.997,4.463-2.997,8.927c0,0.819,0.1,1.489,0.265,2.062"/>
<path fill="none" stroke="#c3c3c3" stroke-width="1.5" stroke-linecap="round" stroke-linejoin="round" stroke-miterlimit="10" d="
	M54.783,0.75c0,4.464-2.997,4.464-2.997,8.927c0,3.905,2.295,4.393,2.869,7.443"/>
<path fill="none" stroke="#c3c3c3" stroke-width="1.5" stroke-linecap="round" stroke-linejoin="round" stroke-miterlimit="10" d="
	M62.439,32.324c0.667,1.012,1.272,2.116,1.272,4.12c0,4.463-2.999,4.463-2.999,8.927c0,0.819,0.102,1.489,0.267,2.062"/>
<path fill="none" stroke="#c3c3c3" stroke-width="1.5" stroke-linecap="round" stroke-linejoin="round" stroke-miterlimit="10" d="
	M63.71,0.75c0,4.464-2.999,4.464-2.999,8.927c0,3.905,2.297,4.393,2.871,7.443"/>
<path fill="none" stroke="#c3c3c3" stroke-width="1.5" stroke-linecap="round" stroke-linejoin="round" stroke-miterlimit="10" d="
	M36.35,0.75c0,4.464-2.999,4.464-2.999,8.927c0,3.905,2.295,4.393,2.87,7.443"/>
<path fill="none" stroke="#c3c3c3" stroke-width="1.5" stroke-linecap="round" stroke-linejoin="round" stroke-miterlimit="10" d="
	M45.275,0.75c0,4.464-2.999,4.464-2.999,8.927c0,3.938,2.337,4.4,2.883,7.524"/>
<path fill="none" stroke="#c3c3c3" stroke-width="1.5" stroke-linecap="round" stroke-linejoin="round" stroke-miterlimit="10" d="
	M17.656,2.784c-0.726,2.574-2.74,3.236-2.74,6.892c0,3.906,2.295,4.394,2.869,7.445"/>
<path fill="none" stroke="#c3c3c3" stroke-width="1.5" stroke-linecap="round" stroke-linejoin="round" stroke-miterlimit="10" d="
	M26.84,0.75c0,4.464-2.999,4.464-2.999,8.927c0,3.905,2.297,4.393,2.871,7.443"/>
<line fill="none" stroke="#c3c3c3" stroke-width="1.5" stroke-linecap="round" stroke-linejoin="round" stroke-miterlimit="10" x1="65.486" y1="17.202" x2="65.486" y2="32.314"/>
<line fill="none" stroke="#c3c3c3" stroke-width="1.5" stroke-linecap="round" stroke-linejoin="round" stroke-miterlimit="10" x1="65.486" y1="47.43" x2="65.486" y2="62.544"/>
<line fill="none" stroke="#c3c3c3" stroke-width="1.5" stroke-linecap="round" stroke-linejoin="round" stroke-miterlimit="10" x1="65.486" y1="77.604" x2="65.486" y2="92.717"/>
<line fill="none" stroke="#c3c3c3" stroke-width="1.5" stroke-linecap="round" stroke-linejoin="round" stroke-miterlimit="10" x1="84.852" y1="62.544" x2="84.852" y2="77.658"/>
<line fill="none" stroke="#c3c3c3" stroke-width="1.5" stroke-linecap="round" stroke-linejoin="round" stroke-miterlimit="10" x1="84.852" y1="92.773" x2="84.852" y2="107.888"/>
<line fill="none" stroke="#c3c3c3" stroke-width="1.5" stroke-linecap="round" stroke-linejoin="round" stroke-miterlimit="10" x1="46.247" y1="32.322" x2="46.247" y2="47.436"/>
<line fill="none" stroke="#c3c3c3" stroke-width="1.5" stroke-linecap="round" stroke-linejoin="round" stroke-miterlimit="10" x1="65.486" y1="19.485" x2="69.217" y2="19.485"/>
<line fill="none" stroke="#c3c3c3" stroke-width="1.5" stroke-linecap="round" stroke-linejoin="round" stroke-miterlimit="10" x1="65.486" y1="22.09" x2="69.217" y2="22.09"/>
<line fill="none" stroke="#c3c3c3" stroke-width="1.5" stroke-linecap="round" stroke-linejoin="round" stroke-miterlimit="10" x1="65.486" y1="24.694" x2="69.217" y2="24.694"/>
<line fill="none" stroke="#c3c3c3" stroke-width="1.5" stroke-linecap="round" stroke-linejoin="round" stroke-miterlimit="10" x1="65.486" y1="27.301" x2="69.217" y2="27.301"/>
<line fill="none" stroke="#c3c3c3" stroke-width="1.5" stroke-linecap="round" stroke-linejoin="round" stroke-miterlimit="10" x1="65.486" y1="29.905" x2="69.217" y2="29.905"/>
<line fill="none" stroke="#c3c3c3" stroke-width="1.5" stroke-linecap="round" stroke-linejoin="round" stroke-miterlimit="10" x1="136.097" y1="5.342" x2="145.445" y2="5.342"/>
<line fill="none" stroke="#c3c3c3" stroke-width="1.5" stroke-linecap="round" stroke-linejoin="round" stroke-miterlimit="10" x1="140.949" y1="12.239" x2="149.438" y2="12.239"/>
<line fill="none" stroke="#c3c3c3" stroke-width="1.5" stroke-linecap="round" stroke-linejoin="round" stroke-miterlimit="10" x1="140.949" y1="19.137" x2="149.945" y2="19.137"/>
<line fill="none" stroke="#c3c3c3" stroke-width="1.5" stroke-linecap="round" stroke-linejoin="round" stroke-miterlimit="10" x1="140.949" y1="26.036" x2="149.945" y2="26.036"/>
<line fill="none" stroke="#c3c3c3" stroke-width="1.5" stroke-linecap="round" stroke-linejoin="round" stroke-miterlimit="10" x1="140.949" y1="32.934" x2="149.945" y2="32.934"/>
<line fill="none" stroke="#c3c3c3" stroke-width="1.5" stroke-linecap="round" stroke-linejoin="round" stroke-miterlimit="10" x1="140.949" y1="40.343" x2="149.945" y2="40.343"/>
<line fill="none" stroke="#c3c3c3" stroke-width="1.5" stroke-linecap="round" stroke-linejoin="round" stroke-miterlimit="10" x1="140.949" y1="47.24" x2="149.945" y2="47.24"/>
<line fill="none" stroke="#c3c3c3" stroke-width="1.5" stroke-linecap="round" stroke-linejoin="round" stroke-miterlimit="10" x1="140.949" y1="54.137" x2="149.945" y2="54.137"/>
<line fill="none" stroke="#c3c3c3" stroke-width="1.5" stroke-linecap="round" stroke-linejoin="round" stroke-miterlimit="10" x1="140.949" y1="61.037" x2="149.945" y2="61.037"/>
<line fill="none" stroke="#c3c3c3" stroke-width="1.5" stroke-linecap="round" stroke-linejoin="round" stroke-miterlimit="10" x1="140.949" y1="67.935" x2="149.945" y2="67.935"/>
<line fill="none" stroke="#c3c3c3" stroke-width="1.5" stroke-linecap="round" stroke-linejoin="round" stroke-miterlimit="10" x1="140.949" y1="75.343" x2="149.945" y2="75.343"/>
<line fill="none" stroke="#c3c3c3" stroke-width="1.5" stroke-linecap="round" stroke-linejoin="round" stroke-miterlimit="10" x1="140.949" y1="82.24" x2="149.945" y2="82.24"/>
<line fill="none" stroke="#c3c3c3" stroke-width="1.5" stroke-linecap="round" stroke-linejoin="round" stroke-miterlimit="10" x1="140.949" y1="89.138" x2="149.945" y2="89.138"/>
<line fill="none" stroke="#c3c3c3" stroke-width="1.5" stroke-linecap="round" stroke-linejoin="round" stroke-miterlimit="10" x1="140.949" y1="96.055" x2="149.477" y2="96.023"/>
<line fill="none" stroke="#c3c3c3" stroke-width="1.5" stroke-linecap="round" stroke-linejoin="round" stroke-miterlimit="10" x1="136.102" y1="102.935" x2="145.787" y2="102.935"/>
<line fill="none" stroke="#c3c3c3" stroke-width="1.5" stroke-linecap="round" stroke-linejoin="round" stroke-miterlimit="10" x1="139.193" y1="8.713" x2="144.534" y2="8.713"/>
<line fill="none" stroke="#c3c3c3" stroke-width="1.5" stroke-linecap="round" stroke-linejoin="round" stroke-miterlimit="10" x1="141.255" y1="15.61" x2="146.913" y2="15.61"/>
<line fill="none" stroke="#c3c3c3" stroke-width="1.5" stroke-linecap="round" stroke-linejoin="round" stroke-miterlimit="10" x1="141.255" y1="22.51" x2="146.913" y2="22.51"/>
<line fill="none" stroke="#c3c3c3" stroke-width="1.5" stroke-linecap="round" stroke-linejoin="round" stroke-miterlimit="10" x1="141.255" y1="29.407" x2="146.913" y2="29.407"/>
<line fill="none" stroke="#c3c3c3" stroke-width="1.5" stroke-linecap="round" stroke-linejoin="round" stroke-miterlimit="10" x1="141.255" y1="36.816" x2="146.913" y2="36.816"/>
<line fill="none" stroke="#c3c3c3" stroke-width="1.5" stroke-linecap="round" stroke-linejoin="round" stroke-miterlimit="10" x1="141.255" y1="43.714" x2="146.913" y2="43.714"/>
<line fill="none" stroke="#c3c3c3" stroke-width="1.5" stroke-linecap="round" stroke-linejoin="round" stroke-miterlimit="10" x1="141.255" y1="50.61" x2="146.913" y2="50.61"/>
<line fill="none" stroke="#c3c3c3" stroke-width="1.5" stroke-linecap="round" stroke-linejoin="round" stroke-miterlimit="10" x1="141.255" y1="57.511" x2="146.913" y2="57.511"/>
<line fill="none" stroke="#c3c3c3" stroke-width="1.5" stroke-linecap="round" stroke-linejoin="round" stroke-miterlimit="10" x1="141.255" y1="64.408" x2="146.913" y2="64.408"/>
<line fill="none" stroke="#c3c3c3" stroke-width="1.5" stroke-linecap="round" stroke-linejoin="round" stroke-miterlimit="10" x1="141.255" y1="71.816" x2="146.913" y2="71.816"/>
<line fill="none" stroke="#c3c3c3" stroke-width="1.5" stroke-linecap="round" stroke-linejoin="round" stroke-miterlimit="10" x1="141.255" y1="78.714" x2="146.913" y2="78.714"/>
<line fill="none" stroke="#c3c3c3" stroke-width="1.5" stroke-linecap="round" stroke-linejoin="round" stroke-miterlimit="10" x1="141.255" y1="85.611" x2="146.913" y2="85.611"/>
<line fill="none" stroke="#c3c3c3" stroke-width="1.5" stroke-linecap="round" stroke-linejoin="round" stroke-miterlimit="10" x1="141.255" y1="92.528" x2="146.619" y2="92.497"/>
<line fill="none" stroke="#c3c3c3" stroke-width="1.5" stroke-linecap="round" stroke-linejoin="round" stroke-miterlimit="10" x1="139.265" y1="99.408" x2="145.359" y2="99.408"/>
<line fill="none" stroke="#c3c3c3" stroke-width="1.5" stroke-linecap="round" stroke-linejoin="round" stroke-miterlimit="10" x1="134.451" y1="105.29" x2="137.5" y2="105.29"/>
<line fill="none" stroke="#c3c3c3" stroke-width="1.5" stroke-linecap="round" stroke-linejoin="round" stroke-miterlimit="10" x1="46.172" y1="34.663" x2="49.902" y2="34.663"/>
<line fill="none" stroke="#c3c3c3" stroke-width="1.5" stroke-linecap="round" stroke-linejoin="round" stroke-miterlimit="10" x1="46.172" y1="37.269" x2="49.902" y2="37.269"/>
<line fill="none" stroke="#c3c3c3" stroke-width="1.5" stroke-linecap="round" stroke-linejoin="round" stroke-miterlimit="10" x1="46.172" y1="39.873" x2="49.902" y2="39.873"/>
<line fill="none" stroke="#c3c3c3" stroke-width="1.5" stroke-linecap="round" stroke-linejoin="round" stroke-miterlimit="10" x1="46.172" y1="42.478" x2="49.902" y2="42.478"/>
<line fill="none" stroke="#c3c3c3" stroke-width="1.5" stroke-linecap="round" stroke-linejoin="round" stroke-miterlimit="10" x1="46.172" y1="45.082" x2="49.902" y2="45.082"/>
<line fill="none" stroke="#c3c3c3" stroke-width="1.5" stroke-linecap="round" stroke-linejoin="round" stroke-miterlimit="10" x1="65.486" y1="49.776" x2="69.217" y2="49.776"/>
<line fill="none" stroke="#c3c3c3" stroke-width="1.5" stroke-linecap="round" stroke-linejoin="round" stroke-miterlimit="10" x1="65.486" y1="52.382" x2="69.217" y2="52.382"/>
<line fill="none" stroke="#c3c3c3" stroke-width="1.5" stroke-linecap="round" stroke-linejoin="round" stroke-miterlimit="10" x1="65.486" y1="54.986" x2="69.217" y2="54.986"/>
<line fill="none" stroke="#c3c3c3" stroke-width="1.5" stroke-linecap="round" stroke-linejoin="round" stroke-miterlimit="10" x1="65.486" y1="57.592" x2="69.217" y2="57.592"/>
<line fill="none" stroke="#c3c3c3" stroke-width="1.5" stroke-linecap="round" stroke-linejoin="round" stroke-miterlimit="10" x1="65.486" y1="60.196" x2="69.217" y2="60.196"/>
<line fill="none" stroke="#c3c3c3" stroke-width="1.5" stroke-linecap="round" stroke-linejoin="round" stroke-miterlimit="10" x1="84.852" y1="64.893" x2="88.582" y2="64.893"/>
<line fill="none" stroke="#c3c3c3" stroke-width="1.5" stroke-linecap="round" stroke-linejoin="round" stroke-miterlimit="10" x1="84.852" y1="67.497" x2="88.582" y2="67.497"/>
<line fill="none" stroke="#c3c3c3" stroke-width="1.5" stroke-linecap="round" stroke-linejoin="round" stroke-miterlimit="10" x1="84.852" y1="70.102" x2="88.582" y2="70.102"/>
<line fill="none" stroke="#c3c3c3" stroke-width="1.5" stroke-linecap="round" stroke-linejoin="round" stroke-miterlimit="10" x1="84.852" y1="72.707" x2="88.582" y2="72.707"/>
<line fill="none" stroke="#c3c3c3" stroke-width="1.5" stroke-linecap="round" stroke-linejoin="round" stroke-miterlimit="10" x1="84.852" y1="75.312" x2="88.582" y2="75.312"/>
<line fill="none" stroke="#c3c3c3" stroke-width="1.5" stroke-linecap="round" stroke-linejoin="round" stroke-miterlimit="10" x1="65.486" y1="79.95" x2="69.217" y2="79.95"/>
<line fill="none" stroke="#c3c3c3" stroke-width="1.5" stroke-linecap="round" stroke-linejoin="round" stroke-miterlimit="10" x1="65.486" y1="82.556" x2="69.217" y2="82.556"/>
<line fill="none" stroke="#c3c3c3" stroke-width="1.5" stroke-linecap="round" stroke-linejoin="round" stroke-miterlimit="10" x1="65.486" y1="85.16" x2="69.217" y2="85.16"/>
<line fill="none" stroke="#c3c3c3" stroke-width="1.5" stroke-linecap="round" stroke-linejoin="round" stroke-miterlimit="10" x1="65.486" y1="87.766" x2="69.217" y2="87.766"/>
<line fill="none" stroke="#c3c3c3" stroke-width="1.5" stroke-linecap="round" stroke-linejoin="round" stroke-miterlimit="10" x1="65.486" y1="90.37" x2="69.217" y2="90.37"/>
<line fill="none" stroke="#c3c3c3" stroke-width="1.5" stroke-linecap="round" stroke-linejoin="round" stroke-miterlimit="10" x1="84.852" y1="95.12" x2="88.582" y2="95.12"/>
<line fill="none" stroke="#c3c3c3" stroke-width="1.5" stroke-linecap="round" stroke-linejoin="round" stroke-miterlimit="10" x1="84.852" y1="97.726" x2="88.582" y2="97.726"/>
<line fill="none" stroke="#c3c3c3" stroke-width="1.5" stroke-linecap="round" stroke-linejoin="round" stroke-miterlimit="10" x1="84.852" y1="100.33" x2="88.582" y2="100.33"/>
<line fill="none" stroke="#c3c3c3" stroke-width="1.5" stroke-linecap="round" stroke-linejoin="round" stroke-miterlimit="10" x1="84.852" y1="102.935" x2="88.582" y2="102.935"/>
<line fill="none" stroke="#c3c3c3" stroke-width="1.5" stroke-linecap="round" stroke-linejoin="round" stroke-miterlimit="10" x1="84.852" y1="105.54" x2="88.582" y2="105.54"/>
<line fill="none" stroke="#c3c3c3" stroke-width="1.5" stroke-linecap="round" stroke-linejoin="round" stroke-miterlimit="10" x1="7.199" y1="110.75" x2="157.689" y2="110.75"/>
<line fill="none" stroke="#c3c3c3" stroke-width="1.5" stroke-linecap="round" stroke-linejoin="round" stroke-miterlimit="10" x1="133.45" y1="107.887" x2="165.75" y2="107.887"/>
<line fill="none" stroke="#c3c3c3" stroke-width="1.5" stroke-linecap="round" stroke-linejoin="round" stroke-miterlimit="10" x1="143.323" y1="105.29" x2="159.757" y2="105.29"/>
<line fill="none" stroke="#c3c3c3" stroke-width="1.5" stroke-linecap="round" stroke-linejoin="round" stroke-miterlimit="10" x1="145.787" y1="102.935" x2="152.899" y2="102.935"/>
<path fill="none" stroke="#c3c3c3" stroke-width="1.5" stroke-linecap="round" stroke-linejoin="round" stroke-miterlimit="10" d="
	M110.143,25.024c-0.865,0.894-1.086,3.17-0.211,4.613"/>
<path fill="none" stroke="#c3c3c3" stroke-width="1.5" stroke-linecap="round" stroke-linejoin="round" stroke-miterlimit="10" d="
	M91.549,7.122c-0.867,0.895-1.084,3.169-0.211,4.613"/>
<path fill="none" stroke="#c3c3c3" stroke-width="1.5" stroke-linecap="round" stroke-linejoin="round" stroke-miterlimit="10" d="
	M63.71,7.122c-0.866,0.895-1.084,3.169-0.21,4.613"/>
<path fill="none" stroke="#c3c3c3" stroke-width="1.5" stroke-linecap="round" stroke-linejoin="round" stroke-miterlimit="10" d="
	M26.84,7.122c-0.866,0.895-1.084,3.169-0.21,4.613"/>
<path fill="none" stroke="#c3c3c3" stroke-width="1.5" stroke-linecap="round" stroke-linejoin="round" stroke-miterlimit="10" d="
	M100.582,60.893c-0.867,0.895-1.084,3.17-0.212,4.614"/>
<path fill="none" stroke="#c3c3c3" stroke-width="1.5" stroke-linecap="round" stroke-linejoin="round" stroke-miterlimit="10" d="
	M118.801,42.864c-0.867,0.894-1.086,3.169-0.212,4.614"/>
<path fill="none" stroke="#c3c3c3" stroke-width="1.5" stroke-linecap="round" stroke-linejoin="round" stroke-miterlimit="10" d="
	M91.653,42.864c-0.867,0.894-1.084,3.169-0.21,4.614"/>
<path fill="none" stroke="#c3c3c3" stroke-width="1.5" stroke-linecap="round" stroke-linejoin="round" stroke-miterlimit="10" d="
	M128.523,96.433c-0.867,0.895-1.084,3.171-0.21,4.614"/>
<path fill="none" stroke="#c3c3c3" stroke-width="1.5" stroke-linecap="round" stroke-linejoin="round" stroke-miterlimit="10" d="
	M128.523,60.893c-0.867,0.895-1.084,3.17-0.21,4.614"/>
<path fill="none" stroke="#c3c3c3" stroke-width="1.5" stroke-linecap="round" stroke-linejoin="round" stroke-miterlimit="10" d="
	M118.803,78.588c-0.867,0.894-1.086,3.17-0.212,4.614"/>
<path fill="none" stroke="#c3c3c3" stroke-width="1.5" stroke-linecap="round" stroke-linejoin="round" stroke-miterlimit="10" d="
	M109.99,96.338c-0.866,0.895-1.086,3.17-0.211,4.613"/>
<path fill="none" stroke="#c3c3c3" stroke-width="1.5" stroke-linecap="round" stroke-linejoin="round" stroke-miterlimit="10" d="
	M128.523,7.122c-0.867,0.895-1.084,3.169-0.21,4.613"/>
</svg>
