<?xml version="1.0" encoding="utf-8"?>
<!-- Generator: Adobe Illustrator 15.0.2, SVG Export Plug-In  -->
<!DOCTYPE svg PUBLIC "-//W3C//DTD SVG 1.1//EN" "http://www.w3.org/Graphics/SVG/1.1/DTD/svg11.dtd" [
	<!ENTITY ns_flows "http://ns.adobe.com/Flows/1.0/">
]>
<svg version="1.1"
	 xmlns="http://www.w3.org/2000/svg" xmlns:xlink="http://www.w3.org/1999/xlink" xmlns:a="http://ns.adobe.com/AdobeSVGViewerExtensions/3.0/"
	 x="0px" y="0px" width="163px" height="129px" viewBox="-0.312 -0.429 163 129" enable-background="new -0.312 -0.429 163 129"
	 xml:space="preserve">
<defs>
</defs>
<line fill="none" stroke="#c3c3c3" stroke-width="1.5" stroke-linecap="round" stroke-linejoin="round" stroke-miterlimit="10" x1="96.495" y1="0.75" x2="143.799" y2="0.75"/>
<line fill="none" stroke="#c3c3c3" stroke-width="1.5" stroke-linecap="round" stroke-linejoin="round" stroke-miterlimit="10" x1="64.958" y1="22.979" x2="143.799" y2="22.979"/>
<line fill="none" stroke="#c3c3c3" stroke-width="1.5" stroke-linecap="round" stroke-linejoin="round" stroke-miterlimit="10" x1="80.727" y1="11.865" x2="143.799" y2="11.865"/>
<line fill="none" stroke="#c3c3c3" stroke-width="1.5" stroke-linecap="round" stroke-linejoin="round" stroke-miterlimit="10" x1="33.422" y1="45.207" x2="143.799" y2="45.207"/>
<line fill="none" stroke="#c3c3c3" stroke-width="1.5" stroke-linecap="round" stroke-linejoin="round" stroke-miterlimit="10" x1="18.943" y1="56.322" x2="143.799" y2="56.322"/>
<line fill="none" stroke="#c3c3c3" stroke-width="1.5" stroke-linecap="round" stroke-linejoin="round" stroke-miterlimit="10" x1="18.943" y1="68.636" x2="143.799" y2="68.636"/>
<line fill="none" stroke="#c3c3c3" stroke-width="1.5" stroke-linecap="round" stroke-linejoin="round" stroke-miterlimit="10" x1="18.943" y1="79.75" x2="143.799" y2="79.75"/>
<line fill="none" stroke="#c3c3c3" stroke-width="1.5" stroke-linecap="round" stroke-linejoin="round" stroke-miterlimit="10" x1="18.943" y1="90.864" x2="143.799" y2="90.864"/>
<line fill="none" stroke="#c3c3c3" stroke-width="1.5" stroke-linecap="round" stroke-linejoin="round" stroke-miterlimit="10" x1="18.943" y1="79.75" x2="143.799" y2="79.75"/>
<line fill="none" stroke="#c3c3c3" stroke-width="1.5" stroke-linecap="round" stroke-linejoin="round" stroke-miterlimit="10" x1="18.943" y1="101.979" x2="143.799" y2="101.979"/>
<line fill="none" stroke="#c3c3c3" stroke-width="1.5" stroke-linecap="round" stroke-linejoin="round" stroke-miterlimit="10" x1="18.943" y1="90.864" x2="143.799" y2="90.864"/>
<line fill="none" stroke="#c3c3c3" stroke-width="1.5" stroke-linecap="round" stroke-linejoin="round" stroke-miterlimit="10" x1="18.943" y1="113.093" x2="143.557" y2="113.093"/>
<line fill="none" stroke="#c3c3c3" stroke-width="1.5" stroke-linecap="round" stroke-linejoin="round" stroke-miterlimit="10" x1="18.943" y1="101.979" x2="143.799" y2="101.979"/>
<line fill="none" stroke="#c3c3c3" stroke-width="1.5" stroke-linecap="round" stroke-linejoin="round" stroke-miterlimit="10" x1="49.19" y1="34.093" x2="143.799" y2="34.093"/>
<polyline fill="none" stroke="#c3c3c3" stroke-width="1.5" stroke-linecap="round" stroke-linejoin="round" stroke-miterlimit="10" points="
	143.799,124.207 18.943,124.207 18.943,56.322 "/>
<line fill="none" stroke="#c3c3c3" stroke-width="1.5" stroke-linecap="round" stroke-linejoin="round" stroke-miterlimit="10" x1="33.422" y1="123.378" x2="33.422" y2="113.093"/>
<line fill="none" stroke="#c3c3c3" stroke-width="1.5" stroke-linecap="round" stroke-linejoin="round" stroke-miterlimit="10" x1="64.958" y1="123.378" x2="64.958" y2="113.093"/>
<line fill="none" stroke="#c3c3c3" stroke-width="1.5" stroke-linecap="round" stroke-linejoin="round" stroke-miterlimit="10" x1="96.495" y1="123.378" x2="96.495" y2="113.093"/>
<line fill="none" stroke="#c3c3c3" stroke-width="1.5" stroke-linecap="round" stroke-linejoin="round" stroke-miterlimit="10" x1="128.031" y1="123.378" x2="128.031" y2="113.093"/>
<line fill="none" stroke="#c3c3c3" stroke-width="1.5" stroke-linecap="round" stroke-linejoin="round" stroke-miterlimit="10" x1="49.19" y1="113.093" x2="49.19" y2="102.807"/>
<line fill="none" stroke="#c3c3c3" stroke-width="1.5" stroke-linecap="round" stroke-linejoin="round" stroke-miterlimit="10" x1="80.727" y1="113.093" x2="80.727" y2="102.807"/>
<line fill="none" stroke="#c3c3c3" stroke-width="1.5" stroke-linecap="round" stroke-linejoin="round" stroke-miterlimit="10" x1="112.262" y1="113.093" x2="112.262" y2="102.807"/>
<line fill="none" stroke="#c3c3c3" stroke-width="1.5" stroke-linecap="round" stroke-linejoin="round" stroke-miterlimit="10" x1="49.19" y1="90.864" x2="49.19" y2="80.578"/>
<line fill="none" stroke="#c3c3c3" stroke-width="1.5" stroke-linecap="round" stroke-linejoin="round" stroke-miterlimit="10" x1="80.727" y1="90.864" x2="80.727" y2="80.578"/>
<line fill="none" stroke="#c3c3c3" stroke-width="1.5" stroke-linecap="round" stroke-linejoin="round" stroke-miterlimit="10" x1="112.262" y1="90.864" x2="112.262" y2="80.578"/>
<line fill="none" stroke="#c3c3c3" stroke-width="1.5" stroke-linecap="round" stroke-linejoin="round" stroke-miterlimit="10" x1="49.19" y1="67.642" x2="49.19" y2="57.356"/>
<line fill="none" stroke="#c3c3c3" stroke-width="1.5" stroke-linecap="round" stroke-linejoin="round" stroke-miterlimit="10" x1="80.727" y1="67.642" x2="80.727" y2="57.356"/>
<line fill="none" stroke="#c3c3c3" stroke-width="1.5" stroke-linecap="round" stroke-linejoin="round" stroke-miterlimit="10" x1="112.262" y1="67.642" x2="112.262" y2="57.356"/>
<line fill="none" stroke="#c3c3c3" stroke-width="1.5" stroke-linecap="round" stroke-linejoin="round" stroke-miterlimit="10" x1="49.19" y1="45.207" x2="49.19" y2="34.093"/>
<line fill="none" stroke="#c3c3c3" stroke-width="1.5" stroke-linecap="round" stroke-linejoin="round" stroke-miterlimit="10" x1="80.727" y1="45.207" x2="80.727" y2="34.921"/>
<line fill="none" stroke="#c3c3c3" stroke-width="1.5" stroke-linecap="round" stroke-linejoin="round" stroke-miterlimit="10" x1="112.262" y1="45.207" x2="112.262" y2="34.921"/>
<line fill="none" stroke="#c3c3c3" stroke-width="1.5" stroke-linecap="round" stroke-linejoin="round" stroke-miterlimit="10" x1="80.727" y1="22.979" x2="80.727" y2="11.865"/>
<line fill="none" stroke="#c3c3c3" stroke-width="1.5" stroke-linecap="round" stroke-linejoin="round" stroke-miterlimit="10" x1="112.262" y1="22.979" x2="112.262" y2="12.693"/>
<line fill="none" stroke="#c3c3c3" stroke-width="1.5" stroke-linecap="round" stroke-linejoin="round" stroke-miterlimit="10" x1="33.422" y1="101.362" x2="33.422" y2="91.077"/>
<line fill="none" stroke="#c3c3c3" stroke-width="1.5" stroke-linecap="round" stroke-linejoin="round" stroke-miterlimit="10" x1="64.958" y1="101.362" x2="64.958" y2="91.077"/>
<line fill="none" stroke="#c3c3c3" stroke-width="1.5" stroke-linecap="round" stroke-linejoin="round" stroke-miterlimit="10" x1="96.495" y1="101.362" x2="96.495" y2="91.077"/>
<line fill="none" stroke="#c3c3c3" stroke-width="1.5" stroke-linecap="round" stroke-linejoin="round" stroke-miterlimit="10" x1="128.031" y1="101.362" x2="128.031" y2="91.077"/>
<line fill="none" stroke="#c3c3c3" stroke-width="1.5" stroke-linecap="round" stroke-linejoin="round" stroke-miterlimit="10" x1="33.422" y1="79.75" x2="33.422" y2="69.464"/>
<line fill="none" stroke="#c3c3c3" stroke-width="1.5" stroke-linecap="round" stroke-linejoin="round" stroke-miterlimit="10" x1="64.958" y1="79.75" x2="64.958" y2="69.464"/>
<line fill="none" stroke="#c3c3c3" stroke-width="1.5" stroke-linecap="round" stroke-linejoin="round" stroke-miterlimit="10" x1="96.495" y1="79.75" x2="96.495" y2="69.464"/>
<line fill="none" stroke="#c3c3c3" stroke-width="1.5" stroke-linecap="round" stroke-linejoin="round" stroke-miterlimit="10" x1="128.031" y1="79.75" x2="128.031" y2="69.464"/>
<line fill="none" stroke="#c3c3c3" stroke-width="1.5" stroke-linecap="round" stroke-linejoin="round" stroke-miterlimit="10" x1="33.422" y1="56.322" x2="33.422" y2="45.208"/>
<line fill="none" stroke="#c3c3c3" stroke-width="1.5" stroke-linecap="round" stroke-linejoin="round" stroke-miterlimit="10" x1="64.958" y1="56.322" x2="64.958" y2="46.036"/>
<line fill="none" stroke="#c3c3c3" stroke-width="1.5" stroke-linecap="round" stroke-linejoin="round" stroke-miterlimit="10" x1="96.495" y1="56.322" x2="96.495" y2="46.036"/>
<line fill="none" stroke="#c3c3c3" stroke-width="1.5" stroke-linecap="round" stroke-linejoin="round" stroke-miterlimit="10" x1="128.031" y1="56.322" x2="128.031" y2="46.036"/>
<line fill="none" stroke="#c3c3c3" stroke-width="1.5" stroke-linecap="round" stroke-linejoin="round" stroke-miterlimit="10" x1="64.958" y1="34.027" x2="64.958" y2="22.979"/>
<line fill="none" stroke="#c3c3c3" stroke-width="1.5" stroke-linecap="round" stroke-linejoin="round" stroke-miterlimit="10" x1="96.495" y1="34.027" x2="96.495" y2="23.742"/>
<line fill="none" stroke="#c3c3c3" stroke-width="1.5" stroke-linecap="round" stroke-linejoin="round" stroke-miterlimit="10" x1="128.031" y1="34.027" x2="128.031" y2="23.742"/>
<line fill="none" stroke="#c3c3c3" stroke-width="1.5" stroke-linecap="round" stroke-linejoin="round" stroke-miterlimit="10" x1="96.495" y1="11.036" x2="96.495" y2="0.75"/>
<line fill="none" stroke="#c3c3c3" stroke-width="1.5" stroke-linecap="round" stroke-linejoin="round" stroke-miterlimit="10" x1="128.031" y1="11.036" x2="128.031" y2="0.75"/>
<line fill="none" stroke="#c3c3c3" stroke-width="1.5" stroke-linecap="round" stroke-linejoin="round" stroke-miterlimit="10" x1="18.314" y1="127.751" x2="144.427" y2="127.751"/>
<line fill="none" stroke="#c3c3c3" stroke-width="1.5" stroke-linecap="round" stroke-linejoin="round" stroke-miterlimit="10" x1="6.34" y1="124.207" x2="156.402" y2="124.207"/>
<line fill="none" stroke="#c3c3c3" stroke-width="1.5" stroke-linecap="round" stroke-linejoin="round" stroke-miterlimit="10" x1="12.295" y1="119.94" x2="18.942" y2="119.94"/>
<line fill="none" stroke="#c3c3c3" stroke-width="1.5" stroke-linecap="round" stroke-linejoin="round" stroke-miterlimit="10" x1="147.839" y1="119.94" x2="152.088" y2="119.94"/>
<line fill="none" stroke="#c3c3c3" stroke-width="1.5" stroke-linecap="round" stroke-linejoin="round" stroke-miterlimit="10" x1="143.799" y1="124.207" x2="143.799" y2="0.751"/>
<line fill="none" stroke="#c3c3c3" stroke-width="1.5" stroke-linecap="round" stroke-linejoin="round" stroke-miterlimit="10" x1="68.06" y1="71.753" x2="68.06" y2="76.773"/>
<line fill="none" stroke="#c3c3c3" stroke-width="1.5" stroke-linecap="round" stroke-linejoin="round" stroke-miterlimit="10" x1="115.745" y1="82.723" x2="115.745" y2="87.744"/>
<line fill="none" stroke="#c3c3c3" stroke-width="1.5" stroke-linecap="round" stroke-linejoin="round" stroke-miterlimit="10" x1="99.594" y1="93.989" x2="99.594" y2="99.011"/>
<line fill="none" stroke="#c3c3c3" stroke-width="1.5" stroke-linecap="round" stroke-linejoin="round" stroke-miterlimit="10" x1="52.535" y1="104.937" x2="52.535" y2="109.958"/>
<line fill="none" stroke="#c3c3c3" stroke-width="1.5" stroke-linecap="round" stroke-linejoin="round" stroke-miterlimit="10" x1="131.131" y1="71.683" x2="131.131" y2="76.703"/>
<line fill="none" stroke="#c3c3c3" stroke-width="1.5" stroke-linecap="round" stroke-linejoin="round" stroke-miterlimit="10" x1="131.131" y1="116.122" x2="131.131" y2="121.144"/>
<line fill="none" stroke="#c3c3c3" stroke-width="1.5" stroke-linecap="round" stroke-linejoin="round" stroke-miterlimit="10" x1="36.594" y1="71.753" x2="36.594" y2="76.773"/>
<line fill="none" stroke="#c3c3c3" stroke-width="1.5" stroke-linecap="round" stroke-linejoin="round" stroke-miterlimit="10" x1="67.85" y1="48.668" x2="67.85" y2="53.689"/>
<line fill="none" stroke="#c3c3c3" stroke-width="1.5" stroke-linecap="round" stroke-linejoin="round" stroke-miterlimit="10" x1="115.745" y1="36.813" x2="115.745" y2="41.834"/>
<line fill="none" stroke="#c3c3c3" stroke-width="1.5" stroke-linecap="round" stroke-linejoin="round" stroke-miterlimit="10" x1="52.535" y1="37.14" x2="52.535" y2="42.161"/>
<line fill="none" stroke="#c3c3c3" stroke-width="1.5" stroke-linecap="round" stroke-linejoin="round" stroke-miterlimit="10" x1="99.594" y1="25.955" x2="99.594" y2="30.976"/>
<line fill="none" stroke="#c3c3c3" stroke-width="1.5" stroke-linecap="round" stroke-linejoin="round" stroke-miterlimit="10" x1="131.131" y1="3.832" x2="131.131" y2="8.853"/>
<line fill="none" stroke="#c3c3c3" stroke-width="1.5" stroke-linecap="round" stroke-linejoin="round" stroke-miterlimit="10" x1="68.269" y1="116.143" x2="68.269" y2="121.163"/>
<line fill="none" stroke="#c3c3c3" stroke-width="1.5" stroke-linecap="round" stroke-linejoin="round" stroke-miterlimit="10" x1="147.839" y1="0.75" x2="147.839" y2="124.206"/>
<path fill="none" stroke="#c3c3c3" stroke-width="1.5" stroke-linecap="round" stroke-linejoin="round" stroke-miterlimit="10" d="
	M161.678,123.872c-0.183-0.42-0.676-0.609-1.093-0.424c-0.418,0.185-0.606,0.676-0.421,1.094c0.186,0.42,0.676,0.609,1.09,0.424
	C161.676,124.782,161.865,124.29,161.678,123.872z"/>
<path fill="none" stroke="#c3c3c3" stroke-width="1.5" stroke-linecap="round" stroke-linejoin="round" stroke-miterlimit="10" d="
	M2.336,123.872c-0.183-0.42-0.676-0.609-1.093-0.424c-0.418,0.185-0.607,0.676-0.421,1.094c0.186,0.42,0.675,0.609,1.09,0.424
	C2.333,124.782,2.522,124.29,2.336,123.872z"/>
</svg>
