<?xml version="1.0" encoding="utf-8"?>
<!-- Generator: Adobe Illustrator 15.0.2, SVG Export Plug-In  -->
<!DOCTYPE svg PUBLIC "-//W3C//DTD SVG 1.1//EN" "http://www.w3.org/Graphics/SVG/1.1/DTD/svg11.dtd" [
	<!ENTITY ns_flows "http://ns.adobe.com/Flows/1.0/">
]>
<svg version="1.1"
	 xmlns="http://www.w3.org/2000/svg" xmlns:xlink="http://www.w3.org/1999/xlink" xmlns:a="http://ns.adobe.com/AdobeSVGViewerExtensions/3.0/"
	 x="0px" y="0px" width="179px" height="105px" viewBox="-0.13 0.126 179 105" enable-background="new -0.13 0.126 179 105"
	 xml:space="preserve">
<defs>
</defs>
<polyline fill="none" stroke="#c3c3c3" stroke-width="1.5" stroke-linecap="round" stroke-linejoin="round" stroke-miterlimit="10" points="
	36.835,3.965 142.56,3.965 177.75,90.787 70.636,90.787 36.835,3.965 4.104,90.787 9.567,90.787 "/>
<line fill="none" stroke="#c3c3c3" stroke-width="1.5" stroke-linecap="round" stroke-linejoin="round" stroke-miterlimit="10" x1="75.292" y1="90.787" x2="75.618" y2="103.75"/>
<line fill="none" stroke="#c3c3c3" stroke-width="1.5" stroke-linecap="round" stroke-linejoin="round" stroke-miterlimit="10" x1="171.763" y1="103.75" x2="171.763" y2="90.787"/>
<path fill="none" stroke="#c3c3c3" stroke-width="1.5" stroke-linecap="round" stroke-linejoin="round" stroke-miterlimit="10" d="
	M39.745,10.755c2.301,0,2.301,1.417,4.602,1.417c2.299,0,2.299-1.417,4.599-1.417s2.3,1.417,4.602,1.417c2.3,0,2.3-1.417,4.6-1.417
	s2.3,1.417,4.601,1.417s2.301-1.417,4.601-1.417c2.301,0,2.301,1.417,4.602,1.417c2.3,0,2.3-1.417,4.601-1.417
	s2.301,1.417,4.602,1.417c2.302,0,2.302-1.417,4.604-1.417c2.3,0,2.3,1.417,4.6,1.417c2.299,0,2.299-1.417,4.598-1.417
	c2.302,0,2.302,1.417,4.603,1.417c2.299,0,2.299-1.417,4.599-1.417s2.3,1.417,4.602,1.417s2.302-1.417,4.604-1.417
	c2.301,0,2.301,1.417,4.604,1.417c2.302,0,2.302-1.417,4.604-1.417c2.301,0,2.301,1.417,4.603,1.417
	c2.301,0,2.301-1.417,4.603-1.417c2.303,0,2.303,1.417,4.606,1.417c2.305,0,2.305-1.417,4.609-1.417c2.306,0,2.306,1.417,4.61,1.417
	"/>
<path fill="none" stroke="#c3c3c3" stroke-width="1.5" stroke-linecap="round" stroke-linejoin="round" stroke-miterlimit="10" d="
	M67.681,81.712c2.328,0,2.328,1.417,4.656,1.417c2.326,0,2.326-1.417,4.654-1.417s2.328,1.417,4.656,1.417s2.328-1.417,4.655-1.417
	c2.328,0,2.328,1.417,4.656,1.417c2.327,0,2.327-1.417,4.655-1.417c2.329,0,2.329,1.417,4.657,1.417s2.328-1.417,4.656-1.417
	c2.329,0,2.329,1.417,4.658,1.417c2.328,0,2.328-1.417,4.657-1.417c2.328,0,2.328,1.417,4.657,1.417
	c2.326,0,2.326-1.417,4.653-1.417c2.328,0,2.328,1.417,4.657,1.417c2.326,0,2.326-1.417,4.653-1.417
	c2.329,0,2.329,1.417,4.657,1.417c2.329,0,2.329-1.417,4.659-1.417c2.329,0,2.329,1.417,4.658,1.417c2.33,0,2.33-1.417,4.658-1.417
	c2.329,0,2.329,1.417,4.657,1.417c2.329,0,2.329-1.417,4.658-1.417c2.332,0,2.332,1.417,4.663,1.417
	c2.332,0,2.332-1.417,4.665-1.417s2.333,1.417,4.665,1.417"/>
<path fill="none" stroke="#c3c3c3" stroke-width="1.5" stroke-linecap="round" stroke-linejoin="round" stroke-miterlimit="10" d="
	M62.766,69.886c2.329,0,2.329,1.416,4.657,1.416s2.328-1.416,4.655-1.416c2.329,0,2.329,1.416,4.657,1.416
	c2.329,0,2.329-1.416,4.657-1.416s2.328,1.416,4.657,1.416c2.328,0,2.328-1.416,4.657-1.416c2.328,0,2.328,1.416,4.657,1.416
	s2.329-1.416,4.657-1.416c2.33,0,2.33,1.416,4.659,1.416s2.329-1.416,4.659-1.416c2.329,0,2.329,1.416,4.658,1.416
	c2.326,0,2.326-1.416,4.653-1.416c2.329,0,2.329,1.416,4.658,1.416c2.328,0,2.328-1.416,4.656-1.416
	c2.329,0,2.329,1.416,4.657,1.416c2.33,0,2.33-1.416,4.66-1.416c2.329,0,2.329,1.416,4.659,1.416s2.33-1.416,4.66-1.416
	c2.329,0,2.329,1.416,4.659,1.416c2.329,0,2.329-1.416,4.659-1.416c2.332,0,2.332,1.416,4.663,1.416
	c2.333,0,2.333-1.416,4.667-1.416c2.333,0,2.333,1.416,4.666,1.416"/>
<path fill="none" stroke="#c3c3c3" stroke-width="1.5" stroke-linecap="round" stroke-linejoin="round" stroke-miterlimit="10" d="
	M58.162,58.059c2.316,0,2.316,1.417,4.634,1.417c2.316,0,2.316-1.417,4.632-1.417c2.317,0,2.317,1.417,4.634,1.417
	s2.316-1.417,4.633-1.417s2.316,1.417,4.634,1.417c2.316,0,2.316-1.417,4.633-1.417c2.318,0,2.318,1.417,4.635,1.417
	c2.317,0,2.317-1.417,4.634-1.417c2.317,0,2.317,1.417,4.636,1.417c2.316,0,2.316-1.417,4.635-1.417
	c2.317,0,2.317,1.417,4.633,1.417s2.315-1.417,4.631-1.417c2.317,0,2.317,1.417,4.634,1.417s2.316-1.417,4.633-1.417
	c2.317,0,2.317,1.417,4.635,1.417c2.318,0,2.318-1.417,4.636-1.417c2.318,0,2.318,1.417,4.638,1.417
	c2.317,0,2.317-1.417,4.636-1.417c2.316,0,2.316,1.417,4.635,1.417s2.318-1.417,4.636-1.417c2.32,0,2.32,1.417,4.641,1.417
	s2.32-1.417,4.642-1.417c2.322,0,2.322,1.417,4.643,1.417"/>
<path fill="none" stroke="#c3c3c3" stroke-width="1.5" stroke-linecap="round" stroke-linejoin="round" stroke-miterlimit="10" d="
	M53.557,46.234c2.313,0,2.313,1.417,4.626,1.417c2.311,0,2.311-1.417,4.623-1.417s2.313,1.417,4.626,1.417
	c2.312,0,2.312-1.417,4.625-1.417c2.312,0,2.312,1.417,4.625,1.417c2.313,0,2.313-1.417,4.625-1.417s2.313,1.417,4.627,1.417
	c2.312,0,2.312-1.417,4.625-1.417c2.313,0,2.313,1.417,4.627,1.417c2.313,0,2.313-1.417,4.627-1.417
	c2.313,0,2.313,1.417,4.625,1.417c2.311,0,2.311-1.417,4.622-1.417c2.313,0,2.313,1.417,4.627,1.417
	c2.312,0,2.312-1.417,4.624-1.417s2.313,1.417,4.626,1.417s2.313-1.417,4.628-1.417s2.314,1.417,4.628,1.417
	c2.314,0,2.314-1.417,4.628-1.417c2.314,0,2.314,1.417,4.627,1.417c2.314,0,2.314-1.417,4.627-1.417
	c2.316,0,2.316,1.417,4.632,1.417c2.317,0,2.317-1.417,4.636-1.417c2.316,0,2.316,1.417,4.634,1.417"/>
<path fill="none" stroke="#c3c3c3" stroke-width="1.5" stroke-linecap="round" stroke-linejoin="round" stroke-miterlimit="10" d="
	M49.211,34.408c2.303,0,2.303,1.417,4.606,1.417c2.302,0,2.302-1.417,4.604-1.417s2.303,1.417,4.606,1.417
	c2.303,0,2.303-1.417,4.604-1.417c2.303,0,2.303,1.417,4.606,1.417c2.303,0,2.303-1.417,4.605-1.417
	c2.305,0,2.305,1.417,4.607,1.417s2.303-1.417,4.605-1.417c2.305,0,2.305,1.417,4.608,1.417s2.304-1.417,4.608-1.417
	c2.302,0,2.302,1.417,4.604,1.417c2.302,0,2.302-1.417,4.604-1.417c2.304,0,2.304,1.417,4.606,1.417s2.303-1.417,4.605-1.417
	s2.303,1.417,4.606,1.417c2.305,0,2.305-1.417,4.608-1.417c2.305,0,2.305,1.417,4.608,1.417c2.306,0,2.306-1.417,4.609-1.417
	s2.304,1.417,4.607,1.417c2.305,0,2.305-1.417,4.608-1.417c2.307,0,2.307,1.417,4.612,1.417c2.308,0,2.308-1.417,4.615-1.417
	s2.308,1.417,4.615,1.417"/>
<path fill="none" stroke="#c3c3c3" stroke-width="1.5" stroke-linecap="round" stroke-linejoin="round" stroke-miterlimit="10" d="
	M44.349,22.582c2.312,0,2.312,1.417,4.622,1.417s2.311-1.417,4.62-1.417c2.312,0,2.312,1.417,4.622,1.417
	c2.31,0,2.31-1.417,4.621-1.417c2.31,0,2.31,1.417,4.621,1.417c2.311,0,2.311-1.417,4.622-1.417c2.311,0,2.311,1.417,4.623,1.417
	c2.31,0,2.31-1.417,4.621-1.417s2.312,1.417,4.623,1.417s2.312-1.417,4.624-1.417c2.31,0,2.31,1.417,4.62,1.417
	c2.31,0,2.31-1.417,4.618-1.417c2.313,0,2.313,1.417,4.623,1.417s2.311-1.417,4.62-1.417c2.313,0,2.313,1.417,4.623,1.417
	c2.313,0,2.313-1.417,4.624-1.417c2.313,0,2.313,1.417,4.625,1.417s2.313-1.417,4.624-1.417s2.312,1.417,4.623,1.417
	s2.312-1.417,4.624-1.417c2.314,0,2.314,1.417,4.628,1.417c2.315,0,2.315-1.417,4.631-1.417s2.315,1.417,4.631,1.417"/>
<line fill="none" stroke="#c3c3c3" stroke-width="1.5" stroke-linecap="round" stroke-linejoin="round" stroke-miterlimit="10" x1="129.428" y1="11.464" x2="134.285" y2="23.29"/>
<line fill="none" stroke="#c3c3c3" stroke-width="1.5" stroke-linecap="round" stroke-linejoin="round" stroke-miterlimit="10" x1="107.629" y1="3.965" x2="110.586" y2="11.463"/>
<line fill="none" stroke="#c3c3c3" stroke-width="1.5" stroke-linecap="round" stroke-linejoin="round" stroke-miterlimit="10" x1="60.336" y1="3.965" x2="63.728" y2="12.223"/>
<line fill="none" stroke="#c3c3c3" stroke-width="1.5" stroke-linecap="round" stroke-linejoin="round" stroke-miterlimit="10" x1="111.702" y1="23.819" x2="116.34" y2="35.116"/>
<line fill="none" stroke="#c3c3c3" stroke-width="1.5" stroke-linecap="round" stroke-linejoin="round" stroke-miterlimit="10" x1="94.885" y1="34.35" x2="99.526" y2="45.899"/>
<line fill="none" stroke="#c3c3c3" stroke-width="1.5" stroke-linecap="round" stroke-linejoin="round" stroke-miterlimit="10" x1="122.641" y1="48.345" x2="127.307" y2="59.653"/>
<line fill="none" stroke="#c3c3c3" stroke-width="1.5" stroke-linecap="round" stroke-linejoin="round" stroke-miterlimit="10" x1="142.025" y1="34.35" x2="146.868" y2="45.899"/>
<line fill="none" stroke="#c3c3c3" stroke-width="1.5" stroke-linecap="round" stroke-linejoin="round" stroke-miterlimit="10" x1="75.2" y1="47.759" x2="79.979" y2="59.408"/>
<line fill="none" stroke="#c3c3c3" stroke-width="1.5" stroke-linecap="round" stroke-linejoin="round" stroke-miterlimit="10" x1="103.857" y1="57.878" x2="108.728" y2="69.456"/>
<line fill="none" stroke="#c3c3c3" stroke-width="1.5" stroke-linecap="round" stroke-linejoin="round" stroke-miterlimit="10" x1="116.865" y1="83.081" x2="120.106" y2="90.787"/>
<line fill="none" stroke="#c3c3c3" stroke-width="1.5" stroke-linecap="round" stroke-linejoin="round" stroke-miterlimit="10" x1="159.567" y1="81.759" x2="163.413" y2="90.787"/>
<line fill="none" stroke="#c3c3c3" stroke-width="1.5" stroke-linecap="round" stroke-linejoin="round" stroke-miterlimit="10" x1="149.608" y1="58.769" x2="154.218" y2="69.999"/>
<line fill="none" stroke="#c3c3c3" stroke-width="1.5" stroke-linecap="round" stroke-linejoin="round" stroke-miterlimit="10" x1="133.081" y1="71.724" x2="137.75" y2="83.08"/>
<line fill="none" stroke="#c3c3c3" stroke-width="1.5" stroke-linecap="round" stroke-linejoin="round" stroke-miterlimit="10" x1="90.243" y1="70.594" x2="94.67" y2="81.378"/>
<line fill="none" stroke="#c3c3c3" stroke-width="1.5" stroke-linecap="round" stroke-linejoin="round" stroke-miterlimit="10" x1="72.835" y1="22.52" x2="77.597" y2="34.032"/>
<line fill="none" stroke="#c3c3c3" stroke-width="1.5" stroke-linecap="round" stroke-linejoin="round" stroke-miterlimit="10" x1="90.673" y1="12.512" x2="95.492" y2="24.355"/>
<ellipse fill="none" stroke="#c3c3c3" stroke-width="1.5" stroke-linecap="round" stroke-linejoin="round" stroke-miterlimit="10" cx="39.995" cy="52.82" rx="4.702" ry="10.847"/>
<path fill="none" stroke="#c3c3c3" stroke-width="1.5" stroke-linecap="round" stroke-linejoin="round" stroke-miterlimit="10" d="
	M41.411,63.16c-1.901-1.393-3.277-5.496-3.277-10.34c0-4.847,1.379-8.952,3.281-10.341"/>
<line fill="none" stroke="#c3c3c3" stroke-width="1.5" stroke-linecap="round" stroke-linejoin="round" stroke-miterlimit="10" x1="41.613" y1="42.952" x2="41.613" y2="63.16"/>
<line fill="none" stroke="#c3c3c3" stroke-width="1.5" stroke-linecap="round" stroke-linejoin="round" stroke-miterlimit="10" x1="44.697" y1="52.867" x2="38.528" y2="52.867"/>
<path fill="none" stroke="#c3c3c3" stroke-width="1.5" stroke-linecap="round" stroke-linejoin="round" stroke-miterlimit="10" d="
	M44.789,41.607c-1.295-2.148-2.967-3.447-4.793-3.447c-1.827,0-3.498,1.299-4.794,3.447"/>
<path fill="none" stroke="#c3c3c3" stroke-width="1.5" stroke-linecap="round" stroke-linejoin="round" stroke-miterlimit="10" d="
	M34.789,63.294c1.343,2.586,3.179,4.186,5.207,4.186s3.862-1.6,5.207-4.186"/>
<path fill="none" stroke="#c3c3c3" stroke-width="1.5" stroke-linecap="round" stroke-linejoin="round" stroke-miterlimit="10" d="
	M46.799,58.768c0.411-1.819,0.645-3.829,0.645-5.948c0-2.412-0.3-4.68-0.826-6.687"/>
<path fill="none" stroke="#c3c3c3" stroke-width="1.5" stroke-linecap="round" stroke-linejoin="round" stroke-miterlimit="10" d="
	M33.372,46.133c-0.524,2.007-0.826,4.275-0.826,6.687c0,2.119,0.233,4.129,0.644,5.948"/>
<line fill="none" stroke="#c3c3c3" stroke-width="1.5" stroke-linecap="round" stroke-linejoin="round" stroke-miterlimit="10" x1="76.253" y1="95.149" x2="171.763" y2="95.149"/>
<line fill="none" stroke="#c3c3c3" stroke-width="1.5" stroke-linecap="round" stroke-linejoin="round" stroke-miterlimit="10" x1="76.253" y1="92.989" x2="171.763" y2="92.989"/>
<line fill="none" stroke="#c3c3c3" stroke-width="1.5" stroke-linecap="round" stroke-linejoin="round" stroke-miterlimit="10" x1="76.253" y1="98.449" x2="171.763" y2="98.449"/>
<line fill="none" stroke="#c3c3c3" stroke-width="1.5" stroke-linecap="round" stroke-linejoin="round" stroke-miterlimit="10" x1="76.253" y1="101.748" x2="171.763" y2="101.748"/>
<polyline fill="none" stroke="#c3c3c3" stroke-width="1.5" stroke-linecap="round" stroke-linejoin="round" stroke-miterlimit="10" points="
	38.92,9.32 9.568,87.117 9.568,103.75 "/>
<line fill="none" stroke="#c3c3c3" stroke-width="1.5" stroke-linecap="round" stroke-linejoin="round" stroke-miterlimit="10" x1="35.567" y1="7.426" x2="37.967" y2="7.426"/>
<line fill="none" stroke="#c3c3c3" stroke-width="1.5" stroke-linecap="round" stroke-linejoin="round" stroke-miterlimit="10" x1="34.166" y1="11.141" x2="37.967" y2="11.141"/>
<line fill="none" stroke="#c3c3c3" stroke-width="1.5" stroke-linecap="round" stroke-linejoin="round" stroke-miterlimit="10" x1="32.763" y1="14.854" x2="36.58" y2="14.854"/>
<line fill="none" stroke="#c3c3c3" stroke-width="1.5" stroke-linecap="round" stroke-linejoin="round" stroke-miterlimit="10" x1="31.362" y1="18.569" x2="35.192" y2="18.569"/>
<line fill="none" stroke="#c3c3c3" stroke-width="1.5" stroke-linecap="round" stroke-linejoin="round" stroke-miterlimit="10" x1="29.959" y1="22.282" x2="33.805" y2="22.282"/>
<line fill="none" stroke="#c3c3c3" stroke-width="1.5" stroke-linecap="round" stroke-linejoin="round" stroke-miterlimit="10" x1="28.558" y1="25.997" x2="32.418" y2="25.997"/>
<line fill="none" stroke="#c3c3c3" stroke-width="1.5" stroke-linecap="round" stroke-linejoin="round" stroke-miterlimit="10" x1="27.157" y1="29.71" x2="31.03" y2="29.71"/>
<line fill="none" stroke="#c3c3c3" stroke-width="1.5" stroke-linecap="round" stroke-linejoin="round" stroke-miterlimit="10" x1="25.754" y1="33.425" x2="29.643" y2="33.425"/>
<line fill="none" stroke="#c3c3c3" stroke-width="1.5" stroke-linecap="round" stroke-linejoin="round" stroke-miterlimit="10" x1="24.353" y1="37.138" x2="28.256" y2="37.138"/>
<line fill="none" stroke="#c3c3c3" stroke-width="1.5" stroke-linecap="round" stroke-linejoin="round" stroke-miterlimit="10" x1="22.95" y1="40.853" x2="26.869" y2="40.853"/>
<line fill="none" stroke="#c3c3c3" stroke-width="1.5" stroke-linecap="round" stroke-linejoin="round" stroke-miterlimit="10" x1="21.549" y1="44.566" x2="25.481" y2="44.566"/>
<line fill="none" stroke="#c3c3c3" stroke-width="1.5" stroke-linecap="round" stroke-linejoin="round" stroke-miterlimit="10" x1="20.148" y1="48.281" x2="24.093" y2="48.281"/>
<line fill="none" stroke="#c3c3c3" stroke-width="1.5" stroke-linecap="round" stroke-linejoin="round" stroke-miterlimit="10" x1="18.745" y1="51.995" x2="22.708" y2="51.995"/>
<line fill="none" stroke="#c3c3c3" stroke-width="1.5" stroke-linecap="round" stroke-linejoin="round" stroke-miterlimit="10" x1="17.344" y1="55.708" x2="21.319" y2="55.708"/>
<line fill="none" stroke="#c3c3c3" stroke-width="1.5" stroke-linecap="round" stroke-linejoin="round" stroke-miterlimit="10" x1="15.941" y1="59.423" x2="19.932" y2="59.423"/>
<line fill="none" stroke="#c3c3c3" stroke-width="1.5" stroke-linecap="round" stroke-linejoin="round" stroke-miterlimit="10" x1="14.54" y1="63.136" x2="18.544" y2="63.136"/>
<line fill="none" stroke="#c3c3c3" stroke-width="1.5" stroke-linecap="round" stroke-linejoin="round" stroke-miterlimit="10" x1="13.137" y1="66.851" x2="17.158" y2="66.851"/>
<line fill="none" stroke="#c3c3c3" stroke-width="1.5" stroke-linecap="round" stroke-linejoin="round" stroke-miterlimit="10" x1="11.736" y1="70.564" x2="15.769" y2="70.564"/>
<line fill="none" stroke="#c3c3c3" stroke-width="1.5" stroke-linecap="round" stroke-linejoin="round" stroke-miterlimit="10" x1="10.334" y1="74.279" x2="14.382" y2="74.279"/>
<line fill="none" stroke="#c3c3c3" stroke-width="1.5" stroke-linecap="round" stroke-linejoin="round" stroke-miterlimit="10" x1="8.932" y1="77.992" x2="12.995" y2="77.992"/>
<line fill="none" stroke="#c3c3c3" stroke-width="1.5" stroke-linecap="round" stroke-linejoin="round" stroke-miterlimit="10" x1="7.531" y1="81.707" x2="11.609" y2="81.707"/>
<line fill="none" stroke="#c3c3c3" stroke-width="1.5" stroke-linecap="round" stroke-linejoin="round" stroke-miterlimit="10" x1="6.128" y1="85.419" x2="10.22" y2="85.419"/>
<line fill="none" stroke="#c3c3c3" stroke-width="1.5" stroke-linecap="round" stroke-linejoin="round" stroke-miterlimit="10" x1="4.727" y1="89.134" x2="8.833" y2="89.134"/>
<polyline fill="none" stroke="#c3c3c3" stroke-width="1.5" stroke-linecap="round" stroke-linejoin="round" stroke-miterlimit="10" points="
	40.193,12.59 12.085,87.3 12.085,95.15 "/>
<line fill="none" stroke="#c3c3c3" stroke-width="1.5" stroke-linecap="round" stroke-linejoin="round" stroke-miterlimit="10" x1="145.2" y1="3.756" x2="156.251" y2="31"/>
<path fill="none" stroke="#c3c3c3" stroke-width="1.5" stroke-linecap="round" stroke-linejoin="round" stroke-miterlimit="10" d="
	M10.963,64.851L0.867,91.142c0,0-0.826,2.152,1.922,2.152H5.5"/>
<line fill="none" stroke="#c3c3c3" stroke-width="1.5" stroke-linecap="round" stroke-linejoin="round" stroke-miterlimit="10" x1="36.254" y1="1.478" x2="55.795" y2="1.478"/>
<circle fill="none" stroke="#c3c3c3" stroke-width="1.5" stroke-linecap="round" stroke-linejoin="round" stroke-miterlimit="10" cx="58.727" cy="1.478" r="0.727"/>
<circle fill="none" stroke="#c3c3c3" stroke-width="1.5" stroke-linecap="round" stroke-linejoin="round" stroke-miterlimit="10" cx="157.147" cy="33.187" r="0.624"/>
<circle fill="none" stroke="#c3c3c3" stroke-width="1.5" stroke-linecap="round" stroke-linejoin="round" stroke-miterlimit="10" cx="12.086" cy="97.439" r="0.624"/>
<circle fill="none" stroke="#c3c3c3" stroke-width="1.5" stroke-linecap="round" stroke-linejoin="round" stroke-miterlimit="10" cx="45.864" cy="43.917" r="0.624"/>
<circle fill="none" stroke="#c3c3c3" stroke-width="1.5" stroke-linecap="round" stroke-linejoin="round" stroke-miterlimit="10" cx="34.169" cy="43.917" r="0.624"/>
<circle fill="none" stroke="#c3c3c3" stroke-width="1.5" stroke-linecap="round" stroke-linejoin="round" stroke-miterlimit="10" cx="46.208" cy="60.996" r="0.624"/>
<circle fill="none" stroke="#c3c3c3" stroke-width="1.5" stroke-linecap="round" stroke-linejoin="round" stroke-miterlimit="10" cx="33.781" cy="60.996" r="0.624"/>
</svg>
