<?xml version="1.0" encoding="utf-8"?>
<!-- Generator: Adobe Illustrator 15.0.2, SVG Export Plug-In  -->
<!DOCTYPE svg PUBLIC "-//W3C//DTD SVG 1.1//EN" "http://www.w3.org/Graphics/SVG/1.1/DTD/svg11.dtd" [
	<!ENTITY ns_flows "http://ns.adobe.com/Flows/1.0/">
]>
<svg version="1.1"
	 xmlns="http://www.w3.org/2000/svg" xmlns:xlink="http://www.w3.org/1999/xlink" xmlns:a="http://ns.adobe.com/AdobeSVGViewerExtensions/3.0/"
	 x="0px" y="0px" width="199px" height="123px" viewBox="-0.598 0.268 199 123" enable-background="new -0.598 0.268 199 123"
	 xml:space="preserve">
<defs>
</defs>
<polyline fill="none" stroke="#c3c3c3" stroke-width="1.5" stroke-linecap="round" stroke-linejoin="round" stroke-miterlimit="10" points="
	148.033,41.472 148.033,118.487 16.756,118.487 16.756,41.368 "/>
<path fill="none" stroke="#c3c3c3" stroke-width="1.5" stroke-linecap="round" stroke-linejoin="round" stroke-miterlimit="10" d="
	M163.614,34.456c-0.159-0.596-0.505-1.234-1.071-1.904L150.66,17.908c-2.386-3.101-7.897-5.639-12.288-5.639H27.615
	c-4.39,0-10.008,2.538-12.523,5.639L2.594,32.552c-0.596,0.67-0.967,1.309-1.15,1.904c-0.118,0.189-0.223,0.384-0.313,0.577
	c-1.481,3.21,1.491,5.813,6.645,5.813c5.15,0,10.272-2.604,11.441-5.813c-1.169,3.21,2.061,5.813,7.215,5.813
	c5.148,0,10.018-2.604,10.871-5.813c-0.854,3.21,2.632,5.813,7.78,5.813c5.154,0,9.765-2.604,10.304-5.813
	c-0.539,3.21,3.202,5.813,8.353,5.813c5.153,0,9.509-2.604,9.734-5.813c-0.226,3.21,3.767,5.813,8.921,5.813
	c5.15,0,9.255-2.604,9.166-5.813c0.089,3.21,4.337,5.813,9.488,5.813s9.002-2.604,8.597-5.813c0.405,3.21,4.907,5.813,10.059,5.813
	s8.744-2.604,8.025-5.813c0.719,3.21,5.479,5.813,10.628,5.813c5.154,0,8.491-2.604,7.459-5.813
	c1.032,3.21,6.047,5.813,11.198,5.813c5.15,0,8.234-2.604,6.888-5.813C163.821,34.84,163.725,34.646,163.614,34.456z"/>
<path fill="none" stroke="#c3c3c3" stroke-width="1.5" stroke-linecap="round" stroke-linejoin="round" stroke-miterlimit="10" d="
	M1.131,37.872c-1.481,3.21,1.492,5.813,6.645,5.813c5.149,0,10.273-2.604,11.441-5.813c-1.168,3.21,2.061,5.813,7.214,5.813
	c5.149,0,10.02-2.604,10.871-5.813c-0.852,3.21,2.632,5.813,7.781,5.813c5.154,0,9.764-2.604,10.303-5.813
	c-0.539,3.21,3.203,5.813,8.354,5.813s9.508-2.604,9.732-5.813c-0.225,3.21,3.769,5.813,8.922,5.813c5.15,0,9.255-2.604,9.165-5.813
	c0.09,3.21,4.338,5.813,9.489,5.813s9.001-2.604,8.598-5.813c0.403,3.21,4.905,5.813,10.058,5.813c5.151,0,8.744-2.604,8.026-5.813
	c0.718,3.21,5.479,5.813,10.628,5.813c5.152,0,8.49-2.604,7.459-5.813c1.031,3.21,6.046,5.813,11.196,5.813
	c5.151,0,8.236-2.604,6.889-5.813"/>
<path fill="none" stroke="#c3c3c3" stroke-width="1.5" stroke-linecap="round" stroke-linejoin="round" stroke-miterlimit="10" d="
	M135.255,12.27c-1.504-4.71-5.887-8.119-11.062-8.119H40.596c-5.175,0-9.558,3.409-11.062,8.119"/>
<line fill="none" stroke="#c3c3c3" stroke-width="1.5" stroke-linecap="round" stroke-linejoin="round" stroke-miterlimit="10" x1="91.561" y1="35.033" x2="90.884" y2="17.762"/>
<line fill="none" stroke="#c3c3c3" stroke-width="1.5" stroke-linecap="round" stroke-linejoin="round" stroke-miterlimit="10" x1="73.473" y1="35.033" x2="74.422" y2="17.762"/>
<line fill="none" stroke="#c3c3c3" stroke-width="1.5" stroke-linecap="round" stroke-linejoin="round" stroke-miterlimit="10" x1="19.217" y1="35.033" x2="31.977" y2="17.762"/>
<line fill="none" stroke="#c3c3c3" stroke-width="1.5" stroke-linecap="round" stroke-linejoin="round" stroke-miterlimit="10" x1="145.816" y1="35.033" x2="133.057" y2="17.762"/>
<line fill="none" stroke="#c3c3c3" stroke-width="1.5" stroke-linecap="round" stroke-linejoin="round" stroke-miterlimit="10" x1="127.729" y1="35.033" x2="119.908" y2="17.762"/>
<line fill="none" stroke="#c3c3c3" stroke-width="1.5" stroke-linecap="round" stroke-linejoin="round" stroke-miterlimit="10" x1="37.302" y1="35.033" x2="45.123" y2="17.762"/>
<line fill="none" stroke="#c3c3c3" stroke-width="1.5" stroke-linecap="round" stroke-linejoin="round" stroke-miterlimit="10" x1="55.386" y1="35.033" x2="59.17" y2="17.762"/>
<line fill="none" stroke="#c3c3c3" stroke-width="1.5" stroke-linecap="round" stroke-linejoin="round" stroke-miterlimit="10" x1="109.646" y1="35.033" x2="105.861" y2="17.762"/>
<polyline fill="none" stroke="#c3c3c3" stroke-width="1.5" stroke-linecap="round" stroke-linejoin="round" stroke-miterlimit="10" points="
	100.972,44.288 100.972,118.488 136.748,118.488 136.748,43.896 "/>
<path fill="none" stroke="#c3c3c3" stroke-width="1.5" stroke-linecap="round" stroke-linejoin="round" stroke-miterlimit="10" d="
	M131.364,46.165v40.294c0,2.612-2.103,4.731-4.696,4.731h-16.109c-2.595,0-4.697-2.119-4.697-4.731V46.165H131.364z"/>
<rect x="110.917" y="62.07" fill="none" stroke="#c3c3c3" stroke-width="1.5" stroke-linecap="round" stroke-linejoin="round" stroke-miterlimit="10" width="15.737" height="6.362"/>
<polyline fill="none" stroke="#c3c3c3" stroke-width="1.5" stroke-linecap="round" stroke-linejoin="round" stroke-miterlimit="10" points="
	112.828,62.071 119.074,57.831 124.595,62.071 "/>
<line fill="none" stroke="#c3c3c3" stroke-width="1.5" stroke-linecap="round" stroke-linejoin="round" stroke-miterlimit="10" x1="113.035" y1="65.252" x2="124.595" y2="65.252"/>
<line fill="none" stroke="#c3c3c3" stroke-width="1.5" stroke-linecap="round" stroke-linejoin="round" stroke-miterlimit="10" x1="133.953" y1="82.25" x2="133.953" y2="86.329"/>
<polyline fill="none" stroke="#c3c3c3" stroke-width="1.5" stroke-linecap="round" stroke-linejoin="round" stroke-miterlimit="10" points="
	28.523,43.685 28.523,95.541 100.972,95.541 "/>
<rect x="45.447" y="86.328" fill="none" stroke="#c3c3c3" stroke-width="1.5" stroke-linecap="round" stroke-linejoin="round" stroke-miterlimit="10" width="6.17" height="9.213"/>
<rect x="54.27" y="86.328" fill="none" stroke="#c3c3c3" stroke-width="1.5" stroke-linecap="round" stroke-linejoin="round" stroke-miterlimit="10" width="6.17" height="9.213"/>
<rect x="49.646" y="77.116" fill="none" stroke="#c3c3c3" stroke-width="1.5" stroke-linecap="round" stroke-linejoin="round" stroke-miterlimit="10" width="6.17" height="9.212"/>
<rect x="45.159" y="67.904" fill="none" stroke="#c3c3c3" stroke-width="1.5" stroke-linecap="round" stroke-linejoin="round" stroke-miterlimit="10" width="6.17" height="9.212"/>
<rect x="41.038" y="77.116" fill="none" stroke="#c3c3c3" stroke-width="1.5" stroke-linecap="round" stroke-linejoin="round" stroke-miterlimit="10" width="6.17" height="9.212"/>
<rect x="36.676" y="86.328" fill="none" stroke="#c3c3c3" stroke-width="1.5" stroke-linecap="round" stroke-linejoin="round" stroke-miterlimit="10" width="6.17" height="9.213"/>
<path fill="none" stroke="#c3c3c3" stroke-width="1.5" stroke-linecap="round" stroke-linejoin="round" stroke-miterlimit="10" d="
	M92.039,78.765v-4.405h-2.313v4.405c0,0-4.641,2.118-4.641,4.73V95.54h11.596V83.495C96.682,80.883,92.039,78.765,92.039,78.765z"/>
<path fill="none" stroke="#c3c3c3" stroke-width="1.5" stroke-linecap="round" stroke-linejoin="round" stroke-miterlimit="10" d="
	M77.752,78.765v-4.405h-2.313v4.405c0,0-4.641,2.118-4.641,4.73V95.54h11.596V83.495C82.395,80.883,77.752,78.765,77.752,78.765z"/>
<rect x="154.556" y="84.29" fill="none" stroke="#c3c3c3" stroke-width="1.5" stroke-linecap="round" stroke-linejoin="round" stroke-miterlimit="10" width="39.895" height="19.34"/>
<line fill="none" stroke="#c3c3c3" stroke-width="1.5" stroke-linecap="round" stroke-linejoin="round" stroke-miterlimit="10" x1="154.556" y1="118.488" x2="154.556" y2="103.63"/>
<line fill="none" stroke="#c3c3c3" stroke-width="1.5" stroke-linecap="round" stroke-linejoin="round" stroke-miterlimit="10" x1="194.45" y1="118.488" x2="194.45" y2="103.63"/>
<line fill="none" stroke="#c3c3c3" stroke-width="1.5" stroke-linecap="round" stroke-linejoin="round" stroke-miterlimit="10" x1="163.461" y1="84.29" x2="163.461" y2="97.686"/>
<line fill="none" stroke="#c3c3c3" stroke-width="1.5" stroke-linecap="round" stroke-linejoin="round" stroke-miterlimit="10" x1="180.084" y1="84.29" x2="180.084" y2="97.686"/>
<line fill="none" stroke="#c3c3c3" stroke-width="1.5" stroke-linecap="round" stroke-linejoin="round" stroke-miterlimit="10" x1="155" y1="97.686" x2="194.45" y2="97.686"/>
<line fill="none" stroke="#c3c3c3" stroke-width="1.5" stroke-linecap="round" stroke-linejoin="round" stroke-miterlimit="10" x1="16.756" y1="112.529" x2="100.973" y2="112.529"/>
<line fill="none" stroke="#c3c3c3" stroke-width="1.5" stroke-linecap="round" stroke-linejoin="round" stroke-miterlimit="10" x1="136.748" y1="112.529" x2="147.97" y2="112.529"/>
<line fill="none" stroke="#c3c3c3" stroke-width="1.5" stroke-linecap="round" stroke-linejoin="round" stroke-miterlimit="10" x1="28.523" y1="98.059" x2="100.972" y2="98.059"/>
<line fill="none" stroke="#c3c3c3" stroke-width="1.5" stroke-linecap="round" stroke-linejoin="round" stroke-miterlimit="10" x1="16.756" y1="121.751" x2="154.555" y2="121.751"/>
<line fill="none" stroke="#c3c3c3" stroke-width="1.5" stroke-linecap="round" stroke-linejoin="round" stroke-miterlimit="10" x1="146.617" y1="118.488" x2="163.46" y2="118.488"/>
<line fill="none" stroke="#c3c3c3" stroke-width="1.5" stroke-linecap="round" stroke-linejoin="round" stroke-miterlimit="10" x1="2.854" y1="118.488" x2="16.756" y2="118.488"/>
<line fill="none" stroke="#c3c3c3" stroke-width="1.5" stroke-linecap="round" stroke-linejoin="round" stroke-miterlimit="10" x1="10.078" y1="115.728" x2="16.757" y2="115.728"/>
<line fill="none" stroke="#c3c3c3" stroke-width="1.5" stroke-linecap="round" stroke-linejoin="round" stroke-miterlimit="10" x1="147.97" y1="115.728" x2="155" y2="115.728"/>
<line fill="none" stroke="#c3c3c3" stroke-width="1.5" stroke-linecap="round" stroke-linejoin="round" stroke-miterlimit="10" x1="186.776" y1="118.488" x2="197.75" y2="118.488"/>
<line fill="none" stroke="#c3c3c3" stroke-width="1.5" stroke-linecap="round" stroke-linejoin="round" stroke-miterlimit="10" x1="94.375" y1="83.814" x2="94.375" y2="95.183"/>
<line fill="none" stroke="#c3c3c3" stroke-width="1.5" stroke-linecap="round" stroke-linejoin="round" stroke-miterlimit="10" x1="80.088" y1="83.814" x2="80.088" y2="95.183"/>
<line fill="none" stroke="#c3c3c3" stroke-width="1.5" stroke-linecap="round" stroke-linejoin="round" stroke-miterlimit="10" x1="58.243" y1="88.56" x2="58.243" y2="95.182"/>
<line fill="none" stroke="#c3c3c3" stroke-width="1.5" stroke-linecap="round" stroke-linejoin="round" stroke-miterlimit="10" x1="49.442" y1="88.56" x2="49.442" y2="95.182"/>
<line fill="none" stroke="#c3c3c3" stroke-width="1.5" stroke-linecap="round" stroke-linejoin="round" stroke-miterlimit="10" x1="49.442" y1="70.257" x2="49.442" y2="76.879"/>
<line fill="none" stroke="#c3c3c3" stroke-width="1.5" stroke-linecap="round" stroke-linejoin="round" stroke-miterlimit="10" x1="40.643" y1="88.56" x2="40.643" y2="95.182"/>
<line fill="none" stroke="#c3c3c3" stroke-width="1.5" stroke-linecap="round" stroke-linejoin="round" stroke-miterlimit="10" x1="53.377" y1="79.382" x2="53.377" y2="86.004"/>
<line fill="none" stroke="#c3c3c3" stroke-width="1.5" stroke-linecap="round" stroke-linejoin="round" stroke-miterlimit="10" x1="44.869" y1="79.382" x2="44.869" y2="86.004"/>
<line fill="none" stroke="#c3c3c3" stroke-width="1.5" stroke-linecap="round" stroke-linejoin="round" stroke-miterlimit="10" x1="28.892" y1="92.783" x2="36.676" y2="92.783"/>
<line fill="none" stroke="#c3c3c3" stroke-width="1.5" stroke-linecap="round" stroke-linejoin="round" stroke-miterlimit="10" x1="60.439" y1="92.783" x2="70.8" y2="92.783"/>
<line fill="none" stroke="#c3c3c3" stroke-width="1.5" stroke-linecap="round" stroke-linejoin="round" stroke-miterlimit="10" x1="52.175" y1="92.783" x2="54.27" y2="92.783"/>
<line fill="none" stroke="#c3c3c3" stroke-width="1.5" stroke-linecap="round" stroke-linejoin="round" stroke-miterlimit="10" x1="43.077" y1="92.783" x2="45.172" y2="92.783"/>
<line fill="none" stroke="#c3c3c3" stroke-width="1.5" stroke-linecap="round" stroke-linejoin="round" stroke-miterlimit="10" x1="82.395" y1="92.783" x2="85.086" y2="92.783"/>
<line fill="none" stroke="#c3c3c3" stroke-width="1.5" stroke-linecap="round" stroke-linejoin="round" stroke-miterlimit="10" x1="96.682" y1="92.783" x2="100.972" y2="92.783"/>
<line fill="none" stroke="#c3c3c3" stroke-width="1.5" stroke-linecap="round" stroke-linejoin="round" stroke-miterlimit="10" x1="157.242" y1="87.117" x2="160.79" y2="87.117"/>
<line fill="none" stroke="#c3c3c3" stroke-width="1.5" stroke-linecap="round" stroke-linejoin="round" stroke-miterlimit="10" x1="157.242" y1="90.809" x2="160.79" y2="90.809"/>
<line fill="none" stroke="#c3c3c3" stroke-width="1.5" stroke-linecap="round" stroke-linejoin="round" stroke-miterlimit="10" x1="157.242" y1="94.499" x2="160.79" y2="94.499"/>
<line fill="none" stroke="#c3c3c3" stroke-width="1.5" stroke-linecap="round" stroke-linejoin="round" stroke-miterlimit="10" x1="166.199" y1="87.117" x2="177.309" y2="87.117"/>
<line fill="none" stroke="#c3c3c3" stroke-width="1.5" stroke-linecap="round" stroke-linejoin="round" stroke-miterlimit="10" x1="166.199" y1="90.809" x2="177.309" y2="90.809"/>
<line fill="none" stroke="#c3c3c3" stroke-width="1.5" stroke-linecap="round" stroke-linejoin="round" stroke-miterlimit="10" x1="166.199" y1="94.499" x2="177.309" y2="94.499"/>
<line fill="none" stroke="#c3c3c3" stroke-width="1.5" stroke-linecap="round" stroke-linejoin="round" stroke-miterlimit="10" x1="182.775" y1="87.117" x2="191.791" y2="87.117"/>
<line fill="none" stroke="#c3c3c3" stroke-width="1.5" stroke-linecap="round" stroke-linejoin="round" stroke-miterlimit="10" x1="182.775" y1="90.809" x2="191.791" y2="90.809"/>
<line fill="none" stroke="#c3c3c3" stroke-width="1.5" stroke-linecap="round" stroke-linejoin="round" stroke-miterlimit="10" x1="182.775" y1="94.499" x2="191.791" y2="94.499"/>
<ellipse fill="none" stroke="#c3c3c3" stroke-width="1.5" stroke-linecap="round" stroke-linejoin="round" stroke-miterlimit="10" cx="159.017" cy="80.756" rx="0.822" ry="0.828"/>
<ellipse fill="none" stroke="#c3c3c3" stroke-width="1.5" stroke-linecap="round" stroke-linejoin="round" stroke-miterlimit="10" cx="171.755" cy="80.756" rx="0.821" ry="0.828"/>
<ellipse fill="none" stroke="#c3c3c3" stroke-width="1.5" stroke-linecap="round" stroke-linejoin="round" stroke-miterlimit="10" cx="62.332" cy="1.459" rx="0.705" ry="0.71"/>
<ellipse fill="none" stroke="#c3c3c3" stroke-width="1.5" stroke-linecap="round" stroke-linejoin="round" stroke-miterlimit="10" cx="102.605" cy="1.459" rx="0.705" ry="0.71"/>
<ellipse fill="none" stroke="#c3c3c3" stroke-width="1.5" stroke-linecap="round" stroke-linejoin="round" stroke-miterlimit="10" cx="187.284" cy="80.756" rx="0.821" ry="0.828"/>
<line fill="none" stroke="#c3c3c3" stroke-width="1.5" stroke-linecap="round" stroke-linejoin="round" stroke-miterlimit="10" x1="29.555" y1="43.685" x2="52.731" y2="62.07"/>
<path fill="none" stroke="#c3c3c3" stroke-width="1.5" stroke-linecap="round" stroke-linejoin="round" stroke-miterlimit="10" d="
	M45.844,51.999C45.699,51.991,65.79,67.904,65.79,67.904"/>
<line fill="none" stroke="#c3c3c3" stroke-width="1.5" stroke-linecap="round" stroke-linejoin="round" stroke-miterlimit="10" x1="64.131" y1="60.159" x2="68.926" y2="63.982"/>
<line fill="none" stroke="#c3c3c3" stroke-width="1.5" stroke-linecap="round" stroke-linejoin="round" stroke-miterlimit="10" x1="77.69" y1="48.515" x2="82.485" y2="52.338"/>
<line fill="none" stroke="#c3c3c3" stroke-width="1.5" stroke-linecap="round" stroke-linejoin="round" stroke-miterlimit="10" x1="96.177" y1="71.656" x2="100.972" y2="75.479"/>
<line fill="none" stroke="#c3c3c3" stroke-width="1.5" stroke-linecap="round" stroke-linejoin="round" stroke-miterlimit="10" x1="28.892" y1="63.341" x2="33.687" y2="67.164"/>
<path fill="none" stroke="#c3c3c3" stroke-width="1.5" stroke-linecap="round" stroke-linejoin="round" stroke-miterlimit="10" d="
	M58.243,42.473c-0.145-0.009,19.946,15.905,19.946,15.905"/>
<line fill="none" stroke="#c3c3c3" stroke-width="1.5" stroke-linecap="round" stroke-linejoin="round" stroke-miterlimit="10" x1="77.479" y1="53.296" x2="92.474" y2="65.252"/>
<path fill="none" stroke="#c3c3c3" stroke-width="1.5" stroke-linecap="round" stroke-linejoin="round" stroke-miterlimit="10" d="
	M86.968,42.927c-0.144-0.008,14.004,11.19,14.004,11.19"/>
<path fill="none" stroke="#c3c3c3" stroke-width="1.5" stroke-linecap="round" stroke-linejoin="round" stroke-miterlimit="10" d="
	M132.701,4.032c-2.104-1.595-4.94-2.572-8.066-2.572h-19.311"/>
<path fill="none" stroke="#c3c3c3" stroke-width="1.5" stroke-linecap="round" stroke-linejoin="round" stroke-miterlimit="10" d="
	M59.68,1.459H40.144c-3.015,0-5.762,0.911-7.841,2.407"/>
</svg>
