<?xml version="1.0" encoding="utf-8"?>
<!-- Generator: Adobe Illustrator 15.0.2, SVG Export Plug-In  -->
<!DOCTYPE svg PUBLIC "-//W3C//DTD SVG 1.1//EN" "http://www.w3.org/Graphics/SVG/1.1/DTD/svg11.dtd" [
	<!ENTITY ns_flows "http://ns.adobe.com/Flows/1.0/">
]>
<svg version="1.1"
	 xmlns="http://www.w3.org/2000/svg" xmlns:xlink="http://www.w3.org/1999/xlink" xmlns:a="http://ns.adobe.com/AdobeSVGViewerExtensions/3.0/"
	 x="0px" y="0px" width="165px" height="139px" viewBox="0.068 -0.679 165 139" enable-background="new 0.068 -0.679 165 139"
	 xml:space="preserve">
<defs>
</defs>
<line fill="none" stroke="#c3c3c3" stroke-width="1.5" stroke-linecap="round" stroke-linejoin="round" stroke-miterlimit="10" x1="54.419" y1="0.75" x2="63.364" y2="0.75"/>
<line fill="none" stroke="#c3c3c3" stroke-width="1.5" stroke-linecap="round" stroke-linejoin="round" stroke-miterlimit="10" x1="111.857" y1="20.779" x2="111.857" y2="133.905"/>
<line fill="none" stroke="#c3c3c3" stroke-width="1.5" stroke-linecap="round" stroke-linejoin="round" stroke-miterlimit="10" x1="51.093" y1="20.739" x2="111.857" y2="20.739"/>
<line fill="none" stroke="#c3c3c3" stroke-width="1.5" stroke-linecap="round" stroke-linejoin="round" stroke-miterlimit="10" x1="51.093" y1="48.729" x2="111.857" y2="48.729"/>
<line fill="none" stroke="#c3c3c3" stroke-width="1.5" stroke-linecap="round" stroke-linejoin="round" stroke-miterlimit="10" x1="51.093" y1="76.668" x2="111.857" y2="76.668"/>
<line fill="none" stroke="#c3c3c3" stroke-width="1.5" stroke-linecap="round" stroke-linejoin="round" stroke-miterlimit="10" x1="51.093" y1="105.785" x2="111.857" y2="105.785"/>
<line fill="none" stroke="#c3c3c3" stroke-width="1.5" stroke-linecap="round" stroke-linejoin="round" stroke-miterlimit="10" x1="9.401" y1="14.363" x2="9.401" y2="133.905"/>
<line fill="none" stroke="#c3c3c3" stroke-width="1.5" stroke-linecap="round" stroke-linejoin="round" stroke-miterlimit="10" x1="51.093" y1="20.779" x2="51.093" y2="133.905"/>
<line fill="none" stroke="#c3c3c3" stroke-width="1.5" stroke-linecap="round" stroke-linejoin="round" stroke-miterlimit="10" x1="9.401" y1="20.739" x2="51.093" y2="20.739"/>
<line fill="none" stroke="#c3c3c3" stroke-width="1.5" stroke-linecap="round" stroke-linejoin="round" stroke-miterlimit="10" x1="9.401" y1="48.729" x2="51.093" y2="48.729"/>
<line fill="none" stroke="#c3c3c3" stroke-width="1.5" stroke-linecap="round" stroke-linejoin="round" stroke-miterlimit="10" x1="9.401" y1="76.668" x2="51.093" y2="76.668"/>
<line fill="none" stroke="#c3c3c3" stroke-width="1.5" stroke-linecap="round" stroke-linejoin="round" stroke-miterlimit="10" x1="9.401" y1="105.785" x2="51.093" y2="105.785"/>
<line fill="none" stroke="#c3c3c3" stroke-width="1.5" stroke-linecap="round" stroke-linejoin="round" stroke-miterlimit="10" x1="0.75" y1="133.905" x2="163.75" y2="133.905"/>
<line fill="none" stroke="#c3c3c3" stroke-width="1.5" stroke-linecap="round" stroke-linejoin="round" stroke-miterlimit="10" x1="155.104" y1="129.397" x2="160.941" y2="129.397"/>
<line fill="none" stroke="#c3c3c3" stroke-width="1.5" stroke-linecap="round" stroke-linejoin="round" stroke-miterlimit="10" x1="3.784" y1="129.397" x2="9.398" y2="129.397"/>
<line fill="none" stroke="#c3c3c3" stroke-width="1.5" stroke-linecap="round" stroke-linejoin="round" stroke-miterlimit="10" x1="9.397" y1="137.75" x2="155.104" y2="137.75"/>
<line fill="none" stroke="#c3c3c3" stroke-width="1.5" stroke-linecap="round" stroke-linejoin="round" stroke-miterlimit="10" x1="155.104" y1="14.363" x2="155.104" y2="133.905"/>
<line fill="none" stroke="#c3c3c3" stroke-width="1.5" stroke-linecap="round" stroke-linejoin="round" stroke-miterlimit="10" x1="155.104" y1="20.739" x2="111.857" y2="20.739"/>
<line fill="none" stroke="#c3c3c3" stroke-width="1.5" stroke-linecap="round" stroke-linejoin="round" stroke-miterlimit="10" x1="155.104" y1="48.729" x2="111.857" y2="48.729"/>
<line fill="none" stroke="#c3c3c3" stroke-width="1.5" stroke-linecap="round" stroke-linejoin="round" stroke-miterlimit="10" x1="155.104" y1="76.668" x2="111.857" y2="76.668"/>
<line fill="none" stroke="#c3c3c3" stroke-width="1.5" stroke-linecap="round" stroke-linejoin="round" stroke-miterlimit="10" x1="155.104" y1="105.785" x2="111.857" y2="105.785"/>
<rect x="53.854" y="119.788" fill="none" stroke="#c3c3c3" stroke-width="1.5" stroke-linecap="round" stroke-linejoin="round" stroke-miterlimit="10" width="23.408" height="14.117"/>
<line fill="none" stroke="#c3c3c3" stroke-width="1.5" stroke-linecap="round" stroke-linejoin="round" stroke-miterlimit="10" x1="53.853" y1="119.788" x2="77.261" y2="133.905"/>
<line fill="none" stroke="#c3c3c3" stroke-width="1.5" stroke-linecap="round" stroke-linejoin="round" stroke-miterlimit="10" x1="77.261" y1="119.788" x2="53.853" y2="133.905"/>
<rect x="127.875" y="109.711" fill="none" stroke="#c3c3c3" stroke-width="1.5" stroke-linecap="round" stroke-linejoin="round" stroke-miterlimit="10" width="23.409" height="24.194"/>
<line fill="none" stroke="#c3c3c3" stroke-width="1.5" stroke-linecap="round" stroke-linejoin="round" stroke-miterlimit="10" x1="127.876" y1="109.711" x2="151.285" y2="133.905"/>
<line fill="none" stroke="#c3c3c3" stroke-width="1.5" stroke-linecap="round" stroke-linejoin="round" stroke-miterlimit="10" x1="151.285" y1="109.711" x2="127.875" y2="133.905"/>
<rect x="12.792" y="38.062" fill="none" stroke="#c3c3c3" stroke-width="1.5" stroke-linecap="round" stroke-linejoin="round" stroke-miterlimit="10" width="9.536" height="10.752"/>
<line fill="none" stroke="#c3c3c3" stroke-width="1.5" stroke-linecap="round" stroke-linejoin="round" stroke-miterlimit="10" x1="12.792" y1="38.062" x2="22.327" y2="48.813"/>
<line fill="none" stroke="#c3c3c3" stroke-width="1.5" stroke-linecap="round" stroke-linejoin="round" stroke-miterlimit="10" x1="22.327" y1="38.062" x2="12.792" y2="48.813"/>
<rect x="43.109" y="12.852" fill="none" stroke="#c3c3c3" stroke-width="1.5" stroke-linecap="round" stroke-linejoin="round" stroke-miterlimit="10" width="7.706" height="7.202"/>
<line fill="none" stroke="#c3c3c3" stroke-width="1.5" stroke-linecap="round" stroke-linejoin="round" stroke-miterlimit="10" x1="43.109" y1="12.853" x2="50.815" y2="20.054"/>
<line fill="none" stroke="#c3c3c3" stroke-width="1.5" stroke-linecap="round" stroke-linejoin="round" stroke-miterlimit="10" x1="50.815" y1="12.853" x2="43.11" y2="20.054"/>
<rect x="53.853" y="111.16" fill="none" stroke="#c3c3c3" stroke-width="1.5" stroke-linecap="round" stroke-linejoin="round" stroke-miterlimit="10" width="16.201" height="8.628"/>
<line fill="none" stroke="#c3c3c3" stroke-width="1.5" stroke-linecap="round" stroke-linejoin="round" stroke-miterlimit="10" x1="53.853" y1="111.16" x2="70.054" y2="119.789"/>
<line fill="none" stroke="#c3c3c3" stroke-width="1.5" stroke-linecap="round" stroke-linejoin="round" stroke-miterlimit="10" x1="70.054" y1="111.16" x2="53.853" y2="119.789"/>
<rect x="91.232" y="11.88" fill="none" stroke="#c3c3c3" stroke-width="1.5" stroke-linecap="round" stroke-linejoin="round" stroke-miterlimit="10" width="16.02" height="8.645"/>
<line fill="none" stroke="#c3c3c3" stroke-width="1.5" stroke-linecap="round" stroke-linejoin="round" stroke-miterlimit="10" x1="91.232" y1="11.88" x2="107.252" y2="20.523"/>
<line fill="none" stroke="#c3c3c3" stroke-width="1.5" stroke-linecap="round" stroke-linejoin="round" stroke-miterlimit="10" x1="107.252" y1="11.88" x2="91.232" y2="20.523"/>
<rect x="141.121" y="65.774" fill="none" stroke="#c3c3c3" stroke-width="1.5" stroke-linecap="round" stroke-linejoin="round" stroke-miterlimit="10" width="9.536" height="10.75"/>
<line fill="none" stroke="#c3c3c3" stroke-width="1.5" stroke-linecap="round" stroke-linejoin="round" stroke-miterlimit="10" x1="141.121" y1="65.773" x2="150.657" y2="76.523"/>
<line fill="none" stroke="#c3c3c3" stroke-width="1.5" stroke-linecap="round" stroke-linejoin="round" stroke-miterlimit="10" x1="150.657" y1="65.773" x2="141.121" y2="76.523"/>
<path fill="none" stroke="#c3c3c3" stroke-width="1.5" stroke-linecap="round" stroke-linejoin="round" stroke-miterlimit="10" d="
	M135.745,58.206h-0.331v-6.232H133v6.232l-0.464-0.112c-1.381,0-2.372,1.24-2.372,2.633v15.441h8.084V60.727
	C138.248,59.334,137.129,58.206,135.745,58.206z"/>
<path fill="none" stroke="#c3c3c3" stroke-width="1.5" stroke-linecap="round" stroke-linejoin="round" stroke-miterlimit="10" d="
	M61.454,30.62h-0.331v-6.232h-2.415v6.232l-0.515-0.005c-1.38,0-2.32,1.133-2.32,2.525v15.441h8.083V33.141
	C63.956,31.748,62.836,30.62,61.454,30.62z"/>
<path fill="none" stroke="#c3c3c3" stroke-width="1.5" stroke-linecap="round" stroke-linejoin="round" stroke-miterlimit="10" d="
	M88.73,87.822H88.4v-6.231h-2.416v6.231l-0.764,0.038c-1.381,0-2.07,1.091-2.07,2.483v15.44h8.082v-15.44
	C91.232,88.951,90.113,87.822,88.73,87.822z"/>
<path fill="none" stroke="#c3c3c3" stroke-width="1.5" stroke-linecap="round" stroke-linejoin="round" stroke-miterlimit="10" d="
	M19.096,115.942h-0.331v-6.231H16.35v6.231l-0.407-0.016c-1.381,0-2.428,1.144-2.428,2.537v15.44h8.083v-15.44
	C21.598,117.07,20.479,115.942,19.096,115.942z"/>
<path fill="none" stroke="#c3c3c3" stroke-width="1.5" stroke-linecap="round" stroke-linejoin="round" stroke-miterlimit="10" d="
	M31.701,124.85v-6.386c0-1.394-1.119-2.521-2.5-2.521h-0.333v-6.231h-2.415v6.231l-0.567-0.016c-1.382,0-2.266,1.144-2.266,2.537
	v15.44h8.081"/>
<path fill="none" stroke="#c3c3c3" stroke-width="1.5" stroke-linecap="round" stroke-linejoin="round" stroke-miterlimit="10" d="
	M46.325,124.85c0,5.024-4.042,9.096-9.028,9.096c-4.987,0-9.029-4.071-9.029-9.096H46.325z"/>
<line fill="none" stroke="#c3c3c3" stroke-width="1.5" stroke-linecap="round" stroke-linejoin="round" stroke-miterlimit="10" x1="30.703" y1="127.076" x2="43.891" y2="127.076"/>
<path fill="none" stroke="#c3c3c3" stroke-width="1.5" stroke-linecap="round" stroke-linejoin="round" stroke-miterlimit="10" d="
	M134.474,39.335c0,5.023-4.042,9.097-9.028,9.097s-9.029-4.073-9.029-9.097H134.474z"/>
<line fill="none" stroke="#c3c3c3" stroke-width="1.5" stroke-linecap="round" stroke-linejoin="round" stroke-miterlimit="10" x1="118.852" y1="41.562" x2="132.037" y2="41.562"/>
<path fill="none" stroke="#c3c3c3" stroke-width="1.5" stroke-linecap="round" stroke-linejoin="round" stroke-miterlimit="10" d="
	M149.152,96.432c0,5.024-4.043,9.097-9.029,9.097s-9.029-4.072-9.029-9.097H149.152z"/>
<line fill="none" stroke="#c3c3c3" stroke-width="1.5" stroke-linecap="round" stroke-linejoin="round" stroke-miterlimit="10" x1="133.529" y1="98.657" x2="146.715" y2="98.657"/>
<path fill="none" stroke="#c3c3c3" stroke-width="1.5" stroke-linecap="round" stroke-linejoin="round" stroke-miterlimit="10" d="
	M105.102,59.66v-2.238h-5.617v2.238c-1.757,0.071-3.105,1.48-3.105,3.232v13.775h11.828V62.893
	C108.207,61.141,106.826,59.723,105.102,59.66z"/>
<path fill="none" stroke="#c3c3c3" stroke-width="1.5" stroke-linecap="round" stroke-linejoin="round" stroke-miterlimit="10" d="
	M91.224,59.66v-2.238h-5.618v2.238c-1.756,0.071-3.104,1.48-3.104,3.232v13.775h11.828V62.893
	C94.329,61.141,92.947,59.723,91.224,59.66z"/>
<path fill="none" stroke="#c3c3c3" stroke-width="1.5" stroke-linecap="round" stroke-linejoin="round" stroke-miterlimit="10" d="
	M77.346,59.66v-2.238h-5.619v2.238c-1.756,0.071-3.104,1.48-3.104,3.232v13.775h11.828V62.893
	C80.451,61.141,79.068,59.723,77.346,59.66z"/>
<path fill="none" stroke="#c3c3c3" stroke-width="1.5" stroke-linecap="round" stroke-linejoin="round" stroke-miterlimit="10" d="
	M106.201,116.896v-2.236h-5.618v2.236c-1.618,0.266-3.104,1.481-3.104,3.233v13.774h11.828V120.13
	C109.307,118.378,107.926,116.96,106.201,116.896z"/>
<path fill="none" stroke="#c3c3c3" stroke-width="1.5" stroke-linecap="round" stroke-linejoin="round" stroke-miterlimit="10" d="
	M63.467,59.66v-2.238h-5.619v2.238c-1.755,0.071-3.104,1.48-3.104,3.232v13.775h11.828V62.893
	C66.572,61.141,65.19,59.723,63.467,59.66z"/>
<line fill="none" stroke="#c3c3c3" stroke-width="1.5" stroke-linecap="round" stroke-linejoin="round" stroke-miterlimit="10" x1="132.112" y1="91.274" x2="136.362" y2="95.967"/>
<line fill="none" stroke="#c3c3c3" stroke-width="1.5" stroke-linecap="round" stroke-linejoin="round" stroke-miterlimit="10" x1="132.493" y1="34.848" x2="127.836" y2="39.13"/>
<line fill="none" stroke="#c3c3c3" stroke-width="1.5" stroke-linecap="round" stroke-linejoin="round" stroke-miterlimit="10" x1="111.857" y1="83.566" x2="118.621" y2="105.528"/>
<line fill="none" stroke="#c3c3c3" stroke-width="1.5" stroke-linecap="round" stroke-linejoin="round" stroke-miterlimit="10" x1="115.942" y1="83.566" x2="122.706" y2="105.528"/>
<line fill="none" stroke="#c3c3c3" stroke-width="1.5" stroke-linecap="round" stroke-linejoin="round" stroke-miterlimit="10" x1="120.029" y1="83.566" x2="126.793" y2="105.528"/>
<line fill="none" stroke="#c3c3c3" stroke-width="1.5" stroke-linecap="round" stroke-linejoin="round" stroke-miterlimit="10" x1="54.743" y1="102.335" x2="79.811" y2="102.335"/>
<line fill="none" stroke="#c3c3c3" stroke-width="1.5" stroke-linecap="round" stroke-linejoin="round" stroke-miterlimit="10" x1="54.743" y1="99.461" x2="68.623" y2="99.461"/>
<line fill="none" stroke="#c3c3c3" stroke-width="1.5" stroke-linecap="round" stroke-linejoin="round" stroke-miterlimit="10" x1="54.743" y1="95.967" x2="63.179" y2="95.967"/>
<line fill="none" stroke="#c3c3c3" stroke-width="1.5" stroke-linecap="round" stroke-linejoin="round" stroke-miterlimit="10" x1="94.559" y1="102.335" x2="108.206" y2="102.335"/>
<line fill="none" stroke="#c3c3c3" stroke-width="1.5" stroke-linecap="round" stroke-linejoin="round" stroke-miterlimit="10" x1="80.368" y1="130.6" x2="94.017" y2="130.6"/>
<path fill="none" stroke="#c3c3c3" stroke-width="1.5" stroke-linecap="round" stroke-linejoin="round" stroke-miterlimit="10" d="
	M151.331,48.432h-3.62V29.308c0-1.007,0.811-1.824,1.811-1.824c0.999,0,1.81,0.817,1.81,1.824V48.432z"/>
<path fill="none" stroke="#c3c3c3" stroke-width="1.5" stroke-linecap="round" stroke-linejoin="round" stroke-miterlimit="10" d="
	M46.732,76.248h-3.623V65.896c0-1.008,0.811-1.824,1.812-1.824c1,0,1.811,0.816,1.811,1.824V76.248z"/>
<path fill="none" stroke="#c3c3c3" stroke-width="1.5" stroke-linecap="round" stroke-linejoin="round" stroke-miterlimit="10" d="
	M40.004,76.248h-3.621V65.896c0-1.008,0.811-1.824,1.81-1.824c1,0,1.811,0.816,1.811,1.824V76.248z"/>
<path fill="none" stroke="#c3c3c3" stroke-width="1.5" stroke-linecap="round" stroke-linejoin="round" stroke-miterlimit="10" d="
	M33.371,76.248h-3.623V65.896c0-1.008,0.811-1.824,1.812-1.824c1,0,1.811,0.816,1.811,1.824V76.248z"/>
<path fill="none" stroke="#c3c3c3" stroke-width="1.5" stroke-linecap="round" stroke-linejoin="round" stroke-miterlimit="10" d="
	M46.732,64.071h-3.623V53.719c0-1.008,0.811-1.824,1.812-1.824c1,0,1.811,0.816,1.811,1.824V64.071z"/>
<path fill="none" stroke="#c3c3c3" stroke-width="1.5" stroke-linecap="round" stroke-linejoin="round" stroke-miterlimit="10" d="
	M40.004,64.071h-3.621V53.719c0-1.008,0.811-1.824,1.81-1.824c1,0,1.811,0.816,1.811,1.824V64.071z"/>
<line fill="none" stroke="#c3c3c3" stroke-width="1.5" stroke-linecap="round" stroke-linejoin="round" stroke-miterlimit="10" x1="43.553" y1="124.282" x2="50.724" y2="113.618"/>
<line fill="none" stroke="#c3c3c3" stroke-width="1.5" stroke-linecap="round" stroke-linejoin="round" stroke-miterlimit="10" x1="39.968" y1="124.282" x2="47.139" y2="113.618"/>
<line fill="none" stroke="#c3c3c3" stroke-width="1.5" stroke-linecap="round" stroke-linejoin="round" stroke-miterlimit="10" x1="35.753" y1="124.282" x2="42.924" y2="113.618"/>
<line fill="none" stroke="#c3c3c3" stroke-width="1.5" stroke-linecap="round" stroke-linejoin="round" stroke-miterlimit="10" x1="106.83" y1="120.843" x2="106.83" y2="133.132"/>
<line fill="none" stroke="#c3c3c3" stroke-width="1.5" stroke-linecap="round" stroke-linejoin="round" stroke-miterlimit="10" x1="88.793" y1="90.828" x2="88.793" y2="105.528"/>
<line fill="none" stroke="#c3c3c3" stroke-width="1.5" stroke-linecap="round" stroke-linejoin="round" stroke-miterlimit="10" x1="16.128" y1="118.95" x2="16.128" y2="133.578"/>
<line fill="none" stroke="#c3c3c3" stroke-width="1.5" stroke-linecap="round" stroke-linejoin="round" stroke-miterlimit="10" x1="25.886" y1="118.95" x2="25.886" y2="133.132"/>
<line fill="none" stroke="#c3c3c3" stroke-width="1.5" stroke-linecap="round" stroke-linejoin="round" stroke-miterlimit="10" x1="135.957" y1="61.11" x2="135.957" y2="76.169"/>
<line fill="none" stroke="#c3c3c3" stroke-width="1.5" stroke-linecap="round" stroke-linejoin="round" stroke-miterlimit="10" x1="105.131" y1="62.451" x2="105.131" y2="76.248"/>
<line fill="none" stroke="#c3c3c3" stroke-width="1.5" stroke-linecap="round" stroke-linejoin="round" stroke-miterlimit="10" x1="91.232" y1="62.451" x2="91.232" y2="76.248"/>
<line fill="none" stroke="#c3c3c3" stroke-width="1.5" stroke-linecap="round" stroke-linejoin="round" stroke-miterlimit="10" x1="77.336" y1="62.451" x2="77.336" y2="76.248"/>
<line fill="none" stroke="#c3c3c3" stroke-width="1.5" stroke-linecap="round" stroke-linejoin="round" stroke-miterlimit="10" x1="63.439" y1="62.451" x2="63.439" y2="76.248"/>
<line fill="none" stroke="#c3c3c3" stroke-width="1.5" stroke-linecap="round" stroke-linejoin="round" stroke-miterlimit="10" x1="61.443" y1="33.255" x2="61.443" y2="48.459"/>
<line fill="none" stroke="#c3c3c3" stroke-width="1.5" stroke-linecap="round" stroke-linejoin="round" stroke-miterlimit="10" x1="102.764" y1="48.432" x2="111.267" y2="31.319"/>
<line fill="none" stroke="#c3c3c3" stroke-width="1.5" stroke-linecap="round" stroke-linejoin="round" stroke-miterlimit="10" x1="99.242" y1="48.432" x2="107.744" y2="31.319"/>
<line fill="none" stroke="#c3c3c3" stroke-width="1.5" stroke-linecap="round" stroke-linejoin="round" stroke-miterlimit="10" x1="95.72" y1="48.432" x2="104.222" y2="31.319"/>
<line fill="none" stroke="#c3c3c3" stroke-width="1.5" stroke-linecap="round" stroke-linejoin="round" stroke-miterlimit="10" x1="92.197" y1="48.432" x2="100.699" y2="31.319"/>
<line fill="none" stroke="#c3c3c3" stroke-width="1.5" stroke-linecap="round" stroke-linejoin="round" stroke-miterlimit="10" x1="88.414" y1="48.432" x2="92.197" y2="40.857"/>
<rect x="66.571" y="43.883" fill="none" stroke="#c3c3c3" stroke-width="1.5" stroke-linecap="round" stroke-linejoin="round" stroke-miterlimit="10" width="10.349" height="4.576"/>
<rect x="76.919" y="43.883" fill="none" stroke="#c3c3c3" stroke-width="1.5" stroke-linecap="round" stroke-linejoin="round" stroke-miterlimit="10" width="7.097" height="4.576"/>
<rect x="66.571" y="39.273" fill="none" stroke="#c3c3c3" stroke-width="1.5" stroke-linecap="round" stroke-linejoin="round" stroke-miterlimit="10" width="10.349" height="4.576"/>
<rect x="66.571" y="34.663" fill="none" stroke="#c3c3c3" stroke-width="1.5" stroke-linecap="round" stroke-linejoin="round" stroke-miterlimit="10" width="10.349" height="4.576"/>
<line fill="none" stroke="#c3c3c3" stroke-width="1.5" stroke-linecap="round" stroke-linejoin="round" stroke-miterlimit="10" x1="27.807" y1="64.071" x2="48.21" y2="64.071"/>
<ellipse fill="none" stroke="#c3c3c3" stroke-width="1.5" stroke-linecap="round" stroke-linejoin="round" stroke-miterlimit="10" cx="13.894" cy="73.593" rx="2.082" ry="2.097"/>
<ellipse fill="none" stroke="#c3c3c3" stroke-width="1.5" stroke-linecap="round" stroke-linejoin="round" stroke-miterlimit="10" cx="18.254" cy="73.593" rx="2.081" ry="2.097"/>
<ellipse fill="none" stroke="#c3c3c3" stroke-width="1.5" stroke-linecap="round" stroke-linejoin="round" stroke-miterlimit="10" cx="24.731" cy="73.593" rx="2.082" ry="2.097"/>
<rect x="34.091" y="25.063" fill="none" stroke="#c3c3c3" stroke-width="1.5" stroke-linecap="round" stroke-linejoin="round" stroke-miterlimit="10" width="3.105" height="23.369"/>
<rect x="40.004" y="25.063" fill="none" stroke="#c3c3c3" stroke-width="1.5" stroke-linecap="round" stroke-linejoin="round" stroke-miterlimit="10" width="3.105" height="23.369"/>
<rect x="45.179" y="25.063" fill="none" stroke="#c3c3c3" stroke-width="1.5" stroke-linecap="round" stroke-linejoin="round" stroke-miterlimit="10" width="3.105" height="23.369"/>
<line fill="none" stroke="#c3c3c3" stroke-width="1.5" stroke-linecap="round" stroke-linejoin="round" stroke-miterlimit="10" x1="22.855" y1="47.331" x2="34.092" y2="35.546"/>
<line fill="none" stroke="#c3c3c3" stroke-width="1.5" stroke-linecap="round" stroke-linejoin="round" stroke-miterlimit="10" x1="24.777" y1="48.842" x2="34.091" y2="38.844"/>
<line fill="none" stroke="#c3c3c3" stroke-width="1.5" stroke-linecap="round" stroke-linejoin="round" stroke-miterlimit="10" x1="28.63" y1="48.729" x2="34.091" y2="42.867"/>
<line fill="none" stroke="#c3c3c3" stroke-width="1.5" stroke-linecap="round" stroke-linejoin="round" stroke-miterlimit="10" x1="12.792" y1="35.117" x2="19.011" y2="35.117"/>
<line fill="none" stroke="#c3c3c3" stroke-width="1.5" stroke-linecap="round" stroke-linejoin="round" stroke-miterlimit="10" x1="58.117" y1="54.78" x2="63.438" y2="54.78"/>
<line fill="none" stroke="#c3c3c3" stroke-width="1.5" stroke-linecap="round" stroke-linejoin="round" stroke-miterlimit="10" x1="71.598" y1="54.78" x2="76.919" y2="54.78"/>
<line fill="none" stroke="#c3c3c3" stroke-width="1.5" stroke-linecap="round" stroke-linejoin="round" stroke-miterlimit="10" x1="85.427" y1="54.78" x2="90.749" y2="54.78"/>
<line fill="none" stroke="#c3c3c3" stroke-width="1.5" stroke-linecap="round" stroke-linejoin="round" stroke-miterlimit="10" x1="99.632" y1="54.78" x2="104.954" y2="54.78"/>
<line fill="none" stroke="#c3c3c3" stroke-width="1.5" stroke-linecap="round" stroke-linejoin="round" stroke-miterlimit="10" x1="112.818" y1="74.148" x2="122.707" y2="74.148"/>
<line fill="none" stroke="#c3c3c3" stroke-width="1.5" stroke-linecap="round" stroke-linejoin="round" stroke-miterlimit="10" x1="112.818" y1="71.749" x2="120.434" y2="71.749"/>
<line fill="none" stroke="#c3c3c3" stroke-width="1.5" stroke-linecap="round" stroke-linejoin="round" stroke-miterlimit="10" x1="112.818" y1="69.35" x2="117.254" y2="69.35"/>
<line fill="none" stroke="#c3c3c3" stroke-width="1.5" stroke-linecap="round" stroke-linejoin="round" stroke-miterlimit="10" x1="144.955" y1="63.457" x2="150.658" y2="63.457"/>
<line fill="none" stroke="#c3c3c3" stroke-width="1.5" stroke-linecap="round" stroke-linejoin="round" stroke-miterlimit="10" x1="144.678" y1="36.532" x2="144.678" y2="48.207"/>
<line fill="none" stroke="#c3c3c3" stroke-width="1.5" stroke-linecap="round" stroke-linejoin="round" stroke-miterlimit="10" x1="141.795" y1="36.532" x2="141.795" y2="48.207"/>
<polygon fill="none" stroke="#c3c3c3" stroke-width="1.5" stroke-linecap="round" stroke-linejoin="round" stroke-miterlimit="10" points="
	122.389,20.484 116.167,20.484 114.393,11.919 124.163,11.919 "/>
<polygon fill="none" stroke="#c3c3c3" stroke-width="1.5" stroke-linecap="round" stroke-linejoin="round" stroke-miterlimit="10" points="
	135.605,20.484 129.383,20.484 127.609,11.919 137.379,11.919 "/>
<polygon fill="none" stroke="#c3c3c3" stroke-width="1.5" stroke-linecap="round" stroke-linejoin="round" stroke-miterlimit="10" points="
	148.82,20.484 142.599,20.484 140.824,11.919 150.595,11.919 "/>
<polygon fill="none" stroke="#c3c3c3" stroke-width="1.5" stroke-linecap="round" stroke-linejoin="round" stroke-miterlimit="10" points="
	142.469,11.88 136.247,11.88 134.473,3.313 144.243,3.313 "/>
<polygon fill="none" stroke="#c3c3c3" stroke-width="1.5" stroke-linecap="round" stroke-linejoin="round" stroke-miterlimit="10" points="
	129.487,11.88 123.266,11.88 121.491,3.313 131.262,3.313 "/>
<line fill="none" stroke="#c3c3c3" stroke-width="1.5" stroke-linecap="round" stroke-linejoin="round" stroke-miterlimit="10" x1="119.989" y1="19.998" x2="121.491" y2="14.039"/>
<line fill="none" stroke="#c3c3c3" stroke-width="1.5" stroke-linecap="round" stroke-linejoin="round" stroke-miterlimit="10" x1="132.972" y1="20.002" x2="134.474" y2="14.043"/>
<line fill="none" stroke="#c3c3c3" stroke-width="1.5" stroke-linecap="round" stroke-linejoin="round" stroke-miterlimit="10" x1="126.857" y1="11.88" x2="128.359" y2="5.921"/>
<line fill="none" stroke="#c3c3c3" stroke-width="1.5" stroke-linecap="round" stroke-linejoin="round" stroke-miterlimit="10" x1="139.921" y1="11.433" x2="141.423" y2="5.474"/>
<line fill="none" stroke="#c3c3c3" stroke-width="1.5" stroke-linecap="round" stroke-linejoin="round" stroke-miterlimit="10" x1="146.208" y1="19.998" x2="147.71" y2="14.039"/>
<ellipse fill="none" stroke="#c3c3c3" stroke-width="1.5" stroke-linecap="round" stroke-linejoin="round" stroke-miterlimit="10" cx="19.798" cy="86.536" rx="5.293" ry="5.333"/>
<path fill="none" stroke="#c3c3c3" stroke-width="1.5" stroke-linecap="round" stroke-linejoin="round" stroke-miterlimit="10" d="
	M24.07,92.919c-1.22,0.83-2.691,1.314-4.272,1.314c-1.641,0-3.161-0.521-4.405-1.406"/>
<path fill="none" stroke="#c3c3c3" stroke-width="1.5" stroke-linecap="round" stroke-linejoin="round" stroke-miterlimit="10" d="
	M34.707,89.006c-0.806,0.549-1.776,0.868-2.821,0.868c-1.082,0-2.086-0.344-2.909-0.929"/>
<path fill="none" stroke="#c3c3c3" stroke-width="1.5" stroke-linecap="round" stroke-linejoin="round" stroke-miterlimit="10" d="
	M43.109,87.499c-0.67,0.456-1.478,0.722-2.348,0.722c-0.9,0-1.736-0.286-2.42-0.772"/>
<ellipse fill="none" stroke="#c3c3c3" stroke-width="1.5" stroke-linecap="round" stroke-linejoin="round" stroke-miterlimit="10" cx="31.842" cy="84.414" rx="3.188" ry="3.212"/>
<ellipse fill="none" stroke="#c3c3c3" stroke-width="1.5" stroke-linecap="round" stroke-linejoin="round" stroke-miterlimit="10" cx="40.725" cy="83.604" rx="2.384" ry="2.402"/>
<line fill="none" stroke="#c3c3c3" stroke-width="1.5" stroke-linecap="round" stroke-linejoin="round" stroke-miterlimit="10" x1="19.798" y1="81.202" x2="19.798" y2="77.049"/>
<line fill="none" stroke="#c3c3c3" stroke-width="1.5" stroke-linecap="round" stroke-linejoin="round" stroke-miterlimit="10" x1="31.842" y1="81.202" x2="31.842" y2="77.049"/>
<line fill="none" stroke="#c3c3c3" stroke-width="1.5" stroke-linecap="round" stroke-linejoin="round" stroke-miterlimit="10" x1="40.725" y1="81.202" x2="40.725" y2="77.049"/>
<rect x="26.813" y="99.988" fill="none" stroke="#c3c3c3" stroke-width="1.5" stroke-linecap="round" stroke-linejoin="round" stroke-miterlimit="10" width="20.754" height="2.628"/>
<line fill="none" stroke="#c3c3c3" stroke-width="1.5" stroke-linecap="round" stroke-linejoin="round" stroke-miterlimit="10" x1="29.427" y1="98.61" x2="29.427" y2="99.461"/>
<line fill="none" stroke="#c3c3c3" stroke-width="1.5" stroke-linecap="round" stroke-linejoin="round" stroke-miterlimit="10" x1="32.532" y1="98.412" x2="32.532" y2="99.461"/>
<line fill="none" stroke="#c3c3c3" stroke-width="1.5" stroke-linecap="round" stroke-linejoin="round" stroke-miterlimit="10" x1="35.637" y1="97.903" x2="35.637" y2="99.461"/>
<line fill="none" stroke="#c3c3c3" stroke-width="1.5" stroke-linecap="round" stroke-linejoin="round" stroke-miterlimit="10" x1="38.741" y1="97.363" x2="38.741" y2="99.46"/>
<line fill="none" stroke="#c3c3c3" stroke-width="1.5" stroke-linecap="round" stroke-linejoin="round" stroke-miterlimit="10" x1="41.846" y1="96.411" x2="41.846" y2="99.461"/>
<line fill="none" stroke="#c3c3c3" stroke-width="1.5" stroke-linecap="round" stroke-linejoin="round" stroke-miterlimit="10" x1="44.951" y1="95.594" x2="44.951" y2="99.461"/>
<line fill="none" stroke="#c3c3c3" stroke-width="1.5" stroke-linecap="round" stroke-linejoin="round" stroke-miterlimit="10" x1="28.655" y1="102.781" x2="28.655" y2="105.785"/>
<line fill="none" stroke="#c3c3c3" stroke-width="1.5" stroke-linecap="round" stroke-linejoin="round" stroke-miterlimit="10" x1="45.327" y1="102.781" x2="45.327" y2="105.463"/>
<rect x="14.112" y="8.993" fill="none" stroke="#c3c3c3" stroke-width="1.5" stroke-linecap="round" stroke-linejoin="round" stroke-miterlimit="10" width="20.403" height="8.658"/>
<line fill="none" stroke="#c3c3c3" stroke-width="1.5" stroke-linecap="round" stroke-linejoin="round" stroke-miterlimit="10" x1="15.901" y1="20.054" x2="15.901" y2="18.043"/>
<line fill="none" stroke="#c3c3c3" stroke-width="1.5" stroke-linecap="round" stroke-linejoin="round" stroke-miterlimit="10" x1="32.188" y1="20.054" x2="32.188" y2="18.043"/>
<ellipse fill="none" stroke="#c3c3c3" stroke-width="1.5" stroke-linecap="round" stroke-linejoin="round" stroke-miterlimit="10" cx="24.176" cy="12.345" rx="0.97" ry="0.978"/>
<line fill="none" stroke="#c3c3c3" stroke-width="1.5" stroke-linecap="round" stroke-linejoin="round" stroke-miterlimit="10" x1="26.773" y1="6.759" x2="33.721" y2="6.759"/>
<rect x="54.419" y="11.953" fill="none" stroke="#c3c3c3" stroke-width="1.5" stroke-linecap="round" stroke-linejoin="round" stroke-miterlimit="10" width="33.043" height="5.698"/>
<line fill="none" stroke="#c3c3c3" stroke-width="1.5" stroke-linecap="round" stroke-linejoin="round" stroke-miterlimit="10" x1="84.285" y1="20.524" x2="84.285" y2="18.043"/>
<line fill="none" stroke="#c3c3c3" stroke-width="1.5" stroke-linecap="round" stroke-linejoin="round" stroke-miterlimit="10" x1="57.155" y1="20.524" x2="57.155" y2="17.652"/>
<rect x="54.419" y="3.313" fill="none" stroke="#c3c3c3" stroke-width="1.5" stroke-linecap="round" stroke-linejoin="round" stroke-miterlimit="10" width="15.673" height="5.698"/>
<line fill="none" stroke="#c3c3c3" stroke-width="1.5" stroke-linecap="round" stroke-linejoin="round" stroke-miterlimit="10" x1="68.583" y1="11.882" x2="68.583" y2="9.4"/>
<line fill="none" stroke="#c3c3c3" stroke-width="1.5" stroke-linecap="round" stroke-linejoin="round" stroke-miterlimit="10" x1="55.717" y1="11.882" x2="55.717" y2="9.01"/>
<rect x="74.268" y="5.921" fill="none" stroke="#c3c3c3" stroke-width="1.5" stroke-linecap="round" stroke-linejoin="round" stroke-miterlimit="10" width="12.346" height="3.09"/>
<line fill="none" stroke="#c3c3c3" stroke-width="1.5" stroke-linecap="round" stroke-linejoin="round" stroke-miterlimit="10" x1="85.859" y1="11.882" x2="85.859" y2="9.4"/>
<line fill="none" stroke="#c3c3c3" stroke-width="1.5" stroke-linecap="round" stroke-linejoin="round" stroke-miterlimit="10" x1="75.29" y1="11.882" x2="75.29" y2="9.01"/>
<rect x="115.125" y="122.794" fill="none" stroke="#c3c3c3" stroke-width="1.5" stroke-linecap="round" stroke-linejoin="round" stroke-miterlimit="10" width="9.805" height="7.914"/>
<line fill="none" stroke="#c3c3c3" stroke-width="1.5" stroke-linecap="round" stroke-linejoin="round" stroke-miterlimit="10" x1="123.505" y1="133.58" x2="123.505" y2="131.1"/>
<line fill="none" stroke="#c3c3c3" stroke-width="1.5" stroke-linecap="round" stroke-linejoin="round" stroke-miterlimit="10" x1="116.502" y1="133.58" x2="116.502" y2="130.707"/>
<rect x="80.186" y="1.515" fill="none" stroke="#c3c3c3" stroke-width="1.5" stroke-linecap="round" stroke-linejoin="round" stroke-miterlimit="10" width="5.212" height="4.183"/>
<line fill="none" stroke="#c3c3c3" stroke-width="1.5" stroke-linecap="round" stroke-linejoin="round" stroke-miterlimit="10" x1="93.229" y1="9.401" x2="107.017" y2="9.401"/>
<line fill="none" stroke="#c3c3c3" stroke-width="1.5" stroke-linecap="round" stroke-linejoin="round" stroke-miterlimit="10" x1="96.666" y1="6.703" x2="107.016" y2="6.703"/>
<line fill="none" stroke="#c3c3c3" stroke-width="1.5" stroke-linecap="round" stroke-linejoin="round" stroke-miterlimit="10" x1="101.988" y1="3.91" x2="107.016" y2="3.91"/>
<line fill="none" stroke="#c3c3c3" stroke-width="1.5" stroke-linecap="round" stroke-linejoin="round" stroke-miterlimit="10" x1="45.291" y1="12.345" x2="47.805" y2="6.759"/>
<line fill="none" stroke="#c3c3c3" stroke-width="1.5" stroke-linecap="round" stroke-linejoin="round" stroke-miterlimit="10" x1="48.173" y1="12.345" x2="50.688" y2="6.759"/>
<line fill="none" stroke="#c3c3c3" stroke-width="1.5" stroke-linecap="round" stroke-linejoin="round" stroke-miterlimit="10" x1="16.664" y1="53.066" x2="16.664" y2="64.07"/>
<line fill="none" stroke="#c3c3c3" stroke-width="1.5" stroke-linecap="round" stroke-linejoin="round" stroke-miterlimit="10" x1="14.501" y1="64.071" x2="18.715" y2="64.071"/>
<path fill="none" stroke="#c3c3c3" stroke-width="1.5" stroke-linecap="round" stroke-linejoin="round" stroke-miterlimit="10" d="
	M111.857,89.637c-7.109,0-12.871-5.808-12.871-12.969"/>
<path fill="none" stroke="#c3c3c3" stroke-width="1.5" stroke-linecap="round" stroke-linejoin="round" stroke-miterlimit="10" d="
	M111.857,87.104c-5.72,0-10.357-4.672-10.357-10.435"/>
<path fill="none" stroke="#c3c3c3" stroke-width="1.5" stroke-linecap="round" stroke-linejoin="round" stroke-miterlimit="10" d="
	M51.093,82.858c3.548,3.427,9.574,1.63,10.591-0.973c0.572,2.611,4.888,7.06,11.03,6.192c8.697-1.227,9.787-11.029,9.787-11.029"/>
<ellipse fill="none" stroke="#c3c3c3" stroke-width="1.5" stroke-linecap="round" stroke-linejoin="round" stroke-miterlimit="10" cx="120.029" cy="126.752" rx="1.025" ry="1.032"/>
<line fill="none" stroke="#c3c3c3" stroke-width="1.5" stroke-linecap="round" stroke-linejoin="round" stroke-miterlimit="10" x1="115.238" y1="120.266" x2="120.029" y2="120.266"/>
<line fill="none" stroke="#c3c3c3" stroke-width="1.5" stroke-linecap="round" stroke-linejoin="round" stroke-miterlimit="10" x1="115.238" y1="118.031" x2="120.029" y2="118.031"/>
</svg>
