<?xml version="1.0" encoding="utf-8"?>
<!-- Generator: Adobe Illustrator 15.0.2, SVG Export Plug-In  -->
<!DOCTYPE svg PUBLIC "-//W3C//DTD SVG 1.1//EN" "http://www.w3.org/Graphics/SVG/1.1/DTD/svg11.dtd" [
	<!ENTITY ns_flows "http://ns.adobe.com/Flows/1.0/">
]>
<svg version="1.1"
	 xmlns="http://www.w3.org/2000/svg" xmlns:xlink="http://www.w3.org/1999/xlink" xmlns:a="http://ns.adobe.com/AdobeSVGViewerExtensions/3.0/"
	 x="0px" y="0px" width="176px" height="121px" viewBox="-0.45 0.006 176 121" enable-background="new -0.45 0.006 176 121"
	 xml:space="preserve">
<defs>
</defs>
<polygon fill="none" stroke="#c3c3c3" stroke-width="1.5" stroke-linecap="round" stroke-linejoin="round" stroke-miterlimit="10" points="
	159.524,116.161 87.748,116.161 15.971,116.161 15.971,73.113 15.971,30.062 87.748,1.8 159.524,30.062 159.524,73.113 "/>
<rect x="25.603" y="37.177" fill="none" stroke="#c3c3c3" stroke-width="1.5" stroke-linecap="round" stroke-linejoin="round" stroke-miterlimit="10" width="124.293" height="78.981"/>
<line fill="none" stroke="#c3c3c3" stroke-width="1.5" stroke-linecap="round" stroke-linejoin="round" stroke-miterlimit="10" x1="25.603" y1="44.04" x2="149.896" y2="44.04"/>
<line fill="none" stroke="#c3c3c3" stroke-width="1.5" stroke-linecap="round" stroke-linejoin="round" stroke-miterlimit="10" x1="25.603" y1="52.073" x2="149.896" y2="52.073"/>
<line fill="none" stroke="#c3c3c3" stroke-width="1.5" stroke-linecap="round" stroke-linejoin="round" stroke-miterlimit="10" x1="25.603" y1="60.104" x2="149.896" y2="60.104"/>
<line fill="none" stroke="#c3c3c3" stroke-width="1.5" stroke-linecap="round" stroke-linejoin="round" stroke-miterlimit="10" x1="25.603" y1="68.136" x2="149.896" y2="68.136"/>
<line fill="none" stroke="#c3c3c3" stroke-width="1.5" stroke-linecap="round" stroke-linejoin="round" stroke-miterlimit="10" x1="25.603" y1="76.167" x2="149.896" y2="76.167"/>
<line fill="none" stroke="#c3c3c3" stroke-width="1.5" stroke-linecap="round" stroke-linejoin="round" stroke-miterlimit="10" x1="25.603" y1="84.198" x2="149.896" y2="84.198"/>
<line fill="none" stroke="#c3c3c3" stroke-width="1.5" stroke-linecap="round" stroke-linejoin="round" stroke-miterlimit="10" x1="25.603" y1="92.231" x2="149.896" y2="92.231"/>
<line fill="none" stroke="#c3c3c3" stroke-width="1.5" stroke-linecap="round" stroke-linejoin="round" stroke-miterlimit="10" x1="25.603" y1="100.26" x2="149.896" y2="100.26"/>
<line fill="none" stroke="#c3c3c3" stroke-width="1.5" stroke-linecap="round" stroke-linejoin="round" stroke-miterlimit="10" x1="25.603" y1="108.292" x2="149.896" y2="108.292"/>
<ellipse fill="none" stroke="#c3c3c3" stroke-width="1.5" stroke-linecap="round" stroke-linejoin="round" stroke-miterlimit="10" cx="87.635" cy="17.858" rx="3.499" ry="3.545"/>
<line fill="none" stroke="#c3c3c3" stroke-width="1.5" stroke-linecap="round" stroke-linejoin="round" stroke-miterlimit="10" x1="87.748" y1="1.8" x2="7.619" y2="33.366"/>
<line fill="none" stroke="#c3c3c3" stroke-width="1.5" stroke-linecap="round" stroke-linejoin="round" stroke-miterlimit="10" x1="87.748" y1="1.8" x2="167.877" y2="33.366"/>
<polyline fill="none" stroke="#c3c3c3" stroke-width="1.5" stroke-linecap="round" stroke-linejoin="round" stroke-miterlimit="10" points="
	149.896,30.476 87.748,6.223 25.604,30.476 "/>
<line fill="none" stroke="#c3c3c3" stroke-width="1.5" stroke-linecap="round" stroke-linejoin="round" stroke-miterlimit="10" x1="15.971" y1="119.75" x2="159.525" y2="119.75"/>
<line fill="none" stroke="#c3c3c3" stroke-width="1.5" stroke-linecap="round" stroke-linejoin="round" stroke-miterlimit="10" x1="5.815" y1="116.161" x2="169.682" y2="116.161"/>
<line fill="none" stroke="#c3c3c3" stroke-width="1.5" stroke-linecap="round" stroke-linejoin="round" stroke-miterlimit="10" x1="10.59" y1="112.125" x2="15.971" y2="112.125"/>
<line fill="none" stroke="#c3c3c3" stroke-width="1.5" stroke-linecap="round" stroke-linejoin="round" stroke-miterlimit="10" x1="159.524" y1="112.125" x2="164.905" y2="112.125"/>
<line fill="none" stroke="#c3c3c3" stroke-width="1.5" stroke-linecap="round" stroke-linejoin="round" stroke-miterlimit="10" x1="146.398" y1="111.325" x2="146.398" y2="115.997"/>
<line fill="none" stroke="#c3c3c3" stroke-width="1.5" stroke-linecap="round" stroke-linejoin="round" stroke-miterlimit="10" x1="146.398" y1="103.623" x2="146.398" y2="108.293"/>
<line fill="none" stroke="#c3c3c3" stroke-width="1.5" stroke-linecap="round" stroke-linejoin="round" stroke-miterlimit="10" x1="146.398" y1="95.59" x2="146.398" y2="100.26"/>
<line fill="none" stroke="#c3c3c3" stroke-width="1.5" stroke-linecap="round" stroke-linejoin="round" stroke-miterlimit="10" x1="146.398" y1="87.559" x2="146.398" y2="92.231"/>
<line fill="none" stroke="#c3c3c3" stroke-width="1.5" stroke-linecap="round" stroke-linejoin="round" stroke-miterlimit="10" x1="146.398" y1="79.528" x2="146.398" y2="84.2"/>
<line fill="none" stroke="#c3c3c3" stroke-width="1.5" stroke-linecap="round" stroke-linejoin="round" stroke-miterlimit="10" x1="146.398" y1="71.499" x2="146.398" y2="76.168"/>
<line fill="none" stroke="#c3c3c3" stroke-width="1.5" stroke-linecap="round" stroke-linejoin="round" stroke-miterlimit="10" x1="146.398" y1="63.468" x2="146.398" y2="68.14"/>
<line fill="none" stroke="#c3c3c3" stroke-width="1.5" stroke-linecap="round" stroke-linejoin="round" stroke-miterlimit="10" x1="146.398" y1="55.437" x2="146.398" y2="60.109"/>
<line fill="none" stroke="#c3c3c3" stroke-width="1.5" stroke-linecap="round" stroke-linejoin="round" stroke-miterlimit="10" x1="146.398" y1="47.408" x2="146.398" y2="52.078"/>
<line fill="none" stroke="#c3c3c3" stroke-width="1.5" stroke-linecap="round" stroke-linejoin="round" stroke-miterlimit="10" x1="146.398" y1="40.188" x2="146.398" y2="44.046"/>
<line fill="none" stroke="#c3c3c3" stroke-width="1.5" stroke-linecap="round" stroke-linejoin="round" stroke-miterlimit="10" x1="29.038" y1="111.325" x2="29.038" y2="115.997"/>
<line fill="none" stroke="#c3c3c3" stroke-width="1.5" stroke-linecap="round" stroke-linejoin="round" stroke-miterlimit="10" x1="29.038" y1="103.623" x2="29.038" y2="108.293"/>
<line fill="none" stroke="#c3c3c3" stroke-width="1.5" stroke-linecap="round" stroke-linejoin="round" stroke-miterlimit="10" x1="29.038" y1="95.59" x2="29.038" y2="100.26"/>
<line fill="none" stroke="#c3c3c3" stroke-width="1.5" stroke-linecap="round" stroke-linejoin="round" stroke-miterlimit="10" x1="29.038" y1="87.559" x2="29.038" y2="92.231"/>
<line fill="none" stroke="#c3c3c3" stroke-width="1.5" stroke-linecap="round" stroke-linejoin="round" stroke-miterlimit="10" x1="29.038" y1="79.528" x2="29.038" y2="84.2"/>
<line fill="none" stroke="#c3c3c3" stroke-width="1.5" stroke-linecap="round" stroke-linejoin="round" stroke-miterlimit="10" x1="29.038" y1="71.499" x2="29.038" y2="76.168"/>
<line fill="none" stroke="#c3c3c3" stroke-width="1.5" stroke-linecap="round" stroke-linejoin="round" stroke-miterlimit="10" x1="29.038" y1="63.468" x2="29.038" y2="68.14"/>
<line fill="none" stroke="#c3c3c3" stroke-width="1.5" stroke-linecap="round" stroke-linejoin="round" stroke-miterlimit="10" x1="29.038" y1="55.437" x2="29.038" y2="60.109"/>
<line fill="none" stroke="#c3c3c3" stroke-width="1.5" stroke-linecap="round" stroke-linejoin="round" stroke-miterlimit="10" x1="29.038" y1="47.408" x2="29.038" y2="52.078"/>
<polyline fill="none" stroke="#c3c3c3" stroke-width="1.5" stroke-linecap="round" stroke-linejoin="round" stroke-miterlimit="10" points="
	29.038,44.047 29.038,40.189 146.398,40.189 "/>
<path fill="none" stroke="#c3c3c3" stroke-width="1.5" stroke-linecap="round" stroke-linejoin="round" stroke-miterlimit="10" d="
	M174.673,115.794c-0.198-0.461-0.731-0.668-1.183-0.464c-0.451,0.199-0.656,0.738-0.455,1.195c0.201,0.459,0.731,0.666,1.18,0.463
	C174.67,116.79,174.874,116.25,174.673,115.794z"/>
<path fill="none" stroke="#c3c3c3" stroke-width="1.5" stroke-linecap="round" stroke-linejoin="round" stroke-miterlimit="10" d="
	M2.464,115.794c-0.198-0.461-0.732-0.668-1.184-0.464c-0.449,0.199-0.653,0.738-0.453,1.195c0.199,0.459,0.73,0.666,1.179,0.463
	C2.461,116.79,2.665,116.25,2.464,115.794z"/>
<path fill="none" stroke="#c3c3c3" stroke-width="1.5" stroke-linecap="round" stroke-linejoin="round" stroke-miterlimit="10" d="
	M130.662,2.201c-0.198-0.461-0.73-0.668-1.182-0.466c-0.452,0.2-0.657,0.74-0.455,1.197c0.201,0.459,0.73,0.667,1.179,0.463
	C130.659,3.195,130.862,2.655,130.662,2.201z"/>
<path fill="none" stroke="#c3c3c3" stroke-width="1.5" stroke-linecap="round" stroke-linejoin="round" stroke-miterlimit="10" d="
	M141.834,2.201c-0.198-0.461-0.729-0.668-1.181-0.466c-0.45,0.2-0.656,0.74-0.455,1.197c0.201,0.459,0.73,0.667,1.178,0.463
	C141.831,3.195,142.035,2.655,141.834,2.201z"/>
<path fill="none" stroke="#c3c3c3" stroke-width="1.5" stroke-linecap="round" stroke-linejoin="round" stroke-miterlimit="10" d="
	M136.244,1.291c-0.198-0.459-0.729-0.666-1.181-0.462c-0.45,0.2-0.656,0.737-0.454,1.195c0.201,0.459,0.729,0.666,1.177,0.462
	C136.241,2.288,136.445,1.747,136.244,1.291z"/>
<line fill="none" stroke="#c3c3c3" stroke-width="1.5" stroke-linecap="round" stroke-linejoin="round" stroke-miterlimit="10" x1="135.427" y1="2.564" x2="135.427" y2="20.554"/>
<line fill="none" stroke="#c3c3c3" stroke-width="1.5" stroke-linecap="round" stroke-linejoin="round" stroke-miterlimit="10" x1="132.718" y1="8.514" x2="138.135" y2="8.514"/>
<line fill="none" stroke="#c3c3c3" stroke-width="1.5" stroke-linecap="round" stroke-linejoin="round" stroke-miterlimit="10" x1="132.718" y1="2.564" x2="138.135" y2="2.564"/>
<path fill="none" stroke="#c3c3c3" stroke-width="1.5" stroke-linecap="round" stroke-linejoin="round" stroke-miterlimit="10" d="
	M93.676,13.952c-1.308-1.965-3.525-3.259-6.042-3.259c-2.512,0-4.731,1.294-6.037,3.259"/>
<line fill="none" stroke="#c3c3c3" stroke-width="1.5" stroke-linecap="round" stroke-linejoin="round" stroke-miterlimit="10" x1="84.142" y1="17.691" x2="91.134" y2="17.691"/>
</svg>
