<?xml version="1.0" encoding="utf-8"?>
<!-- Generator: Adobe Illustrator 15.0.2, SVG Export Plug-In  -->
<!DOCTYPE svg PUBLIC "-//W3C//DTD SVG 1.1//EN" "http://www.w3.org/Graphics/SVG/1.1/DTD/svg11.dtd" [
	<!ENTITY ns_flows "http://ns.adobe.com/Flows/1.0/">
]>
<svg version="1.1"
	 xmlns="http://www.w3.org/2000/svg" xmlns:xlink="http://www.w3.org/1999/xlink" xmlns:a="http://ns.adobe.com/AdobeSVGViewerExtensions/3.0/"
	 x="0px" y="0px" width="116px" height="116px" viewBox="0.034 -0.708 116 116" enable-background="new 0.034 -0.708 116 116"
	 xml:space="preserve">
<defs>
</defs>
<path fill="#D3D3D3" d="M52.305,37.093h11.391c1.059,0,1.902-0.846,1.902-1.903c0-1.049-0.844-1.893-1.902-1.893H52.305
	c-1.06,0-1.902,0.844-1.902,1.893C50.402,36.247,51.245,37.093,52.305,37.093"/>
<path fill="none" stroke="#FFFFFF" stroke-width="2" stroke-miterlimit="10" d="M52.305,37.093h11.391
	c1.059,0,1.902-0.846,1.902-1.903c0-1.049-0.844-1.893-1.902-1.893H52.305c-1.06,0-1.902,0.844-1.902,1.893
	C50.402,36.247,51.245,37.093,52.305,37.093z"/>
<path fill="#D3D3D3" d="M80.805,63.693H69.402c-1.05,0-1.903,0.853-1.903,1.903c0,1.047,0.854,1.9,1.903,1.9h11.402
	c1.047,0,1.89-0.854,1.89-1.9C82.694,64.545,81.852,63.693,80.805,63.693"/>
<path fill="none" stroke="#FFFFFF" stroke-width="2" stroke-miterlimit="10" d="M80.805,63.693H69.402
	c-1.05,0-1.903,0.853-1.903,1.903c0,1.047,0.854,1.9,1.903,1.9h11.402c1.047,0,1.89-0.854,1.89-1.9
	C82.694,64.545,81.852,63.693,80.805,63.693z"/>
<path fill="#D3D3D3" d="M35.195,52.299h9.5c1.059,0,1.901-0.855,1.901-1.903c0-1.057-0.843-1.902-1.901-1.902h-9.5
	c-1.048,0-1.892,0.845-1.892,1.902C33.304,51.444,34.147,52.299,35.195,52.299"/>
<path fill="none" stroke="#FFFFFF" stroke-width="2" stroke-miterlimit="10" d="M35.195,52.299h9.5c1.059,0,1.901-0.855,1.901-1.903
	c0-1.057-0.843-1.902-1.901-1.902h-9.5c-1.048,0-1.892,0.845-1.892,1.902C33.304,51.444,34.147,52.299,35.195,52.299z"/>
<path fill="#D3D3D3" d="M58,50.396c0,1.047,0.853,1.903,1.901,1.903h13.293c1.06,0,1.903-0.856,1.903-1.903
	c0-1.057-0.844-1.903-1.903-1.903H59.901C58.853,48.494,58,49.349,58,50.396"/>
<path fill="none" stroke="#FFFFFF" stroke-width="2" stroke-miterlimit="10" d="M58,50.396c0,1.047,0.853,1.903,1.901,1.903h13.293
	c1.06,0,1.903-0.856,1.903-1.903c0-1.057-0.844-1.903-1.903-1.903H59.901C58.853,48.494,58,49.349,58,50.396z"/>
<path fill="#CCCCCC" d="M52.305,52.299c0.491,0,0.982-0.214,1.344-0.558c0.342-0.361,0.546-0.853,0.546-1.345
	c0-0.52-0.204-0.992-0.546-1.353c-0.705-0.696-1.995-0.696-2.7,0c-0.342,0.342-0.546,0.833-0.546,1.353
	c0,0.492,0.204,0.984,0.546,1.345C51.312,52.085,51.804,52.299,52.305,52.299"/>
<path fill="none" stroke="#FFFFFF" stroke-width="2" stroke-miterlimit="10" d="M52.305,52.299c0.491,0,0.982-0.214,1.344-0.558
	c0.342-0.361,0.546-0.853,0.546-1.345c0-0.52-0.204-0.992-0.546-1.353c-0.705-0.696-1.995-0.696-2.7,0
	c-0.342,0.342-0.546,0.833-0.546,1.353c0,0.492,0.204,0.984,0.546,1.345C51.312,52.085,51.804,52.299,52.305,52.299z"/>
<path fill="#D3D3D3" d="M61.805,63.693h-19c-1.06,0-1.902,0.853-1.902,1.903c0,1.047,0.843,1.9,1.902,1.9h19
	c1.047,0,1.891-0.854,1.891-1.9C63.695,64.545,62.852,63.693,61.805,63.693"/>
<path fill="none" stroke="#FFFFFF" stroke-width="2" stroke-miterlimit="10" d="M61.805,63.693h-19c-1.06,0-1.902,0.853-1.902,1.903
	c0,1.047,0.843,1.9,1.902,1.9h19c1.047,0,1.891-0.854,1.891-1.9C63.695,64.545,62.852,63.693,61.805,63.693z"/>
<path fill="#CCCCCC" d="M35.195,67.496c0.52,0,0.992-0.214,1.355-0.546c0.342-0.363,0.546-0.861,0.546-1.354
	c0-0.494-0.204-0.994-0.546-1.348c-0.705-0.705-1.995-0.705-2.7,0c-0.36,0.354-0.547,0.854-0.547,1.348
	c0,0.492,0.187,0.99,0.547,1.354C34.212,67.282,34.703,67.496,35.195,67.496"/>
<path fill="none" stroke="#FFFFFF" stroke-width="2" stroke-miterlimit="10" d="M35.195,67.496c0.52,0,0.992-0.214,1.355-0.546
	c0.342-0.363,0.546-0.861,0.546-1.354c0-0.494-0.204-0.994-0.546-1.348c-0.705-0.705-1.995-0.705-2.7,0
	c-0.36,0.354-0.547,0.854-0.547,1.348c0,0.492,0.187,0.99,0.547,1.354C34.212,67.282,34.703,67.496,35.195,67.496z"/>
<path fill="#CCCCCC" d="M80.805,52.299c0.491,0,0.982-0.214,1.344-0.558c0.342-0.361,0.546-0.853,0.546-1.345
	c0-0.52-0.204-0.992-0.546-1.353c-0.725-0.696-1.995-0.696-2.7,0c-0.342,0.361-0.546,0.833-0.546,1.353
	c0,0.492,0.185,0.984,0.546,1.345C79.812,52.085,80.304,52.299,80.805,52.299"/>
<path fill="none" stroke="#FFFFFF" stroke-width="2" stroke-miterlimit="10" d="M80.805,52.299c0.491,0,0.982-0.214,1.344-0.558
	c0.342-0.361,0.546-0.853,0.546-1.345c0-0.52-0.204-0.992-0.546-1.353c-0.725-0.696-1.995-0.696-2.7,0
	c-0.342,0.361-0.546,0.833-0.546,1.353c0,0.492,0.185,0.984,0.546,1.345C79.812,52.085,80.304,52.299,80.805,52.299z"/>
<path fill="#CCCCCC" d="M103.597,40.85V18.091H79.151L62.833,2.892c-2.708-2.523-6.959-2.523-9.666,0L36.848,18.091H12.402V40.85
	L1,51.463V115h114V51.463L103.597,40.85z M39.092,82.258C39.054,82.407,39,82.545,39,82.696c0,0.155,0.054,0.297,0.092,0.443
	L4.804,109.266V56.13L39.092,82.258z M43.442,84.597h29.113l34.91,26.601H8.533L43.442,84.597z M111.195,56.13v53.136L76.332,82.704
	L111.195,56.13z M110.176,52.168c-0.057,0.038-0.121,0.057-0.176,0.102l-6.403,4.872V46.045L110.176,52.168z M55.755,5.676
	c1.261-1.169,3.228-1.169,4.479,0l13.344,12.415H42.422L55.755,5.676z M16.195,21.894h83.609v38.144L72.556,80.802H43.442
	L16.195,60.038V21.894z M12.402,57.142L5.999,52.27c-0.055-0.045-0.119-0.064-0.176-0.102l6.579-6.123V57.142z"/>
<path fill="none" stroke="#FFFFFF" stroke-width="2" stroke-miterlimit="10" d="M103.597,40.85V18.091H79.151L62.833,2.892
	c-2.708-2.523-6.959-2.523-9.666,0L36.848,18.091H12.402V40.85L1,51.463V115h114V51.463L103.597,40.85z M39.092,82.258
	C39.054,82.407,39,82.545,39,82.696c0,0.155,0.054,0.297,0.092,0.443L4.804,109.266V56.13L39.092,82.258z M43.442,84.597h29.113
	l34.91,26.601H8.533L43.442,84.597z M111.195,56.13v53.136L76.332,82.704L111.195,56.13z M110.176,52.168
	c-0.057,0.038-0.121,0.057-0.176,0.102l-6.403,4.872V46.045L110.176,52.168z M55.755,5.676c1.261-1.169,3.228-1.169,4.479,0
	l13.344,12.415H42.422L55.755,5.676z M16.195,21.894h83.609v38.144L72.556,80.802H43.442L16.195,60.038V21.894z M12.402,57.142
	L5.999,52.27c-0.055-0.045-0.119-0.064-0.176-0.102l6.579-6.123V57.142z"/>
</svg>
