<?xml version="1.0" encoding="utf-8"?>
<!-- Generator: Adobe Illustrator 15.0.2, SVG Export Plug-In  -->
<!DOCTYPE svg PUBLIC "-//W3C//DTD SVG 1.1//EN" "http://www.w3.org/Graphics/SVG/1.1/DTD/svg11.dtd" [
	<!ENTITY ns_flows "http://ns.adobe.com/Flows/1.0/">
]>
<svg version="1.1"
	 xmlns="http://www.w3.org/2000/svg" xmlns:xlink="http://www.w3.org/1999/xlink" xmlns:a="http://ns.adobe.com/AdobeSVGViewerExtensions/3.0/"
	 x="0px" y="0px" width="99px" height="108px" viewBox="0.613 0.065 99 108" enable-background="new 0.613 0.065 99 108"
	 xml:space="preserve">
<defs>
</defs>
<path fill="#CCCCCC" d="M90.652,1h-73.75c-4.053,0-7.35,3.294-7.35,7.342v6.683C4.695,15.908,1,20.163,1,25.267v71.319
	C1,102.329,5.676,107,11.424,107H22.34c5.748,0,10.424-4.672,10.424-10.414V95.34H90.25c4.273,0,7.75-3.473,7.75-7.741V8.342
	C98,4.294,94.704,1,90.652,1 M30.894,80.448c-1.032,0-1.87,0.838-1.87,1.868v0.494h-2.521c-3.6,0-6.552-2.815-6.771-6.356
	c1.696,1.353,3.846,2.164,6.18,2.164h9.965c2.334,0,4.482-0.812,6.179-2.164c-0.219,3.541-3.171,6.356-6.77,6.356h-2.522v-0.494
	C32.764,81.286,31.928,80.448,30.894,80.448 M13.294,85.598c1.067,0.604,2.298,0.949,3.608,0.949h12.121v5.056H17.303
	c-2.211,0-4.009-1.797-4.009-4.005V85.598z M42.071,68.691c0,3.413-2.779,6.188-6.194,6.188h-9.965
	c-3.416,0-6.195-2.776-6.195-6.188V11.016c0-3.412,2.779-6.189,6.195-6.189h9.965c3.415,0,6.194,2.777,6.194,6.189V68.691z
	 M13.294,8.342c0-1.988,1.618-3.605,3.608-3.605h1.32c-1.402,1.712-2.246,3.899-2.246,6.279v65.016c0,2.582,0.938,4.946,2.487,6.778
	h-1.562c-1.99,0-3.608-1.617-3.608-3.603V8.342z M29.023,96.586c0,3.683-2.998,6.677-6.684,6.677H11.424
	c-3.685,0-6.683-2.994-6.683-6.677V25.267c0-3.032,2.036-5.598,4.812-6.408v68.74c0,4.269,3.478,7.741,7.75,7.741h11.721V96.586z
	 M90.25,91.603H32.764v-5.056h57.889c1.31,0,2.54-0.346,3.606-0.949v2.001C94.259,89.807,92.462,91.603,90.25,91.603 M94.259,79.208
	c0,1.985-1.618,3.603-3.606,3.603H43.324c1.55-1.832,2.487-4.196,2.487-6.778V11.016c0-2.381-0.844-4.567-2.246-6.279h47.087
	c1.988,0,3.606,1.617,3.606,3.605V79.208z"/>
<path fill="none" stroke="#FFFFFF" stroke-width="2" stroke-miterlimit="10" d="M90.652,1h-73.75c-4.053,0-7.35,3.294-7.35,7.342
	v6.683C4.695,15.908,1,20.163,1,25.267v71.319C1,102.329,5.676,107,11.424,107H22.34c5.748,0,10.424-4.672,10.424-10.414V95.34
	H90.25c4.273,0,7.75-3.473,7.75-7.741V8.342C98,4.294,94.704,1,90.652,1z M30.894,80.448c-1.032,0-1.87,0.838-1.87,1.868v0.494
	h-2.521c-3.6,0-6.552-2.815-6.771-6.356c1.696,1.353,3.846,2.164,6.18,2.164h9.965c2.334,0,4.482-0.812,6.179-2.164
	c-0.219,3.541-3.171,6.356-6.77,6.356h-2.522v-0.494C32.764,81.286,31.928,80.448,30.894,80.448z M13.294,85.598
	c1.067,0.604,2.298,0.949,3.608,0.949h12.121v5.056H17.303c-2.211,0-4.009-1.797-4.009-4.005V85.598z M42.071,68.691
	c0,3.413-2.779,6.188-6.194,6.188h-9.965c-3.416,0-6.195-2.776-6.195-6.188V11.016c0-3.412,2.779-6.189,6.195-6.189h9.965
	c3.415,0,6.194,2.777,6.194,6.189V68.691z M13.294,8.342c0-1.988,1.618-3.605,3.608-3.605h1.32
	c-1.402,1.712-2.246,3.899-2.246,6.279v65.016c0,2.582,0.938,4.946,2.487,6.778h-1.562c-1.99,0-3.608-1.617-3.608-3.603V8.342z
	 M29.023,96.586c0,3.683-2.998,6.677-6.684,6.677H11.424c-3.685,0-6.683-2.994-6.683-6.677V25.267c0-3.032,2.036-5.598,4.812-6.408
	v68.74c0,4.269,3.478,7.741,7.75,7.741h11.721V96.586z M90.25,91.603H32.764v-5.056h57.889c1.31,0,2.54-0.346,3.606-0.949v2.001
	C94.259,89.807,92.462,91.603,90.25,91.603z M94.259,79.208c0,1.985-1.618,3.603-3.606,3.603H43.324
	c1.55-1.832,2.487-4.196,2.487-6.778V11.016c0-2.381-0.844-4.567-2.246-6.279h47.087c1.988,0,3.606,1.617,3.606,3.605V79.208z"/>
<path fill="#D3D3D3" d="M52.46,27.998h35.152c1.031,0,1.869-0.837,1.869-1.869v-12.03c0-1.032-0.838-1.869-1.869-1.869H52.46
	c-1.033,0-1.871,0.837-1.871,1.869v12.03C50.589,27.161,51.427,27.998,52.46,27.998 M67.491,24.261l4.798-8.294h3.949l-4.797,8.294
	H67.491z M85.741,24.261h-9.979l4.797-8.294h5.183V24.261z M54.33,15.966h13.638l-4.797,8.294H54.33V15.966z"/>
<path fill="none" stroke="#FFFFFF" stroke-width="2" stroke-miterlimit="10" d="M52.46,27.998h35.152
	c1.031,0,1.869-0.837,1.869-1.869v-12.03c0-1.032-0.838-1.869-1.869-1.869H52.46c-1.033,0-1.871,0.837-1.871,1.869v12.03
	C50.589,27.161,51.427,27.998,52.46,27.998z M67.491,24.261l4.798-8.294h3.949l-4.797,8.294H67.491z M85.741,24.261h-9.979
	l4.797-8.294h5.183V24.261z M54.33,15.966h13.638l-4.797,8.294H54.33V15.966z"/>
<path fill="#CCCCCC" d="M59.418,33.6h-7.999c-1.034,0-1.87,0.837-1.87,1.869v7.99c0,1.032,0.836,1.869,1.87,1.869h7.999
	c1.033,0,1.871-0.837,1.871-1.869v-7.99C61.289,34.437,60.451,33.6,59.418,33.6 M57.548,41.591H53.29v-4.254h4.258V41.591z"/>
<path fill="none" stroke="#FFFFFF" stroke-width="2" stroke-miterlimit="10" d="M59.418,33.6h-7.999c-1.034,0-1.87,0.837-1.87,1.869
	v7.99c0,1.032,0.836,1.869,1.87,1.869h7.999c1.033,0,1.871-0.837,1.871-1.869v-7.99C61.289,34.437,60.451,33.6,59.418,33.6z
	 M57.548,41.591H53.29v-4.254h4.258V41.591z"/>
<path fill="#CCCCCC" d="M74.035,33.6h-7.999c-1.033,0-1.871,0.837-1.871,1.869v7.99c0,1.032,0.838,1.869,1.871,1.869h7.999
	c1.033,0,1.87-0.837,1.87-1.869v-7.99C75.905,34.437,75.068,33.6,74.035,33.6 M72.164,41.591h-4.258v-4.254h4.258V41.591z"/>
<path fill="none" stroke="#FFFFFF" stroke-width="2" stroke-miterlimit="10" d="M74.035,33.6h-7.999
	c-1.033,0-1.871,0.837-1.871,1.869v7.99c0,1.032,0.838,1.869,1.871,1.869h7.999c1.033,0,1.87-0.837,1.87-1.869v-7.99
	C75.905,34.437,75.068,33.6,74.035,33.6z M72.164,41.591h-4.258v-4.254h4.258V41.591z"/>
<path fill="#CCCCCC" d="M88.651,33.6h-7.999c-1.033,0-1.87,0.837-1.87,1.869v7.99c0,1.032,0.837,1.869,1.87,1.869h7.999
	c1.034,0,1.871-0.837,1.871-1.869v-7.99C90.522,34.437,89.686,33.6,88.651,33.6 M86.781,41.591h-4.258v-4.254h4.258V41.591z"/>
<path fill="none" stroke="#FFFFFF" stroke-width="2" stroke-miterlimit="10" d="M88.651,33.6h-7.999c-1.033,0-1.87,0.837-1.87,1.869
	v7.99c0,1.032,0.837,1.869,1.87,1.869h7.999c1.034,0,1.871-0.837,1.871-1.869v-7.99C90.522,34.437,89.686,33.6,88.651,33.6z
	 M86.781,41.591h-4.258v-4.254h4.258V41.591z"/>
<path fill="#CCCCCC" d="M59.418,48.305h-7.999c-1.034,0-1.87,0.836-1.87,1.868v7.992c0,1.032,0.836,1.867,1.87,1.867h7.999
	c1.033,0,1.871-0.835,1.871-1.867v-7.992C61.289,49.141,60.451,48.305,59.418,48.305 M57.548,56.297H53.29v-4.255h4.258V56.297z"/>
<path fill="none" stroke="#FFFFFF" stroke-width="2" stroke-miterlimit="10" d="M59.418,48.305h-7.999
	c-1.034,0-1.87,0.836-1.87,1.868v7.992c0,1.032,0.836,1.867,1.87,1.867h7.999c1.033,0,1.871-0.835,1.871-1.867v-7.992
	C61.289,49.141,60.451,48.305,59.418,48.305z M57.548,56.297H53.29v-4.255h4.258V56.297z"/>
<path fill="#CCCCCC" d="M74.035,48.305h-7.999c-1.033,0-1.871,0.836-1.871,1.868v7.992c0,1.032,0.838,1.867,1.871,1.867h7.999
	c1.033,0,1.87-0.835,1.87-1.867v-7.992C75.905,49.141,75.068,48.305,74.035,48.305 M72.164,56.297h-4.258v-4.255h4.258V56.297z"/>
<path fill="none" stroke="#FFFFFF" stroke-width="2" stroke-miterlimit="10" d="M74.035,48.305h-7.999
	c-1.033,0-1.871,0.836-1.871,1.868v7.992c0,1.032,0.838,1.867,1.871,1.867h7.999c1.033,0,1.87-0.835,1.87-1.867v-7.992
	C75.905,49.141,75.068,48.305,74.035,48.305z M72.164,56.297h-4.258v-4.255h4.258V56.297z"/>
<path fill="#CCCCCC" d="M88.651,48.305h-7.999c-1.033,0-1.87,0.836-1.87,1.868v7.992c0,1.032,0.837,1.867,1.87,1.867h7.999
	c1.034,0,1.871-0.835,1.871-1.867v-7.992C90.522,49.141,89.686,48.305,88.651,48.305 M86.781,56.297h-4.258v-4.255h4.258V56.297z"/>
<path fill="none" stroke="#FFFFFF" stroke-width="2" stroke-miterlimit="10" d="M88.651,48.305h-7.999
	c-1.033,0-1.87,0.836-1.87,1.868v7.992c0,1.032,0.837,1.867,1.87,1.867h7.999c1.034,0,1.871-0.835,1.871-1.867v-7.992
	C90.522,49.141,89.686,48.305,88.651,48.305z M86.781,56.297h-4.258v-4.255h4.258V56.297z"/>
<path fill="#CCCCCC" d="M59.418,63.01h-7.999c-1.034,0-1.87,0.837-1.87,1.869v7.99c0,1.031,0.836,1.868,1.87,1.868h7.999
	c1.033,0,1.871-0.837,1.871-1.868v-7.99C61.289,63.847,60.451,63.01,59.418,63.01 M57.548,71H53.29v-4.254h4.258V71z"/>
<path fill="none" stroke="#FFFFFF" stroke-width="2" stroke-miterlimit="10" d="M59.418,63.01h-7.999
	c-1.034,0-1.87,0.837-1.87,1.869v7.99c0,1.031,0.836,1.868,1.87,1.868h7.999c1.033,0,1.871-0.837,1.871-1.868v-7.99
	C61.289,63.847,60.451,63.01,59.418,63.01z M57.548,71H53.29v-4.254h4.258V71z"/>
<path fill="#CCCCCC" d="M74.035,63.01h-7.999c-1.033,0-1.871,0.837-1.871,1.869v7.99c0,1.031,0.838,1.868,1.871,1.868h7.999
	c1.033,0,1.87-0.837,1.87-1.868v-7.99C75.905,63.847,75.068,63.01,74.035,63.01 M72.164,71h-4.258v-4.254h4.258V71z"/>
<path fill="none" stroke="#FFFFFF" stroke-width="2" stroke-miterlimit="10" d="M74.035,63.01h-7.999
	c-1.033,0-1.871,0.837-1.871,1.869v7.99c0,1.031,0.838,1.868,1.871,1.868h7.999c1.033,0,1.87-0.837,1.87-1.868v-7.99
	C75.905,63.847,75.068,63.01,74.035,63.01z M72.164,71h-4.258v-4.254h4.258V71z"/>
<path fill="#CCCCCC" d="M88.651,63.01h-7.999c-1.033,0-1.87,0.837-1.87,1.869v7.99c0,1.031,0.837,1.868,1.87,1.868h7.999
	c1.034,0,1.871-0.837,1.871-1.868v-7.99C90.522,63.847,89.686,63.01,88.651,63.01 M86.781,71h-4.258v-4.254h4.258V71z"/>
<path fill="none" stroke="#FFFFFF" stroke-width="2" stroke-miterlimit="10" d="M88.651,63.01h-7.999
	c-1.033,0-1.87,0.837-1.87,1.869v7.99c0,1.031,0.837,1.868,1.87,1.868h7.999c1.034,0,1.871-0.837,1.871-1.868v-7.99
	C90.522,63.847,89.686,63.01,88.651,63.01z M86.781,71h-4.258v-4.254h4.258V71z"/>
</svg>
