<?xml version="1.0" encoding="utf-8"?>
<!-- Generator: Adobe Illustrator 15.0.2, SVG Export Plug-In  -->
<!DOCTYPE svg PUBLIC "-//W3C//DTD SVG 1.1//EN" "http://www.w3.org/Graphics/SVG/1.1/DTD/svg11.dtd" [
	<!ENTITY ns_flows "http://ns.adobe.com/Flows/1.0/">
]>
<svg version="1.1"
	 xmlns="http://www.w3.org/2000/svg" xmlns:xlink="http://www.w3.org/1999/xlink" xmlns:a="http://ns.adobe.com/AdobeSVGViewerExtensions/3.0/"
	 x="0px" y="0px" width="118px" height="100px" viewBox="0.279 -0.295 118 100" enable-background="new 0.279 -0.295 118 100"
	 xml:space="preserve">
<defs>
</defs>
<path fill="#D3D3D3" d="M25.624,47.123l1.282,1.282c0.354,0.356,0.817,0.533,1.281,0.533s0.928-0.177,1.282-0.533
	c0.708-0.708,0.708-1.857,0-2.566l-1.282-1.283l1.282-1.284c0.708-0.708,0.708-1.857,0-2.566c-0.708-0.708-1.855-0.708-2.563,0
	l-1.282,1.284l-1.282-1.284c-0.708-0.708-1.855-0.708-2.563,0c-0.707,0.709-0.707,1.858,0,2.566l1.282,1.284l-1.282,1.283
	c-0.707,0.709-0.707,1.858,0,2.566c0.354,0.356,0.817,0.533,1.282,0.533c0.464,0,0.927-0.177,1.281-0.533L25.624,47.123z"/>
<path fill="none" stroke="#FFFFFF" stroke-width="2" stroke-miterlimit="10" d="M25.624,47.123l1.282,1.282
	c0.354,0.356,0.817,0.533,1.281,0.533s0.928-0.177,1.282-0.533c0.708-0.708,0.708-1.857,0-2.566l-1.282-1.283l1.282-1.284
	c0.708-0.708,0.708-1.857,0-2.566c-0.708-0.708-1.855-0.708-2.563,0l-1.282,1.284l-1.282-1.284c-0.708-0.708-1.855-0.708-2.563,0
	c-0.707,0.709-0.707,1.858,0,2.566l1.282,1.284l-1.282,1.283c-0.707,0.709-0.707,1.858,0,2.566c0.354,0.356,0.817,0.533,1.282,0.533
	c0.464,0,0.927-0.177,1.281-0.533L25.624,47.123z"/>
<path fill="#D3D3D3" d="M80.75,40.174l1.282-1.284c0.707-0.708,0.707-1.857,0-2.566c-0.709-0.709-1.856-0.709-2.563,0l-1.282,1.283
	l-1.281-1.283c-0.708-0.709-1.856-0.709-2.563,0s-0.707,1.858,0,2.566l1.281,1.284l-1.281,1.284c-0.707,0.708-0.707,1.857,0,2.566
	c0.354,0.354,0.818,0.531,1.281,0.531c0.465,0,0.93-0.177,1.282-0.531l1.282-1.284l1.281,1.284c0.354,0.354,0.818,0.531,1.281,0.531
	c0.465,0,0.928-0.177,1.282-0.531c0.707-0.709,0.707-1.858,0-2.566L80.75,40.174z"/>
<path fill="none" stroke="#FFFFFF" stroke-width="2" stroke-miterlimit="10" d="M80.75,40.174l1.282-1.284
	c0.707-0.708,0.707-1.857,0-2.566c-0.709-0.709-1.856-0.709-2.563,0l-1.282,1.283l-1.281-1.283c-0.708-0.709-1.856-0.709-2.563,0
	s-0.707,1.858,0,2.566l1.281,1.284l-1.281,1.284c-0.707,0.708-0.707,1.857,0,2.566c0.354,0.354,0.818,0.531,1.281,0.531
	c0.465,0,0.93-0.177,1.282-0.531l1.282-1.284l1.281,1.284c0.354,0.354,0.818,0.531,1.281,0.531c0.465,0,0.928-0.177,1.282-0.531
	c0.707-0.709,0.707-1.858,0-2.566L80.75,40.174z"/>
<path fill="#CCCCCC" d="M111.562,8.259H95.25c-2.998,0-5.437,2.443-5.437,5.445v1.815H71.687V2.815C71.687,1.812,70.876,1,69.875,1
	H24.563C23.56,1,22.75,1.812,22.75,2.815v12.704H6.437C3.439,15.519,1,17.961,1,20.963v72.594C1,96.559,3.439,99,6.437,99h21.749
	c1.003,0,1.813-0.813,1.813-1.814v-5.443h81.563c2.999,0,5.438-2.444,5.438-5.445V13.704C117,10.702,114.561,8.259,111.562,8.259
	 M93.438,19.149v-5.445c0-1.001,0.812-1.815,1.812-1.815h16.313c1,0,1.813,0.814,1.813,1.815v67.46
	c-0.566-0.202-1.177-0.311-1.813-0.311H95.25c-1,0-1.812-0.815-1.812-1.815V19.149z M26.374,4.63h41.688v21.777H33.624
	c-0.41,0-0.81,0.141-1.132,0.398l-6.118,4.901V4.63z M6.437,95.371c-1,0-1.812-0.814-1.812-1.814c0-1.002,0.812-1.814,1.812-1.814
	h19.937v3.629H6.437z M111.562,88.111H6.437c-0.635,0-1.245,0.11-1.812,0.312v-67.46c0-1.001,0.812-1.814,1.812-1.814H22.75v16.332
	c0,0.698,0.399,1.335,1.027,1.637c0.249,0.119,0.519,0.178,0.784,0.178c0.405,0,0.805-0.134,1.133-0.397l8.567-6.862h35.614
	c1.002,0,1.813-0.813,1.813-1.815v-9.073h18.126v59.889c0,3.002,2.438,5.444,5.437,5.444h16.313c0.999,0,1.812,0.813,1.812,1.814
	C113.375,87.297,112.562,88.111,111.562,88.111"/>
<path fill="none" stroke="#FFFFFF" stroke-width="2" stroke-miterlimit="10" d="M111.562,8.259H95.25
	c-2.998,0-5.437,2.443-5.437,5.445v1.815H71.687V2.815C71.687,1.812,70.876,1,69.875,1H24.563C23.56,1,22.75,1.812,22.75,2.815
	v12.704H6.437C3.439,15.519,1,17.961,1,20.963v72.594C1,96.559,3.439,99,6.437,99h21.749c1.003,0,1.813-0.813,1.813-1.814v-5.443
	h81.563c2.999,0,5.438-2.444,5.438-5.445V13.704C117,10.702,114.561,8.259,111.562,8.259z M93.438,19.149v-5.445
	c0-1.001,0.812-1.815,1.812-1.815h16.313c1,0,1.813,0.814,1.813,1.815v67.46c-0.566-0.202-1.177-0.311-1.813-0.311H95.25
	c-1,0-1.812-0.815-1.812-1.815V19.149z M26.374,4.63h41.688v21.777H33.624c-0.41,0-0.81,0.141-1.132,0.398l-6.118,4.901V4.63z
	 M6.437,95.371c-1,0-1.812-0.814-1.812-1.814c0-1.002,0.812-1.814,1.812-1.814h19.937v3.629H6.437z M111.562,88.111H6.437
	c-0.635,0-1.245,0.11-1.812,0.312v-67.46c0-1.001,0.812-1.814,1.812-1.814H22.75v16.332c0,0.698,0.399,1.335,1.027,1.637
	c0.249,0.119,0.519,0.178,0.784,0.178c0.405,0,0.805-0.134,1.133-0.397l8.567-6.862h35.614c1.002,0,1.813-0.813,1.813-1.815v-9.073
	h18.126v59.889c0,3.002,2.438,5.444,5.437,5.444h16.313c0.999,0,1.812,0.813,1.812,1.814
	C113.375,87.297,112.562,88.111,111.562,88.111z"/>
<path fill="#CCCCCC" d="M78.186,46.37c-1.001,0-1.813,0.812-1.813,1.815v18.148H45.562c-1.002,0-1.813,0.813-1.813,1.815v10.889
	H27.436V51.814c0-1.002-0.811-1.814-1.812-1.814s-1.813,0.813-1.813,1.814v29.037c0,1.004,0.812,1.815,1.813,1.815h19.938
	c1.001,0,1.811-0.812,1.811-1.815l0.001-10.889h30.812c1.001,0,1.813-0.813,1.813-1.814V48.185C80,47.182,79.187,46.37,78.186,46.37
	"/>
<path fill="none" stroke="#FFFFFF" stroke-width="2" stroke-miterlimit="10" d="M78.186,46.37c-1.001,0-1.813,0.812-1.813,1.815
	v18.148H45.562c-1.002,0-1.813,0.813-1.813,1.815v10.889H27.436V51.814c0-1.002-0.811-1.814-1.812-1.814s-1.813,0.813-1.813,1.814
	v29.037c0,1.004,0.812,1.815,1.813,1.815h19.938c1.001,0,1.811-0.812,1.811-1.815l0.001-10.889h30.812
	c1.001,0,1.813-0.813,1.813-1.814V48.185C80,47.182,79.187,46.37,78.186,46.37z"/>
<path fill="#CCCCCC" d="M42.687,20.963V10.074c0-1.002-0.812-1.815-1.813-1.815h-9.061C30.81,8.259,30,9.072,30,10.074v10.889
	c0,1.003,0.812,1.815,1.813,1.815h9.061C41.875,22.778,42.687,21.966,42.687,20.963 M39.062,19.147h-5.438v-7.258h5.438V19.147z"/>
<path fill="none" stroke="#FFFFFF" stroke-width="2" stroke-miterlimit="10" d="M42.687,20.963V10.074
	c0-1.002-0.812-1.815-1.813-1.815h-9.061C30.81,8.259,30,9.072,30,10.074v10.889c0,1.003,0.812,1.815,1.813,1.815h9.061
	C41.875,22.778,42.687,21.966,42.687,20.963z M39.062,19.147h-5.438v-7.258h5.438V19.147z"/>
<path fill="#CCCCCC" d="M48.124,11.889h14.5c1,0,1.813-0.812,1.813-1.815c0-1.002-0.813-1.815-1.813-1.815h-14.5
	c-1.001,0-1.813,0.813-1.813,1.815C46.311,11.077,47.123,11.889,48.124,11.889"/>
<path fill="none" stroke="#FFFFFF" stroke-width="2" stroke-miterlimit="10" d="M48.124,11.889h14.5c1,0,1.813-0.812,1.813-1.815
	c0-1.002-0.813-1.815-1.813-1.815h-14.5c-1.001,0-1.813,0.813-1.813,1.815C46.311,11.077,47.123,11.889,48.124,11.889z"/>
<path fill="#CCCCCC" d="M48.124,17.333h14.5c1,0,1.813-0.812,1.813-1.815c0-1.002-0.813-1.815-1.813-1.815h-14.5
	c-1.001,0-1.813,0.813-1.813,1.815C46.311,16.521,47.123,17.333,48.124,17.333"/>
<path fill="none" stroke="#FFFFFF" stroke-width="2" stroke-miterlimit="10" d="M48.124,17.333h14.5c1,0,1.813-0.812,1.813-1.815
	c0-1.002-0.813-1.815-1.813-1.815h-14.5c-1.001,0-1.813,0.813-1.813,1.815C46.311,16.521,47.123,17.333,48.124,17.333z"/>
<path fill="#CCCCCC" d="M48.124,22.778h14.5c1,0,1.813-0.812,1.813-1.815c0-1.002-0.813-1.815-1.813-1.815h-14.5
	c-1.001,0-1.813,0.813-1.813,1.815C46.311,21.966,47.123,22.778,48.124,22.778"/>
<path fill="none" stroke="#FFFFFF" stroke-width="2" stroke-miterlimit="10" d="M48.124,22.778h14.5c1,0,1.813-0.812,1.813-1.815
	c0-1.002-0.813-1.815-1.813-1.815h-14.5c-1.001,0-1.813,0.813-1.813,1.815C46.311,21.966,47.123,22.778,48.124,22.778z"/>
</svg>
