<?xml version="1.0" encoding="utf-8"?>
<!-- Generator: Adobe Illustrator 15.0.2, SVG Export Plug-In  -->
<!DOCTYPE svg PUBLIC "-//W3C//DTD SVG 1.1//EN" "http://www.w3.org/Graphics/SVG/1.1/DTD/svg11.dtd" [
	<!ENTITY ns_flows "http://ns.adobe.com/Flows/1.0/">
]>
<svg version="1.1"
	 xmlns="http://www.w3.org/2000/svg" xmlns:xlink="http://www.w3.org/1999/xlink" xmlns:a="http://ns.adobe.com/AdobeSVGViewerExtensions/3.0/"
	 x="0px" y="0px" width="53px" height="60px" viewBox="-0.627 -1.217 53 60" enable-background="new -0.627 -1.217 53 60"
	 xml:space="preserve">
<defs>
</defs>
<path fill="#1490e7" d="M40.879,47.43c0.209-0.17,0.342-0.43,0.342-0.722V4.627c0-0.51-0.41-0.925-0.916-0.925H13.783
	C13.129,1.561,11.15,0,8.818,0C6.523,0,4.515,1.544,3.854,3.702H0.916C0.41,3.702,0,4.117,0,4.627v52.447C0,57.585,0.41,58,0.916,58
	h29.115c0.295,0,0.553-0.135,0.721-0.345L40.879,47.43z M30.955,54.832v-7.197h7.129L30.955,54.832z M8.818,1.852
	c1.303,0,2.435,0.753,2.992,1.851H5.825C6.388,2.598,7.533,1.852,8.818,1.852 M1.833,5.554h10.346v6.479
	c0,0.851-0.685,1.542-1.527,1.542c-0.843,0-1.528-0.691-1.528-1.542V8.33c0-0.511-0.411-0.926-0.917-0.926
	C7.7,7.404,7.29,7.819,7.29,8.33v3.702c0,1.871,1.508,3.394,3.362,3.394c1.853,0,3.361-1.522,3.361-3.394V5.554h25.375v40.229h-9.35
	c-0.508,0-0.918,0.414-0.918,0.925v9.441H1.833V5.554z"/>
<path fill="#1490e7" d="M32.971,42.636c0.507,0,0.917-0.414,0.917-0.926c0-0.51-0.41-0.925-0.917-0.925H8.25
	c-0.506,0-0.917,0.415-0.917,0.925c0,0.512,0.411,0.926,0.917,0.926H32.971z"/>
<path fill="#1490e7" d="M8.25,37.083h24.721c0.507,0,0.917-0.414,0.917-0.927c0-0.51-0.41-0.925-0.917-0.925H8.25
	c-0.506,0-0.917,0.415-0.917,0.925C7.333,36.669,7.744,37.083,8.25,37.083"/>
<path fill="#1490e7" d="M8.25,31.529h24.721c0.507,0,0.917-0.414,0.917-0.926c0-0.51-0.41-0.925-0.917-0.925H8.25
	c-0.506,0-0.917,0.415-0.917,0.925C7.333,31.115,7.744,31.529,8.25,31.529"/>
<path fill="#1490e7" d="M8.25,25.977h24.721c0.507,0,0.917-0.414,0.917-0.926c0-0.511-0.41-0.926-0.917-0.926H8.25
	c-0.506,0-0.917,0.415-0.917,0.926C7.333,25.563,7.744,25.977,8.25,25.977"/>
<path fill="#1490e7" d="M8.25,20.423h24.721c0.507,0,0.917-0.414,0.917-0.926c0-0.51-0.41-0.925-0.917-0.925H8.25
	c-0.506,0-0.917,0.415-0.917,0.925C7.333,20.009,7.744,20.423,8.25,20.423"/>
<path fill="#1490e7" d="M45.194,3.702h-1.222c-0.506,0-0.917,0.415-0.917,0.926s0.411,0.925,0.917,0.925h0.305v50.597H34.49
	c-0.506,0-0.917,0.414-0.917,0.925S33.984,58,34.49,58h10.704c0.507,0,0.917-0.415,0.917-0.926V4.628
	C46.111,4.117,45.701,3.702,45.194,3.702"/>
<path fill="#1490e7" d="M50.083,3.702h-1.223c-0.506,0-0.917,0.415-0.917,0.926s0.411,0.925,0.917,0.925h0.305v50.597h-0.305
	c-0.506,0-0.917,0.414-0.917,0.925S48.355,58,48.861,58h1.223C50.589,58,51,57.585,51,57.074V4.628
	C51,4.117,50.589,3.702,50.083,3.702"/>
</svg>
