<!DOCTYPE svg PUBLIC "-//W3C//DTD SVG 1.1//EN" "http://www.w3.org/Graphics/SVG/1.1/DTD/svg11.dtd" [
	<!ENTITY ns_flows "http://ns.adobe.com/Flows/1.0/">
]>
<svg xmlns="http://www.w3.org/2000/svg" xmlns:xlink="http://www.w3.org/1999/xlink" width="1013" height="244" viewBox="0 0 1013 244">
  <path fill="#fff" d="M74.88 12.758h30.144v4.24H74.88zM74.88 21.013h30.144v4.24H74.88zM74.88 29.27h30.144v4.24H74.88zM74.88 37.524h30.144v4.24H74.88z"/>
  <defs>
    <path id="a" d="M0 0h1012.667v244.333H0z"/>
  </defs>
  <clipPath id="b">
    <use xlink:href="#a" overflow="visible"/>
  </clipPath>
  <path clip-path="url(#b)" fill="#fff" d="M238.52 70.224h-29.585v6.116h32.05c-.768-2.066-1.592-4.104-2.465-6.116M233.885 60.68h-24.95v6.117h28.035c-.975-2.07-2-4.11-3.085-6.116M228.147 51.138h-19.212v6.116h23.02c-1.21-2.078-2.48-4.117-3.808-6.116M221.27 41.766h-12.335v5.207h16.322c-1.282-1.772-2.612-3.51-3.986-5.207"/>
  <path clip-path="url(#b)" fill="#fff" d="M242.335 80.16h-33.4v8.866h-3.332v-59.53L178.033 9.5v79.525h-4.543V37.98h-22.873v51.046h-6.664V7.836h-4.545v-6.21h-25.144v6.21h-4.545v81.19h-4.696V45.78H74.88v43.246h-5V49.264H39.625v39.762H30.8V39.49C12.523 61.038 1.49 88.927 1.49 119.397c0 27.02 8.677 52.01 23.386 72.35 13.84-15.24 49.15-40.98 61.592-61.784 10.224-17.95-8.407-29.083-28.402-34.31 64.074-2.498 98.61 2.5 131.102 15.45 32.49 12.953 39.08 33.402 18.404 42.263-20.676 8.86-73.162 7.044-79.297 19.54-5.993 12.208 40.705 28.533 88.407 29.493 19.894-21.94 32.015-51.055 32.015-83.002 0-13.717-2.238-26.91-6.362-39.238"/>
  <path clip-path="url(#b)" fill="#fff" d="M95.102 181.993c-2.954-12.724 5.453-21.812 32.49-25.902 27.04-4.09 43.172-6.134 45.217-11.36 2.043-5.226-5.227-20.902-34.992-31.58-23.63-9.317-43.17-8.635-43.17-8.635s16.586 9.315 8.634 33.4C95.33 162 66.02 191.31 63.747 226.3l-.03.407C81.803 237.073 102.756 243 125.095 243c10.24 0 20.186-1.253 29.7-3.6-22.62-9.23-51.826-29.313-59.692-57.407"/>
  <path fill="#fff" d="M723.09 107.11h-24.152v87.21h-19.983v-87.21H655.44V91.504h67.65"/>
  <g>
    <defs>
      <path id="c" d="M0 0h1012.667v244.333H0z"/>
    </defs>
    <clipPath id="d">
      <use xlink:href="#c" overflow="visible"/>
    </clipPath>
    <path clip-path="url(#d)" fill="#fff" d="M807.13 157.317c0 12.1-3.415 21.538-10.24 28.317-6.826 6.78-15.914 10.17-27.258 10.17-11.346 0-20.408-3.39-27.187-10.17-6.78-6.78-10.17-16.217-10.17-28.317v-28.67c0-12.05 3.38-21.502 10.135-28.35 6.755-6.85 15.806-10.276 27.15-10.276 11.346 0 20.444 3.426 27.294 10.276 6.85 6.85 10.274 16.3 10.274 28.35v28.67zm-19.844-28.88c0-7.485-1.52-13.135-4.555-16.948-3.036-3.814-7.426-5.72-13.17-5.72-5.79 0-10.145 1.895-13.063 5.684-2.92 3.79-4.38 9.45-4.38 16.983v28.88c0 7.628 1.473 13.35 4.415 17.16 2.94 3.814 7.31 5.72 13.1 5.72s10.178-1.905 13.17-5.72c2.988-3.812 4.483-9.532 4.483-17.16v-28.88zM894.346 156.683l.424-.072 10.52-65.105h20.268L905.433 194.32H886.93l-15.04-63.694h-.424l-14.97 63.695h-18.5L817.728 91.506h20.406l10.52 65.248.425.07 14.76-65.318h15.677M1011.15 194.32h-19.913l-32.624-65.6-.424.07v65.53h-19.914V91.504h19.913l32.623 65.673.424-.07V91.503h19.914M315.822 153.08v41.24H295.91V91.575h30.787c10.215 0 18.254 2.66 24.115 7.98 5.86 5.32 8.79 12.735 8.79 22.243 0 5.32-1.234 9.935-3.706 13.84-2.47 3.91-6.037 7.017-10.698 9.323 5.367 1.79 9.227 4.756 11.58 8.898s3.53 9.32 3.53 15.534v7.486c0 2.872.33 5.885.99 9.038.66 3.155 1.837 5.462 3.53 6.92v1.483H344.21c-1.65-1.506-2.696-3.966-3.143-7.38-.448-3.413-.67-6.814-.67-10.204v-7.203c0-5.226-1.085-9.273-3.25-12.146-2.165-2.87-5.272-4.308-9.32-4.308h-12.005zm0-15.534h10.733c4.284 0 7.544-1.282 9.78-3.85 2.236-2.564 3.355-6.2 3.355-10.91 0-4.8-1.106-8.614-3.32-11.438-2.212-2.825-5.437-4.238-9.673-4.238h-10.875v30.436zM380.16 91.504h19.843V194.32H380.16zM451.56 168.052l.847 4.307h.424l.848-4.096 17.795-76.76h20.973L463 194.32h-20.69L413 91.504h20.975M555.583 148.915H524.16v29.87h37.637v15.535h-57.55V91.505h57.41v15.606h-37.498v26.27h31.423M597.677 153.08v41.24h-19.913V91.575h30.788c10.215 0 18.254 2.66 24.115 7.98 5.86 5.32 8.79 12.735 8.79 22.243 0 5.32-1.234 9.935-3.706 13.84-2.47 3.91-6.036 7.017-10.697 9.323 5.367 1.79 9.227 4.756 11.58 8.898s3.53 9.32 3.53 15.534v7.486c0 2.872.33 5.885.99 9.038.658 3.155 1.837 5.462 3.53 6.92v1.483h-20.62c-1.647-1.506-2.694-3.966-3.142-7.38-.447-3.413-.67-6.814-.67-10.204v-7.203c0-5.226-1.084-9.273-3.248-12.146-2.166-2.87-5.273-4.308-9.32-4.308h-12.005zm0-15.534h10.733c4.283 0 7.544-1.282 9.78-3.85 2.235-2.564 3.354-6.2 3.354-10.91 0-4.8-1.106-8.614-3.32-11.438-2.212-2.825-5.437-4.238-9.673-4.238h-10.874v30.436z"/>
  </g>
</svg>
