<?xml version="1.0" encoding="utf-8"?>
<!-- Generator: Adobe Illustrator 15.0.2, SVG Export Plug-In  -->
<!DOCTYPE svg PUBLIC "-//W3C//DTD SVG 1.1//EN" "http://www.w3.org/Graphics/SVG/1.1/DTD/svg11.dtd" [
	<!ENTITY ns_flows "http://ns.adobe.com/Flows/1.0/">
]>
<svg version="1.1"
	 xmlns="http://www.w3.org/2000/svg" xmlns:xlink="http://www.w3.org/1999/xlink" xmlns:a="http://ns.adobe.com/AdobeSVGViewerExtensions/3.0/"
	 x="0px" y="0px" width="1012px" height="243px" viewBox="-1.17 -0.813 1012 243" enable-background="new -1.17 -0.813 1012 243"
	 xml:space="preserve">
<defs>
</defs>
<rect x="73.39" y="11.133" fill="#1490E7" width="30.143" height="4.241"/>
<rect x="73.39" y="19.389" fill="#1490E7" width="30.143" height="4.241"/>
<rect x="73.39" y="27.645" fill="#1490E7" width="30.143" height="4.241"/>
<rect x="73.39" y="35.899" fill="#1490E7" width="30.143" height="4.241"/>
<g>
	<path fill="#1490E7" d="M237.029,68.599h-29.585v6.116h32.05C238.726,72.649,237.902,70.611,237.029,68.599"/>
	<path fill="#1490E7" d="M232.395,59.056h-24.95v6.116h28.035C234.504,63.102,233.479,61.061,232.395,59.056"/>
	<path fill="#1490E7" d="M226.656,49.513h-19.212v6.116h23.021C229.254,53.551,227.983,51.512,226.656,49.513"/>
	<path fill="#1490E7" d="M219.781,40.141h-12.336v5.207h16.322C222.484,43.576,221.154,41.84,219.781,40.141"/>
	<path fill="#1490E7" d="M240.844,78.535h-33.4v8.866h-3.332v-59.53L176.543,7.877v79.524h-4.544V36.354h-22.873v51.047h-6.664
		V6.211h-4.545V0h-25.144v6.211h-4.545v81.19h-4.695V44.155H73.389v43.246H68.39V47.639H38.133v39.762H29.31V37.865
		C11.031,59.413,0,87.302,0,117.772c0,27.02,8.676,52.01,23.385,72.35c13.84-15.242,49.151-40.981,61.592-61.785
		c10.224-17.95-8.407-29.083-28.402-34.309c64.074-2.499,98.61,2.499,131.102,15.451c32.491,12.951,39.08,33.4,18.404,42.261
		c-20.676,8.86-73.162,7.044-79.297,19.54c-5.993,12.208,40.705,28.532,88.408,29.492c19.893-21.938,32.014-51.054,32.014-83
		C247.206,104.056,244.968,90.863,240.844,78.535"/>
	<path fill="#1490E7" d="M93.611,180.368c-2.954-12.724,5.453-21.812,32.491-25.901c27.039-4.09,43.171-6.135,45.216-11.361
		c2.044-5.226-5.226-20.903-34.991-31.582c-23.63-9.316-43.17-8.634-43.17-8.634s16.586,9.315,8.634,33.4
		c-7.953,24.084-37.263,53.395-39.535,88.385c-0.009,0.138-0.02,0.27-0.029,0.407c18.084,10.365,39.037,16.293,61.376,16.293
		c10.24,0,20.186-1.253,29.701-3.602C130.682,228.546,101.477,208.463,93.611,180.368"/>
	<polygon fill="#0B0B0B" points="721.598,105.486 697.448,105.486 697.448,192.695 677.464,192.695 677.464,105.486 
		653.949,105.486 653.949,89.88 721.598,89.88 	"/>
	<path fill="#0B0B0B" d="M805.638,155.693c0,12.1-3.413,21.538-10.238,28.316c-6.827,6.779-15.914,10.169-27.259,10.169
		c-11.346,0-20.407-3.39-27.187-10.169c-6.779-6.778-10.169-16.217-10.169-28.316v-28.67c0-12.05,3.378-21.502,10.134-28.352
		c6.755-6.85,15.807-10.275,27.151-10.275s20.443,3.425,27.293,10.275c6.85,6.849,10.274,16.301,10.274,28.352V155.693z
		 M785.795,126.812c0-7.484-1.519-13.135-4.555-16.948c-3.037-3.813-7.426-5.719-13.17-5.719c-5.79,0-10.146,1.895-13.063,5.684
		c-2.92,3.79-4.379,9.451-4.379,16.982v28.882c0,7.627,1.473,13.347,4.414,17.159c2.941,3.813,7.31,5.721,13.099,5.721
		c5.791,0,10.18-1.907,13.171-5.721c2.988-3.813,4.483-9.532,4.483-17.159V126.812z"/>
	<polygon fill="#0B0B0B" points="892.854,155.058 893.278,154.987 903.8,89.88 924.066,89.88 903.941,192.696 885.439,192.696 
		870.398,129.001 869.975,129.001 855.005,192.696 836.504,192.696 816.238,89.88 836.645,89.88 847.167,155.128 847.59,155.199 
		862.349,89.88 878.025,89.88 	"/>
	<polygon fill="#0B0B0B" points="1009.66,192.695 989.746,192.695 957.122,127.094 956.698,127.165 956.698,192.695 
		936.785,192.695 936.785,89.88 956.698,89.88 989.322,155.552 989.746,155.481 989.746,89.88 1009.66,89.88 	"/>
	<path fill="#1490E7" d="M314.332,151.456v41.239h-19.913V89.95h30.788c10.215,0,18.254,2.66,24.115,7.98
		c5.861,5.32,8.791,12.735,8.791,22.243c0,5.321-1.235,9.934-3.707,13.841c-2.471,3.908-6.037,7.015-10.698,9.321
		c5.367,1.789,9.227,4.756,11.581,8.897c2.354,4.143,3.53,9.321,3.53,15.535v7.486c0,2.871,0.329,5.885,0.99,9.037
		c0.658,3.155,1.836,5.463,3.53,6.922v1.481h-20.619c-1.649-1.505-2.696-3.965-3.143-7.379c-0.448-3.413-0.671-6.814-0.671-10.204
		v-7.203c0-5.225-1.084-9.272-3.248-12.145c-2.166-2.871-5.273-4.309-9.321-4.309H314.332z M314.332,135.922h10.733
		c4.284,0,7.544-1.282,9.781-3.85c2.235-2.564,3.354-6.202,3.354-10.91c0-4.802-1.106-8.615-3.319-11.439
		c-2.213-2.825-5.438-4.238-9.674-4.238h-10.875V135.922z"/>
	<rect x="378.669" y="89.879" fill="#1490E7" width="19.843" height="102.816"/>
	<polygon fill="#1490E7" points="450.069,166.427 450.916,170.734 451.34,170.734 452.187,166.639 469.981,89.88 490.955,89.88 
		461.508,192.696 440.818,192.696 411.512,89.88 432.486,89.88 	"/>
	<polygon fill="#1490E7" points="554.092,147.29 522.668,147.29 522.668,177.161 560.306,177.161 560.306,192.696 502.755,192.696 
		502.755,89.88 560.165,89.88 560.165,105.486 522.668,105.486 522.668,131.755 554.092,131.755 	"/>
	<path fill="#1490E7" d="M596.186,151.456v41.239h-19.913V89.95h30.788c10.215,0,18.254,2.66,24.115,7.98
		c5.861,5.32,8.791,12.735,8.791,22.243c0,5.321-1.235,9.934-3.707,13.841c-2.471,3.908-6.037,7.015-10.698,9.321
		c5.367,1.789,9.228,4.756,11.581,8.897c2.354,4.143,3.53,9.321,3.53,15.535v7.486c0,2.871,0.329,5.885,0.99,9.037
		c0.657,3.155,1.836,5.463,3.529,6.922v1.481h-20.618c-1.649-1.505-2.696-3.965-3.144-7.379c-0.448-3.413-0.671-6.814-0.671-10.204
		v-7.203c0-5.225-1.084-9.272-3.248-12.145c-2.166-2.871-5.272-4.309-9.321-4.309H596.186z M596.186,135.922h10.733
		c4.284,0,7.544-1.282,9.781-3.85c2.234-2.564,3.354-6.202,3.354-10.91c0-4.802-1.105-8.615-3.319-11.439
		c-2.213-2.825-5.438-4.238-9.674-4.238h-10.875V135.922z"/>
</g>
</svg>
