<?xml version="1.0" encoding="utf-8"?>
<!-- Generator: Adobe Illustrator 15.0.2, SVG Export Plug-In  -->
<!DOCTYPE svg PUBLIC "-//W3C//DTD SVG 1.1//EN" "http://www.w3.org/Graphics/SVG/1.1/DTD/svg11.dtd" [
	<!ENTITY ns_flows "http://ns.adobe.com/Flows/1.0/">
]>
<svg version="1.1"
	 xmlns="http://www.w3.org/2000/svg" xmlns:xlink="http://www.w3.org/1999/xlink" xmlns:a="http://ns.adobe.com/AdobeSVGViewerExtensions/3.0/"
	 x="0px" y="0px" width="250px" height="250px" viewBox="0 0 250 250" enable-background="new 0 0 250 250" xml:space="preserve">
<defs>
</defs>
<g>
	<defs>
		<rect id="SVGID_1_" width="250" height="250"/>
	</defs>
	<clipPath id="SVGID_2_">
		<use xlink:href="#SVGID_1_"  overflow="visible"/>
	</clipPath>
	<path clip-path="url(#SVGID_2_)" fill="#FFFFFF" d="M248.464,126.396C248.464,194.661,193.125,250,124.86,250
		S1.256,194.661,1.256,126.396C1.256,58.131,56.595,2.792,124.86,2.792S248.464,58.131,248.464,126.396"/>
	<rect x="74.928" y="19.425" clip-path="url(#SVGID_2_)" fill="#2D95CE" width="30.143" height="4.241"/>
	<rect x="74.928" y="27.681" clip-path="url(#SVGID_2_)" fill="#2D95CE" width="30.143" height="4.241"/>
	<rect x="74.928" y="35.936" clip-path="url(#SVGID_2_)" fill="#2D95CE" width="30.143" height="4.241"/>
	<rect x="74.928" y="44.191" clip-path="url(#SVGID_2_)" fill="#2D95CE" width="30.143" height="4.241"/>
	<path clip-path="url(#SVGID_2_)" fill="#2D95CE" d="M238.567,76.891h-29.585v6.116h32.05
		C240.265,80.941,239.44,78.903,238.567,76.891"/>
	<path clip-path="url(#SVGID_2_)" fill="#2D95CE" d="M233.933,67.348h-24.95v6.116h28.035
		C236.042,71.394,235.017,69.353,233.933,67.348"/>
	<path clip-path="url(#SVGID_2_)" fill="#2D95CE" d="M228.194,57.805h-19.212v6.116h23.021
		C230.792,61.843,229.521,59.804,228.194,57.805"/>
	<path clip-path="url(#SVGID_2_)" fill="#2D95CE" d="M221.318,48.433h-12.336v5.207h16.322
		C224.021,51.868,222.691,50.131,221.318,48.433"/>
	<path clip-path="url(#SVGID_2_)" fill="#1490E7" d="M242.382,86.827h-33.399v8.866h-3.332v-59.53l-27.569-19.994v79.524h-4.544
		V44.646h-22.873v51.047H144v-81.19h-4.545V8.292h-25.144v6.211h-4.545v81.19h-4.695V52.447H74.927v43.246h-4.999V55.931H39.671
		v39.762h-8.823V46.157c-18.279,21.548-29.31,49.437-29.31,79.907c0,27.021,8.676,52.01,23.385,72.351
		c13.84-15.242,49.151-40.981,61.592-61.785c10.224-17.95-8.407-29.083-28.402-34.309c64.074-2.499,98.609,2.499,131.102,15.451
		c32.491,12.951,39.08,33.4,18.404,42.261c-20.676,8.861-73.162,7.044-79.297,19.54c-5.993,12.208,40.705,28.533,88.407,29.493
		c19.894-21.938,32.015-51.054,32.015-83.001C248.744,112.348,246.506,99.155,242.382,86.827"/>
	<path clip-path="url(#SVGID_2_)" fill="#2D95CE" d="M95.149,188.66c-2.954-12.724,5.453-21.812,32.491-25.902
		c27.039-4.09,43.172-6.135,45.217-11.36c2.044-5.227-5.227-20.903-34.991-31.582c-23.63-9.316-43.17-8.634-43.17-8.634
		s16.586,9.315,8.634,33.4c-7.953,24.084-37.263,53.396-39.535,88.385c-0.009,0.139-0.02,0.271-0.029,0.407
		c18.084,10.366,39.037,16.293,61.375,16.293c10.24,0,20.187-1.253,29.701-3.601C132.22,236.837,103.015,216.754,95.149,188.66"/>
</g>
</svg>
