<?xml version="1.0" encoding="utf-8"?>
<!-- Generator: Adobe Illustrator 15.0.2, SVG Export Plug-In  -->
<!DOCTYPE svg PUBLIC "-//W3C//DTD SVG 1.1//EN" "http://www.w3.org/Graphics/SVG/1.1/DTD/svg11.dtd" [
	<!ENTITY ns_flows "http://ns.adobe.com/Flows/1.0/">
]>
<svg version="1.1"
	 xmlns="http://www.w3.org/2000/svg" xmlns:xlink="http://www.w3.org/1999/xlink" xmlns:a="http://ns.adobe.com/AdobeSVGViewerExtensions/3.0/"
	 x="0px" y="0px" width="62px" height="76px" viewBox="-0.822 -0.993 62 76" enable-background="new -0.822 -0.993 62 76"
	 xml:space="preserve">
<defs>
</defs>
<circle fill="none" stroke="#404041" stroke-width="1.5" stroke-linecap="round" stroke-linejoin="round" stroke-miterlimit="10" cx="17.747" cy="8.75" r="8"/>
<path fill="none" stroke="#404041" stroke-width="1.5" stroke-linecap="round" stroke-linejoin="round" stroke-miterlimit="10" d="
	M0.855,44.461V32.828c0-6.599,5.35-11.95,11.95-11.95h12.086c0,0,27.335,4.854,28.544,5.298c1.169,0.431,2.327,1.222,2.327,2.391
	c0,1.168-0.6,2.202-2.297,2.422c-1.131,0.146-21.889-0.164-21.889-0.164"/>
<path fill="none" stroke="#404041" stroke-width="1.5" stroke-linecap="round" stroke-linejoin="round" stroke-miterlimit="10" d="
	M7.705,37.191c0,0-1.867,23.933-2.181,25.182s-1.519,2.145-2.678,1.989c-1.159-0.154-2.101-1.323-2.096-2.599
	c0.005-1.273,0.105-17.302,0.105-17.302"/>
<path fill="none" stroke="#404041" stroke-width="1.5" stroke-linecap="round" stroke-linejoin="round" stroke-miterlimit="10" d="
	M25.433,38.411c2.78-2.815,4.024-4.911,7.509-4.911h16.801c3.483,0,6.336,2.85,6.336,6.334v16.803c0,3.483-2.584,5.775-5.5,8.083"/>
<path fill="none" stroke="#404041" stroke-width="1.5" stroke-linecap="round" stroke-linejoin="round" stroke-miterlimit="10" d="
	M52.716,59.988c0,3.484-2.851,6.334-6.335,6.334H29.581c-3.484,0-6.335-2.85-6.335-6.334V43.187c0-3.484,2.851-6.335,6.335-6.335
	h16.801c3.484,0,6.335,2.851,6.335,6.335V59.988z"/>
<path fill="none" stroke="#404041" stroke-width="1.5" stroke-linecap="round" stroke-linejoin="round" stroke-miterlimit="10" d="
	M36.792,40.019h-5.407c-2.736,0-4.974,2.237-4.974,4.974v13.19c0,2.735,2.238,4.974,4.974,4.974h13.191
	c2.734,0,4.973-2.238,4.973-4.974v-4.987v-8.203c0-2.736-1.984-4.966-4.719-4.966L36.792,40.019z"/>
<path fill="none" stroke="#404041" stroke-width="1.5" stroke-linecap="round" stroke-linejoin="round" stroke-miterlimit="10" d="
	M55.5,60.406c2.382,0,4.312,1.932,4.312,4.313v1c0,2.382-1.93,4.313-4.312,4.313H22.375c-2.382,0-4.313-1.931-4.313-4.313v-1
	c0-2.381,1.931-4.313,4.313-4.313h0.888"/>
<path fill="none" stroke="#404041" stroke-width="1.5" stroke-linecap="round" stroke-linejoin="round" stroke-miterlimit="10" d="
	M33.997,71.446H22.374c-2.381,0-4.312-1.931-4.312-4.312v-2.416"/>
<path fill="none" stroke="#404041" stroke-width="1.5" stroke-linecap="round" stroke-linejoin="round" stroke-miterlimit="10" d="
	M59.812,66.322v0.813c0,2.381-1.931,4.312-4.312,4.312h-14.17"/>
<line fill="none" stroke="#404041" stroke-width="1.5" stroke-linecap="round" stroke-linejoin="round" stroke-miterlimit="10" x1="49.549" y1="56.547" x2="33.11" y2="40.108"/>
<line fill="none" stroke="#404041" stroke-width="1.5" stroke-linecap="round" stroke-linejoin="round" stroke-miterlimit="10" x1="49.373" y1="52.291" x2="37.104" y2="40.023"/>
<line fill="none" stroke="#404041" stroke-width="1.5" stroke-linecap="round" stroke-linejoin="round" stroke-miterlimit="10" x1="49.549" y1="48.391" x2="41.331" y2="40.023"/>
<line fill="none" stroke="#404041" stroke-width="1.5" stroke-linecap="round" stroke-linejoin="round" stroke-miterlimit="10" x1="49.373" y1="44.136" x2="45.255" y2="40.019"/>
<line fill="none" stroke="#404041" stroke-width="1.5" stroke-linecap="round" stroke-linejoin="round" stroke-miterlimit="10" x1="49.144" y1="60.143" x2="29.361" y2="40.454"/>
<line fill="none" stroke="#404041" stroke-width="1.5" stroke-linecap="round" stroke-linejoin="round" stroke-miterlimit="10" x1="47.19" y1="62.408" x2="27.176" y2="42.356"/>
<line fill="none" stroke="#404041" stroke-width="1.5" stroke-linecap="round" stroke-linejoin="round" stroke-miterlimit="10" x1="44.02" y1="63.156" x2="26.412" y2="45.488"/>
<line fill="none" stroke="#404041" stroke-width="1.5" stroke-linecap="round" stroke-linejoin="round" stroke-miterlimit="10" x1="39.947" y1="63.156" x2="26.412" y2="49.621"/>
<line fill="none" stroke="#404041" stroke-width="1.5" stroke-linecap="round" stroke-linejoin="round" stroke-miterlimit="10" x1="35.893" y1="63.156" x2="26.412" y2="53.676"/>
<line fill="none" stroke="#404041" stroke-width="1.5" stroke-linecap="round" stroke-linejoin="round" stroke-miterlimit="10" x1="31.576" y1="62.892" x2="26.412" y2="57.729"/>
<path fill="#F1F1F1" d="M50.647,43.727c0,2.573-2.086,4.659-4.659,4.659c-2.572,0-4.658-2.086-4.658-4.659
	c0-2.572,2.086-4.658,4.658-4.658C48.561,39.068,50.647,41.154,50.647,43.727"/>
<circle fill="none" stroke="#404041" stroke-width="1.5" stroke-linecap="round" stroke-linejoin="round" stroke-miterlimit="10" cx="45.988" cy="43.727" r="4.659"/>
<line fill="#FFFFFF" x1="6.789" y1="55.549" x2="21.039" y2="55.681"/>
<line fill="none" stroke="#404041" stroke-width="1.5" stroke-linecap="round" stroke-linejoin="round" stroke-miterlimit="10" x1="6.789" y1="55.549" x2="21.039" y2="55.681"/>
<path fill="none" stroke="#404041" stroke-width="1.5" stroke-linecap="round" stroke-linejoin="round" stroke-miterlimit="10" d="
	M9.747,8.75c0,0,8.27-5.393,8-2.32c-0.359,4.082,7.03-1.497,7.03-1.497"/>
<line fill="none" stroke="#404041" stroke-width="1.5" stroke-linecap="round" stroke-linejoin="round" stroke-miterlimit="10" x1="0.855" y1="58.629" x2="5.932" y2="58.629"/>
<line fill="#FFFFFF" x1="49.373" y1="25.332" x2="48.874" y2="30.824"/>
<line fill="none" stroke="#404041" stroke-width="1.5" stroke-linecap="round" stroke-linejoin="round" stroke-miterlimit="10" x1="49.373" y1="25.332" x2="48.874" y2="30.824"/>
<polyline fill="none" stroke="#404041" stroke-width="1.5" stroke-linecap="round" stroke-linejoin="round" stroke-miterlimit="10" points="
	16.553,28.708 14.456,45.869 17.748,49.431 21.038,45.869 19.438,28.733 "/>
<circle fill="none" stroke="#404041" stroke-width="1.5" stroke-linecap="round" stroke-linejoin="round" stroke-miterlimit="10" cx="18.018" cy="26.527" r="2.626"/>
<line fill="none" stroke="#404041" stroke-width="1.5" stroke-linecap="round" stroke-linejoin="round" stroke-miterlimit="10" x1="12.622" y1="22.191" x2="23.685" y2="22.191"/>
<rect x="33.997" y="70.031" fill="none" stroke="#404041" stroke-width="1.5" stroke-linecap="round" stroke-linejoin="round" stroke-miterlimit="10" width="7.332" height="3.725"/>
</svg>
