<?xml version="1.0" encoding="utf-8"?>
<!-- Generator: Adobe Illustrator 15.0.2, SVG Export Plug-In  -->
<!DOCTYPE svg PUBLIC "-//W3C//DTD SVG 1.1//EN" "http://www.w3.org/Graphics/SVG/1.1/DTD/svg11.dtd" [
	<!ENTITY ns_flows "http://ns.adobe.com/Flows/1.0/">
]>
<svg version="1.1"
	 xmlns="http://www.w3.org/2000/svg" xmlns:xlink="http://www.w3.org/1999/xlink" xmlns:a="http://ns.adobe.com/AdobeSVGViewerExtensions/3.0/"
	 x="0px" y="0px" width="43px" height="48px" viewBox="-0.6757813 -0.6015625 43 48"
	 enable-background="new -0.6757813 -0.6015625 43 48" xml:space="preserve">
<defs>
</defs>
<path fill="#1490e7" d="M39.15625,18.4916992l-17.3691406-6.7089844V7.9697266c0-0.4399414-0.3535156-0.7958984-0.7871094-0.7958984
	c-1.5195313,0-2.7539063-1.2519531-2.7539063-2.7900391c0-1.5390625,1.234375-2.7900391,2.7539063-2.7900391
	c1.5185547,0,2.7548828,1.2509766,2.7548828,2.7900391c0,0.4389648,0.3515625,0.7963867,0.7861328,0.7963867
	c0.4335938,0,0.7871094-0.3574219,0.7871094-0.7963867C25.328125,1.9667969,23.3857422,0,21,0
	s-4.3271484,1.9667969-4.3271484,4.3837891c0,2.144043,1.5292969,3.934082,3.5410156,4.3100586v3.0888672L2.8457031,18.4916992
	C1.1435547,19.1479492,0,20.828125,0,22.6738281c0,1.1953125,0.4599609,2.3193359,1.2949219,3.1650391
	c0.8359375,0.8447266,1.9453125,1.3105469,3.1240234,1.3105469h1.3232422V46.203125C5.7421875,46.6425781,6.09375,47,6.5292969,47
	h28.9423828c0.4345703,0,0.7861328-0.3574219,0.7861328-0.796875V27.1494141h1.3232422
	C40.0175781,27.1494141,42,25.1425781,42,22.6738281C42,20.8291016,40.8564453,19.1479492,39.15625,18.4916992
	 M34.6845703,33.9736328H18.3359375c-0.3623047-2.6044922-2.4726563-4.6455078-5.0888672-4.8642578v-2.9814453h21.4375V33.9736328z
	 M13.2470703,30.7089844c1.7470703,0.2050781,3.1582031,1.5410156,3.4951172,3.2646484h-3.4951172V30.7089844z
	 M11.6738281,28.4501953h-4.359375v-2.3232422h4.359375V28.4501953z M7.3144531,30.0439453h4.359375v6.9052734h-4.359375V30.0439453
	z M7.3144531,38.5419922h4.359375v6.8652344h-4.359375V38.5419922z M13.2470703,35.5683594h21.4375v9.8388672h-21.4375V35.5683594z
	 M37.5810547,25.5566406h-1.3232422v-0.2265625c0-0.4394531-0.3515625-0.7958984-0.7861328-0.7958984H6.5292969
	c-0.4355469,0-0.7871094,0.3564453-0.7871094,0.7958984v0.2265625H4.4189453c-0.7587891,0-1.4736328-0.3007813-2.0117188-0.8447266
	c-0.5371094-0.5449219-0.8339844-1.269043-0.8339844-2.0380859c0-1.1889648,0.7363281-2.2709961,1.8320313-2.6928711L21,13.184082
	l17.5947266,6.796875c1.0966797,0.421875,1.8320313,1.5048828,1.8320313,2.6928711
	C40.4267578,24.2626953,39.1503906,25.5566406,37.5810547,25.5566406"/>
<path fill="#1490e7" d="M9.8701172,43.34375c-0.1445313-0.1494141-0.3476563-0.234375-0.5556641-0.234375
	c-0.2060547,0-0.4091797,0.0849609-0.5566406,0.234375c-0.1455078,0.1474609-0.2294922,0.3535156-0.2294922,0.5625
	c0,0.2099609,0.0839844,0.4150391,0.2294922,0.5644531c0.1474609,0.1464844,0.3505859,0.2314453,0.5566406,0.2314453
	c0.2070313,0,0.4111328-0.0849609,0.5556641-0.2314453c0.1474609-0.1494141,0.2314453-0.3544922,0.2314453-0.5644531
	C10.1015625,43.6972656,10.0175781,43.4912109,9.8701172,43.34375"/>
</svg>
