<?xml version="1.0" encoding="utf-8"?>
<!-- Generator: Adobe Illustrator 15.0.2, SVG Export Plug-In  -->
<!DOCTYPE svg PUBLIC "-//W3C//DTD SVG 1.1//EN" "http://www.w3.org/Graphics/SVG/1.1/DTD/svg11.dtd" [
	<!ENTITY ns_flows "http://ns.adobe.com/Flows/1.0/">
]>
<svg version="1.1"
	 xmlns="http://www.w3.org/2000/svg" xmlns:xlink="http://www.w3.org/1999/xlink" xmlns:a="http://ns.adobe.com/AdobeSVGViewerExtensions/3.0/"
	 x="0px" y="0px" width="659px" height="462px" viewBox="0 0 659 462" enable-background="new 0 0 659 462" xml:space="preserve">
<defs>
</defs>
<g>
	<defs>
		<rect id="SVGID_2_" width="658.781" height="461.812"/>
	</defs>
	<clipPath id="SVGID_3_">
		<use xlink:href="#SVGID_2_"  overflow="visible"/>
	</clipPath>
	
		<rect x="569.043" y="31.093" clip-path="url(#SVGID_3_)" fill="none" stroke="#AAAAAA" stroke-miterlimit="10" width="88.651" height="14.6"/>
</g>
<polygon fill="none" stroke="#AAAAAA" stroke-miterlimit="10" points="282.598,48.474 282.598,183.007 274.603,183.007 
	274.603,161.801 232.191,161.801 232.191,155.542 274.603,155.542 274.603,48.474 "/>
<polygon fill="none" stroke="#AAAAAA" stroke-miterlimit="10" points="129.294,49.517 129.294,155.543 187.693,155.543 
	187.693,161.453 105.652,161.453 105.652,155.891 122.342,155.891 122.342,49.517 "/>
<polygon fill="none" stroke="#AAAAAA" stroke-miterlimit="10" points="408.394,242.451 136.941,242.451 136.941,305.369 
	144.585,305.369 144.585,250.444 408.394,250.444 "/>
<rect x="137.637" y="355.773" fill="none" stroke="#AAAAAA" stroke-miterlimit="10" width="7.3" height="56.664"/>
<line fill="none" stroke="#AAAAAA" stroke-miterlimit="10" x1="548.186" y1="88.708" x2="282.598" y2="88.708"/>
<g>
	<defs>
		<rect id="SVGID_1_" width="658.781" height="461.812"/>
	</defs>
	<clipPath id="SVGID_4_">
		<use xlink:href="#SVGID_1_"  overflow="visible"/>
	</clipPath>
	<path clip-path="url(#SVGID_4_)" fill="none" stroke="#AAAAAA" stroke-miterlimit="10" d="M433.468,448.241h105.854v-68.83
		l29.722-30.765v-87.077h49.537c0,0,39.63-91.774,39.63-230.477"/>
	<path clip-path="url(#SVGID_4_)" fill="none" stroke="#AAAAAA" stroke-miterlimit="10" d="M101.621,158.689l-0.558,8.959
		 M101.063,167.648l-1.947,8.598 M99.116,176.246l-2.786,8.239"/>
	
		<line clip-path="url(#SVGID_4_)" fill="none" stroke="#AAAAAA" stroke-miterlimit="10" x1="96.329" y1="184.485" x2="61.816" y2="158.689"/>
	
		<line clip-path="url(#SVGID_4_)" fill="none" stroke="#AAAAAA" stroke-miterlimit="10" x1="61.816" y1="158.69" x2="48.747" y2="158.69"/>
	
		<line clip-path="url(#SVGID_4_)" fill="none" stroke="#AAAAAA" stroke-miterlimit="10" x1="104.972" y1="158.69" x2="101.295" y2="158.69"/>
	<path clip-path="url(#SVGID_4_)" fill="none" stroke="#AAAAAA" stroke-miterlimit="10" d="M192.26,168.2l-0.485-7.818
		 M193.961,175.702l-1.701-7.502 M196.391,182.892l-2.43-7.19"/>
	
		<line clip-path="url(#SVGID_4_)" fill="none" stroke="#AAAAAA" stroke-miterlimit="10" x1="196.391" y1="182.892" x2="226.508" y2="160.382"/>
	
		<line clip-path="url(#SVGID_4_)" fill="none" stroke="#AAAAAA" stroke-miterlimit="10" x1="226.508" y1="160.383" x2="230.762" y2="160.383"/>
	
		<line clip-path="url(#SVGID_4_)" fill="none" stroke="#AAAAAA" stroke-miterlimit="10" x1="188.851" y1="160.383" x2="192.059" y2="160.383"/>
	<path clip-path="url(#SVGID_4_)" fill="none" stroke="#AAAAAA" stroke-miterlimit="10" d="M266.036,189.088l8.958-0.558
		 M257.438,191.038l8.598-1.95 M249.197,193.822l8.241-2.784"/>
	
		<line clip-path="url(#SVGID_4_)" fill="none" stroke="#AAAAAA" stroke-miterlimit="10" x1="249.197" y1="193.822" x2="274.992" y2="228.337"/>
	
		<line clip-path="url(#SVGID_4_)" fill="none" stroke="#AAAAAA" stroke-miterlimit="10" x1="274.99" y1="228.336" x2="274.99" y2="241.407"/>
	
		<line clip-path="url(#SVGID_4_)" fill="none" stroke="#AAAAAA" stroke-miterlimit="10" x1="274.995" y1="184.136" x2="274.993" y2="188.856"/>
	<path clip-path="url(#SVGID_4_)" fill="none" stroke="#AAAAAA" stroke-miterlimit="10" d="M130.614,310.262l8.969-0.558
		 M122.006,312.211l8.608-1.949 M113.757,315l8.249-2.789"/>
	
		<line clip-path="url(#SVGID_4_)" fill="none" stroke="#AAAAAA" stroke-miterlimit="10" x1="113.757" y1="315" x2="139.583" y2="349.552"/>
	
		<line clip-path="url(#SVGID_4_)" fill="none" stroke="#AAAAAA" stroke-miterlimit="10" x1="139.581" y1="349.552" x2="139.581" y2="354.43"/>
	
		<line clip-path="url(#SVGID_4_)" fill="none" stroke="#AAAAAA" stroke-miterlimit="10" x1="139.581" y1="306.35" x2="139.581" y2="310.031"/>
	<path clip-path="url(#SVGID_4_)" fill="none" stroke="#AAAAAA" stroke-miterlimit="10" d="M18.988,214.088l9.857-0.612
		 M9.529,216.23l9.459-2.142 M0.465,219.295l9.064-3.065"/>
	
		<line clip-path="url(#SVGID_4_)" fill="none" stroke="#AAAAAA" stroke-miterlimit="10" x1="0.465" y1="219.295" x2="28.845" y2="257.261"/>
	
		<line clip-path="url(#SVGID_4_)" fill="none" stroke="#AAAAAA" stroke-miterlimit="10" x1="28.843" y1="257.261" x2="28.843" y2="262.623"/>
	
		<line clip-path="url(#SVGID_4_)" fill="none" stroke="#AAAAAA" stroke-miterlimit="10" x1="28.843" y1="209.788" x2="28.843" y2="213.833"/>
	<polygon clip-path="url(#SVGID_4_)" fill="none" stroke="#AAAAAA" stroke-miterlimit="10" points="44.994,0.588 44.994,27.442 
		549.229,27.442 549.229,5.04 569.043,5.04 569.043,99.401 548.186,99.401 548.186,47.779 46.558,47.779 46.558,207.34 
		25.701,207.34 25.701,0.835 	"/>
	<path clip-path="url(#SVGID_4_)" fill="#AAAAAA" d="M569.043,190.132v76.649H431.904v21.899H408.96v-44.842h138.704v-53.707
		H569.043z M570.043,189.132h-1h-21.379h-1v1v52.707H408.96h-1v1v44.842v1h1h22.944h1v-1v-20.899h136.139h1v-1v-76.649V189.132z"/>
	<path clip-path="url(#SVGID_4_)" fill="#AAAAAA" d="M433.469,460.738h-24.291v-82.37h24.291V460.738z M434.469,377.368h-1h-24.291
		h-1v1v82.37v1h1h24.291h1v-1v-82.37V377.368z"/>
	<path clip-path="url(#SVGID_4_)" fill="#AAAAAA" d="M48.644,265.217V413.83h359.708v15.118H48.644v16.668H22.051V265.217H48.644z
		 M49.644,264.217h-1H22.051h-1v1v180.398v1h1h26.593h1v-1v-15.668h358.708h1v-1V413.83v-1h-1H49.644V265.217V264.217z"/>
	
		<line clip-path="url(#SVGID_4_)" fill="none" stroke="#AAAAAA" stroke-miterlimit="10" x1="96.036" y1="57.906" x2="96.036" y2="57.556"/>
	
		<line clip-path="url(#SVGID_4_)" fill="none" stroke="#AAAAAA" stroke-miterlimit="10" x1="96.036" y1="57.555" x2="96.036" y2="57.204"/>
	
		<line clip-path="url(#SVGID_4_)" fill="none" stroke="#AAAAAA" stroke-miterlimit="10" x1="96.036" y1="57.204" x2="95.684" y2="57.204"/>
	
		<line clip-path="url(#SVGID_4_)" fill="none" stroke="#AAAAAA" stroke-miterlimit="10" x1="95.684" y1="57.204" x2="95.335" y2="56.853"/>
	
		<line clip-path="url(#SVGID_4_)" fill="none" stroke="#AAAAAA" stroke-miterlimit="10" x1="95.335" y1="56.853" x2="94.983" y2="56.853"/>
	
		<line clip-path="url(#SVGID_4_)" fill="none" stroke="#AAAAAA" stroke-miterlimit="10" x1="94.983" y1="56.853" x2="94.633" y2="56.853"/>
	
		<line clip-path="url(#SVGID_4_)" fill="none" stroke="#AAAAAA" stroke-miterlimit="10" x1="94.632" y1="56.853" x2="94.285" y2="56.853"/>
	
		<line clip-path="url(#SVGID_4_)" fill="none" stroke="#AAAAAA" stroke-miterlimit="10" x1="94.284" y1="56.853" x2="93.932" y2="57.204"/>
	
		<line clip-path="url(#SVGID_4_)" fill="none" stroke="#AAAAAA" stroke-miterlimit="10" x1="93.932" y1="57.204" x2="93.582" y2="57.555"/>
	
		<line clip-path="url(#SVGID_4_)" fill="none" stroke="#AAAAAA" stroke-miterlimit="10" x1="93.582" y1="57.555" x2="93.582" y2="57.905"/>
	
		<line clip-path="url(#SVGID_4_)" fill="none" stroke="#AAAAAA" stroke-miterlimit="10" x1="93.582" y1="57.906" x2="93.582" y2="58.254"/>
	
		<line clip-path="url(#SVGID_4_)" fill="none" stroke="#AAAAAA" stroke-miterlimit="10" x1="93.582" y1="58.255" x2="93.932" y2="58.606"/>
	
		<line clip-path="url(#SVGID_4_)" fill="none" stroke="#AAAAAA" stroke-miterlimit="10" x1="93.932" y1="58.606" x2="93.932" y2="58.956"/>
	
		<line clip-path="url(#SVGID_4_)" fill="none" stroke="#AAAAAA" stroke-miterlimit="10" x1="93.932" y1="58.957" x2="94.284" y2="58.957"/>
	
		<line clip-path="url(#SVGID_4_)" fill="none" stroke="#AAAAAA" stroke-miterlimit="10" x1="94.284" y1="58.957" x2="94.632" y2="59.308"/>
	
		<line clip-path="url(#SVGID_4_)" fill="none" stroke="#AAAAAA" stroke-miterlimit="10" x1="94.632" y1="59.308" x2="94.982" y2="59.308"/>
	
		<line clip-path="url(#SVGID_4_)" fill="none" stroke="#AAAAAA" stroke-miterlimit="10" x1="94.983" y1="59.308" x2="95.335" y2="59.308"/>
	
		<line clip-path="url(#SVGID_4_)" fill="none" stroke="#AAAAAA" stroke-miterlimit="10" x1="95.335" y1="59.308" x2="95.335" y2="58.957"/>
	
		<line clip-path="url(#SVGID_4_)" fill="none" stroke="#AAAAAA" stroke-miterlimit="10" x1="95.335" y1="58.957" x2="95.683" y2="58.957"/>
	
		<line clip-path="url(#SVGID_4_)" fill="none" stroke="#AAAAAA" stroke-miterlimit="10" x1="95.684" y1="58.957" x2="96.036" y2="58.606"/>
	
		<line clip-path="url(#SVGID_4_)" fill="none" stroke="#AAAAAA" stroke-miterlimit="10" x1="96.036" y1="58.606" x2="96.036" y2="58.255"/>
	
		<line clip-path="url(#SVGID_4_)" fill="none" stroke="#AAAAAA" stroke-miterlimit="10" x1="96.036" y1="58.255" x2="96.036" y2="57.906"/>
	
		<line clip-path="url(#SVGID_4_)" fill="none" stroke="#AAAAAA" stroke-miterlimit="10" x1="87.269" y1="67.371" x2="86.218" y2="70.176"/>
	
		<line clip-path="url(#SVGID_4_)" fill="none" stroke="#AAAAAA" stroke-miterlimit="10" x1="86.218" y1="70.176" x2="85.517" y2="73.683"/>
	
		<line clip-path="url(#SVGID_4_)" fill="none" stroke="#AAAAAA" stroke-miterlimit="10" x1="85.518" y1="73.682" x2="85.518" y2="77.188"/>
	
		<line clip-path="url(#SVGID_4_)" fill="none" stroke="#AAAAAA" stroke-miterlimit="10" x1="85.518" y1="77.188" x2="85.867" y2="80.694"/>
	
		<line clip-path="url(#SVGID_4_)" fill="none" stroke="#AAAAAA" stroke-miterlimit="10" x1="85.868" y1="80.694" x2="86.571" y2="83.849"/>
	
		<line clip-path="url(#SVGID_4_)" fill="none" stroke="#AAAAAA" stroke-miterlimit="10" x1="86.57" y1="83.849" x2="87.622" y2="86.654"/>
	
		<line clip-path="url(#SVGID_4_)" fill="none" stroke="#AAAAAA" stroke-miterlimit="10" x1="87.622" y1="86.654" x2="89.022" y2="89.108"/>
	
		<line clip-path="url(#SVGID_4_)" fill="none" stroke="#AAAAAA" stroke-miterlimit="10" x1="89.023" y1="89.108" x2="90.777" y2="90.862"/>
	
		<line clip-path="url(#SVGID_4_)" fill="none" stroke="#AAAAAA" stroke-miterlimit="10" x1="90.777" y1="90.862" x2="92.879" y2="91.914"/>
	
		<line clip-path="url(#SVGID_4_)" fill="none" stroke="#AAAAAA" stroke-miterlimit="10" x1="92.879" y1="91.913" x2="94.983" y2="92.614"/>
	
		<line clip-path="url(#SVGID_4_)" fill="none" stroke="#AAAAAA" stroke-miterlimit="10" x1="94.983" y1="92.614" x2="97.087" y2="91.913"/>
	
		<line clip-path="url(#SVGID_4_)" fill="none" stroke="#AAAAAA" stroke-miterlimit="10" x1="97.087" y1="91.913" x2="98.839" y2="90.862"/>
	
		<line clip-path="url(#SVGID_4_)" fill="none" stroke="#AAAAAA" stroke-miterlimit="10" x1="98.839" y1="90.862" x2="100.593" y2="89.108"/>
	
		<line clip-path="url(#SVGID_4_)" fill="none" stroke="#AAAAAA" stroke-miterlimit="10" x1="100.592" y1="89.108" x2="101.996" y2="86.654"/>
	
		<line clip-path="url(#SVGID_4_)" fill="none" stroke="#AAAAAA" stroke-miterlimit="10" x1="101.996" y1="86.654" x2="103.397" y2="83.849"/>
	
		<line clip-path="url(#SVGID_4_)" fill="none" stroke="#AAAAAA" stroke-miterlimit="10" x1="103.397" y1="83.849" x2="104.1" y2="80.694"/>
	
		<line clip-path="url(#SVGID_4_)" fill="none" stroke="#AAAAAA" stroke-miterlimit="10" x1="104.1" y1="80.694" x2="104.45" y2="77.188"/>
	
		<line clip-path="url(#SVGID_4_)" fill="none" stroke="#AAAAAA" stroke-miterlimit="10" x1="104.45" y1="77.188" x2="104.1" y2="73.682"/>
	
		<line clip-path="url(#SVGID_4_)" fill="none" stroke="#AAAAAA" stroke-miterlimit="10" x1="104.1" y1="73.682" x2="103.397" y2="70.175"/>
	
		<line clip-path="url(#SVGID_4_)" fill="none" stroke="#AAAAAA" stroke-miterlimit="10" x1="103.397" y1="70.176" x2="102.346" y2="67.371"/>
	
		<line clip-path="url(#SVGID_4_)" fill="none" stroke="#AAAAAA" stroke-miterlimit="10" x1="102.346" y1="67.371" x2="87.269" y2="67.371"/>
	
		<line clip-path="url(#SVGID_4_)" fill="none" stroke="#AAAAAA" stroke-miterlimit="10" x1="104.45" y1="64.216" x2="85.517" y2="64.216"/>
	
		<line clip-path="url(#SVGID_4_)" fill="none" stroke="#AAAAAA" stroke-miterlimit="10" x1="85.518" y1="64.216" x2="84.816" y2="64.216"/>
	
		<line clip-path="url(#SVGID_4_)" fill="none" stroke="#AAAAAA" stroke-miterlimit="10" x1="84.817" y1="64.216" x2="83.764" y2="63.866"/>
	
		<line clip-path="url(#SVGID_4_)" fill="none" stroke="#AAAAAA" stroke-miterlimit="10" x1="83.764" y1="63.865" x2="83.414" y2="63.165"/>
	
		<line clip-path="url(#SVGID_4_)" fill="none" stroke="#AAAAAA" stroke-miterlimit="10" x1="83.414" y1="63.165" x2="83.414" y2="69.827"/>
	
		<line clip-path="url(#SVGID_4_)" fill="none" stroke="#AAAAAA" stroke-miterlimit="10" x1="83.414" y1="69.825" x2="82.362" y2="73.331"/>
	
		<line clip-path="url(#SVGID_4_)" fill="none" stroke="#AAAAAA" stroke-miterlimit="10" x1="82.362" y1="73.331" x2="82.362" y2="77.188"/>
	
		<line clip-path="url(#SVGID_4_)" fill="none" stroke="#AAAAAA" stroke-miterlimit="10" x1="82.362" y1="77.188" x2="82.712" y2="81.046"/>
	
		<line clip-path="url(#SVGID_4_)" fill="none" stroke="#AAAAAA" stroke-miterlimit="10" x1="82.713" y1="81.045" x2="83.414" y2="84.902"/>
	
		<line clip-path="url(#SVGID_4_)" fill="none" stroke="#AAAAAA" stroke-miterlimit="10" x1="83.414" y1="84.902" x2="84.816" y2="88.057"/>
	
		<line clip-path="url(#SVGID_4_)" fill="none" stroke="#AAAAAA" stroke-miterlimit="10" x1="84.817" y1="88.058" x2="86.571" y2="90.863"/>
	
		<line clip-path="url(#SVGID_4_)" fill="none" stroke="#AAAAAA" stroke-miterlimit="10" x1="86.57" y1="90.862" x2="88.672" y2="93.315"/>
	
		<line clip-path="url(#SVGID_4_)" fill="none" stroke="#AAAAAA" stroke-miterlimit="10" x1="88.672" y1="93.316" x2="91.126" y2="94.718"/>
	
		<line clip-path="url(#SVGID_4_)" fill="none" stroke="#AAAAAA" stroke-miterlimit="10" x1="91.127" y1="94.718" x2="93.582" y2="95.42"/>
	
		<line clip-path="url(#SVGID_4_)" fill="none" stroke="#AAAAAA" stroke-miterlimit="10" x1="93.582" y1="95.42" x2="96.036" y2="95.42"/>
	
		<line clip-path="url(#SVGID_4_)" fill="none" stroke="#AAAAAA" stroke-miterlimit="10" x1="96.036" y1="95.42" x2="98.839" y2="94.718"/>
	
		<line clip-path="url(#SVGID_4_)" fill="none" stroke="#AAAAAA" stroke-miterlimit="10" x1="98.839" y1="94.718" x2="100.945" y2="93.316"/>
	
		<line clip-path="url(#SVGID_4_)" fill="none" stroke="#AAAAAA" stroke-miterlimit="10" x1="100.945" y1="93.316" x2="103.047" y2="90.863"/>
	
		<line clip-path="url(#SVGID_4_)" fill="none" stroke="#AAAAAA" stroke-miterlimit="10" x1="103.047" y1="90.862" x2="104.799" y2="88.057"/>
	
		<line clip-path="url(#SVGID_4_)" fill="none" stroke="#AAAAAA" stroke-miterlimit="10" x1="104.799" y1="88.058" x2="106.205" y2="84.902"/>
	
		<line clip-path="url(#SVGID_4_)" fill="none" stroke="#AAAAAA" stroke-miterlimit="10" x1="106.202" y1="84.902" x2="107.255" y2="81.045"/>
	
		<line clip-path="url(#SVGID_4_)" fill="none" stroke="#AAAAAA" stroke-miterlimit="10" x1="107.255" y1="81.045" x2="107.255" y2="77.188"/>
	
		<line clip-path="url(#SVGID_4_)" fill="none" stroke="#AAAAAA" stroke-miterlimit="10" x1="107.255" y1="77.188" x2="107.255" y2="73.331"/>
	
		<line clip-path="url(#SVGID_4_)" fill="none" stroke="#AAAAAA" stroke-miterlimit="10" x1="107.255" y1="73.331" x2="106.552" y2="69.826"/>
	
		<line clip-path="url(#SVGID_4_)" fill="none" stroke="#AAAAAA" stroke-miterlimit="10" x1="106.552" y1="69.827" x2="106.552" y2="63.165"/>
	
		<line clip-path="url(#SVGID_4_)" fill="none" stroke="#AAAAAA" stroke-miterlimit="10" x1="106.552" y1="63.165" x2="105.854" y2="63.866"/>
	
		<line clip-path="url(#SVGID_4_)" fill="none" stroke="#AAAAAA" stroke-miterlimit="10" x1="105.854" y1="63.865" x2="105.151" y2="64.215"/>
	
		<line clip-path="url(#SVGID_4_)" fill="none" stroke="#AAAAAA" stroke-miterlimit="10" x1="105.151" y1="64.216" x2="104.45" y2="64.216"/>
	
		<line clip-path="url(#SVGID_4_)" fill="none" stroke="#AAAAAA" stroke-miterlimit="10" x1="85.518" y1="51.594" x2="84.816" y2="51.945"/>
	
		<line clip-path="url(#SVGID_4_)" fill="none" stroke="#AAAAAA" stroke-miterlimit="10" x1="84.817" y1="51.946" x2="83.764" y2="51.946"/>
	
		<line clip-path="url(#SVGID_4_)" fill="none" stroke="#AAAAAA" stroke-miterlimit="10" x1="83.764" y1="51.946" x2="83.414" y2="52.646"/>
	
		<line clip-path="url(#SVGID_4_)" fill="none" stroke="#AAAAAA" stroke-miterlimit="10" x1="83.414" y1="52.646" x2="82.712" y2="53.347"/>
	
		<line clip-path="url(#SVGID_4_)" fill="none" stroke="#AAAAAA" stroke-miterlimit="10" x1="82.713" y1="53.347" x2="82.363" y2="54.048"/>
	
		<line clip-path="url(#SVGID_4_)" fill="none" stroke="#AAAAAA" stroke-miterlimit="10" x1="82.362" y1="54.047" x2="82.362" y2="54.75"/>
	
		<line clip-path="url(#SVGID_4_)" fill="none" stroke="#AAAAAA" stroke-miterlimit="10" x1="82.362" y1="54.75" x2="82.362" y2="61.061"/>
	
		<line clip-path="url(#SVGID_4_)" fill="none" stroke="#AAAAAA" stroke-miterlimit="10" x1="82.362" y1="61.06" x2="82.362" y2="61.762"/>
	
		<line clip-path="url(#SVGID_4_)" fill="none" stroke="#AAAAAA" stroke-miterlimit="10" x1="82.362" y1="61.761" x2="82.712" y2="62.813"/>
	
		<line clip-path="url(#SVGID_4_)" fill="none" stroke="#AAAAAA" stroke-miterlimit="10" x1="82.713" y1="62.813" x2="83.414" y2="63.165"/>
	
		<line clip-path="url(#SVGID_4_)" fill="none" stroke="#AAAAAA" stroke-miterlimit="10" x1="83.414" y1="63.165" x2="83.763" y2="63.866"/>
	
		<line clip-path="url(#SVGID_4_)" fill="none" stroke="#AAAAAA" stroke-miterlimit="10" x1="83.764" y1="63.865" x2="84.817" y2="64.215"/>
	
		<line clip-path="url(#SVGID_4_)" fill="none" stroke="#AAAAAA" stroke-miterlimit="10" x1="84.817" y1="64.216" x2="85.518" y2="64.216"/>
	
		<line clip-path="url(#SVGID_4_)" fill="none" stroke="#AAAAAA" stroke-miterlimit="10" x1="85.518" y1="64.216" x2="104.45" y2="64.216"/>
	
		<line clip-path="url(#SVGID_4_)" fill="none" stroke="#AAAAAA" stroke-miterlimit="10" x1="104.45" y1="64.216" x2="105.151" y2="64.216"/>
	
		<line clip-path="url(#SVGID_4_)" fill="none" stroke="#AAAAAA" stroke-miterlimit="10" x1="105.151" y1="64.216" x2="105.854" y2="63.866"/>
	
		<line clip-path="url(#SVGID_4_)" fill="none" stroke="#AAAAAA" stroke-miterlimit="10" x1="105.854" y1="63.865" x2="106.553" y2="63.165"/>
	
		<line clip-path="url(#SVGID_4_)" fill="none" stroke="#AAAAAA" stroke-miterlimit="10" x1="106.552" y1="63.165" x2="106.904" y2="62.814"/>
	
		<line clip-path="url(#SVGID_4_)" fill="none" stroke="#AAAAAA" stroke-miterlimit="10" x1="106.905" y1="62.813" x2="107.255" y2="61.761"/>
	
		<line clip-path="url(#SVGID_4_)" fill="none" stroke="#AAAAAA" stroke-miterlimit="10" x1="107.255" y1="61.761" x2="107.255" y2="61.059"/>
	
		<line clip-path="url(#SVGID_4_)" fill="none" stroke="#AAAAAA" stroke-miterlimit="10" x1="107.255" y1="61.061" x2="107.255" y2="54.75"/>
	
		<line clip-path="url(#SVGID_4_)" fill="none" stroke="#AAAAAA" stroke-miterlimit="10" x1="107.255" y1="54.75" x2="107.255" y2="54.047"/>
	
		<line clip-path="url(#SVGID_4_)" fill="none" stroke="#AAAAAA" stroke-miterlimit="10" x1="107.255" y1="54.047" x2="106.905" y2="53.347"/>
	
		<line clip-path="url(#SVGID_4_)" fill="none" stroke="#AAAAAA" stroke-miterlimit="10" x1="106.905" y1="53.347" x2="106.553" y2="52.646"/>
	
		<line clip-path="url(#SVGID_4_)" fill="none" stroke="#AAAAAA" stroke-miterlimit="10" x1="106.552" y1="52.646" x2="105.854" y2="51.945"/>
	
		<line clip-path="url(#SVGID_4_)" fill="none" stroke="#AAAAAA" stroke-miterlimit="10" x1="105.854" y1="51.946" x2="105.151" y2="51.946"/>
	
		<line clip-path="url(#SVGID_4_)" fill="none" stroke="#AAAAAA" stroke-miterlimit="10" x1="105.151" y1="51.946" x2="104.45" y2="51.595"/>
	
		<line clip-path="url(#SVGID_4_)" fill="none" stroke="#AAAAAA" stroke-miterlimit="10" x1="104.45" y1="51.594" x2="85.517" y2="51.594"/>
	
		<line clip-path="url(#SVGID_4_)" fill="none" stroke="#AAAAAA" stroke-miterlimit="10" x1="299.979" y1="61.305" x2="299.979" y2="61.641"/>
	
		<line clip-path="url(#SVGID_4_)" fill="none" stroke="#AAAAAA" stroke-miterlimit="10" x1="299.979" y1="61.641" x2="299.979" y2="61.979"/>
	
		<line clip-path="url(#SVGID_4_)" fill="none" stroke="#AAAAAA" stroke-miterlimit="10" x1="299.979" y1="61.979" x2="300.317" y2="62.316"/>
	
		<line clip-path="url(#SVGID_4_)" fill="none" stroke="#AAAAAA" stroke-miterlimit="10" x1="300.317" y1="62.316" x2="300.653" y2="62.653"/>
	
		<line clip-path="url(#SVGID_4_)" fill="none" stroke="#AAAAAA" stroke-miterlimit="10" x1="300.653" y1="62.653" x2="300.989" y2="62.653"/>
	
		<line clip-path="url(#SVGID_4_)" fill="none" stroke="#AAAAAA" stroke-miterlimit="10" x1="300.989" y1="62.653" x2="301.327" y2="62.653"/>
	
		<line clip-path="url(#SVGID_4_)" fill="none" stroke="#AAAAAA" stroke-miterlimit="10" x1="301.327" y1="62.653" x2="301.663" y2="62.316"/>
	
		<line clip-path="url(#SVGID_4_)" fill="none" stroke="#AAAAAA" stroke-miterlimit="10" x1="301.663" y1="62.316" x2="302" y2="62.316"/>
	
		<line clip-path="url(#SVGID_4_)" fill="none" stroke="#AAAAAA" stroke-miterlimit="10" x1="302" y1="62.316" x2="302" y2="61.979"/>
	
		<line clip-path="url(#SVGID_4_)" fill="none" stroke="#AAAAAA" stroke-miterlimit="10" x1="302" y1="61.979" x2="302.337" y2="61.641"/>
	
		<line clip-path="url(#SVGID_4_)" fill="none" stroke="#AAAAAA" stroke-miterlimit="10" x1="302.337" y1="61.641" x2="302.337" y2="61.305"/>
	
		<line clip-path="url(#SVGID_4_)" fill="none" stroke="#AAAAAA" stroke-miterlimit="10" x1="302.337" y1="61.305" x2="302.337" y2="60.967"/>
	
		<line clip-path="url(#SVGID_4_)" fill="none" stroke="#AAAAAA" stroke-miterlimit="10" x1="302.337" y1="60.967" x2="302" y2="60.63"/>
	
		<line clip-path="url(#SVGID_4_)" fill="none" stroke="#AAAAAA" stroke-miterlimit="10" x1="302" y1="60.63" x2="301.664" y2="60.292"/>
	
		<line clip-path="url(#SVGID_4_)" fill="none" stroke="#AAAAAA" stroke-miterlimit="10" x1="301.663" y1="60.292" x2="301.327" y2="60.292"/>
	
		<line clip-path="url(#SVGID_4_)" fill="none" stroke="#AAAAAA" stroke-miterlimit="10" x1="301.327" y1="60.292" x2="300.989" y2="60.292"/>
	
		<line clip-path="url(#SVGID_4_)" fill="none" stroke="#AAAAAA" stroke-miterlimit="10" x1="300.989" y1="60.292" x2="300.653" y2="60.292"/>
	
		<line clip-path="url(#SVGID_4_)" fill="none" stroke="#AAAAAA" stroke-miterlimit="10" x1="300.653" y1="60.292" x2="300.317" y2="60.292"/>
	
		<line clip-path="url(#SVGID_4_)" fill="none" stroke="#AAAAAA" stroke-miterlimit="10" x1="300.317" y1="60.292" x2="300.317" y2="60.63"/>
	
		<line clip-path="url(#SVGID_4_)" fill="none" stroke="#AAAAAA" stroke-miterlimit="10" x1="300.317" y1="60.63" x2="299.979" y2="60.63"/>
	
		<line clip-path="url(#SVGID_4_)" fill="none" stroke="#AAAAAA" stroke-miterlimit="10" x1="299.979" y1="60.63" x2="299.979" y2="60.967"/>
	
		<line clip-path="url(#SVGID_4_)" fill="none" stroke="#AAAAAA" stroke-miterlimit="10" x1="299.979" y1="60.967" x2="299.979" y2="61.304"/>
	
		<line clip-path="url(#SVGID_4_)" fill="none" stroke="#AAAAAA" stroke-miterlimit="10" x1="291.552" y1="58.271" x2="291.214" y2="58.271"/>
	
		<line clip-path="url(#SVGID_4_)" fill="none" stroke="#AAAAAA" stroke-miterlimit="10" x1="291.214" y1="58.271" x2="291.214" y2="58.607"/>
	
		<line clip-path="url(#SVGID_4_)" fill="none" stroke="#AAAAAA" stroke-miterlimit="10" x1="291.214" y1="58.607" x2="290.878" y2="58.607"/>
	
		<line clip-path="url(#SVGID_4_)" fill="none" stroke="#AAAAAA" stroke-miterlimit="10" x1="290.878" y1="58.607" x2="290.542" y2="58.944"/>
	
		<line clip-path="url(#SVGID_4_)" fill="none" stroke="#AAAAAA" stroke-miterlimit="10" x1="290.542" y1="58.944" x2="290.542" y2="59.282"/>
	
		<line clip-path="url(#SVGID_4_)" fill="none" stroke="#AAAAAA" stroke-miterlimit="10" x1="290.542" y1="59.282" x2="290.542" y2="59.62"/>
	
		<line clip-path="url(#SVGID_4_)" fill="none" stroke="#AAAAAA" stroke-miterlimit="10" x1="290.542" y1="59.62" x2="290.542" y2="75.123"/>
	
		<line clip-path="url(#SVGID_4_)" fill="none" stroke="#AAAAAA" stroke-miterlimit="10" x1="290.542" y1="75.123" x2="290.542" y2="75.461"/>
	
		<line clip-path="url(#SVGID_4_)" fill="none" stroke="#AAAAAA" stroke-miterlimit="10" x1="290.542" y1="75.461" x2="290.542" y2="75.797"/>
	
		<line clip-path="url(#SVGID_4_)" fill="none" stroke="#AAAAAA" stroke-miterlimit="10" x1="290.542" y1="75.797" x2="290.878" y2="76.133"/>
	
		<line clip-path="url(#SVGID_4_)" fill="none" stroke="#AAAAAA" stroke-miterlimit="10" x1="290.878" y1="76.133" x2="291.214" y2="76.133"/>
	
		<line clip-path="url(#SVGID_4_)" fill="none" stroke="#AAAAAA" stroke-miterlimit="10" x1="291.214" y1="76.133" x2="291.214" y2="76.471"/>
	
		<line clip-path="url(#SVGID_4_)" fill="none" stroke="#AAAAAA" stroke-miterlimit="10" x1="291.214" y1="76.471" x2="291.552" y2="76.471"/>
	
		<line clip-path="url(#SVGID_4_)" fill="none" stroke="#AAAAAA" stroke-miterlimit="10" x1="291.552" y1="76.471" x2="310.426" y2="76.471"/>
	
		<line clip-path="url(#SVGID_4_)" fill="none" stroke="#AAAAAA" stroke-miterlimit="10" x1="310.426" y1="76.471" x2="310.764" y2="76.471"/>
	
		<line clip-path="url(#SVGID_4_)" fill="none" stroke="#AAAAAA" stroke-miterlimit="10" x1="310.764" y1="76.471" x2="311.102" y2="76.133"/>
	
		<line clip-path="url(#SVGID_4_)" fill="none" stroke="#AAAAAA" stroke-miterlimit="10" x1="311.103" y1="76.133" x2="311.438" y2="75.797"/>
	
		<line clip-path="url(#SVGID_4_)" fill="none" stroke="#AAAAAA" stroke-miterlimit="10" x1="311.438" y1="75.797" x2="311.438" y2="75.461"/>
	
		<line clip-path="url(#SVGID_4_)" fill="none" stroke="#AAAAAA" stroke-miterlimit="10" x1="311.438" y1="75.461" x2="311.438" y2="75.123"/>
	
		<line clip-path="url(#SVGID_4_)" fill="none" stroke="#AAAAAA" stroke-miterlimit="10" x1="311.438" y1="75.123" x2="311.438" y2="59.62"/>
	
		<line clip-path="url(#SVGID_4_)" fill="none" stroke="#AAAAAA" stroke-miterlimit="10" x1="311.438" y1="59.62" x2="311.438" y2="59.282"/>
	
		<line clip-path="url(#SVGID_4_)" fill="none" stroke="#AAAAAA" stroke-miterlimit="10" x1="311.438" y1="59.282" x2="311.438" y2="58.944"/>
	
		<line clip-path="url(#SVGID_4_)" fill="none" stroke="#AAAAAA" stroke-miterlimit="10" x1="311.438" y1="58.944" x2="311.101" y2="58.608"/>
	
		<line clip-path="url(#SVGID_4_)" fill="none" stroke="#AAAAAA" stroke-miterlimit="10" x1="311.1" y1="58.607" x2="310.764" y2="58.271"/>
	
		<line clip-path="url(#SVGID_4_)" fill="none" stroke="#AAAAAA" stroke-miterlimit="10" x1="310.764" y1="58.271" x2="310.426" y2="58.271"/>
	
		<line clip-path="url(#SVGID_4_)" fill="none" stroke="#AAAAAA" stroke-miterlimit="10" x1="310.426" y1="58.271" x2="291.552" y2="58.271"/>
	
		<line clip-path="url(#SVGID_4_)" fill="none" stroke="#AAAAAA" stroke-miterlimit="10" x1="335.704" y1="55.237" x2="287.509" y2="55.237"/>
	
		<line clip-path="url(#SVGID_4_)" fill="none" stroke="#AAAAAA" stroke-miterlimit="10" x1="287.509" y1="55.237" x2="287.509" y2="79.504"/>
	
		<line clip-path="url(#SVGID_4_)" fill="none" stroke="#AAAAAA" stroke-miterlimit="10" x1="287.509" y1="79.505" x2="335.704" y2="79.505"/>
	
		<line clip-path="url(#SVGID_4_)" fill="none" stroke="#AAAAAA" stroke-miterlimit="10" x1="335.704" y1="79.505" x2="335.704" y2="55.237"/>
	
		<line clip-path="url(#SVGID_4_)" fill="none" stroke="#AAAAAA" stroke-miterlimit="10" x1="332.673" y1="73.438" x2="314.471" y2="73.438"/>
	
		<line clip-path="url(#SVGID_4_)" fill="none" stroke="#AAAAAA" stroke-miterlimit="10" x1="332.673" y1="70.404" x2="314.471" y2="70.404"/>
	
		<line clip-path="url(#SVGID_4_)" fill="none" stroke="#AAAAAA" stroke-miterlimit="10" x1="332.673" y1="67.371" x2="314.471" y2="67.371"/>
	
		<line clip-path="url(#SVGID_4_)" fill="none" stroke="#AAAAAA" stroke-miterlimit="10" x1="332.673" y1="64.336" x2="314.471" y2="64.336"/>
	
		<line clip-path="url(#SVGID_4_)" fill="none" stroke="#AAAAAA" stroke-miterlimit="10" x1="332.673" y1="61.305" x2="314.471" y2="61.305"/>
	
		<line clip-path="url(#SVGID_4_)" fill="none" stroke="#AAAAAA" stroke-miterlimit="10" x1="314.471" y1="76.471" x2="332.673" y2="76.471"/>
	
		<line clip-path="url(#SVGID_4_)" fill="none" stroke="#AAAAAA" stroke-miterlimit="10" x1="332.673" y1="58.271" x2="314.471" y2="58.271"/>
	
		<line clip-path="url(#SVGID_4_)" fill="none" stroke="#AAAAAA" stroke-miterlimit="10" x1="393.858" y1="81.884" x2="395.038" y2="81.884"/>
	
		<line clip-path="url(#SVGID_4_)" fill="none" stroke="#AAAAAA" stroke-miterlimit="10" x1="395.038" y1="81.884" x2="396.511" y2="81.293"/>
	
		<line clip-path="url(#SVGID_4_)" fill="none" stroke="#AAAAAA" stroke-miterlimit="10" x1="396.511" y1="81.294" x2="397.689" y2="80.41"/>
	
		<line clip-path="url(#SVGID_4_)" fill="none" stroke="#AAAAAA" stroke-miterlimit="10" x1="397.69" y1="80.41" x2="398.279" y2="79.233"/>
	
		<line clip-path="url(#SVGID_4_)" fill="none" stroke="#AAAAAA" stroke-miterlimit="10" x1="398.279" y1="79.233" x2="398.868" y2="78.054"/>
	
		<line clip-path="url(#SVGID_4_)" fill="none" stroke="#AAAAAA" stroke-miterlimit="10" x1="398.867" y1="78.053" x2="399.16" y2="76.581"/>
	
		<line clip-path="url(#SVGID_4_)" fill="none" stroke="#AAAAAA" stroke-miterlimit="10" x1="399.161" y1="76.581" x2="398.868" y2="75.403"/>
	
		<line clip-path="url(#SVGID_4_)" fill="none" stroke="#AAAAAA" stroke-miterlimit="10" x1="398.867" y1="75.402" x2="398.278" y2="73.928"/>
	
		<line clip-path="url(#SVGID_4_)" fill="none" stroke="#AAAAAA" stroke-miterlimit="10" x1="398.279" y1="73.929" x2="397.689" y2="73.044"/>
	
		<line clip-path="url(#SVGID_4_)" fill="none" stroke="#AAAAAA" stroke-miterlimit="10" x1="397.69" y1="73.045" x2="396.511" y2="72.162"/>
	
		<line clip-path="url(#SVGID_4_)" fill="none" stroke="#AAAAAA" stroke-miterlimit="10" x1="396.511" y1="72.161" x2="395.038" y2="71.571"/>
	
		<line clip-path="url(#SVGID_4_)" fill="none" stroke="#AAAAAA" stroke-miterlimit="10" x1="395.038" y1="71.571" x2="393.859" y2="71.277"/>
	
		<line clip-path="url(#SVGID_4_)" fill="none" stroke="#AAAAAA" stroke-miterlimit="10" x1="393.858" y1="71.277" x2="392.386" y2="71.571"/>
	
		<line clip-path="url(#SVGID_4_)" fill="none" stroke="#AAAAAA" stroke-miterlimit="10" x1="392.386" y1="71.571" x2="391.209" y2="72.162"/>
	
		<line clip-path="url(#SVGID_4_)" fill="none" stroke="#AAAAAA" stroke-miterlimit="10" x1="391.209" y1="72.162" x2="390.029" y2="73.045"/>
	
		<line clip-path="url(#SVGID_4_)" fill="none" stroke="#AAAAAA" stroke-miterlimit="10" x1="390.029" y1="73.045" x2="389.146" y2="73.929"/>
	
		<line clip-path="url(#SVGID_4_)" fill="none" stroke="#AAAAAA" stroke-miterlimit="10" x1="389.146" y1="73.929" x2="388.853" y2="75.403"/>
	
		<line clip-path="url(#SVGID_4_)" fill="none" stroke="#AAAAAA" stroke-miterlimit="10" x1="388.853" y1="75.402" x2="388.558" y2="76.58"/>
	
		<line clip-path="url(#SVGID_4_)" fill="none" stroke="#AAAAAA" stroke-miterlimit="10" x1="388.557" y1="76.581" x2="388.852" y2="78.054"/>
	
		<line clip-path="url(#SVGID_4_)" fill="none" stroke="#AAAAAA" stroke-miterlimit="10" x1="388.853" y1="78.053" x2="389.146" y2="79.232"/>
	
		<line clip-path="url(#SVGID_4_)" fill="none" stroke="#AAAAAA" stroke-miterlimit="10" x1="389.146" y1="79.233" x2="390.029" y2="80.41"/>
	
		<line clip-path="url(#SVGID_4_)" fill="none" stroke="#AAAAAA" stroke-miterlimit="10" x1="390.029" y1="80.41" x2="391.209" y2="81.294"/>
	
		<line clip-path="url(#SVGID_4_)" fill="none" stroke="#AAAAAA" stroke-miterlimit="10" x1="391.209" y1="81.294" x2="392.386" y2="81.884"/>
	
		<line clip-path="url(#SVGID_4_)" fill="none" stroke="#AAAAAA" stroke-miterlimit="10" x1="392.386" y1="81.884" x2="393.859" y2="81.884"/>
	
		<line clip-path="url(#SVGID_4_)" fill="none" stroke="#AAAAAA" stroke-miterlimit="10" x1="377.951" y1="65.975" x2="379.424" y2="65.975"/>
	
		<line clip-path="url(#SVGID_4_)" fill="none" stroke="#AAAAAA" stroke-miterlimit="10" x1="379.424" y1="65.975" x2="380.603" y2="65.385"/>
	
		<line clip-path="url(#SVGID_4_)" fill="none" stroke="#AAAAAA" stroke-miterlimit="10" x1="380.603" y1="65.385" x2="381.782" y2="64.502"/>
	
		<line clip-path="url(#SVGID_4_)" fill="none" stroke="#AAAAAA" stroke-miterlimit="10" x1="381.782" y1="64.502" x2="382.664" y2="63.619"/>
	
		<line clip-path="url(#SVGID_4_)" fill="none" stroke="#AAAAAA" stroke-miterlimit="10" x1="382.664" y1="63.619" x2="382.959" y2="62.145"/>
	
		<line clip-path="url(#SVGID_4_)" fill="none" stroke="#AAAAAA" stroke-miterlimit="10" x1="382.96" y1="62.145" x2="383.255" y2="60.967"/>
	
		<line clip-path="url(#SVGID_4_)" fill="none" stroke="#AAAAAA" stroke-miterlimit="10" x1="383.255" y1="60.967" x2="382.96" y2="59.493"/>
	
		<line clip-path="url(#SVGID_4_)" fill="none" stroke="#AAAAAA" stroke-miterlimit="10" x1="382.96" y1="59.493" x2="382.664" y2="58.315"/>
	
		<line clip-path="url(#SVGID_4_)" fill="none" stroke="#AAAAAA" stroke-miterlimit="10" x1="382.664" y1="58.315" x2="381.782" y2="57.137"/>
	
		<line clip-path="url(#SVGID_4_)" fill="none" stroke="#AAAAAA" stroke-miterlimit="10" x1="381.782" y1="57.137" x2="380.604" y2="56.252"/>
	
		<line clip-path="url(#SVGID_4_)" fill="none" stroke="#AAAAAA" stroke-miterlimit="10" x1="380.603" y1="56.253" x2="379.424" y2="55.663"/>
	
		<line clip-path="url(#SVGID_4_)" fill="none" stroke="#AAAAAA" stroke-miterlimit="10" x1="379.424" y1="55.664" x2="377.95" y2="55.664"/>
	
		<line clip-path="url(#SVGID_4_)" fill="none" stroke="#AAAAAA" stroke-miterlimit="10" x1="377.951" y1="55.664" x2="376.773" y2="55.664"/>
	
		<line clip-path="url(#SVGID_4_)" fill="none" stroke="#AAAAAA" stroke-miterlimit="10" x1="376.773" y1="55.664" x2="375.299" y2="56.253"/>
	
		<line clip-path="url(#SVGID_4_)" fill="none" stroke="#AAAAAA" stroke-miterlimit="10" x1="375.299" y1="56.253" x2="374.417" y2="57.137"/>
	
		<line clip-path="url(#SVGID_4_)" fill="none" stroke="#AAAAAA" stroke-miterlimit="10" x1="374.415" y1="57.137" x2="373.53" y2="58.314"/>
	
		<line clip-path="url(#SVGID_4_)" fill="none" stroke="#AAAAAA" stroke-miterlimit="10" x1="373.531" y1="58.315" x2="372.941" y2="59.493"/>
	
		<line clip-path="url(#SVGID_4_)" fill="none" stroke="#AAAAAA" stroke-miterlimit="10" x1="372.942" y1="59.493" x2="372.649" y2="60.967"/>
	
		<line clip-path="url(#SVGID_4_)" fill="none" stroke="#AAAAAA" stroke-miterlimit="10" x1="372.648" y1="60.967" x2="372.941" y2="62.145"/>
	
		<line clip-path="url(#SVGID_4_)" fill="none" stroke="#AAAAAA" stroke-miterlimit="10" x1="372.942" y1="62.145" x2="373.531" y2="63.619"/>
	
		<line clip-path="url(#SVGID_4_)" fill="none" stroke="#AAAAAA" stroke-miterlimit="10" x1="373.531" y1="63.619" x2="374.415" y2="64.502"/>
	
		<line clip-path="url(#SVGID_4_)" fill="none" stroke="#AAAAAA" stroke-miterlimit="10" x1="374.417" y1="64.502" x2="375.299" y2="65.385"/>
	
		<line clip-path="url(#SVGID_4_)" fill="none" stroke="#AAAAAA" stroke-miterlimit="10" x1="375.299" y1="65.385" x2="376.773" y2="65.975"/>
	
		<line clip-path="url(#SVGID_4_)" fill="none" stroke="#AAAAAA" stroke-miterlimit="10" x1="376.773" y1="65.975" x2="377.95" y2="65.975"/>
	
		<line clip-path="url(#SVGID_4_)" fill="none" stroke="#AAAAAA" stroke-miterlimit="10" x1="377.951" y1="80.41" x2="378.835" y2="80.116"/>
	
		<line clip-path="url(#SVGID_4_)" fill="none" stroke="#AAAAAA" stroke-miterlimit="10" x1="378.835" y1="80.116" x2="379.719" y2="79.821"/>
	
		<line clip-path="url(#SVGID_4_)" fill="none" stroke="#AAAAAA" stroke-miterlimit="10" x1="379.719" y1="79.82" x2="380.603" y2="79.232"/>
	
		<line clip-path="url(#SVGID_4_)" fill="none" stroke="#AAAAAA" stroke-miterlimit="10" x1="380.603" y1="79.233" x2="381.191" y2="78.643"/>
	
		<line clip-path="url(#SVGID_4_)" fill="none" stroke="#AAAAAA" stroke-miterlimit="10" x1="381.191" y1="78.644" x2="381.486" y2="77.464"/>
	
		<line clip-path="url(#SVGID_4_)" fill="none" stroke="#AAAAAA" stroke-miterlimit="10" x1="381.486" y1="77.463" x2="381.782" y2="76.581"/>
	
		<line clip-path="url(#SVGID_4_)" fill="none" stroke="#AAAAAA" stroke-miterlimit="10" x1="381.782" y1="76.581" x2="381.487" y2="75.698"/>
	
		<line clip-path="url(#SVGID_4_)" fill="none" stroke="#AAAAAA" stroke-miterlimit="10" x1="381.486" y1="75.697" x2="381.191" y2="74.812"/>
	
		<line clip-path="url(#SVGID_4_)" fill="none" stroke="#AAAAAA" stroke-miterlimit="10" x1="381.191" y1="74.813" x2="380.603" y2="73.929"/>
	
		<line clip-path="url(#SVGID_4_)" fill="none" stroke="#AAAAAA" stroke-miterlimit="10" x1="380.603" y1="73.929" x2="379.719" y2="73.34"/>
	
		<line clip-path="url(#SVGID_4_)" fill="none" stroke="#AAAAAA" stroke-miterlimit="10" x1="379.719" y1="73.339" x2="378.835" y2="73.045"/>
	
		<line clip-path="url(#SVGID_4_)" fill="none" stroke="#AAAAAA" stroke-miterlimit="10" x1="378.835" y1="73.045" x2="377.951" y2="73.045"/>
	
		<line clip-path="url(#SVGID_4_)" fill="none" stroke="#AAAAAA" stroke-miterlimit="10" x1="377.951" y1="73.045" x2="377.066" y2="73.045"/>
	
		<line clip-path="url(#SVGID_4_)" fill="none" stroke="#AAAAAA" stroke-miterlimit="10" x1="377.066" y1="73.045" x2="376.183" y2="73.339"/>
	
		<line clip-path="url(#SVGID_4_)" fill="none" stroke="#AAAAAA" stroke-miterlimit="10" x1="376.183" y1="73.339" x2="375.299" y2="73.928"/>
	
		<line clip-path="url(#SVGID_4_)" fill="none" stroke="#AAAAAA" stroke-miterlimit="10" x1="375.299" y1="73.929" x2="374.71" y2="74.813"/>
	
		<line clip-path="url(#SVGID_4_)" fill="none" stroke="#AAAAAA" stroke-miterlimit="10" x1="374.71" y1="74.813" x2="374.417" y2="75.698"/>
	
		<line clip-path="url(#SVGID_4_)" fill="none" stroke="#AAAAAA" stroke-miterlimit="10" x1="374.417" y1="75.697" x2="374.417" y2="76.58"/>
	
		<line clip-path="url(#SVGID_4_)" fill="none" stroke="#AAAAAA" stroke-miterlimit="10" x1="374.417" y1="76.581" x2="374.417" y2="77.463"/>
	
		<line clip-path="url(#SVGID_4_)" fill="none" stroke="#AAAAAA" stroke-miterlimit="10" x1="374.417" y1="77.463" x2="374.71" y2="78.644"/>
	
		<line clip-path="url(#SVGID_4_)" fill="none" stroke="#AAAAAA" stroke-miterlimit="10" x1="374.71" y1="78.643" x2="375.299" y2="79.233"/>
	
		<line clip-path="url(#SVGID_4_)" fill="none" stroke="#AAAAAA" stroke-miterlimit="10" x1="375.299" y1="79.233" x2="376.183" y2="79.821"/>
	
		<line clip-path="url(#SVGID_4_)" fill="none" stroke="#AAAAAA" stroke-miterlimit="10" x1="376.183" y1="79.82" x2="377.066" y2="80.115"/>
	
		<line clip-path="url(#SVGID_4_)" fill="none" stroke="#AAAAAA" stroke-miterlimit="10" x1="377.066" y1="80.116" x2="377.951" y2="80.41"/>
	
		<line clip-path="url(#SVGID_4_)" fill="none" stroke="#AAAAAA" stroke-miterlimit="10" x1="393.858" y1="64.502" x2="394.743" y2="64.502"/>
	
		<line clip-path="url(#SVGID_4_)" fill="none" stroke="#AAAAAA" stroke-miterlimit="10" x1="394.743" y1="64.502" x2="395.627" y2="63.912"/>
	
		<line clip-path="url(#SVGID_4_)" fill="none" stroke="#AAAAAA" stroke-miterlimit="10" x1="395.627" y1="63.912" x2="396.511" y2="63.322"/>
	
		<line clip-path="url(#SVGID_4_)" fill="none" stroke="#AAAAAA" stroke-miterlimit="10" x1="396.511" y1="63.323" x2="397.1" y2="62.732"/>
	
		<line clip-path="url(#SVGID_4_)" fill="none" stroke="#AAAAAA" stroke-miterlimit="10" x1="397.1" y1="62.733" x2="397.395" y2="61.85"/>
	
		<line clip-path="url(#SVGID_4_)" fill="none" stroke="#AAAAAA" stroke-miterlimit="10" x1="397.395" y1="61.85" x2="397.395" y2="60.967"/>
	
		<line clip-path="url(#SVGID_4_)" fill="none" stroke="#AAAAAA" stroke-miterlimit="10" x1="397.395" y1="60.967" x2="397.395" y2="59.789"/>
	
		<line clip-path="url(#SVGID_4_)" fill="none" stroke="#AAAAAA" stroke-miterlimit="10" x1="397.395" y1="59.789" x2="397.1" y2="58.905"/>
	
		<line clip-path="url(#SVGID_4_)" fill="none" stroke="#AAAAAA" stroke-miterlimit="10" x1="397.1" y1="58.905" x2="396.511" y2="58.315"/>
	
		<line clip-path="url(#SVGID_4_)" fill="none" stroke="#AAAAAA" stroke-miterlimit="10" x1="396.511" y1="58.315" x2="395.627" y2="57.725"/>
	
		<line clip-path="url(#SVGID_4_)" fill="none" stroke="#AAAAAA" stroke-miterlimit="10" x1="395.627" y1="57.725" x2="394.743" y2="57.136"/>
	
		<line clip-path="url(#SVGID_4_)" fill="none" stroke="#AAAAAA" stroke-miterlimit="10" x1="394.743" y1="57.137" x2="393.858" y2="57.137"/>
	
		<line clip-path="url(#SVGID_4_)" fill="none" stroke="#AAAAAA" stroke-miterlimit="10" x1="393.858" y1="57.137" x2="392.977" y2="57.137"/>
	
		<line clip-path="url(#SVGID_4_)" fill="none" stroke="#AAAAAA" stroke-miterlimit="10" x1="392.977" y1="57.137" x2="392.091" y2="57.726"/>
	
		<line clip-path="url(#SVGID_4_)" fill="none" stroke="#AAAAAA" stroke-miterlimit="10" x1="392.091" y1="57.725" x2="391.209" y2="58.315"/>
	
		<line clip-path="url(#SVGID_4_)" fill="none" stroke="#AAAAAA" stroke-miterlimit="10" x1="391.209" y1="58.315" x2="390.618" y2="58.905"/>
	
		<line clip-path="url(#SVGID_4_)" fill="none" stroke="#AAAAAA" stroke-miterlimit="10" x1="390.62" y1="58.905" x2="390.325" y2="59.789"/>
	
		<line clip-path="url(#SVGID_4_)" fill="none" stroke="#AAAAAA" stroke-miterlimit="10" x1="390.325" y1="59.789" x2="390.03" y2="60.967"/>
	
		<line clip-path="url(#SVGID_4_)" fill="none" stroke="#AAAAAA" stroke-miterlimit="10" x1="390.029" y1="60.967" x2="390.324" y2="61.85"/>
	
		<line clip-path="url(#SVGID_4_)" fill="none" stroke="#AAAAAA" stroke-miterlimit="10" x1="390.325" y1="61.85" x2="390.62" y2="62.733"/>
	
		<line clip-path="url(#SVGID_4_)" fill="none" stroke="#AAAAAA" stroke-miterlimit="10" x1="390.618" y1="62.733" x2="391.209" y2="63.323"/>
	
		<line clip-path="url(#SVGID_4_)" fill="none" stroke="#AAAAAA" stroke-miterlimit="10" x1="391.209" y1="63.323" x2="392.091" y2="63.913"/>
	
		<line clip-path="url(#SVGID_4_)" fill="none" stroke="#AAAAAA" stroke-miterlimit="10" x1="392.091" y1="63.912" x2="392.977" y2="64.502"/>
	
		<line clip-path="url(#SVGID_4_)" fill="none" stroke="#AAAAAA" stroke-miterlimit="10" x1="392.977" y1="64.502" x2="393.858" y2="64.502"/>
	
		<line clip-path="url(#SVGID_4_)" fill="none" stroke="#AAAAAA" stroke-miterlimit="10" x1="369.997" y1="53.012" x2="369.997" y2="84.534"/>
	
		<line clip-path="url(#SVGID_4_)" fill="none" stroke="#AAAAAA" stroke-miterlimit="10" x1="369.997" y1="84.534" x2="401.813" y2="84.534"/>
	
		<line clip-path="url(#SVGID_4_)" fill="none" stroke="#AAAAAA" stroke-miterlimit="10" x1="401.813" y1="84.534" x2="401.813" y2="53.012"/>
	
		<line clip-path="url(#SVGID_4_)" fill="none" stroke="#AAAAAA" stroke-miterlimit="10" x1="401.813" y1="53.012" x2="369.997" y2="53.012"/>
	
		<line clip-path="url(#SVGID_4_)" fill="none" stroke="#AAAAAA" stroke-miterlimit="10" x1="239.313" y1="59.178" x2="239.313" y2="59.532"/>
	
		<line clip-path="url(#SVGID_4_)" fill="none" stroke="#AAAAAA" stroke-miterlimit="10" x1="239.313" y1="59.533" x2="239.313" y2="59.88"/>
	
		<line clip-path="url(#SVGID_4_)" fill="none" stroke="#AAAAAA" stroke-miterlimit="10" x1="239.313" y1="59.881" x2="239.662" y2="60.235"/>
	
		<line clip-path="url(#SVGID_4_)" fill="none" stroke="#AAAAAA" stroke-miterlimit="10" x1="239.663" y1="60.235" x2="240.013" y2="60.581"/>
	
		<line clip-path="url(#SVGID_4_)" fill="none" stroke="#AAAAAA" stroke-miterlimit="10" x1="240.013" y1="60.582" x2="240.363" y2="60.582"/>
	
		<line clip-path="url(#SVGID_4_)" fill="none" stroke="#AAAAAA" stroke-miterlimit="10" x1="240.363" y1="60.582" x2="240.715" y2="60.582"/>
	
		<line clip-path="url(#SVGID_4_)" fill="none" stroke="#AAAAAA" stroke-miterlimit="10" x1="240.714" y1="60.582" x2="241.063" y2="60.582"/>
	
		<line clip-path="url(#SVGID_4_)" fill="none" stroke="#AAAAAA" stroke-miterlimit="10" x1="241.064" y1="60.582" x2="241.414" y2="60.235"/>
	
		<line clip-path="url(#SVGID_4_)" fill="none" stroke="#AAAAAA" stroke-miterlimit="10" x1="241.415" y1="60.235" x2="241.767" y2="59.881"/>
	
		<line clip-path="url(#SVGID_4_)" fill="none" stroke="#AAAAAA" stroke-miterlimit="10" x1="241.767" y1="59.881" x2="241.767" y2="59.533"/>
	
		<line clip-path="url(#SVGID_4_)" fill="none" stroke="#AAAAAA" stroke-miterlimit="10" x1="241.767" y1="59.533" x2="241.767" y2="59.179"/>
	
		<line clip-path="url(#SVGID_4_)" fill="none" stroke="#AAAAAA" stroke-miterlimit="10" x1="241.767" y1="59.178" x2="241.767" y2="58.83"/>
	
		<line clip-path="url(#SVGID_4_)" fill="none" stroke="#AAAAAA" stroke-miterlimit="10" x1="241.767" y1="58.83" x2="241.415" y2="58.484"/>
	
		<line clip-path="url(#SVGID_4_)" fill="none" stroke="#AAAAAA" stroke-miterlimit="10" x1="241.415" y1="58.483" x2="241.064" y2="58.129"/>
	
		<line clip-path="url(#SVGID_4_)" fill="none" stroke="#AAAAAA" stroke-miterlimit="10" x1="241.064" y1="58.129" x2="240.714" y2="58.129"/>
	
		<line clip-path="url(#SVGID_4_)" fill="none" stroke="#AAAAAA" stroke-miterlimit="10" x1="240.716" y1="58.129" x2="240.364" y2="58.129"/>
	
		<line clip-path="url(#SVGID_4_)" fill="none" stroke="#AAAAAA" stroke-miterlimit="10" x1="240.363" y1="58.129" x2="240.013" y2="58.129"/>
	
		<line clip-path="url(#SVGID_4_)" fill="none" stroke="#AAAAAA" stroke-miterlimit="10" x1="240.013" y1="58.129" x2="239.663" y2="58.483"/>
	
		<line clip-path="url(#SVGID_4_)" fill="none" stroke="#AAAAAA" stroke-miterlimit="10" x1="239.663" y1="58.483" x2="239.313" y2="58.83"/>
	
		<line clip-path="url(#SVGID_4_)" fill="none" stroke="#AAAAAA" stroke-miterlimit="10" x1="239.313" y1="58.83" x2="239.313" y2="59.178"/>
	
		<line clip-path="url(#SVGID_4_)" fill="none" stroke="#AAAAAA" stroke-miterlimit="10" x1="229.144" y1="56.029" x2="228.794" y2="56.377"/>
	
		<line clip-path="url(#SVGID_4_)" fill="none" stroke="#AAAAAA" stroke-miterlimit="10" x1="228.794" y1="56.377" x2="228.444" y2="56.725"/>
	
		<line clip-path="url(#SVGID_4_)" fill="none" stroke="#AAAAAA" stroke-miterlimit="10" x1="228.443" y1="56.726" x2="228.094" y2="56.726"/>
	
		<line clip-path="url(#SVGID_4_)" fill="none" stroke="#AAAAAA" stroke-miterlimit="10" x1="228.093" y1="56.726" x2="228.093" y2="57.08"/>
	
		<line clip-path="url(#SVGID_4_)" fill="none" stroke="#AAAAAA" stroke-miterlimit="10" x1="228.093" y1="57.08" x2="228.093" y2="57.426"/>
	
		<line clip-path="url(#SVGID_4_)" fill="none" stroke="#AAAAAA" stroke-miterlimit="10" x1="228.093" y1="57.426" x2="228.093" y2="67.596"/>
	
		<line clip-path="url(#SVGID_4_)" fill="none" stroke="#AAAAAA" stroke-miterlimit="10" x1="228.093" y1="67.597" x2="228.093" y2="67.946"/>
	
		<line clip-path="url(#SVGID_4_)" fill="none" stroke="#AAAAAA" stroke-miterlimit="10" x1="228.093" y1="67.947" x2="228.443" y2="68.297"/>
	
		<line clip-path="url(#SVGID_4_)" fill="none" stroke="#AAAAAA" stroke-miterlimit="10" x1="228.443" y1="68.297" x2="228.793" y2="68.647"/>
	
		<line clip-path="url(#SVGID_4_)" fill="none" stroke="#AAAAAA" stroke-miterlimit="10" x1="228.794" y1="68.647" x2="229.144" y2="68.647"/>
	
		<line clip-path="url(#SVGID_4_)" fill="none" stroke="#AAAAAA" stroke-miterlimit="10" x1="229.144" y1="68.647" x2="251.933" y2="68.647"/>
	
		<line clip-path="url(#SVGID_4_)" fill="none" stroke="#AAAAAA" stroke-miterlimit="10" x1="251.933" y1="68.647" x2="252.285" y2="68.647"/>
	
		<line clip-path="url(#SVGID_4_)" fill="none" stroke="#AAAAAA" stroke-miterlimit="10" x1="252.285" y1="68.647" x2="252.633" y2="68.647"/>
	
		<line clip-path="url(#SVGID_4_)" fill="none" stroke="#AAAAAA" stroke-miterlimit="10" x1="252.634" y1="68.647" x2="252.634" y2="68.297"/>
	
		<line clip-path="url(#SVGID_4_)" fill="none" stroke="#AAAAAA" stroke-miterlimit="10" x1="252.634" y1="68.297" x2="252.985" y2="67.947"/>
	
		<line clip-path="url(#SVGID_4_)" fill="none" stroke="#AAAAAA" stroke-miterlimit="10" x1="252.986" y1="67.947" x2="252.986" y2="67.597"/>
	
		<line clip-path="url(#SVGID_4_)" fill="none" stroke="#AAAAAA" stroke-miterlimit="10" x1="252.986" y1="67.597" x2="252.986" y2="57.426"/>
	
		<line clip-path="url(#SVGID_4_)" fill="none" stroke="#AAAAAA" stroke-miterlimit="10" x1="252.986" y1="57.426" x2="252.986" y2="57.081"/>
	
		<line clip-path="url(#SVGID_4_)" fill="none" stroke="#AAAAAA" stroke-miterlimit="10" x1="252.986" y1="57.08" x2="252.986" y2="56.726"/>
	
		<line clip-path="url(#SVGID_4_)" fill="none" stroke="#AAAAAA" stroke-miterlimit="10" x1="252.986" y1="56.726" x2="252.634" y2="56.726"/>
	
		<line clip-path="url(#SVGID_4_)" fill="none" stroke="#AAAAAA" stroke-miterlimit="10" x1="252.634" y1="56.726" x2="252.634" y2="56.377"/>
	
		<line clip-path="url(#SVGID_4_)" fill="none" stroke="#AAAAAA" stroke-miterlimit="10" x1="252.634" y1="56.377" x2="252.286" y2="56.377"/>
	
		<line clip-path="url(#SVGID_4_)" fill="none" stroke="#AAAAAA" stroke-miterlimit="10" x1="252.285" y1="56.377" x2="251.933" y2="56.029"/>
	
		<line clip-path="url(#SVGID_4_)" fill="none" stroke="#AAAAAA" stroke-miterlimit="10" x1="251.933" y1="56.029" x2="229.144" y2="56.029"/>
	
		<line clip-path="url(#SVGID_4_)" fill="none" stroke="#AAAAAA" stroke-miterlimit="10" x1="256.141" y1="53.22" x2="224.936" y2="53.22"/>
	
		<line clip-path="url(#SVGID_4_)" fill="none" stroke="#AAAAAA" stroke-miterlimit="10" x1="224.936" y1="53.22" x2="224.936" y2="71.803"/>
	
		<line clip-path="url(#SVGID_4_)" fill="none" stroke="#AAAAAA" stroke-miterlimit="10" x1="224.936" y1="71.803" x2="256.141" y2="71.803"/>
	
		<line clip-path="url(#SVGID_4_)" fill="none" stroke="#AAAAAA" stroke-miterlimit="10" x1="256.141" y1="71.803" x2="256.141" y2="53.22"/>
</g>
</svg>
