<?xml version="1.0" encoding="utf-8"?>
<!-- Generator: Adobe Illustrator 15.0.2, SVG Export Plug-In  -->
<!DOCTYPE svg PUBLIC "-//W3C//DTD SVG 1.1//EN" "http://www.w3.org/Graphics/SVG/1.1/DTD/svg11.dtd" [
	<!ENTITY ns_flows "http://ns.adobe.com/Flows/1.0/">
]>
<svg version="1.1"
	 xmlns="http://www.w3.org/2000/svg" xmlns:xlink="http://www.w3.org/1999/xlink" xmlns:a="http://ns.adobe.com/AdobeSVGViewerExtensions/3.0/"
	 x="0px" y="0px" width="321px" height="468px" viewBox="0 0 321 468" enable-background="new 0 0 321 468" xml:space="preserve">
<defs>
</defs>
<polygon fill="none" stroke="#AAAAAA" stroke-miterlimit="10" points="168.603,361.754 168.603,107.552 185.55,107.552 
	185.55,102.146 163.344,102.146 163.344,361.754 "/>
<polygon fill="none" stroke="#AAAAAA" stroke-miterlimit="10" points="119.405,70.006 119.405,120.846 23.533,120.846 
	23.533,115.587 114.364,115.587 114.364,70.006 "/>
<line fill="none" stroke="#AAAAAA" stroke-miterlimit="10" x1="55.089" y1="363.508" x2="55.089" y2="120.847"/>
<g>
	<defs>
		<rect id="SVGID_2_" width="321.25" height="468.417"/>
	</defs>
	<clipPath id="SVGID_3_">
		<use xlink:href="#SVGID_2_"  overflow="visible"/>
	</clipPath>
	<polyline clip-path="url(#SVGID_3_)" fill="none" stroke="#AAAAAA" stroke-miterlimit="10" points="10.822,382.355 10.822,467.818 
		163.344,467.818 163.344,383.669 	"/>
</g>
<path fill="none" stroke="#AAAAAA" stroke-miterlimit="10" d="M262.548,43.439l8.16,0.508 M270.708,43.948l7.83,1.772
	 M278.538,45.72l7.503,2.537"/>
<line fill="none" stroke="#AAAAAA" stroke-miterlimit="10" x1="286.041" y1="48.257" x2="262.548" y2="79.687"/>
<line fill="none" stroke="#AAAAAA" stroke-miterlimit="10" x1="262.55" y1="79.687" x2="262.55" y2="84.127"/>
<line fill="none" stroke="#AAAAAA" stroke-miterlimit="10" x1="262.55" y1="40.387" x2="262.55" y2="43.734"/>
<path fill="none" stroke="#AAAAAA" stroke-miterlimit="10" d="M225.356,107.721l-0.479,7.675 M224.878,115.396l-1.667,7.366
	 M223.211,122.762l-2.387,7.058"/>
<line fill="none" stroke="#AAAAAA" stroke-miterlimit="10" x1="220.824" y1="129.819" x2="191.261" y2="107.72"/>
<line fill="none" stroke="#AAAAAA" stroke-miterlimit="10" x1="191.261" y1="107.723" x2="186.312" y2="107.723"/>
<line fill="none" stroke="#AAAAAA" stroke-miterlimit="10" x1="228.228" y1="107.723" x2="225.079" y2="107.723"/>
<path fill="none" stroke="#AAAAAA" stroke-miterlimit="10" d="M123.742,115.084l-0.477-7.675 M125.409,122.45l-1.667-7.366
	 M127.795,129.508l-2.387-7.058"/>
<line fill="none" stroke="#AAAAAA" stroke-miterlimit="10" x1="127.795" y1="129.508" x2="157.36" y2="107.409"/>
<line fill="none" stroke="#AAAAAA" stroke-miterlimit="10" x1="157.36" y1="107.412" x2="162.31" y2="107.412"/>
<line fill="none" stroke="#AAAAAA" stroke-miterlimit="10" x1="120.393" y1="107.412" x2="123.542" y2="107.412"/>
<path fill="none" stroke="#AAAAAA" stroke-miterlimit="10" d="M125.816,65.601l-8.16,0.509 M133.647,63.829l-7.831,1.772
	 M141.15,61.292l-7.503,2.537"/>
<line fill="none" stroke="#AAAAAA" stroke-miterlimit="10" x1="141.15" y1="61.292" x2="117.656" y2="29.862"/>
<line fill="none" stroke="#AAAAAA" stroke-miterlimit="10" x1="117.66" y1="29.862" x2="117.66" y2="21.914"/>
<line fill="none" stroke="#AAAAAA" stroke-miterlimit="10" x1="117.66" y1="69.163" x2="117.66" y2="65.814"/>
<g>
	<defs>
		<rect id="SVGID_1_" width="321.25" height="468.417"/>
	</defs>
	<clipPath id="SVGID_4_">
		<use xlink:href="#SVGID_1_"  overflow="visible"/>
	</clipPath>
	<polygon clip-path="url(#SVGID_4_)" fill="none" stroke="#AAAAAA" stroke-miterlimit="10" points="0.742,0.746 0.742,380.601 
		22.656,380.601 55.089,380.601 55.089,363.507 22.656,363.507 22.656,20.335 249.244,19.518 249.237,39.754 265.462,39.62 
		265.462,19.458 265.462,0.613 22.656,0.613 	"/>
	
		<rect x="271.598" y="362.631" clip-path="url(#SVGID_4_)" fill="none" stroke="#AAAAAA" stroke-miterlimit="10" width="49.076" height="20.161"/>
</g>
<path fill="#AAAAAA" d="M196.652,382.792h-66.618v-20.161h66.618V382.792z M197.652,361.631h-1h-66.618h-1v1v20.161v1h1h66.618h1v-1
	v-20.161V361.631z"/>
<rect x="197.509" y="367.889" fill="none" stroke="#AAAAAA" stroke-miterlimit="10" width="73.233" height="11.834"/>
<polygon fill="none" stroke="#AAAAAA" stroke-miterlimit="10" points="316.209,109.306 309.29,109.306 309.29,362.631 
	295.703,362.631 295.703,110.621 229.085,110.621 229.085,101.855 248.369,101.855 248.369,83.886 262.832,83.886 262.832,97.034 
	316.209,97.034 "/>
<line fill="none" stroke="#AAAAAA" stroke-miterlimit="10" x1="31.832" y1="35.319" x2="31.537" y2="35.319"/>
<line fill="none" stroke="#AAAAAA" stroke-miterlimit="10" x1="31.537" y1="35.319" x2="31.242" y2="35.319"/>
<line fill="none" stroke="#AAAAAA" stroke-miterlimit="10" x1="31.242" y1="35.319" x2="31.242" y2="35.614"/>
<line fill="none" stroke="#AAAAAA" stroke-miterlimit="10" x1="31.242" y1="35.614" x2="30.947" y2="35.908"/>
<line fill="none" stroke="#AAAAAA" stroke-miterlimit="10" x1="30.947" y1="35.908" x2="30.947" y2="36.203"/>
<line fill="none" stroke="#AAAAAA" stroke-miterlimit="10" x1="30.947" y1="36.203" x2="30.947" y2="36.498"/>
<line fill="none" stroke="#AAAAAA" stroke-miterlimit="10" x1="30.947" y1="36.499" x2="30.947" y2="36.792"/>
<line fill="none" stroke="#AAAAAA" stroke-miterlimit="10" x1="30.947" y1="36.792" x2="31.242" y2="37.086"/>
<line fill="none" stroke="#AAAAAA" stroke-miterlimit="10" x1="31.242" y1="37.086" x2="31.538" y2="37.382"/>
<line fill="none" stroke="#AAAAAA" stroke-miterlimit="10" x1="31.537" y1="37.382" x2="31.832" y2="37.382"/>
<line fill="none" stroke="#AAAAAA" stroke-miterlimit="10" x1="31.832" y1="37.382" x2="32.126" y2="37.382"/>
<line fill="none" stroke="#AAAAAA" stroke-miterlimit="10" x1="32.125" y1="37.382" x2="32.421" y2="37.087"/>
<line fill="none" stroke="#AAAAAA" stroke-miterlimit="10" x1="32.421" y1="37.086" x2="32.716" y2="37.086"/>
<line fill="none" stroke="#AAAAAA" stroke-miterlimit="10" x1="32.716" y1="37.086" x2="32.716" y2="36.792"/>
<line fill="none" stroke="#AAAAAA" stroke-miterlimit="10" x1="32.716" y1="36.792" x2="33.011" y2="36.498"/>
<line fill="none" stroke="#AAAAAA" stroke-miterlimit="10" x1="33.011" y1="36.499" x2="33.011" y2="36.204"/>
<line fill="none" stroke="#AAAAAA" stroke-miterlimit="10" x1="33.011" y1="36.203" x2="33.011" y2="35.908"/>
<line fill="none" stroke="#AAAAAA" stroke-miterlimit="10" x1="33.011" y1="35.908" x2="32.716" y2="35.908"/>
<line fill="none" stroke="#AAAAAA" stroke-miterlimit="10" x1="32.716" y1="35.908" x2="32.716" y2="35.614"/>
<line fill="none" stroke="#AAAAAA" stroke-miterlimit="10" x1="32.716" y1="35.614" x2="32.421" y2="35.319"/>
<line fill="none" stroke="#AAAAAA" stroke-miterlimit="10" x1="32.421" y1="35.319" x2="32.126" y2="35.319"/>
<line fill="none" stroke="#AAAAAA" stroke-miterlimit="10" x1="32.125" y1="35.319" x2="31.832" y2="35.319"/>
<line fill="none" stroke="#AAAAAA" stroke-miterlimit="10" x1="39.788" y1="42.687" x2="42.145" y2="43.571"/>
<line fill="none" stroke="#AAAAAA" stroke-miterlimit="10" x1="42.146" y1="43.571" x2="45.092" y2="44.159"/>
<line fill="none" stroke="#AAAAAA" stroke-miterlimit="10" x1="45.093" y1="44.159" x2="48.039" y2="44.159"/>
<line fill="none" stroke="#AAAAAA" stroke-miterlimit="10" x1="48.039" y1="44.159" x2="50.987" y2="43.864"/>
<line fill="none" stroke="#AAAAAA" stroke-miterlimit="10" x1="50.987" y1="43.864" x2="53.639" y2="43.274"/>
<line fill="none" stroke="#AAAAAA" stroke-miterlimit="10" x1="53.639" y1="43.275" x2="55.996" y2="42.392"/>
<line fill="none" stroke="#AAAAAA" stroke-miterlimit="10" x1="55.996" y1="42.392" x2="58.059" y2="41.212"/>
<line fill="none" stroke="#AAAAAA" stroke-miterlimit="10" x1="58.059" y1="41.213" x2="59.533" y2="39.74"/>
<line fill="none" stroke="#AAAAAA" stroke-miterlimit="10" x1="59.533" y1="39.739" x2="60.416" y2="37.972"/>
<line fill="none" stroke="#AAAAAA" stroke-miterlimit="10" x1="60.416" y1="37.972" x2="61.005" y2="36.203"/>
<line fill="none" stroke="#AAAAAA" stroke-miterlimit="10" x1="61.005" y1="36.203" x2="60.417" y2="34.434"/>
<line fill="none" stroke="#AAAAAA" stroke-miterlimit="10" x1="60.416" y1="34.435" x2="59.533" y2="32.963"/>
<line fill="none" stroke="#AAAAAA" stroke-miterlimit="10" x1="59.533" y1="32.962" x2="58.059" y2="31.488"/>
<line fill="none" stroke="#AAAAAA" stroke-miterlimit="10" x1="58.059" y1="31.488" x2="55.996" y2="30.31"/>
<line fill="none" stroke="#AAAAAA" stroke-miterlimit="10" x1="55.996" y1="30.31" x2="53.639" y2="29.131"/>
<line fill="none" stroke="#AAAAAA" stroke-miterlimit="10" x1="53.639" y1="29.131" x2="50.987" y2="28.541"/>
<line fill="none" stroke="#AAAAAA" stroke-miterlimit="10" x1="50.987" y1="28.541" x2="48.039" y2="28.247"/>
<line fill="none" stroke="#AAAAAA" stroke-miterlimit="10" x1="48.039" y1="28.247" x2="45.093" y2="28.541"/>
<line fill="none" stroke="#AAAAAA" stroke-miterlimit="10" x1="45.093" y1="28.541" x2="42.146" y2="29.131"/>
<line fill="none" stroke="#AAAAAA" stroke-miterlimit="10" x1="42.146" y1="29.131" x2="39.788" y2="30.015"/>
<line fill="none" stroke="#AAAAAA" stroke-miterlimit="10" x1="39.788" y1="30.015" x2="39.788" y2="42.687"/>
<line fill="none" stroke="#AAAAAA" stroke-miterlimit="10" x1="37.136" y1="28.247" x2="37.136" y2="44.159"/>
<line fill="none" stroke="#AAAAAA" stroke-miterlimit="10" x1="37.136" y1="44.159" x2="37.136" y2="44.749"/>
<line fill="none" stroke="#AAAAAA" stroke-miterlimit="10" x1="37.136" y1="44.749" x2="36.841" y2="45.633"/>
<line fill="none" stroke="#AAAAAA" stroke-miterlimit="10" x1="36.842" y1="45.633" x2="36.252" y2="45.928"/>
<line fill="none" stroke="#AAAAAA" stroke-miterlimit="10" x1="36.252" y1="45.928" x2="41.852" y2="45.928"/>
<line fill="none" stroke="#AAAAAA" stroke-miterlimit="10" x1="41.851" y1="45.928" x2="44.797" y2="46.811"/>
<line fill="none" stroke="#AAAAAA" stroke-miterlimit="10" x1="44.798" y1="46.811" x2="48.039" y2="46.811"/>
<line fill="none" stroke="#AAAAAA" stroke-miterlimit="10" x1="48.039" y1="46.811" x2="51.282" y2="46.516"/>
<line fill="none" stroke="#AAAAAA" stroke-miterlimit="10" x1="51.282" y1="46.517" x2="54.522" y2="45.928"/>
<line fill="none" stroke="#AAAAAA" stroke-miterlimit="10" x1="54.523" y1="45.928" x2="57.175" y2="44.749"/>
<line fill="none" stroke="#AAAAAA" stroke-miterlimit="10" x1="57.175" y1="44.749" x2="59.533" y2="43.275"/>
<line fill="none" stroke="#AAAAAA" stroke-miterlimit="10" x1="59.533" y1="43.275" x2="61.595" y2="41.507"/>
<line fill="none" stroke="#AAAAAA" stroke-miterlimit="10" x1="61.595" y1="41.508" x2="62.773" y2="39.444"/>
<line fill="none" stroke="#AAAAAA" stroke-miterlimit="10" x1="62.773" y1="39.444" x2="63.363" y2="37.382"/>
<line fill="none" stroke="#AAAAAA" stroke-miterlimit="10" x1="63.363" y1="37.382" x2="63.363" y2="35.319"/>
<line fill="none" stroke="#AAAAAA" stroke-miterlimit="10" x1="63.363" y1="35.319" x2="62.773" y2="32.962"/>
<line fill="none" stroke="#AAAAAA" stroke-miterlimit="10" x1="62.773" y1="32.962" x2="61.595" y2="31.193"/>
<line fill="none" stroke="#AAAAAA" stroke-miterlimit="10" x1="61.595" y1="31.193" x2="59.533" y2="29.425"/>
<line fill="none" stroke="#AAAAAA" stroke-miterlimit="10" x1="59.533" y1="29.425" x2="57.175" y2="27.954"/>
<line fill="none" stroke="#AAAAAA" stroke-miterlimit="10" x1="57.175" y1="27.953" x2="54.523" y2="26.773"/>
<line fill="none" stroke="#AAAAAA" stroke-miterlimit="10" x1="54.523" y1="26.773" x2="51.282" y2="25.889"/>
<line fill="none" stroke="#AAAAAA" stroke-miterlimit="10" x1="51.282" y1="25.888" x2="48.039" y2="25.888"/>
<line fill="none" stroke="#AAAAAA" stroke-miterlimit="10" x1="48.039" y1="25.888" x2="44.798" y2="25.888"/>
<line fill="none" stroke="#AAAAAA" stroke-miterlimit="10" x1="44.798" y1="25.888" x2="41.851" y2="26.479"/>
<line fill="none" stroke="#AAAAAA" stroke-miterlimit="10" x1="41.852" y1="26.479" x2="36.252" y2="26.479"/>
<line fill="none" stroke="#AAAAAA" stroke-miterlimit="10" x1="36.252" y1="26.479" x2="36.842" y2="27.067"/>
<line fill="none" stroke="#AAAAAA" stroke-miterlimit="10" x1="36.842" y1="27.067" x2="37.136" y2="27.657"/>
<line fill="none" stroke="#AAAAAA" stroke-miterlimit="10" x1="37.136" y1="27.657" x2="37.136" y2="28.247"/>
<line fill="none" stroke="#AAAAAA" stroke-miterlimit="10" x1="26.527" y1="44.159" x2="26.822" y2="44.749"/>
<line fill="none" stroke="#AAAAAA" stroke-miterlimit="10" x1="26.822" y1="44.749" x2="26.822" y2="45.633"/>
<line fill="none" stroke="#AAAAAA" stroke-miterlimit="10" x1="26.822" y1="45.633" x2="27.411" y2="45.928"/>
<line fill="none" stroke="#AAAAAA" stroke-miterlimit="10" x1="27.411" y1="45.928" x2="28.001" y2="46.517"/>
<line fill="none" stroke="#AAAAAA" stroke-miterlimit="10" x1="28.001" y1="46.517" x2="28.59" y2="46.812"/>
<line fill="none" stroke="#AAAAAA" stroke-miterlimit="10" x1="28.589" y1="46.811" x2="29.18" y2="46.811"/>
<line fill="none" stroke="#AAAAAA" stroke-miterlimit="10" x1="29.18" y1="46.811" x2="34.485" y2="46.811"/>
<line fill="none" stroke="#AAAAAA" stroke-miterlimit="10" x1="34.483" y1="46.811" x2="35.073" y2="46.811"/>
<line fill="none" stroke="#AAAAAA" stroke-miterlimit="10" x1="35.073" y1="46.811" x2="35.957" y2="46.516"/>
<line fill="none" stroke="#AAAAAA" stroke-miterlimit="10" x1="35.958" y1="46.517" x2="36.252" y2="45.928"/>
<line fill="none" stroke="#AAAAAA" stroke-miterlimit="10" x1="36.252" y1="45.928" x2="36.842" y2="45.633"/>
<line fill="none" stroke="#AAAAAA" stroke-miterlimit="10" x1="36.842" y1="45.633" x2="37.136" y2="44.749"/>
<line fill="none" stroke="#AAAAAA" stroke-miterlimit="10" x1="37.136" y1="44.749" x2="37.136" y2="44.159"/>
<line fill="none" stroke="#AAAAAA" stroke-miterlimit="10" x1="37.136" y1="44.159" x2="37.136" y2="28.247"/>
<line fill="none" stroke="#AAAAAA" stroke-miterlimit="10" x1="37.136" y1="28.247" x2="37.136" y2="27.657"/>
<line fill="none" stroke="#AAAAAA" stroke-miterlimit="10" x1="37.136" y1="27.657" x2="36.841" y2="27.067"/>
<line fill="none" stroke="#AAAAAA" stroke-miterlimit="10" x1="36.842" y1="27.067" x2="36.252" y2="26.479"/>
<line fill="none" stroke="#AAAAAA" stroke-miterlimit="10" x1="36.252" y1="26.479" x2="35.957" y2="26.184"/>
<line fill="none" stroke="#AAAAAA" stroke-miterlimit="10" x1="35.958" y1="26.184" x2="35.073" y2="25.889"/>
<line fill="none" stroke="#AAAAAA" stroke-miterlimit="10" x1="35.073" y1="25.888" x2="34.483" y2="25.888"/>
<line fill="none" stroke="#AAAAAA" stroke-miterlimit="10" x1="34.484" y1="25.888" x2="29.18" y2="25.888"/>
<line fill="none" stroke="#AAAAAA" stroke-miterlimit="10" x1="29.18" y1="25.888" x2="28.59" y2="25.888"/>
<line fill="none" stroke="#AAAAAA" stroke-miterlimit="10" x1="28.589" y1="25.888" x2="28" y2="26.183"/>
<line fill="none" stroke="#AAAAAA" stroke-miterlimit="10" x1="28.001" y1="26.184" x2="27.411" y2="26.479"/>
<line fill="none" stroke="#AAAAAA" stroke-miterlimit="10" x1="27.411" y1="26.479" x2="26.822" y2="27.067"/>
<line fill="none" stroke="#AAAAAA" stroke-miterlimit="10" x1="26.822" y1="27.067" x2="26.822" y2="27.657"/>
<line fill="none" stroke="#AAAAAA" stroke-miterlimit="10" x1="26.822" y1="27.657" x2="26.527" y2="28.247"/>
<line fill="none" stroke="#AAAAAA" stroke-miterlimit="10" x1="26.527" y1="28.247" x2="26.527" y2="44.159"/>
<line fill="none" stroke="#AAAAAA" stroke-miterlimit="10" x1="37.047" y1="188.972" x2="37.329" y2="188.972"/>
<line fill="none" stroke="#AAAAAA" stroke-miterlimit="10" x1="37.329" y1="188.972" x2="37.613" y2="188.972"/>
<line fill="none" stroke="#AAAAAA" stroke-miterlimit="10" x1="37.613" y1="188.972" x2="37.896" y2="188.688"/>
<line fill="none" stroke="#AAAAAA" stroke-miterlimit="10" x1="37.896" y1="188.688" x2="38.18" y2="188.405"/>
<line fill="none" stroke="#AAAAAA" stroke-miterlimit="10" x1="38.18" y1="188.405" x2="38.18" y2="188.123"/>
<line fill="none" stroke="#AAAAAA" stroke-miterlimit="10" x1="38.18" y1="188.123" x2="38.18" y2="187.839"/>
<line fill="none" stroke="#AAAAAA" stroke-miterlimit="10" x1="38.18" y1="187.839" x2="37.897" y2="187.556"/>
<line fill="none" stroke="#AAAAAA" stroke-miterlimit="10" x1="37.896" y1="187.556" x2="37.896" y2="187.273"/>
<line fill="none" stroke="#AAAAAA" stroke-miterlimit="10" x1="37.896" y1="187.273" x2="37.613" y2="187.273"/>
<line fill="none" stroke="#AAAAAA" stroke-miterlimit="10" x1="37.613" y1="187.273" x2="37.329" y2="186.99"/>
<line fill="none" stroke="#AAAAAA" stroke-miterlimit="10" x1="37.329" y1="186.99" x2="37.047" y2="186.99"/>
<line fill="none" stroke="#AAAAAA" stroke-miterlimit="10" x1="37.047" y1="186.99" x2="36.763" y2="186.99"/>
<line fill="none" stroke="#AAAAAA" stroke-miterlimit="10" x1="36.763" y1="186.99" x2="36.48" y2="187.273"/>
<line fill="none" stroke="#AAAAAA" stroke-miterlimit="10" x1="36.48" y1="187.273" x2="36.196" y2="187.556"/>
<line fill="none" stroke="#AAAAAA" stroke-miterlimit="10" x1="36.196" y1="187.556" x2="36.196" y2="187.839"/>
<line fill="none" stroke="#AAAAAA" stroke-miterlimit="10" x1="36.196" y1="187.839" x2="36.196" y2="188.122"/>
<line fill="none" stroke="#AAAAAA" stroke-miterlimit="10" x1="36.196" y1="188.123" x2="36.196" y2="188.404"/>
<line fill="none" stroke="#AAAAAA" stroke-miterlimit="10" x1="36.196" y1="188.405" x2="36.196" y2="188.688"/>
<line fill="none" stroke="#AAAAAA" stroke-miterlimit="10" x1="36.196" y1="188.688" x2="36.48" y2="188.688"/>
<line fill="none" stroke="#AAAAAA" stroke-miterlimit="10" x1="36.48" y1="188.688" x2="36.48" y2="188.971"/>
<line fill="none" stroke="#AAAAAA" stroke-miterlimit="10" x1="36.48" y1="188.972" x2="36.763" y2="188.972"/>
<line fill="none" stroke="#AAAAAA" stroke-miterlimit="10" x1="36.763" y1="188.972" x2="37.047" y2="188.972"/>
<line fill="none" stroke="#AAAAAA" stroke-miterlimit="10" x1="34.497" y1="196.054" x2="34.497" y2="196.338"/>
<line fill="none" stroke="#AAAAAA" stroke-miterlimit="10" x1="34.497" y1="196.338" x2="34.78" y2="196.338"/>
<line fill="none" stroke="#AAAAAA" stroke-miterlimit="10" x1="34.78" y1="196.338" x2="34.78" y2="196.622"/>
<line fill="none" stroke="#AAAAAA" stroke-miterlimit="10" x1="34.78" y1="196.622" x2="35.063" y2="196.904"/>
<line fill="none" stroke="#AAAAAA" stroke-miterlimit="10" x1="35.063" y1="196.903" x2="35.346" y2="196.903"/>
<line fill="none" stroke="#AAAAAA" stroke-miterlimit="10" x1="35.346" y1="196.903" x2="35.63" y2="196.903"/>
<line fill="none" stroke="#AAAAAA" stroke-miterlimit="10" x1="35.63" y1="196.903" x2="48.661" y2="196.903"/>
<line fill="none" stroke="#AAAAAA" stroke-miterlimit="10" x1="48.661" y1="196.903" x2="48.945" y2="196.903"/>
<line fill="none" stroke="#AAAAAA" stroke-miterlimit="10" x1="48.945" y1="196.903" x2="49.228" y2="196.903"/>
<line fill="none" stroke="#AAAAAA" stroke-miterlimit="10" x1="49.228" y1="196.903" x2="49.511" y2="196.622"/>
<line fill="none" stroke="#AAAAAA" stroke-miterlimit="10" x1="49.511" y1="196.622" x2="49.511" y2="196.339"/>
<line fill="none" stroke="#AAAAAA" stroke-miterlimit="10" x1="49.511" y1="196.338" x2="49.794" y2="196.338"/>
<line fill="none" stroke="#AAAAAA" stroke-miterlimit="10" x1="49.794" y1="196.338" x2="49.794" y2="196.055"/>
<line fill="none" stroke="#AAAAAA" stroke-miterlimit="10" x1="49.794" y1="196.054" x2="49.794" y2="180.19"/>
<line fill="none" stroke="#AAAAAA" stroke-miterlimit="10" x1="49.794" y1="180.191" x2="49.794" y2="179.907"/>
<line fill="none" stroke="#AAAAAA" stroke-miterlimit="10" x1="49.794" y1="179.906" x2="49.51" y2="179.624"/>
<line fill="none" stroke="#AAAAAA" stroke-miterlimit="10" x1="49.511" y1="179.623" x2="49.228" y2="179.34"/>
<line fill="none" stroke="#AAAAAA" stroke-miterlimit="10" x1="49.228" y1="179.34" x2="48.945" y2="179.34"/>
<line fill="none" stroke="#AAAAAA" stroke-miterlimit="10" x1="48.945" y1="179.34" x2="48.661" y2="179.34"/>
<line fill="none" stroke="#AAAAAA" stroke-miterlimit="10" x1="48.661" y1="179.34" x2="35.63" y2="179.34"/>
<line fill="none" stroke="#AAAAAA" stroke-miterlimit="10" x1="35.63" y1="179.34" x2="35.346" y2="179.34"/>
<line fill="none" stroke="#AAAAAA" stroke-miterlimit="10" x1="35.346" y1="179.34" x2="35.063" y2="179.34"/>
<line fill="none" stroke="#AAAAAA" stroke-miterlimit="10" x1="35.063" y1="179.34" x2="34.78" y2="179.624"/>
<line fill="none" stroke="#AAAAAA" stroke-miterlimit="10" x1="34.78" y1="179.624" x2="34.496" y2="179.906"/>
<line fill="none" stroke="#AAAAAA" stroke-miterlimit="10" x1="34.497" y1="179.906" x2="34.497" y2="180.19"/>
<line fill="none" stroke="#AAAAAA" stroke-miterlimit="10" x1="34.497" y1="180.191" x2="34.497" y2="196.055"/>
<line fill="none" stroke="#AAAAAA" stroke-miterlimit="10" x1="31.947" y1="158.944" x2="31.947" y2="199.454"/>
<line fill="none" stroke="#AAAAAA" stroke-miterlimit="10" x1="31.947" y1="199.454" x2="52.344" y2="199.454"/>
<line fill="none" stroke="#AAAAAA" stroke-miterlimit="10" x1="52.344" y1="199.454" x2="52.344" y2="158.944"/>
<line fill="none" stroke="#AAAAAA" stroke-miterlimit="10" x1="52.344" y1="158.944" x2="31.947" y2="158.944"/>
<line fill="none" stroke="#AAAAAA" stroke-miterlimit="10" x1="47.245" y1="161.493" x2="47.245" y2="176.791"/>
<line fill="none" stroke="#AAAAAA" stroke-miterlimit="10" x1="44.695" y1="161.493" x2="44.695" y2="176.791"/>
<line fill="none" stroke="#AAAAAA" stroke-miterlimit="10" x1="42.146" y1="161.493" x2="42.146" y2="176.791"/>
<line fill="none" stroke="#AAAAAA" stroke-miterlimit="10" x1="39.595" y1="161.493" x2="39.595" y2="176.791"/>
<line fill="none" stroke="#AAAAAA" stroke-miterlimit="10" x1="37.047" y1="161.493" x2="37.047" y2="176.791"/>
<line fill="none" stroke="#AAAAAA" stroke-miterlimit="10" x1="49.794" y1="176.791" x2="49.794" y2="161.493"/>
<line fill="none" stroke="#AAAAAA" stroke-miterlimit="10" x1="34.497" y1="161.493" x2="34.497" y2="176.791"/>
<line fill="none" stroke="#AAAAAA" stroke-miterlimit="10" x1="46.281" y1="272.746" x2="47.272" y2="272.746"/>
<line fill="none" stroke="#AAAAAA" stroke-miterlimit="10" x1="47.271" y1="272.746" x2="48.51" y2="272.251"/>
<line fill="none" stroke="#AAAAAA" stroke-miterlimit="10" x1="48.51" y1="272.252" x2="49.5" y2="271.509"/>
<line fill="none" stroke="#AAAAAA" stroke-miterlimit="10" x1="49.5" y1="271.509" x2="49.995" y2="270.519"/>
<line fill="none" stroke="#AAAAAA" stroke-miterlimit="10" x1="49.995" y1="270.519" x2="50.491" y2="269.528"/>
<line fill="none" stroke="#AAAAAA" stroke-miterlimit="10" x1="50.491" y1="269.527" x2="50.738" y2="268.29"/>
<line fill="none" stroke="#AAAAAA" stroke-miterlimit="10" x1="50.737" y1="268.29" x2="50.49" y2="267.299"/>
<line fill="none" stroke="#AAAAAA" stroke-miterlimit="10" x1="50.491" y1="267.299" x2="49.995" y2="266.061"/>
<line fill="none" stroke="#AAAAAA" stroke-miterlimit="10" x1="49.995" y1="266.061" x2="49.5" y2="265.317"/>
<line fill="none" stroke="#AAAAAA" stroke-miterlimit="10" x1="49.5" y1="265.317" x2="48.51" y2="264.576"/>
<line fill="none" stroke="#AAAAAA" stroke-miterlimit="10" x1="48.51" y1="264.574" x2="47.272" y2="264.079"/>
<line fill="none" stroke="#AAAAAA" stroke-miterlimit="10" x1="47.271" y1="264.079" x2="46.281" y2="263.832"/>
<line fill="none" stroke="#AAAAAA" stroke-miterlimit="10" x1="46.281" y1="263.832" x2="45.043" y2="264.079"/>
<line fill="none" stroke="#AAAAAA" stroke-miterlimit="10" x1="45.042" y1="264.079" x2="44.053" y2="264.575"/>
<line fill="none" stroke="#AAAAAA" stroke-miterlimit="10" x1="44.053" y1="264.575" x2="43.063" y2="265.317"/>
<line fill="none" stroke="#AAAAAA" stroke-miterlimit="10" x1="43.062" y1="265.317" x2="42.319" y2="266.061"/>
<line fill="none" stroke="#AAAAAA" stroke-miterlimit="10" x1="42.319" y1="266.061" x2="42.071" y2="267.299"/>
<line fill="none" stroke="#AAAAAA" stroke-miterlimit="10" x1="42.071" y1="267.299" x2="41.823" y2="268.29"/>
<line fill="none" stroke="#AAAAAA" stroke-miterlimit="10" x1="41.824" y1="268.29" x2="42.071" y2="269.528"/>
<line fill="none" stroke="#AAAAAA" stroke-miterlimit="10" x1="42.071" y1="269.527" x2="42.319" y2="270.519"/>
<line fill="none" stroke="#AAAAAA" stroke-miterlimit="10" x1="42.319" y1="270.519" x2="43.062" y2="271.509"/>
<line fill="none" stroke="#AAAAAA" stroke-miterlimit="10" x1="43.062" y1="271.509" x2="44.052" y2="272.252"/>
<line fill="none" stroke="#AAAAAA" stroke-miterlimit="10" x1="44.053" y1="272.252" x2="45.042" y2="272.746"/>
<line fill="none" stroke="#AAAAAA" stroke-miterlimit="10" x1="45.042" y1="272.746" x2="46.28" y2="272.746"/>
<line fill="none" stroke="#AAAAAA" stroke-miterlimit="10" x1="32.909" y1="259.375" x2="34.147" y2="259.375"/>
<line fill="none" stroke="#AAAAAA" stroke-miterlimit="10" x1="34.147" y1="259.375" x2="35.138" y2="258.88"/>
<line fill="none" stroke="#AAAAAA" stroke-miterlimit="10" x1="35.139" y1="258.879" x2="36.128" y2="258.138"/>
<line fill="none" stroke="#AAAAAA" stroke-miterlimit="10" x1="36.129" y1="258.138" x2="36.872" y2="257.395"/>
<line fill="none" stroke="#AAAAAA" stroke-miterlimit="10" x1="36.872" y1="257.395" x2="37.12" y2="256.156"/>
<line fill="none" stroke="#AAAAAA" stroke-miterlimit="10" x1="37.119" y1="256.156" x2="37.367" y2="255.166"/>
<line fill="none" stroke="#AAAAAA" stroke-miterlimit="10" x1="37.367" y1="255.165" x2="37.119" y2="253.928"/>
<line fill="none" stroke="#AAAAAA" stroke-miterlimit="10" x1="37.119" y1="253.928" x2="36.871" y2="252.937"/>
<line fill="none" stroke="#AAAAAA" stroke-miterlimit="10" x1="36.872" y1="252.937" x2="36.128" y2="251.946"/>
<line fill="none" stroke="#AAAAAA" stroke-miterlimit="10" x1="36.129" y1="251.947" x2="35.139" y2="251.204"/>
<line fill="none" stroke="#AAAAAA" stroke-miterlimit="10" x1="35.139" y1="251.204" x2="34.147" y2="250.708"/>
<line fill="none" stroke="#AAAAAA" stroke-miterlimit="10" x1="34.147" y1="250.708" x2="32.909" y2="250.708"/>
<line fill="none" stroke="#AAAAAA" stroke-miterlimit="10" x1="32.909" y1="250.708" x2="31.919" y2="250.708"/>
<line fill="none" stroke="#AAAAAA" stroke-miterlimit="10" x1="31.919" y1="250.708" x2="30.681" y2="251.204"/>
<line fill="none" stroke="#AAAAAA" stroke-miterlimit="10" x1="30.681" y1="251.204" x2="29.938" y2="251.947"/>
<line fill="none" stroke="#AAAAAA" stroke-miterlimit="10" x1="29.938" y1="251.947" x2="29.194" y2="252.937"/>
<line fill="none" stroke="#AAAAAA" stroke-miterlimit="10" x1="29.194" y1="252.937" x2="28.7" y2="253.928"/>
<line fill="none" stroke="#AAAAAA" stroke-miterlimit="10" x1="28.7" y1="253.928" x2="28.452" y2="255.166"/>
<line fill="none" stroke="#AAAAAA" stroke-miterlimit="10" x1="28.452" y1="255.165" x2="28.7" y2="256.156"/>
<line fill="none" stroke="#AAAAAA" stroke-miterlimit="10" x1="28.7" y1="256.156" x2="29.194" y2="257.395"/>
<line fill="none" stroke="#AAAAAA" stroke-miterlimit="10" x1="29.194" y1="257.395" x2="29.938" y2="258.138"/>
<line fill="none" stroke="#AAAAAA" stroke-miterlimit="10" x1="29.938" y1="258.138" x2="30.681" y2="258.879"/>
<line fill="none" stroke="#AAAAAA" stroke-miterlimit="10" x1="30.681" y1="258.879" x2="31.918" y2="259.375"/>
<line fill="none" stroke="#AAAAAA" stroke-miterlimit="10" x1="31.919" y1="259.375" x2="32.909" y2="259.375"/>
<line fill="none" stroke="#AAAAAA" stroke-miterlimit="10" x1="32.909" y1="271.509" x2="33.652" y2="271.261"/>
<line fill="none" stroke="#AAAAAA" stroke-miterlimit="10" x1="33.652" y1="271.261" x2="34.395" y2="271.013"/>
<line fill="none" stroke="#AAAAAA" stroke-miterlimit="10" x1="34.395" y1="271.012" x2="35.138" y2="270.519"/>
<line fill="none" stroke="#AAAAAA" stroke-miterlimit="10" x1="35.139" y1="270.519" x2="35.633" y2="270.022"/>
<line fill="none" stroke="#AAAAAA" stroke-miterlimit="10" x1="35.633" y1="270.024" x2="35.881" y2="269.031"/>
<line fill="none" stroke="#AAAAAA" stroke-miterlimit="10" x1="35.881" y1="269.031" x2="36.129" y2="268.29"/>
<line fill="none" stroke="#AAAAAA" stroke-miterlimit="10" x1="36.129" y1="268.29" x2="35.881" y2="267.547"/>
<line fill="none" stroke="#AAAAAA" stroke-miterlimit="10" x1="35.881" y1="267.547" x2="35.633" y2="266.804"/>
<line fill="none" stroke="#AAAAAA" stroke-miterlimit="10" x1="35.633" y1="266.804" x2="35.138" y2="266.061"/>
<line fill="none" stroke="#AAAAAA" stroke-miterlimit="10" x1="35.139" y1="266.061" x2="34.396" y2="265.564"/>
<line fill="none" stroke="#AAAAAA" stroke-miterlimit="10" x1="34.395" y1="265.565" x2="33.652" y2="265.318"/>
<line fill="none" stroke="#AAAAAA" stroke-miterlimit="10" x1="33.652" y1="265.317" x2="32.909" y2="265.317"/>
<line fill="none" stroke="#AAAAAA" stroke-miterlimit="10" x1="32.909" y1="265.317" x2="32.167" y2="265.317"/>
<line fill="none" stroke="#AAAAAA" stroke-miterlimit="10" x1="32.166" y1="265.317" x2="31.423" y2="265.564"/>
<line fill="none" stroke="#AAAAAA" stroke-miterlimit="10" x1="31.423" y1="265.565" x2="30.68" y2="266.062"/>
<line fill="none" stroke="#AAAAAA" stroke-miterlimit="10" x1="30.681" y1="266.061" x2="30.185" y2="266.804"/>
<line fill="none" stroke="#AAAAAA" stroke-miterlimit="10" x1="30.185" y1="266.804" x2="29.939" y2="267.547"/>
<line fill="none" stroke="#AAAAAA" stroke-miterlimit="10" x1="29.938" y1="267.547" x2="29.938" y2="268.29"/>
<line fill="none" stroke="#AAAAAA" stroke-miterlimit="10" x1="29.938" y1="268.29" x2="29.938" y2="269.031"/>
<line fill="none" stroke="#AAAAAA" stroke-miterlimit="10" x1="29.938" y1="269.031" x2="30.185" y2="270.024"/>
<line fill="none" stroke="#AAAAAA" stroke-miterlimit="10" x1="30.185" y1="270.022" x2="30.681" y2="270.519"/>
<line fill="none" stroke="#AAAAAA" stroke-miterlimit="10" x1="30.681" y1="270.519" x2="31.424" y2="271.012"/>
<line fill="none" stroke="#AAAAAA" stroke-miterlimit="10" x1="31.423" y1="271.012" x2="32.167" y2="271.26"/>
<line fill="none" stroke="#AAAAAA" stroke-miterlimit="10" x1="32.166" y1="271.261" x2="32.909" y2="271.509"/>
<line fill="none" stroke="#AAAAAA" stroke-miterlimit="10" x1="46.281" y1="258.138" x2="47.024" y2="258.138"/>
<line fill="none" stroke="#AAAAAA" stroke-miterlimit="10" x1="47.024" y1="258.138" x2="47.767" y2="257.642"/>
<line fill="none" stroke="#AAAAAA" stroke-miterlimit="10" x1="47.766" y1="257.641" x2="48.509" y2="257.146"/>
<line fill="none" stroke="#AAAAAA" stroke-miterlimit="10" x1="48.51" y1="257.146" x2="49.005" y2="256.65"/>
<line fill="none" stroke="#AAAAAA" stroke-miterlimit="10" x1="49.004" y1="256.649" x2="49.252" y2="255.909"/>
<line fill="none" stroke="#AAAAAA" stroke-miterlimit="10" x1="49.252" y1="255.908" x2="49.252" y2="255.165"/>
<line fill="none" stroke="#AAAAAA" stroke-miterlimit="10" x1="49.252" y1="255.165" x2="49.252" y2="254.176"/>
<line fill="none" stroke="#AAAAAA" stroke-miterlimit="10" x1="49.252" y1="254.176" x2="49.004" y2="253.433"/>
<line fill="none" stroke="#AAAAAA" stroke-miterlimit="10" x1="49.004" y1="253.433" x2="48.51" y2="252.937"/>
<line fill="none" stroke="#AAAAAA" stroke-miterlimit="10" x1="48.509" y1="252.937" x2="47.766" y2="252.441"/>
<line fill="none" stroke="#AAAAAA" stroke-miterlimit="10" x1="47.766" y1="252.441" x2="47.023" y2="251.946"/>
<line fill="none" stroke="#AAAAAA" stroke-miterlimit="10" x1="47.024" y1="251.947" x2="46.281" y2="251.947"/>
<line fill="none" stroke="#AAAAAA" stroke-miterlimit="10" x1="46.281" y1="251.947" x2="45.538" y2="251.947"/>
<line fill="none" stroke="#AAAAAA" stroke-miterlimit="10" x1="45.538" y1="251.947" x2="44.795" y2="252.442"/>
<line fill="none" stroke="#AAAAAA" stroke-miterlimit="10" x1="44.795" y1="252.441" x2="44.053" y2="252.937"/>
<line fill="none" stroke="#AAAAAA" stroke-miterlimit="10" x1="44.053" y1="252.937" x2="43.557" y2="253.433"/>
<line fill="none" stroke="#AAAAAA" stroke-miterlimit="10" x1="43.558" y1="253.433" x2="43.31" y2="254.176"/>
<line fill="none" stroke="#AAAAAA" stroke-miterlimit="10" x1="43.31" y1="254.176" x2="43.062" y2="255.166"/>
<line fill="none" stroke="#AAAAAA" stroke-miterlimit="10" x1="43.062" y1="255.165" x2="43.31" y2="255.908"/>
<line fill="none" stroke="#AAAAAA" stroke-miterlimit="10" x1="43.31" y1="255.908" x2="43.558" y2="256.649"/>
<line fill="none" stroke="#AAAAAA" stroke-miterlimit="10" x1="43.557" y1="256.649" x2="44.053" y2="257.146"/>
<line fill="none" stroke="#AAAAAA" stroke-miterlimit="10" x1="44.053" y1="257.146" x2="44.794" y2="257.642"/>
<line fill="none" stroke="#AAAAAA" stroke-miterlimit="10" x1="44.795" y1="257.641" x2="45.538" y2="258.137"/>
<line fill="none" stroke="#AAAAAA" stroke-miterlimit="10" x1="45.538" y1="258.138" x2="46.281" y2="258.138"/>
<line fill="none" stroke="#AAAAAA" stroke-miterlimit="10" x1="26.224" y1="248.48" x2="26.224" y2="274.974"/>
<line fill="none" stroke="#AAAAAA" stroke-miterlimit="10" x1="26.224" y1="274.975" x2="52.966" y2="274.975"/>
<line fill="none" stroke="#AAAAAA" stroke-miterlimit="10" x1="52.966" y1="274.975" x2="52.966" y2="248.48"/>
<line fill="none" stroke="#AAAAAA" stroke-miterlimit="10" x1="52.966" y1="248.48" x2="26.223" y2="248.48"/>
</svg>
