<?xml version="1.0" encoding="utf-8"?>
<!-- Generator: Adobe Illustrator 15.0.2, SVG Export Plug-In  -->
<!DOCTYPE svg PUBLIC "-//W3C//DTD SVG 1.1//EN" "http://www.w3.org/Graphics/SVG/1.1/DTD/svg11.dtd" [
	<!ENTITY ns_flows "http://ns.adobe.com/Flows/1.0/">
]>
<svg version="1.1"
	 xmlns="http://www.w3.org/2000/svg" xmlns:xlink="http://www.w3.org/1999/xlink" xmlns:a="http://ns.adobe.com/AdobeSVGViewerExtensions/3.0/"
	 x="0px" y="0px" width="46px" height="50px" viewBox="-0.3637695 -0.4233398 46 50"
	 enable-background="new -0.3637695 -0.4233398 46 50" xml:space="preserve">
<defs>
</defs>
<path fill="#1490e7" d="M37.175293,14.4555664H0.8984375C0.4033203,14.4555664,0,14.8544922,0,15.3476563v32.7602539
	c0,0.4931641,0.4033203,0.8916016,0.8984375,0.8916016H37.175293c0.4960938,0,0.8964844-0.3984375,0.8964844-0.8916016V15.3476563
	C38.0717773,14.8544922,37.6713867,14.4555664,37.175293,14.4555664 M36.2768555,47.215332H1.7973633V16.2387695h34.4794922
	V47.215332z"/>
<path fill="#1490e7" d="M4.059082,45.8598633h29.9550781c0.4970703,0,0.8974609-0.3984375,0.8974609-0.8925781V18.487793
	c0-0.4931641-0.4003906-0.8920898-0.8974609-0.8920898H4.059082c-0.4960938,0-0.8979492,0.3989258-0.8979492,0.8920898v26.4794922
	C3.1611328,45.4614258,3.5629883,45.8598633,4.059082,45.8598633 M4.9570313,19.3798828h28.159668v24.6967773H4.9570313V19.3798828z
	"/>
<path fill="#1490e7" d="M28.9301758,26.7407227H9.1430664c-0.4956055,0-0.8979492,0.3994141-0.8979492,0.8916016v12.0126953
	c0,0.4921875,0.4023438,0.8916016,0.8979492,0.8916016h19.7871094c0.4960938,0,0.8974609-0.3994141,0.8974609-0.8916016V27.6323242
	C29.8276367,27.1401367,29.4262695,26.7407227,28.9301758,26.7407227 M28.0327148,38.7524414H10.0410156V28.5249023h17.9916992
	V38.7524414z"/>
<path fill="#1490e7" d="M31.5209961,21.0078125c-0.4960938,0-0.8984375,0.3989258-0.8984375,0.8920898v1.1557617H8.2753906
	v-1.1557617c0-0.4931641-0.4018555-0.8920898-0.8979492-0.8920898c-0.4956055,0-0.8979492,0.3989258-0.8979492,0.8920898v2.0478516
	c0,0.4916992,0.4023438,0.8916016,0.8979492,0.8916016h24.1435547c0.4960938,0,0.8974609-0.3999023,0.8974609-0.8916016v-2.0478516
	C32.418457,21.4067383,32.0170898,21.0078125,31.5209961,21.0078125"/>
<path fill="#1490e7" d="M1.0932617,4.2412109h0.6142578v7.0766602c0,1.3662109,1.1191406,2.4780273,2.4951172,2.4780273h9.996582
	c1.375,0,2.4951172-1.1118164,2.4951172-2.4780273V4.2412109h0.6142578c0.4946289,0,0.8979492-0.3989258,0.8979492-0.8920898
	c0-0.4921875-0.4033203-0.8920898-0.8979492-0.8920898H9.8232422V0.8920898C9.8232422,0.3999023,9.4223633,0,8.925293,0
	C8.4291992,0,8.0273438,0.3999023,8.0273438,0.8920898v1.5649414h-6.934082c-0.4956055,0-0.8979492,0.3999023-0.8979492,0.8920898
	C0.1953125,3.8422852,0.5976563,4.2412109,1.0932617,4.2412109 M14.8984375,4.2412109v7.0766602
	c0,0.3823242-0.3129883,0.6943359-0.6992188,0.6943359h-9.996582c-0.3862305,0-0.7001953-0.3120117-0.7001953-0.6943359V4.2412109
	H14.8984375z"/>
<path fill="#1490e7" d="M44.1030273,8.4072266H22.1176758c-0.2739258,0-0.5327148,0.1240234-0.7036133,0.3369141
	c-0.1704102,0.2133789-0.2333984,0.4912109-0.1713867,0.7563477l0.8413086,3.6049805
	c0.09375,0.4047852,0.4560547,0.690918,0.8740234,0.690918h11.5102539c0.4179688,0,0.7792969-0.2861328,0.875-0.690918
	l0.6796875-2.9140625h8.0800781c0.4960938,0,0.8984375-0.3999023,0.8984375-0.8920898
	C45.0014648,8.8061523,44.5991211,8.4072266,44.1030273,8.4072266 M33.753418,12.012207H23.6713867l-0.4243164-1.8208008h10.9321289
	L33.753418,12.012207z"/>
</svg>
