<?xml version="1.0" encoding="utf-8"?>
<!-- Generator: Adobe Illustrator 15.0.2, SVG Export Plug-In  -->
<!DOCTYPE svg PUBLIC "-//W3C//DTD SVG 1.1//EN" "http://www.w3.org/Graphics/SVG/1.1/DTD/svg11.dtd" [
	<!ENTITY ns_flows "http://ns.adobe.com/Flows/1.0/">
]>
<svg version="1.1"
	 xmlns="http://www.w3.org/2000/svg" xmlns:xlink="http://www.w3.org/1999/xlink" xmlns:a="http://ns.adobe.com/AdobeSVGViewerExtensions/3.0/"
	 x="0px" y="0px" width="34px" height="42px" viewBox="-0.78125 -0.4238281 34 42"
	 enable-background="new -0.78125 -0.4238281 34 42" xml:space="preserve">
<defs>
</defs>
<path fill="#1490e7" d="M32.265625,0H0.7333984C0.3291016,0,0,0.3222656,0,0.7202148v39.559082
	C0,40.6767578,0.3291016,41,0.7333984,41H32.265625C32.6708984,41,33,40.6767578,33,40.2792969V0.7202148
	C33,0.3222656,32.6708984,0,32.265625,0 M31.53125,9.8891602H17.2333984V1.4399414H31.53125V9.8891602z M17.2333984,21.2197266
	H31.53125v8.4492188H17.2333984V21.2197266z M17.2333984,11.3291016H31.53125v8.4501953H17.2333984V11.3291016z M1.46875,1.4399414
	h14.296875v38.1196289H1.46875V1.4399414z M17.2333984,31.109375H31.53125v8.4501953H17.2333984V31.109375z"/>
<path fill="#1490e7" d="M13.6601563,17.1870117c-0.40625,0-0.734375,0.3227539-0.734375,0.7197266v5.1850586
	c0,0.3984375,0.328125,0.7197266,0.734375,0.7197266c0.4052734,0,0.734375-0.3212891,0.734375-0.7197266v-5.1850586
	C14.3945313,17.5097656,14.0654297,17.1870117,13.6601563,17.1870117"/>
</svg>
