<svg id="plans-2" xmlns="http://www.w3.org/2000/svg" width="673.797" height="488.469" viewBox="0 0 673.797 488.469">
  <g id="plans2-hovers">
    <path id="plans2_x5F_8" fill="#EEE" d="M314.063 393.797v33h-2v31h2v13h141v-41h8v41h123v-13h11v20h36v-63h-37v12h-10v-15h-122v8h-11v-26h11v14h123v-6h2v-29h-3v-23h-123v17h-10v-48h-11v-2h-15v2h-55v75z"/>
    <path id="plans2_x5F_7" fill="#D3D3D3" d="M463.063 218.796v56h-5v19h5v50h124v-13h9v27h36V335.34l11-10.43v-30.113h-47v8h-9v-17h48v-18h8v26h17.528s15.357-53.566 12.59-76.25c-4.02.063-30.117.186-30.117.186v19.064h-9v-17.73l-171-.27z"/>
    <path id="plans2_x5F_6" fill="#D3D3D3" d="M128.063 246.797v103h11v9h-13v35h54v-35h-10v-8h19v33h60v-134h-37v-6h-21v3z"/>
    <path id="plans2_x5F_5" fill="#EEE" d="M10.063 210.796v140h14v8h-19v35h62v-35h-14v-9h29v3h30v-3h10v-103h-28v-4h9v-8h3v-17h-4v-8z"/>
    <path id="plans2_x5F_4" fill="#EEE" d="M660.13 136.796h-17.067v26h-9v-18h-47v-68h-17v-10h24v-16s-74-28.418-157 .416v15.584h25v10h-47v124h16v5h20v-4h11v8h174v-17h6v20h31s.804-40-12.932-76M538.35 76.028h-43.23v-8.272h43.23v8.272z"/>
    <path id="plans2_x5F_3" fill="#D3D3D3" d="M288.063 21.796h33l8.935 9h24.065v37h-28v9h45v-2h30v2h8v124h-62v5h-19v-6h-39v-123h8v-9h-8z"/>
    <path id="plans2_x5F_2" fill="#EEE" d="M288.062 19.796v-16s-76-27.21-158 1.02v14.98h27v9h-18v48h-1v125h142v-173h-19v-9h27zm-57 8h-43v-8h43v8z"/>
    <path id="plans2_x5F_1" fill="#D3D3D3" d="M11.063 76.796v125h98v8h21v-9h5v-123h-12v-10h7v-44h-33l-9.125 9H63.063v37h29v6l-81 .25"/>
  </g>
  <g id="plans2-main">
    <path fill="#AAA" d="M136.912 209.79h-1.597V86.81h1.597v122.98zm1-123.98h-3.597v124.98h3.597V85.81zM211 169.45h-1.596V38.977H211V169.45zm1-131.474h-3.596V170.45H212V37.975z"/>
    <path fill="#AAA" d="M211.96 171.068h-3.754v-.158h3.754v.158zm1-1.158h-5.754v2.158h5.754v-2.158z"/>
    <path fill="none" stroke="#AAA" stroke-miterlimit="10" d="M137.553 169.91h53.59v2.158h-11.75v10.61h-2.28v-10.61h-39.56zM280.216 169.91h-49.273v2.158h2.757v21.76h2.278v-21.76h44.238z"/>
    <path fill="#AAA" d="M134.035 171.697H96.712v-.877h37.323v.877zm1-1.877H95.712v2.877h39.323v-2.877z"/>
    <path fill="none" stroke="#AAA" stroke-miterlimit="10" d="M73.294 86.41v83.41h3.597v2.068h-9.11v-2.068h3.236V86.41zM47.684 190.71h2.068v20.08h-2.068zM10.415 169.01h39.337v7.283h-2.07v-5.035H10.475zM177.24 197.664h2.146v12.588h-2.146zM323.258 193.806h2.147V210.3h-2.147zM288.763 156.902h37.104v20.98h-2.608v-18.46h-34.497zM415.026 210.66h-5.754v-28.792h-37.584v11.938h-3.237V180.22l-6.833-6.474 1.8-1.798 7.91 7.373h37.945V85.81h5.754v64.918h35.966v3.417h-36.145zM345.193 86.53v70.372h-3.596v2.997h3.596l4.077 3.836 2.037-2.038-3.356-3.357V86.53zM208.765.932h1.798v28.413h-1.798zM466.098 151.193h52.15v2.848h-52.15zM512.133 86.17h2.338v65.022h-2.337zM587.66 151.388h-54.606v2.653h7.792v4.9h2.997v-4.9h43.817zM511.543 47.327h2.35v28.65h-2.35zM543.723 220.5v-46.694h-2.997v5.635H526.34v2.16h14.626v38.9zM510.994 179.32H482.7v2.16h5.035V220.2h3.118V181.48h20.14zM466.875 179.32h-7.552v31.47h2.876v-28.83h4.675zM642.868 222.12h30.213v5.035H642.87zM543.723 228.114v46.396h-2.757v-7.313H526.34v-2.158h14.626v-36.926zM490.854 228.474v36.565h20.14v2.037H482.7v-1.918h5.756v-36.686zM586.762 295.01h-93.27v21.7h2.635v-18.943h90.635zM493.73 334.093h2.52v19.54h-2.52zM463.4 417.412h123.36v3.597H463.4zM442 323.722h11.51v4.496H442zM426.896 323.723h-8.273v-9.892h-2.518v9.893h-44.777v4.496h55.568zM371.688 288.836h44.597v-9.092h3.058v18.983h-3.058v-6.654h-44.597zM371.688 253.59h47.655v11.148h-2.877v-7.912h-44.778zM186.646 255.747h2.697v14.926h-2.697zM186.735 288.117h2.518v71.21h-2.518zM248.686 300.345H213.8v-11.11H212v11.11h-3.955v2.697h40.64zM212.145 259.344h1.87v14.926h-1.87zM69.938 359.328v-104.3h6.953v-2.218h-9.11v106.518zM49.75 239.623v20.86H10.416v-2.158h37.27v-18.702zM235.9 303.042v91.712M5.2 367.78v35.067h62.58V368.32M125.864 368.14v34.884h54.488M256.24 402.847h50.35M306.59 367.78h-39.922M595.753 487.365h37.584v-62.94h-37.584"/>
    <path fill="none" stroke="#AAA" stroke-miterlimit="10" d="M595.753 368.5h36.505v-23.737l10.25-10.61v-30.03h17.084s13.667-31.65 13.667-79.485c0-47.834-13.13-78.224-13.13-78.224H642.87M594.494 77.18V60.634S555.65 47.147 516.63 47.147s-79.845 13.488-79.845 13.488V76.82M353.705 77.18V40.313H329.79l-9.173-8.812h-32.73M287.89 29.704V12.98S254.8.572 209.663.572c-45.137 0-79.484 13.667-79.484 13.667v15.104M64.003 78.08V41.213H87.92l9.17-8.812h32.73M454.23 444.746h-35.966M417.547 441.18v39.173M417.547 426.727l.356-41.703M371.328 402.308h46.22M372.048 352.854h46.22M418.623 347.304v23.266M306.95 218.836v34.393M256.3 219.44v30.795"/>
    <path fill="none" stroke="#AAA" stroke-width=".5" stroke-linecap="round" stroke-linejoin="round" stroke-miterlimit="10" d="M519.615 151.58l.168-2.695m0 0l.587-2.588m0 0l.838-2.48M521.208 143.818l10.386 7.763"/>
    <path fill="none" stroke="#AAA" stroke-width=".5" stroke-linejoin="round" stroke-miterlimit="10" d="M531.595 151.58h1.106M518.607 151.58h1.106"/>
    <path fill="none" stroke="#AAA" stroke-width=".5" stroke-linecap="round" stroke-linejoin="round" stroke-miterlimit="10" d="M543.723 160.36l2.697.168m0 0l2.587.586m0 0l2.48.838M551.486 161.952l-7.76 10.388"/>
    <path fill="none" stroke="#AAA" stroke-width=".5" stroke-linejoin="round" stroke-miterlimit="10" d="M543.727 172.34v1.107M543.724 159.35v1.108"/>
    <path fill="none" stroke="#AAA" stroke-width=".5" stroke-linecap="round" stroke-linejoin="round" stroke-miterlimit="10" d="M512.372 179.667l.175-2.696m0 0l.61-2.586m0 0l.875-2.48M514.032 171.905l10.83 7.774"/>
    <path fill="none" stroke="#AAA" stroke-width=".5" stroke-linejoin="round" stroke-miterlimit="10" d="M524.86 179.68h1.155M511.32 179.666h1.154"/>
    <path fill="none" stroke="#AAA" stroke-width=".5" stroke-linecap="round" stroke-linejoin="round" stroke-miterlimit="10" d="M452.467 151.147l.168-2.697m0 0l.586-2.587m0 0l.84-2.48M454.06 143.384l10.385 7.763"/>
    <path fill="none" stroke="#AAA" stroke-width=".5" stroke-linejoin="round" stroke-miterlimit="10" d="M464.445 151.146h1.108M451.46 151.146h1.104"/>
    <path fill="none" stroke="#AAA" stroke-width=".5" stroke-linecap="round" stroke-linejoin="round" stroke-miterlimit="10" d="M481.024 176.976l.078 2.7m-.603-5.308l.524 2.608m-1.32-5.12l.795 2.51M479.705 171.857l-11.228 7.363"/>
    <path fill="none" stroke="#AAA" stroke-width=".5" stroke-linejoin="round" stroke-miterlimit="10" d="M468.476 179.22l-1.166-.043M482.166 179.714l-1.166-.042"/>
    <path fill="none" stroke="#AAA" stroke-width=".5" stroke-linecap="round" stroke-linejoin="round" stroke-miterlimit="10" d="M449.715 219.294l-.232 3.743m0 0l-.814 3.59m0 0l-1.165 3.443M447.505 230.07l-14.416-10.776"/>
    <path fill="none" stroke="#AAA" stroke-width=".5" stroke-linejoin="round" stroke-miterlimit="10" d="M433.088 219.294h-1.535M451.115 219.294h-1.536"/>
    <path fill="none" stroke="#AAA" stroke-width=".5" stroke-linecap="round" stroke-linejoin="round" stroke-miterlimit="10" d="M481.31 266.123l-.19 3.09m-.002 0l-.672 2.965m0 0l-.96 2.843M479.485 275.02l-11.902-8.896"/>
    <path fill="none" stroke="#AAA" stroke-width=".5" stroke-linejoin="round" stroke-miterlimit="10" d="M467.583 266.124h-4.507M482.466 266.124h-1.268"/>
    <path fill="none" stroke="#AAA" stroke-width=".5" stroke-linecap="round" stroke-linejoin="round" stroke-miterlimit="10" d="M512.568 269.403l-.167-2.696m.755 5.283l-.587-2.587m1.425 5.068l-.838-2.48M513.993 274.47l10.387-7.763"/>
    <path fill="none" stroke="#AAA" stroke-width=".5" stroke-linejoin="round" stroke-miterlimit="10" d="M524.38 266.708h1.467M511.393 266.708h1.106"/>
    <path fill="none" stroke="#AAA" stroke-width=".5" stroke-linecap="round" stroke-linejoin="round" stroke-miterlimit="10" d="M538.01 276.606l3.092-.19m-6.056.863l2.965-.674m-5.806 1.634l2.842-.96M532.204 278.24l8.897 11.903"/>
    <path fill="none" stroke="#AAA" stroke-width=".5" stroke-linejoin="round" stroke-miterlimit="10" d="M541.1 290.143v4.506M541.1 274.9v1.627"/>
    <path fill="none" stroke="#AAA" stroke-width=".5" stroke-linecap="round" stroke-linejoin="round" stroke-miterlimit="10" d="M491.31 318.397l3.092-.19m-6.06.862l2.967-.673m-5.814 1.634l2.845-.96M485.496 320.03l8.905 11.916"/>
    <path fill="none" stroke="#AAA" stroke-width=".5" stroke-linejoin="round" stroke-miterlimit="10" d="M494.4 331.947v1.682M494.4 317.048v1.27"/>
    <path fill="none" stroke="#AAA" stroke-width=".5" stroke-linecap="round" stroke-linejoin="round" stroke-miterlimit="10" d="M452.813 285.23l3.4-.212m-6.66.95l3.26-.74m-6.387 1.796l3.126-1.057M446.426 287.024l9.787 13.094"/>
    <path fill="none" stroke="#AAA" stroke-width=".5" stroke-linejoin="round" stroke-miterlimit="10" d="M456.212 300.118v1.85M456.212 283.746v1.395"/>
    <path fill="none" stroke="#AAA" stroke-width=".5" stroke-linecap="round" stroke-linejoin="round" stroke-miterlimit="10" d="M440.39 321.49l.166 2.696m-.755-5.283l.59 2.587m-1.427-5.067l.838 2.48M438.963 316.423l-10.386 7.764"/>
    <path fill="none" stroke="#AAA" stroke-width=".5" stroke-linejoin="round" stroke-miterlimit="10" d="M428.577 324.186h-1.467M441.564 324.186h-1.106"/>
    <path fill="none" stroke="#AAA" stroke-width=".5" stroke-linecap="round" stroke-linejoin="round" stroke-miterlimit="10" d="M418.267 300l2.697.17m0 0l2.587.585m0 0l2.48.838M426.03 301.594l-7.762 10.385"/>
    <path fill="none" stroke="#AAA" stroke-width=".5" stroke-linejoin="round" stroke-miterlimit="10" d="M418.268 311.98v1.466M418.268 298.992v1.107"/>
    <path fill="none" stroke="#AAA" stroke-width=".5" stroke-linecap="round" stroke-linejoin="round" stroke-miterlimit="10" d="M418.987 266.053l2.697.168m0 0l2.588.587m0 0l2.478.838M426.75 267.645l-7.762 10.385"/>
    <path fill="none" stroke="#AAA" stroke-width=".5" stroke-linejoin="round" stroke-miterlimit="10" d="M418.988 278.03v1.467M418.988 265.044v1.105"/>
    <path fill="none" stroke="#AAA" stroke-width=".5" stroke-linecap="round" stroke-linejoin="round" stroke-miterlimit="10" d="M418.993 333.858l2.696.168m0 0l2.586.586m0 0l2.48.838M426.757 335.45l-7.765 10.387"/>
    <path fill="none" stroke="#AAA" stroke-width=".5" stroke-linejoin="round" stroke-miterlimit="10" d="M418.994 345.837v1.467M418.994 328.17v5.786"/>
    <path fill="none" stroke="#AAA" stroke-width=".5" stroke-linecap="round" stroke-linejoin="round" stroke-miterlimit="10" d="M420.964 383.85l-2.697.166m5.284-.754l-2.586.587m5.067-1.426l-2.48.838M426.03 382.424l-7.763-10.387"/>
    <path fill="none" stroke="#AAA" stroke-width=".5" stroke-linejoin="round" stroke-miterlimit="10" d="M418.268 372.037v-1.467M418.268 385.024v-1.106"/>
    <path fill="none" stroke="#AAA" stroke-width=".5" stroke-linecap="round" stroke-linejoin="round" stroke-miterlimit="10" d="M461.242 377.67l4.026.25m0 0l3.864.876m0 0l3.703 1.25M472.834 380.047l-11.592 15.51"/>
    <path fill="none" stroke="#AAA" stroke-width=".5" stroke-linejoin="round" stroke-miterlimit="10" d="M461.243 395.557v6.87M461.243 376.164v1.65"/>
    <path fill="none" stroke="#AAA" stroke-width=".5" stroke-linecap="round" stroke-linejoin="round" stroke-miterlimit="10" d="M462.01 429.676l1.898.118m0 0l1.82.412m0 0l1.745.59M467.473 430.796l-5.462 7.307"/>
    <path fill="none" stroke="#AAA" stroke-width=".5" stroke-linejoin="round" stroke-miterlimit="10" d="M462.012 438.103v1.032M462.012 428.967v.777"/>
    <path fill="none" stroke="#AAA" stroke-width=".5" stroke-linecap="round" stroke-linejoin="round" stroke-miterlimit="10" d="M414.852 427.902l2.696-.167m-5.283.754l2.587-.588m-5.068 1.425l2.48-.838M409.784 429.327l7.764 10.387"/>
    <path fill="none" stroke="#AAA" stroke-width=".5" stroke-linejoin="round" stroke-miterlimit="10" d="M417.547 439.714v1.467M417.547 426.727v1.106"/>
    <path fill="none" stroke="#AAA" stroke-width=".5" stroke-linecap="round" stroke-linejoin="round" stroke-miterlimit="10" d="M325.062 179.354l2.863.177m0 0l2.747.623m0 0l2.633.89M333.306 181.043l-8.244 11.03"/>
    <path fill="none" stroke="#AAA" stroke-width=".5" stroke-linejoin="round" stroke-miterlimit="10" d="M325.062 192.073v1.558M325.062 178.282v1.175"/>
    <path fill="none" stroke="#AAA" stroke-width=".5" stroke-linecap="round" stroke-linejoin="round" stroke-miterlimit="10" d="M366.278 195.627l2.863-.178m-5.61.8l2.748-.623m-5.38 1.514l2.633-.89M360.897 197.14l8.245 11.03"/>
    <path fill="none" stroke="#AAA" stroke-width=".5" stroke-linejoin="round" stroke-miterlimit="10" d="M369.142 208.17v2.277M369.142 194.378v1.176"/>
    <path fill="none" stroke="#AAA" stroke-width=".5" stroke-linecap="round" stroke-linejoin="round" stroke-miterlimit="10" d="M360.99 172.333l-1.95 2.103m0 0l-2.223 1.732m0 0l-2.355 1.473M354.46 177.64l-3.312-13.366"/>
    <path fill="none" stroke="#AAA" stroke-width=".5" stroke-linejoin="round" stroke-miterlimit="10" d="M351.147 164.275l-1.205-.986M361.82 173.012l-.91-.744"/>
    <path fill="none" stroke="#AAA" stroke-width=".5" stroke-linecap="round" stroke-linejoin="round" stroke-miterlimit="10" d="M340.146 159.155l-.19 2.863m0 0l-.634 2.745m0 0l-.9 2.63M338.42 167.393l-10.994-8.29"/>
    <path fill="none" stroke="#AAA" stroke-width=".5" stroke-linejoin="round" stroke-miterlimit="10" d="M327.425 159.105l-1.558-.006M341.217 159.16l-1.175-.005"/>
    <path fill="none" stroke="#AAA" stroke-width=".5" stroke-linecap="round" stroke-linejoin="round" stroke-miterlimit="10" d="M329.605 222.02l-.214-3.443m.964 6.747l-.75-3.304m1.82 6.47l-1.07-3.166M331.424 228.49l13.263-9.913"/>
    <path fill="none" stroke="#AAA" stroke-width=".5" stroke-linejoin="round" stroke-miterlimit="10" d="M344.686 218.578h1.873M328.104 218.578h1.413"/>
    <path fill="none" stroke="#AAA" stroke-width=".5" stroke-linecap="round" stroke-linejoin="round" stroke-miterlimit="10" d="M309.356 330.754l2.637.164m0 0l2.53.573m0 0l2.425.82M316.947 332.31l-7.59 10.156"/>
    <path fill="none" stroke="#AAA" stroke-width=".5" stroke-linejoin="round" stroke-miterlimit="10" d="M309.357 342.466v1.434M309.357 329.768v1.082"/>
    <path fill="none" stroke="#AAA" stroke-width=".5" stroke-linecap="round" stroke-linejoin="round" stroke-miterlimit="10" d="M311.5 365.798l-2.863.178m5.61-.8l-2.747.622m5.38-1.512l-2.632.89M316.88 364.286l-8.243-11.03"/>
    <path fill="none" stroke="#AAA" stroke-width=".5" stroke-linejoin="round" stroke-miterlimit="10" d="M308.637 353.256v-1.56M308.637 367.047v-1.175"/>
    <path fill="none" stroke="#AAA" stroke-width=".5" stroke-linecap="round" stroke-linejoin="round" stroke-miterlimit="10" d="M188.467 272.233l3.117.194m0 0l2.99.678m.002 0l2.867.97M197.442 274.074l-8.976 12.008"/>
    <path fill="none" stroke="#AAA" stroke-width=".5" stroke-linejoin="round" stroke-miterlimit="10" d="M188.467 286.082v1.696M188.467 271.067v1.28"/>
    <path fill="none" stroke="#AAA" stroke-width=".5" stroke-linecap="round" stroke-linejoin="round" stroke-miterlimit="10" d="M206.412 297.765l.193 3.118m-.87-6.11l.677 2.99m-1.647-5.857l.97 2.867M204.765 291.906l-12.008 8.977"/>
    <path fill="none" stroke="#AAA" stroke-width=".5" stroke-linejoin="round" stroke-miterlimit="10" d="M192.757 300.88h-3.136M207.77 300.88h-1.278"/>
    <path fill="none" stroke="#AAA" stroke-width=".5" stroke-linecap="round" stroke-linejoin="round" stroke-miterlimit="10" d="M212.54 288.084l-2.697-.168m0 0l-2.59-.586m0 0l-2.48-.84M204.772 286.49l7.77-10.39"/>
    <path fill="none" stroke="#AAA" stroke-width=".5" stroke-linejoin="round" stroke-miterlimit="10" d="M212.54 276.1v-1.47M212.54 289.094v-1.108"/>
    <path fill="none" stroke="#AAA" stroke-width=".5" stroke-linecap="round" stroke-linejoin="round" stroke-miterlimit="10" d="M209.755 247.688l.238 3.83m-1.07-7.505l.832 3.675m-2.023-7.196l1.19 3.52M207.732 240.492l-14.75 11.027"/>
    <path fill="none" stroke="#AAA" stroke-width=".5" stroke-linejoin="round" stroke-miterlimit="10" d="M192.982 251.518h-2.084M211.785 251.517h-1.93"/>
    <path fill="none" stroke="#AAA" stroke-width=".5" stroke-linecap="round" stroke-linejoin="round" stroke-miterlimit="10" d="M217.715 218.835l-.212 3.42m0 0l-.744 3.285m0 0l-1.065 3.147M215.695 228.687l-13.18-9.853"/>
    <path fill="none" stroke="#AAA" stroke-width=".5" stroke-linejoin="round" stroke-miterlimit="10" d="M202.515 218.836h-1.862M218.996 218.836h-1.405"/>
    <path fill="none" stroke="#AAA" stroke-width=".5" stroke-linecap="round" stroke-linejoin="round" stroke-miterlimit="10" d="M231.034 195.523l2.99-.186m-5.86.836l2.87-.65m-5.618 1.58l2.75-.93M225.416 197.103l8.608 11.517"/>
    <path fill="none" stroke="#AAA" stroke-width=".5" stroke-linejoin="round" stroke-miterlimit="10" d="M234.024 208.62v1.626M234.023 194.22v1.226"/>
    <path fill="none" stroke="#AAA" stroke-width=".5" stroke-linecap="round" stroke-linejoin="round" stroke-miterlimit="10" d="M174.746 184.095l2.676-.166m-5.243.746l2.566-.58m-5.027 1.412l2.46-.832M169.72 185.508l7.702 10.305"/>
    <path fill="none" stroke="#AAA" stroke-width=".5" stroke-linejoin="round" stroke-miterlimit="10" d="M177.42 195.813v1.457M177.42 182.928v1.098"/>
    <path fill="none" stroke="#AAA" stroke-width=".5" stroke-linecap="round" stroke-linejoin="round" stroke-miterlimit="10" d="M192.53 170.246l.18-2.926m0 0l.636-2.808m0 0l.91-2.69M194.256 161.82l11.272 8.426"/>
    <path fill="none" stroke="#AAA" stroke-width=".5" stroke-linejoin="round" stroke-miterlimit="10" d="M205.528 170.245h1.592M191.434 170.245h1.2"/>
    <path fill="none" stroke="#AAA" stroke-width=".5" stroke-linecap="round" stroke-linejoin="round" stroke-miterlimit="10" d="M229.445 167.38l.182 2.926m-.817-5.734l.635 2.808m-1.545-5.5l.91 2.692M227.9 161.88l-11.272 8.426"/>
    <path fill="none" stroke="#AAA" stroke-width=".5" stroke-linejoin="round" stroke-miterlimit="10" d="M216.628 170.305h-3.75M230.722 170.305h-1.2"/>
    <path fill="none" stroke="#AAA" stroke-width=".5" stroke-linecap="round" stroke-linejoin="round" stroke-miterlimit="10" d="M51.394 169.97l.196-3.15m0 0l.683-3.02m0 0l.98-2.897M53.252 160.902l12.133 9.07"/>
    <path fill="none" stroke="#AAA" stroke-width=".5" stroke-linejoin="round" stroke-miterlimit="10" d="M65.385 169.97H67.1M50.215 169.97h1.292"/>
    <path fill="none" stroke="#AAA" stroke-width=".5" stroke-linecap="round" stroke-linejoin="round" stroke-miterlimit="10" d="M94.38 167.056l.197 3.15m-.88-6.174l.684 3.023m-1.662-5.92l.98 2.897M92.718 161.136l-12.132 9.07"/>
    <path fill="none" stroke="#AAA" stroke-width=".5" stroke-linejoin="round" stroke-miterlimit="10" d="M80.585 170.204h-3.152M95.755 170.204h-1.292"/>
    <path fill="none" stroke="#AAA" stroke-width=".5" stroke-linecap="round" stroke-linejoin="round" stroke-miterlimit="10" d="M108.483 228.722l3.348.21m0 0l3.214.726m0 0l3.08 1.04M118.123 230.7l-9.64 12.895"/>
    <path fill="none" stroke="#AAA" stroke-width=".5" stroke-linejoin="round" stroke-miterlimit="10" d="M108.484 243.595v1.822M108.484 227.47v1.373"/>
    <path fill="none" stroke="#AAA" stroke-width=".5" stroke-linecap="round" stroke-linejoin="round" stroke-miterlimit="10" d="M127.916 217.84l-.21 3.35m0 0l-.726 3.212m0 0l-1.042 3.08M125.938 227.48l-12.896-9.64"/>
    <path fill="none" stroke="#AAA" stroke-width=".5" stroke-linejoin="round" stroke-miterlimit="10" d="M113.042 217.843h-2.54M129.167 217.843h-1.373"/>
    <path fill="none" stroke="#AAA" stroke-width=".5" stroke-linecap="round" stroke-linejoin="round" stroke-miterlimit="10" d="M93.224 255.098l-.196 3.148m0 0l-.684 3.022m0 0l-.98 2.897M91.364 264.164l-12.13-9.066"/>
    <path fill="none" stroke="#AAA" stroke-width=".5" stroke-linejoin="round" stroke-miterlimit="10" d="M79.234 255.098h-2.03M94.402 255.098H93.11"/>
    <path fill="none" stroke="#AAA" stroke-width=".5" stroke-linecap="round" stroke-linejoin="round" stroke-miterlimit="10" d="M51.53 258.118l-.195-3.148m.88 6.17l-.684-3.02m1.664 5.916l-.98-2.896M53.194 264.036l12.13-9.066"/>
    <path fill="none" stroke="#AAA" stroke-width=".5" stroke-linejoin="round" stroke-miterlimit="10" d="M65.325 254.97h2.03M50.157 254.97h1.292"/>
    <path fill="none" stroke="#AAA" stroke-width=".5" stroke-linecap="round" stroke-linejoin="round" stroke-miterlimit="10" d="M52.382 237.815l-3.348.21m6.56-.937l-3.212.727m6.292-1.768l-3.08 1.04M58.674 236.047l-9.64-12.896"/>
    <path fill="none" stroke="#AAA" stroke-width=".5" stroke-linejoin="round" stroke-miterlimit="10" d="M49.035 223.15v-3.26M49.035 239.276v-1.373"/>
    <path fill="none" stroke="#AAA" stroke-width=".5" stroke-linecap="round" stroke-linejoin="round" stroke-miterlimit="10" d="M49.175 177.77l2.524.157m0 0l2.422.548m0 0l2.322.785M56.444 179.26l-7.268 9.724"/>
    <path fill="none" stroke="#AAA" stroke-width=".5" stroke-linejoin="round" stroke-miterlimit="10" d="M49.176 188.984v1.373M49.176 176.825v1.036"/>
    <path fill="none" stroke="#AAA" stroke-miterlimit="10" d="M283.033 324.148h-3.117l-.06-52.41h3.118zM306.35 271.752h-23.377M279.856 271.752H256.3M302.752 277.567h-19.78M279.856 277.567H256.3M292.675 283.382h-9.7M279.856 283.382H256.3M306.35 289.197h-16.54M279.856 289.197H256.3M306.35 295.012h-23.377M279.856 295.012H256.3M306.35 300.826h-23.377M279.856 300.826H256.3M306.35 306.642h-23.377M279.856 306.642H256.3M306.35 312.456h-23.377M279.856 312.456H256.3M306.35 318.27h-23.377M279.856 318.27H256.3M306.35 324.086h-23.377M279.856 324.086H256.3"/>
    <path fill="none" stroke="#AAA" stroke-miterlimit="10" d="M256.868 306.642l11.21 5.337v-52.816h26.584v22.918M279.257 306.642l-11.18 5.337M306.687 283.38h-6.823M294.662 286.518v37.21M334.462 265.597H360v26.368h-41.72v-26.368h3.416"/>
    <path fill="none" stroke="#AAA" stroke-miterlimit="10" d="M318.28 265.597L360 291.605v-25.648l-41.72 26.008"/>
    <path fill="#AAA" d="M22.104 78.618v7.193h-12.05v125.34h99.625v15.646l-6.655-.18v-7.708l-92.97.335v140.805h13.307v7.013H1.063V78.62h21.042zm1-1H.064V368.06H24.36v-9.012H11.055v-138.81l90.97-.328v7.678l.973.027 6.654.18 1.027.027V210.15H11.054V86.81h12.048V77.62zM91.422 85.81H52.79V78.62h38.633v7.193zm1-8.192H51.79v9.193h40.633V77.62z"/>
    <path fill="#AAA" d="M52.113 79.738v4.73H22.67v-4.73h29.443zm1-1H21.67v6.73h31.443v-6.73zM156.974 29.704v8.272h-18.408V85.81h-15.58v-8.452h7.26V29.704h26.728zm1-1h-28.728v47.654h-7.26V86.81h17.58V38.977h18.408V28.705zM231.266 37.616H188.42v-7.912h42.846v7.912zm1-8.912H187.42V38.616h44.846V28.704zM199.683 218.703h-69.617v-7.912h69.617v7.913zm1-8.912h-71.617v9.913h71.617V209.79zM287.89 29.704v48.374h8.27v7.732h-7.552l-.36 124.98h39.203v7.913H219.734v-7.913h60.962V37.616h-19.062v-7.912h26.256zm1-1h-28.256V38.616h19.062V209.79h-60.962v9.913H328.45v-9.913h-39.198l.353-122.98h7.556v-9.732h-8.27V28.704z"/>
    <path fill="none" stroke="#AAA" stroke-miterlimit="10" d="M347.052 210.79h84.16v8.812h-84.16z"/>
    <path fill="#AAA" d="M370.43 86.17h-43.483v-8.272h43.483v8.272zm1-9.272h-45.483V87.17h45.483V76.898zM462.584 85.45h-60.23v-8.27h60.23v8.27zm1-9.27h-62.23v10.27h62.23V76.18zM538.35 85.45h-43.232v-8.27h43.232v8.27zm1-9.27h-45.232v10.27h45.232V76.18zM594.494 77.18v69.412h48.015v24.457h-7.015v-17.444H588.02V85.45h-18.342v-8.27h24.816zm1-1H568.68v10.27h18.34v68.156h47.476v17.443h9.014V145.59h-48.015V76.18zM642.51 202.34v43.337h-7.194v-17.803H462.32v55.028h-7.19v-64.02h-3.42V211.6h10.07v9.26h173.896v-18.52h6.833zm1-1h-8.834v18.52H462.78v-9.26h-12.07V219.883h3.42V283.903H463.32v-55.03h170.995v17.804h9.193V201.34zM642.51 276.967v26.436h-47.297v7.552h-7.91V295.49h47.833v-18.522h7.373zm1-1H634.135v18.522h-47.834v17.464h9.91v-7.552h47.297v-28.436zM595.753 381.087H587.3v-39.202h8.453v39.202zm1-40.202H586.3v41.202h10.453v-41.202zM595.753 436.568H587.3v-24.285h8.453v24.285zm1-25.285H586.3v26.285h10.453v-26.285z"/>
    <path fill="#AAA" d="M593.416 411.48h-3.957v-29.672h3.956v29.67zm1-30.672h-5.957v31.67H594.415v-31.67zM462.142 439.71v40.282h125.16v-11.328h8.45v18.7H306.95v-19.6h7.013v12.587h140.805v-40.64h7.374zm1-1H453.77v40.642H314.962v-12.588h-9.013v21.602h290.803v-20.702h-10.45v11.33h-123.16V438.71zM463.04 302.862v51.252H586.4v5.213H463.04v16.545h-9.17v-73.01h9.17zm1-1h-11.17v75.01h11.17v-16.545H587.4v-7.213H464.04v-51.252zM463.04 428.202h-9.17v-24.996h9.17v24.996zm1-25.996h-11.17v26.996h11.17v-26.996zM371.328 253.59v148.717h-57.365v33.448h-7.013v-67.977h7.013v26.616h49.812v-44.957h-55.387v1.44h-1.438v-6.205h2.338v2.427h54.487V302.86h-54.667v26.255h-2.158v-50.4l-23.617 13.977v-3.497l23.617-13.487v-22.12h11.51v8.812h-4.137v33.448h49.813v-33.988H337.7v-8.27h33.628zm1-1H336.7v10.27h26.436v31.99h-47.813V263.4h4.136v-10.81h-13.51v22.537l-23.113 13.2-.504.288V294.446l1.51-.893 22.107-13.085v49.647H310.108V303.86h52.667v42.24h-52.487v-2.427h-4.338v8.204H309.388v-1.44h53.387v42.958h-47.812V366.78h-9.013v69.976h9.013v-33.448h57.365V252.59z"/>
    <path fill="#AAA" d="M312.525 467.07h-4.136v-30.62h4.135v30.62zm1-31.62h-6.136V468.07h6.135V435.45zM256.24 250.712V367.78h10.43v5.215h-10.43v29.852h-75.53V367.06h-10.43s-.538-7.192.36-7.192h18.344v34.887h60.062v-135.77H212.36v-8.272h43.88m1-1h-45.88v10.27h36.686v133.77h-58.062v-34.886H170.64c-.33 0-.642.14-.876.392-.245.264-.99 1.066-.48 7.876l.07.925h10.357v35.787h77.53v-29.852h10.43v-7.215h-10.43V249.712zM139.53 367.96h-27.333v-8.272h27.334v8.272zm1-9.272h-29.333v10.272h29.334v-10.272zM81.446 367.96H54.112v-8.272h27.334v8.272zm1-9.272H53.112v10.272h29.334v-10.272z"/>
    <path fill="none" stroke="#AAA" stroke-miterlimit="10" d="M81.797 361.846h30.048v4.855H81.797z"/>
    <path fill="#AAA" d="M401.313 79.49v4.73l-30.164-.002v-4.73h30.163zm1-1H370.15v6.728h32.163v-6.73z"/>
    <path fill="none" stroke="#AAA" stroke-miterlimit="10" d="M190.602 250.712h-82v-5.395h-5.936v7.373h-7.912v3.597h27.334v103.04h5.574v-103.58h62.94z"/>
  </g>
</svg>
