<?xml version="1.0" encoding="utf-8"?>
<!-- Generator: Adobe Illustrator 15.0.2, SVG Export Plug-In  -->
<!DOCTYPE svg PUBLIC "-//W3C//DTD SVG 1.1//EN" "http://www.w3.org/Graphics/SVG/1.1/DTD/svg11.dtd" [
	<!ENTITY ns_flows "http://ns.adobe.com/Flows/1.0/">
]>
<svg version="1.1"
	 xmlns="http://www.w3.org/2000/svg" xmlns:xlink="http://www.w3.org/1999/xlink" xmlns:a="http://ns.adobe.com/AdobeSVGViewerExtensions/3.0/"
	 x="0px" y="0px" width="323px" height="456px" viewBox="0 0 323 456" enable-background="new 0 0 323 456" xml:space="preserve">
<defs>
</defs>
<path fill="#AAAAAA" d="M314.259,416.501h-6.271v-285.41h6.271V416.501z M315.259,130.091h-8.271v287.41h8.271V130.091z"/>
<path fill="#AAAAAA" d="M307.644,328.899h-88.428v-4.616h88.428V328.899z M308.644,323.283h-90.428v6.616h90.428V323.283z"/>
<polygon fill="none" stroke="#AAAAAA" stroke-miterlimit="10" points="166.66,131.47 166.66,323.283 174.931,323.283 
	174.931,328.04 153.978,328.04 153.978,323.283 161.422,323.283 161.422,131.47 "/>
<rect x="107.764" y="371.323" fill="none" stroke="#AAAAAA" stroke-miterlimit="10" width="4.757" height="46.178"/>
<polygon fill="none" stroke="#AAAAAA" stroke-miterlimit="10" points="22.06,321.423 112.521,321.423 112.521,338.17 
	107.764,338.17 107.764,326.592 22.196,326.592 "/>
<line fill="none" stroke="#AAAAAA" stroke-miterlimit="10" x1="48.94" y1="130.091" x2="48.94" y2="321.423"/>
<polyline fill="none" stroke="#AAAAAA" stroke-miterlimit="10" points="145.295,112.312 145.295,27.536 200.296,27.536 
	221.386,7.271 296.649,7.271 "/>
<path fill="none" stroke="#AAAAAA" stroke-miterlimit="10" d="M116.296,323.631l0.451-7.243 M116.747,316.388l1.573-6.951
	 M118.32,309.437l2.252-6.661"/>
<line fill="none" stroke="#AAAAAA" stroke-miterlimit="10" x1="120.572" y1="302.776" x2="148.472" y2="323.631"/>
<line fill="none" stroke="#AAAAAA" stroke-miterlimit="10" x1="148.472" y1="323.628" x2="152.413" y2="323.628"/>
<line fill="none" stroke="#AAAAAA" stroke-miterlimit="10" x1="113.586" y1="323.628" x2="116.558" y2="323.628"/>
<path fill="none" stroke="#AAAAAA" stroke-miterlimit="10" d="M215.153,316.925l0.451,7.244 M213.58,309.975l1.573,6.95
	 M211.328,303.314l2.252,6.66"/>
<line fill="none" stroke="#AAAAAA" stroke-miterlimit="10" x1="211.328" y1="303.314" x2="183.428" y2="324.169"/>
<line fill="none" stroke="#AAAAAA" stroke-miterlimit="10" x1="183.428" y1="324.166" x2="176.177" y2="324.166"/>
<line fill="none" stroke="#AAAAAA" stroke-miterlimit="10" x1="218.313" y1="324.166" x2="215.343" y2="324.166"/>
<g>
	<defs>
		<rect id="SVGID_2_" width="322.891" height="456.297"/>
	</defs>
	<clipPath id="SVGID_3_">
		<use xlink:href="#SVGID_2_"  overflow="visible"/>
	</clipPath>
	<path clip-path="url(#SVGID_3_)" fill="none" stroke="#AAAAAA" stroke-miterlimit="10" d="M292.269,433.715l-0.479,7.699
		 M291.79,441.414l-1.673,7.39 M290.117,448.804l-2.394,7.079"/>
	
		<line clip-path="url(#SVGID_3_)" fill="none" stroke="#AAAAAA" stroke-miterlimit="10" x1="287.724" y1="455.884" x2="258.067" y2="433.716"/>
</g>
<line fill="none" stroke="#AAAAAA" stroke-miterlimit="10" x1="258.067" y1="433.719" x2="252.224" y2="433.719"/>
<line fill="none" stroke="#AAAAAA" stroke-miterlimit="10" x1="295.149" y1="433.719" x2="291.991" y2="433.719"/>
<path fill="none" stroke="#AAAAAA" stroke-miterlimit="10" d="M111.196,341.564l5.805,0.361 M117.001,341.926l5.571,1.261
	 M122.572,343.187l5.338,1.805"/>
<line fill="none" stroke="#AAAAAA" stroke-miterlimit="10" x1="127.911" y1="344.992" x2="111.196" y2="367.354"/>
<line fill="none" stroke="#AAAAAA" stroke-miterlimit="10" x1="111.198" y1="367.354" x2="111.198" y2="370.512"/>
<line fill="none" stroke="#AAAAAA" stroke-miterlimit="10" x1="111.198" y1="339.393" x2="111.198" y2="341.774"/>
<g>
	<defs>
		<rect id="SVGID_1_" width="322.891" height="456.297"/>
	</defs>
	<clipPath id="SVGID_4_">
		<use xlink:href="#SVGID_1_"  overflow="visible"/>
	</clipPath>
	<polygon clip-path="url(#SVGID_4_)" fill="none" stroke="#AAAAAA" stroke-miterlimit="10" points="0.556,436.723 0.556,113.549 
		21.233,113.549 48.94,113.549 48.94,130.091 21.233,130.09 21.233,418.328 250.334,418.327 250.334,436.11 250.334,454.306 
		235.033,453.894 235.031,436.166 21.233,436.938 	"/>
</g>
<path fill="#AAAAAA" d="M208.35,130.091h-88.844v-16.542h88.844V130.091z M209.35,112.549h-1h-88.844h-1v1v16.542v1h1h88.844h1v-1
	v-16.542V112.549z"/>
<path fill="#AAAAAA" d="M118.344,116.126v10.876H49.413v-10.876H118.344z M119.344,115.126h-1H49.413h-1v1v10.876v1h1h68.931h1v-1
	v-10.876V115.126z"/>
<path fill="#AAAAAA" d="M280.936,110.654h16.692V1.067h19.135h5.09v19.022h-5.09v110.002h-19.135h-16.692V110.654z M321.853,0.066
	h-5.09h-19.135h-1v1.001v108.588h-15.692h-1v0.999v19.437v1h1h16.692h19.135h1v-1V21.089h4.09h1v-1V1.067V0.066H321.853z"/>
<rect x="297.217" y="417.501" fill="none" stroke="#AAAAAA" stroke-miterlimit="10" width="17.746" height="18.196"/>
<line fill="none" stroke="#AAAAAA" stroke-miterlimit="10" x1="34.114" y1="276.73" x2="34.38" y2="276.73"/>
<line fill="none" stroke="#AAAAAA" stroke-miterlimit="10" x1="34.38" y1="276.73" x2="34.648" y2="276.73"/>
<line fill="none" stroke="#AAAAAA" stroke-miterlimit="10" x1="34.648" y1="276.73" x2="34.916" y2="276.462"/>
<line fill="none" stroke="#AAAAAA" stroke-miterlimit="10" x1="34.916" y1="276.462" x2="35.183" y2="276.195"/>
<line fill="none" stroke="#AAAAAA" stroke-miterlimit="10" x1="35.183" y1="276.195" x2="35.183" y2="275.929"/>
<line fill="none" stroke="#AAAAAA" stroke-miterlimit="10" x1="35.183" y1="275.929" x2="35.183" y2="275.661"/>
<line fill="none" stroke="#AAAAAA" stroke-miterlimit="10" x1="35.183" y1="275.661" x2="34.917" y2="275.395"/>
<line fill="none" stroke="#AAAAAA" stroke-miterlimit="10" x1="34.916" y1="275.394" x2="34.916" y2="275.127"/>
<line fill="none" stroke="#AAAAAA" stroke-miterlimit="10" x1="34.916" y1="275.127" x2="34.648" y2="275.127"/>
<line fill="none" stroke="#AAAAAA" stroke-miterlimit="10" x1="34.648" y1="275.127" x2="34.38" y2="274.859"/>
<line fill="none" stroke="#AAAAAA" stroke-miterlimit="10" x1="34.38" y1="274.859" x2="34.114" y2="274.859"/>
<line fill="none" stroke="#AAAAAA" stroke-miterlimit="10" x1="34.114" y1="274.859" x2="33.846" y2="274.859"/>
<line fill="none" stroke="#AAAAAA" stroke-miterlimit="10" x1="33.847" y1="274.859" x2="33.58" y2="275.127"/>
<line fill="none" stroke="#AAAAAA" stroke-miterlimit="10" x1="33.579" y1="275.127" x2="33.311" y2="275.394"/>
<line fill="none" stroke="#AAAAAA" stroke-miterlimit="10" x1="33.312" y1="275.394" x2="33.312" y2="275.661"/>
<line fill="none" stroke="#AAAAAA" stroke-miterlimit="10" x1="33.312" y1="275.661" x2="33.312" y2="275.929"/>
<line fill="none" stroke="#AAAAAA" stroke-miterlimit="10" x1="33.312" y1="275.929" x2="33.312" y2="276.194"/>
<line fill="none" stroke="#AAAAAA" stroke-miterlimit="10" x1="33.312" y1="276.195" x2="33.312" y2="276.462"/>
<line fill="none" stroke="#AAAAAA" stroke-miterlimit="10" x1="33.312" y1="276.462" x2="33.58" y2="276.462"/>
<line fill="none" stroke="#AAAAAA" stroke-miterlimit="10" x1="33.579" y1="276.462" x2="33.579" y2="276.73"/>
<line fill="none" stroke="#AAAAAA" stroke-miterlimit="10" x1="33.579" y1="276.73" x2="33.846" y2="276.73"/>
<line fill="none" stroke="#AAAAAA" stroke-miterlimit="10" x1="33.847" y1="276.73" x2="34.115" y2="276.73"/>
<line fill="none" stroke="#AAAAAA" stroke-miterlimit="10" x1="31.708" y1="283.412" x2="31.708" y2="283.68"/>
<line fill="none" stroke="#AAAAAA" stroke-miterlimit="10" x1="31.708" y1="283.681" x2="31.976" y2="283.681"/>
<line fill="none" stroke="#AAAAAA" stroke-miterlimit="10" x1="31.976" y1="283.681" x2="31.976" y2="283.948"/>
<line fill="none" stroke="#AAAAAA" stroke-miterlimit="10" x1="31.976" y1="283.948" x2="32.242" y2="284.214"/>
<line fill="none" stroke="#AAAAAA" stroke-miterlimit="10" x1="32.242" y1="284.214" x2="32.509" y2="284.214"/>
<line fill="none" stroke="#AAAAAA" stroke-miterlimit="10" x1="32.509" y1="284.214" x2="32.777" y2="284.214"/>
<line fill="none" stroke="#AAAAAA" stroke-miterlimit="10" x1="32.778" y1="284.214" x2="45.073" y2="284.214"/>
<line fill="none" stroke="#AAAAAA" stroke-miterlimit="10" x1="45.073" y1="284.214" x2="45.341" y2="284.214"/>
<line fill="none" stroke="#AAAAAA" stroke-miterlimit="10" x1="45.34" y1="284.214" x2="45.607" y2="284.214"/>
<line fill="none" stroke="#AAAAAA" stroke-miterlimit="10" x1="45.607" y1="284.214" x2="45.875" y2="283.948"/>
<line fill="none" stroke="#AAAAAA" stroke-miterlimit="10" x1="45.875" y1="283.948" x2="45.875" y2="283.68"/>
<line fill="none" stroke="#AAAAAA" stroke-miterlimit="10" x1="45.875" y1="283.681" x2="46.142" y2="283.681"/>
<line fill="none" stroke="#AAAAAA" stroke-miterlimit="10" x1="46.142" y1="283.681" x2="46.142" y2="283.412"/>
<line fill="none" stroke="#AAAAAA" stroke-miterlimit="10" x1="46.142" y1="283.412" x2="46.142" y2="268.445"/>
<line fill="none" stroke="#AAAAAA" stroke-miterlimit="10" x1="46.142" y1="268.444" x2="46.142" y2="268.177"/>
<line fill="none" stroke="#AAAAAA" stroke-miterlimit="10" x1="46.142" y1="268.177" x2="45.874" y2="267.908"/>
<line fill="none" stroke="#AAAAAA" stroke-miterlimit="10" x1="45.875" y1="267.909" x2="45.607" y2="267.642"/>
<line fill="none" stroke="#AAAAAA" stroke-miterlimit="10" x1="45.607" y1="267.642" x2="45.34" y2="267.642"/>
<line fill="none" stroke="#AAAAAA" stroke-miterlimit="10" x1="45.34" y1="267.642" x2="45.072" y2="267.642"/>
<line fill="none" stroke="#AAAAAA" stroke-miterlimit="10" x1="45.073" y1="267.642" x2="32.778" y2="267.642"/>
<line fill="none" stroke="#AAAAAA" stroke-miterlimit="10" x1="32.778" y1="267.642" x2="32.51" y2="267.642"/>
<line fill="none" stroke="#AAAAAA" stroke-miterlimit="10" x1="32.509" y1="267.642" x2="32.242" y2="267.642"/>
<line fill="none" stroke="#AAAAAA" stroke-miterlimit="10" x1="32.242" y1="267.642" x2="31.975" y2="267.909"/>
<line fill="none" stroke="#AAAAAA" stroke-miterlimit="10" x1="31.976" y1="267.909" x2="31.708" y2="268.176"/>
<line fill="none" stroke="#AAAAAA" stroke-miterlimit="10" x1="31.708" y1="268.177" x2="31.708" y2="268.444"/>
<line fill="none" stroke="#AAAAAA" stroke-miterlimit="10" x1="31.708" y1="268.444" x2="31.708" y2="283.412"/>
<line fill="none" stroke="#AAAAAA" stroke-miterlimit="10" x1="29.302" y1="248.396" x2="29.302" y2="286.62"/>
<line fill="none" stroke="#AAAAAA" stroke-miterlimit="10" x1="29.302" y1="286.62" x2="48.548" y2="286.62"/>
<line fill="none" stroke="#AAAAAA" stroke-miterlimit="10" x1="48.548" y1="286.62" x2="48.548" y2="248.396"/>
<line fill="none" stroke="#AAAAAA" stroke-miterlimit="10" x1="48.548" y1="248.396" x2="29.302" y2="248.396"/>
<line fill="none" stroke="#AAAAAA" stroke-miterlimit="10" x1="43.737" y1="250.802" x2="43.737" y2="265.235"/>
<line fill="none" stroke="#AAAAAA" stroke-miterlimit="10" x1="41.331" y1="250.802" x2="41.331" y2="265.235"/>
<line fill="none" stroke="#AAAAAA" stroke-miterlimit="10" x1="38.925" y1="250.802" x2="38.925" y2="265.235"/>
<line fill="none" stroke="#AAAAAA" stroke-miterlimit="10" x1="36.519" y1="250.802" x2="36.519" y2="265.235"/>
<line fill="none" stroke="#AAAAAA" stroke-miterlimit="10" x1="34.114" y1="250.802" x2="34.114" y2="265.235"/>
<line fill="none" stroke="#AAAAAA" stroke-miterlimit="10" x1="46.142" y1="265.236" x2="46.142" y2="250.802"/>
<line fill="none" stroke="#AAAAAA" stroke-miterlimit="10" x1="31.708" y1="250.802" x2="31.708" y2="265.235"/>
<line fill="none" stroke="#AAAAAA" stroke-miterlimit="10" x1="43.104" y1="200.624" x2="44.039" y2="200.624"/>
<line fill="none" stroke="#AAAAAA" stroke-miterlimit="10" x1="44.039" y1="200.624" x2="45.207" y2="200.156"/>
<line fill="none" stroke="#AAAAAA" stroke-miterlimit="10" x1="45.208" y1="200.156" x2="46.143" y2="199.456"/>
<line fill="none" stroke="#AAAAAA" stroke-miterlimit="10" x1="46.142" y1="199.456" x2="46.609" y2="198.521"/>
<line fill="none" stroke="#AAAAAA" stroke-miterlimit="10" x1="46.609" y1="198.522" x2="47.077" y2="197.587"/>
<line fill="none" stroke="#AAAAAA" stroke-miterlimit="10" x1="47.077" y1="197.586" x2="47.31" y2="196.418"/>
<line fill="none" stroke="#AAAAAA" stroke-miterlimit="10" x1="47.309" y1="196.418" x2="47.076" y2="195.483"/>
<line fill="none" stroke="#AAAAAA" stroke-miterlimit="10" x1="47.077" y1="195.484" x2="46.608" y2="194.315"/>
<line fill="none" stroke="#AAAAAA" stroke-miterlimit="10" x1="46.609" y1="194.315" x2="46.142" y2="193.614"/>
<line fill="none" stroke="#AAAAAA" stroke-miterlimit="10" x1="46.142" y1="193.615" x2="45.207" y2="192.915"/>
<line fill="none" stroke="#AAAAAA" stroke-miterlimit="10" x1="45.208" y1="192.914" x2="44.04" y2="192.445"/>
<line fill="none" stroke="#AAAAAA" stroke-miterlimit="10" x1="44.039" y1="192.446" x2="43.104" y2="192.213"/>
<line fill="none" stroke="#AAAAAA" stroke-miterlimit="10" x1="43.104" y1="192.212" x2="41.937" y2="192.445"/>
<line fill="none" stroke="#AAAAAA" stroke-miterlimit="10" x1="41.936" y1="192.446" x2="41.002" y2="192.914"/>
<line fill="none" stroke="#AAAAAA" stroke-miterlimit="10" x1="41.002" y1="192.914" x2="40.067" y2="193.614"/>
<line fill="none" stroke="#AAAAAA" stroke-miterlimit="10" x1="40.067" y1="193.615" x2="39.366" y2="194.315"/>
<line fill="none" stroke="#AAAAAA" stroke-miterlimit="10" x1="39.366" y1="194.315" x2="39.132" y2="195.484"/>
<line fill="none" stroke="#AAAAAA" stroke-miterlimit="10" x1="39.132" y1="195.484" x2="38.898" y2="196.419"/>
<line fill="none" stroke="#AAAAAA" stroke-miterlimit="10" x1="38.898" y1="196.418" x2="39.133" y2="197.586"/>
<line fill="none" stroke="#AAAAAA" stroke-miterlimit="10" x1="39.132" y1="197.586" x2="39.367" y2="198.521"/>
<line fill="none" stroke="#AAAAAA" stroke-miterlimit="10" x1="39.366" y1="198.522" x2="40.067" y2="199.456"/>
<line fill="none" stroke="#AAAAAA" stroke-miterlimit="10" x1="40.067" y1="199.456" x2="41.002" y2="200.156"/>
<line fill="none" stroke="#AAAAAA" stroke-miterlimit="10" x1="41.002" y1="200.156" x2="41.936" y2="200.625"/>
<line fill="none" stroke="#AAAAAA" stroke-miterlimit="10" x1="41.936" y1="200.624" x2="43.104" y2="200.624"/>
<line fill="none" stroke="#AAAAAA" stroke-miterlimit="10" x1="30.488" y1="188.007" x2="31.656" y2="188.007"/>
<line fill="none" stroke="#AAAAAA" stroke-miterlimit="10" x1="31.656" y1="188.007" x2="32.591" y2="187.539"/>
<line fill="none" stroke="#AAAAAA" stroke-miterlimit="10" x1="32.591" y1="187.54" x2="33.526" y2="186.839"/>
<line fill="none" stroke="#AAAAAA" stroke-miterlimit="10" x1="33.525" y1="186.839" x2="34.227" y2="186.139"/>
<line fill="none" stroke="#AAAAAA" stroke-miterlimit="10" x1="34.226" y1="186.139" x2="34.46" y2="184.97"/>
<line fill="none" stroke="#AAAAAA" stroke-miterlimit="10" x1="34.46" y1="184.97" x2="34.694" y2="184.035"/>
<line fill="none" stroke="#AAAAAA" stroke-miterlimit="10" x1="34.694" y1="184.036" x2="34.46" y2="182.867"/>
<line fill="none" stroke="#AAAAAA" stroke-miterlimit="10" x1="34.46" y1="182.867" x2="34.226" y2="181.932"/>
<line fill="none" stroke="#AAAAAA" stroke-miterlimit="10" x1="34.226" y1="181.933" x2="33.525" y2="180.999"/>
<line fill="none" stroke="#AAAAAA" stroke-miterlimit="10" x1="33.525" y1="180.998" x2="32.59" y2="180.297"/>
<line fill="none" stroke="#AAAAAA" stroke-miterlimit="10" x1="32.591" y1="180.297" x2="31.656" y2="179.829"/>
<line fill="none" stroke="#AAAAAA" stroke-miterlimit="10" x1="31.656" y1="179.83" x2="30.488" y2="179.83"/>
<line fill="none" stroke="#AAAAAA" stroke-miterlimit="10" x1="30.488" y1="179.83" x2="29.553" y2="179.83"/>
<line fill="none" stroke="#AAAAAA" stroke-miterlimit="10" x1="29.553" y1="179.83" x2="28.385" y2="180.298"/>
<line fill="none" stroke="#AAAAAA" stroke-miterlimit="10" x1="28.385" y1="180.297" x2="27.685" y2="180.998"/>
<line fill="none" stroke="#AAAAAA" stroke-miterlimit="10" x1="27.684" y1="180.998" x2="26.982" y2="181.932"/>
<line fill="none" stroke="#AAAAAA" stroke-miterlimit="10" x1="26.982" y1="181.933" x2="26.516" y2="182.867"/>
<line fill="none" stroke="#AAAAAA" stroke-miterlimit="10" x1="26.516" y1="182.867" x2="26.282" y2="184.036"/>
<line fill="none" stroke="#AAAAAA" stroke-miterlimit="10" x1="26.282" y1="184.036" x2="26.516" y2="184.971"/>
<line fill="none" stroke="#AAAAAA" stroke-miterlimit="10" x1="26.516" y1="184.97" x2="26.982" y2="186.139"/>
<line fill="none" stroke="#AAAAAA" stroke-miterlimit="10" x1="26.982" y1="186.139" x2="27.683" y2="186.839"/>
<line fill="none" stroke="#AAAAAA" stroke-miterlimit="10" x1="27.685" y1="186.839" x2="28.385" y2="187.539"/>
<line fill="none" stroke="#AAAAAA" stroke-miterlimit="10" x1="28.385" y1="187.54" x2="29.553" y2="188.007"/>
<line fill="none" stroke="#AAAAAA" stroke-miterlimit="10" x1="29.553" y1="188.007" x2="30.488" y2="188.007"/>
<line fill="none" stroke="#AAAAAA" stroke-miterlimit="10" x1="30.488" y1="199.456" x2="31.188" y2="199.223"/>
<line fill="none" stroke="#AAAAAA" stroke-miterlimit="10" x1="31.188" y1="199.222" x2="31.889" y2="198.988"/>
<line fill="none" stroke="#AAAAAA" stroke-miterlimit="10" x1="31.889" y1="198.988" x2="32.591" y2="198.521"/>
<line fill="none" stroke="#AAAAAA" stroke-miterlimit="10" x1="32.591" y1="198.522" x2="33.058" y2="198.054"/>
<line fill="none" stroke="#AAAAAA" stroke-miterlimit="10" x1="33.058" y1="198.055" x2="33.292" y2="197.119"/>
<line fill="none" stroke="#AAAAAA" stroke-miterlimit="10" x1="33.292" y1="197.119" x2="33.526" y2="196.419"/>
<line fill="none" stroke="#AAAAAA" stroke-miterlimit="10" x1="33.525" y1="196.418" x2="33.292" y2="195.717"/>
<line fill="none" stroke="#AAAAAA" stroke-miterlimit="10" x1="33.292" y1="195.718" x2="33.058" y2="195.017"/>
<line fill="none" stroke="#AAAAAA" stroke-miterlimit="10" x1="33.058" y1="195.017" x2="32.591" y2="194.315"/>
<line fill="none" stroke="#AAAAAA" stroke-miterlimit="10" x1="32.591" y1="194.315" x2="31.889" y2="193.848"/>
<line fill="none" stroke="#AAAAAA" stroke-miterlimit="10" x1="31.889" y1="193.848" x2="31.188" y2="193.615"/>
<line fill="none" stroke="#AAAAAA" stroke-miterlimit="10" x1="31.188" y1="193.615" x2="30.487" y2="193.615"/>
<line fill="none" stroke="#AAAAAA" stroke-miterlimit="10" x1="30.488" y1="193.615" x2="29.787" y2="193.615"/>
<line fill="none" stroke="#AAAAAA" stroke-miterlimit="10" x1="29.786" y1="193.615" x2="29.085" y2="193.848"/>
<line fill="none" stroke="#AAAAAA" stroke-miterlimit="10" x1="29.085" y1="193.848" x2="28.385" y2="194.315"/>
<line fill="none" stroke="#AAAAAA" stroke-miterlimit="10" x1="28.385" y1="194.315" x2="27.917" y2="195.016"/>
<line fill="none" stroke="#AAAAAA" stroke-miterlimit="10" x1="27.917" y1="195.017" x2="27.684" y2="195.717"/>
<line fill="none" stroke="#AAAAAA" stroke-miterlimit="10" x1="27.685" y1="195.718" x2="27.685" y2="196.419"/>
<line fill="none" stroke="#AAAAAA" stroke-miterlimit="10" x1="27.685" y1="196.418" x2="27.685" y2="197.119"/>
<line fill="none" stroke="#AAAAAA" stroke-miterlimit="10" x1="27.685" y1="197.119" x2="27.917" y2="198.055"/>
<line fill="none" stroke="#AAAAAA" stroke-miterlimit="10" x1="27.917" y1="198.054" x2="28.385" y2="198.522"/>
<line fill="none" stroke="#AAAAAA" stroke-miterlimit="10" x1="28.385" y1="198.522" x2="29.086" y2="198.988"/>
<line fill="none" stroke="#AAAAAA" stroke-miterlimit="10" x1="29.085" y1="198.988" x2="29.787" y2="199.222"/>
<line fill="none" stroke="#AAAAAA" stroke-miterlimit="10" x1="29.786" y1="199.222" x2="30.487" y2="199.455"/>
<line fill="none" stroke="#AAAAAA" stroke-miterlimit="10" x1="43.104" y1="186.839" x2="43.805" y2="186.839"/>
<line fill="none" stroke="#AAAAAA" stroke-miterlimit="10" x1="43.805" y1="186.839" x2="44.506" y2="186.371"/>
<line fill="none" stroke="#AAAAAA" stroke-miterlimit="10" x1="44.506" y1="186.372" x2="45.207" y2="185.903"/>
<line fill="none" stroke="#AAAAAA" stroke-miterlimit="10" x1="45.208" y1="185.904" x2="45.675" y2="185.436"/>
<line fill="none" stroke="#AAAAAA" stroke-miterlimit="10" x1="45.674" y1="185.437" x2="45.908" y2="184.736"/>
<line fill="none" stroke="#AAAAAA" stroke-miterlimit="10" x1="45.908" y1="184.736" x2="45.908" y2="184.036"/>
<line fill="none" stroke="#AAAAAA" stroke-miterlimit="10" x1="45.908" y1="184.036" x2="45.908" y2="183.101"/>
<line fill="none" stroke="#AAAAAA" stroke-miterlimit="10" x1="45.908" y1="183.101" x2="45.674" y2="182.4"/>
<line fill="none" stroke="#AAAAAA" stroke-miterlimit="10" x1="45.674" y1="182.4" x2="45.208" y2="181.933"/>
<line fill="none" stroke="#AAAAAA" stroke-miterlimit="10" x1="45.207" y1="181.933" x2="44.506" y2="181.464"/>
<line fill="none" stroke="#AAAAAA" stroke-miterlimit="10" x1="44.506" y1="181.465" x2="43.805" y2="180.998"/>
<line fill="none" stroke="#AAAAAA" stroke-miterlimit="10" x1="43.805" y1="180.998" x2="43.104" y2="180.998"/>
<line fill="none" stroke="#AAAAAA" stroke-miterlimit="10" x1="43.104" y1="180.998" x2="42.403" y2="180.998"/>
<line fill="none" stroke="#AAAAAA" stroke-miterlimit="10" x1="42.404" y1="180.998" x2="41.703" y2="181.465"/>
<line fill="none" stroke="#AAAAAA" stroke-miterlimit="10" x1="41.702" y1="181.465" x2="41.002" y2="181.933"/>
<line fill="none" stroke="#AAAAAA" stroke-miterlimit="10" x1="41.002" y1="181.933" x2="40.534" y2="182.4"/>
<line fill="none" stroke="#AAAAAA" stroke-miterlimit="10" x1="40.535" y1="182.4" x2="40.301" y2="183.102"/>
<line fill="none" stroke="#AAAAAA" stroke-miterlimit="10" x1="40.301" y1="183.101" x2="40.067" y2="184.036"/>
<line fill="none" stroke="#AAAAAA" stroke-miterlimit="10" x1="40.067" y1="184.036" x2="40.301" y2="184.736"/>
<line fill="none" stroke="#AAAAAA" stroke-miterlimit="10" x1="40.301" y1="184.736" x2="40.535" y2="185.436"/>
<line fill="none" stroke="#AAAAAA" stroke-miterlimit="10" x1="40.534" y1="185.437" x2="41.002" y2="185.904"/>
<line fill="none" stroke="#AAAAAA" stroke-miterlimit="10" x1="41.002" y1="185.904" x2="41.702" y2="186.372"/>
<line fill="none" stroke="#AAAAAA" stroke-miterlimit="10" x1="41.702" y1="186.372" x2="42.403" y2="186.839"/>
<line fill="none" stroke="#AAAAAA" stroke-miterlimit="10" x1="42.404" y1="186.839" x2="43.104" y2="186.839"/>
<line fill="none" stroke="#AAAAAA" stroke-miterlimit="10" x1="24.179" y1="177.727" x2="24.179" y2="202.726"/>
<line fill="none" stroke="#AAAAAA" stroke-miterlimit="10" x1="24.179" y1="202.726" x2="49.412" y2="202.726"/>
<line fill="none" stroke="#AAAAAA" stroke-miterlimit="10" x1="49.413" y1="202.726" x2="49.413" y2="177.727"/>
<line fill="none" stroke="#AAAAAA" stroke-miterlimit="10" x1="49.413" y1="177.727" x2="24.179" y2="177.727"/>
<line fill="none" stroke="#AAAAAA" stroke-miterlimit="10" x1="30.03" y1="340.592" x2="29.752" y2="340.592"/>
<line fill="none" stroke="#AAAAAA" stroke-miterlimit="10" x1="29.752" y1="340.592" x2="29.474" y2="340.592"/>
<line fill="none" stroke="#AAAAAA" stroke-miterlimit="10" x1="29.474" y1="340.592" x2="29.474" y2="340.871"/>
<line fill="none" stroke="#AAAAAA" stroke-miterlimit="10" x1="29.474" y1="340.871" x2="29.196" y2="341.147"/>
<line fill="none" stroke="#AAAAAA" stroke-miterlimit="10" x1="29.195" y1="341.147" x2="29.195" y2="341.427"/>
<line fill="none" stroke="#AAAAAA" stroke-miterlimit="10" x1="29.195" y1="341.427" x2="29.195" y2="341.705"/>
<line fill="none" stroke="#AAAAAA" stroke-miterlimit="10" x1="29.195" y1="341.705" x2="29.195" y2="341.981"/>
<line fill="none" stroke="#AAAAAA" stroke-miterlimit="10" x1="29.195" y1="341.981" x2="29.474" y2="342.261"/>
<line fill="none" stroke="#AAAAAA" stroke-miterlimit="10" x1="29.474" y1="342.26" x2="29.751" y2="342.539"/>
<line fill="none" stroke="#AAAAAA" stroke-miterlimit="10" x1="29.752" y1="342.539" x2="30.03" y2="342.539"/>
<line fill="none" stroke="#AAAAAA" stroke-miterlimit="10" x1="30.03" y1="342.539" x2="30.307" y2="342.539"/>
<line fill="none" stroke="#AAAAAA" stroke-miterlimit="10" x1="30.307" y1="342.539" x2="30.586" y2="342.26"/>
<line fill="none" stroke="#AAAAAA" stroke-miterlimit="10" x1="30.586" y1="342.26" x2="30.864" y2="342.26"/>
<line fill="none" stroke="#AAAAAA" stroke-miterlimit="10" x1="30.864" y1="342.26" x2="30.864" y2="341.98"/>
<line fill="none" stroke="#AAAAAA" stroke-miterlimit="10" x1="30.864" y1="341.981" x2="31.142" y2="341.705"/>
<line fill="none" stroke="#AAAAAA" stroke-miterlimit="10" x1="31.142" y1="341.705" x2="31.142" y2="341.426"/>
<line fill="none" stroke="#AAAAAA" stroke-miterlimit="10" x1="31.142" y1="341.427" x2="31.142" y2="341.147"/>
<line fill="none" stroke="#AAAAAA" stroke-miterlimit="10" x1="31.142" y1="341.147" x2="30.864" y2="341.147"/>
<line fill="none" stroke="#AAAAAA" stroke-miterlimit="10" x1="30.864" y1="341.147" x2="30.864" y2="340.871"/>
<line fill="none" stroke="#AAAAAA" stroke-miterlimit="10" x1="30.864" y1="340.871" x2="30.586" y2="340.592"/>
<line fill="none" stroke="#AAAAAA" stroke-miterlimit="10" x1="30.586" y1="340.592" x2="30.307" y2="340.592"/>
<line fill="none" stroke="#AAAAAA" stroke-miterlimit="10" x1="30.307" y1="340.592" x2="30.03" y2="340.592"/>
<line fill="none" stroke="#AAAAAA" stroke-miterlimit="10" x1="37.537" y1="347.544" x2="39.761" y2="348.378"/>
<line fill="none" stroke="#AAAAAA" stroke-miterlimit="10" x1="39.761" y1="348.378" x2="42.542" y2="348.934"/>
<line fill="none" stroke="#AAAAAA" stroke-miterlimit="10" x1="42.542" y1="348.933" x2="45.322" y2="348.933"/>
<line fill="none" stroke="#AAAAAA" stroke-miterlimit="10" x1="45.322" y1="348.933" x2="48.104" y2="348.655"/>
<line fill="none" stroke="#AAAAAA" stroke-miterlimit="10" x1="48.104" y1="348.655" x2="50.605" y2="348.1"/>
<line fill="none" stroke="#AAAAAA" stroke-miterlimit="10" x1="50.606" y1="348.099" x2="52.83" y2="347.265"/>
<line fill="none" stroke="#AAAAAA" stroke-miterlimit="10" x1="52.83" y1="347.266" x2="54.777" y2="346.153"/>
<line fill="none" stroke="#AAAAAA" stroke-miterlimit="10" x1="54.776" y1="346.153" x2="56.167" y2="344.763"/>
<line fill="none" stroke="#AAAAAA" stroke-miterlimit="10" x1="56.167" y1="344.763" x2="57.001" y2="343.095"/>
<line fill="none" stroke="#AAAAAA" stroke-miterlimit="10" x1="57" y1="343.095" x2="57.557" y2="341.426"/>
<line fill="none" stroke="#AAAAAA" stroke-miterlimit="10" x1="57.557" y1="341.427" x2="57.001" y2="339.758"/>
<line fill="none" stroke="#AAAAAA" stroke-miterlimit="10" x1="57" y1="339.758" x2="56.167" y2="338.369"/>
<line fill="none" stroke="#AAAAAA" stroke-miterlimit="10" x1="56.167" y1="338.368" x2="54.776" y2="336.978"/>
<line fill="none" stroke="#AAAAAA" stroke-miterlimit="10" x1="54.776" y1="336.978" x2="52.829" y2="335.865"/>
<line fill="none" stroke="#AAAAAA" stroke-miterlimit="10" x1="52.83" y1="335.865" x2="50.606" y2="334.753"/>
<line fill="none" stroke="#AAAAAA" stroke-miterlimit="10" x1="50.606" y1="334.753" x2="48.104" y2="334.197"/>
<line fill="none" stroke="#AAAAAA" stroke-miterlimit="10" x1="48.104" y1="334.196" x2="45.322" y2="333.919"/>
<line fill="none" stroke="#AAAAAA" stroke-miterlimit="10" x1="45.322" y1="333.919" x2="42.542" y2="334.197"/>
<line fill="none" stroke="#AAAAAA" stroke-miterlimit="10" x1="42.542" y1="334.196" x2="39.761" y2="334.753"/>
<line fill="none" stroke="#AAAAAA" stroke-miterlimit="10" x1="39.761" y1="334.753" x2="37.537" y2="335.587"/>
<line fill="none" stroke="#AAAAAA" stroke-miterlimit="10" x1="37.537" y1="335.588" x2="37.537" y2="347.544"/>
<line fill="none" stroke="#AAAAAA" stroke-miterlimit="10" x1="35.034" y1="333.919" x2="35.034" y2="348.933"/>
<line fill="none" stroke="#AAAAAA" stroke-miterlimit="10" x1="35.034" y1="348.933" x2="35.034" y2="349.489"/>
<line fill="none" stroke="#AAAAAA" stroke-miterlimit="10" x1="35.034" y1="349.489" x2="34.757" y2="350.323"/>
<line fill="none" stroke="#AAAAAA" stroke-miterlimit="10" x1="34.757" y1="350.324" x2="34.201" y2="350.602"/>
<line fill="none" stroke="#AAAAAA" stroke-miterlimit="10" x1="34.201" y1="350.602" x2="39.485" y2="350.602"/>
<line fill="none" stroke="#AAAAAA" stroke-miterlimit="10" x1="39.483" y1="350.602" x2="42.264" y2="351.436"/>
<line fill="none" stroke="#AAAAAA" stroke-miterlimit="10" x1="42.264" y1="351.436" x2="45.322" y2="351.436"/>
<line fill="none" stroke="#AAAAAA" stroke-miterlimit="10" x1="45.322" y1="351.436" x2="48.382" y2="351.157"/>
<line fill="none" stroke="#AAAAAA" stroke-miterlimit="10" x1="48.382" y1="351.157" x2="51.44" y2="350.602"/>
<line fill="none" stroke="#AAAAAA" stroke-miterlimit="10" x1="51.44" y1="350.602" x2="53.942" y2="349.49"/>
<line fill="none" stroke="#AAAAAA" stroke-miterlimit="10" x1="53.942" y1="349.489" x2="56.167" y2="348.099"/>
<line fill="none" stroke="#AAAAAA" stroke-miterlimit="10" x1="56.167" y1="348.099" x2="58.113" y2="346.431"/>
<line fill="none" stroke="#AAAAAA" stroke-miterlimit="10" x1="58.113" y1="346.432" x2="59.225" y2="344.484"/>
<line fill="none" stroke="#AAAAAA" stroke-miterlimit="10" x1="59.225" y1="344.484" x2="59.782" y2="342.538"/>
<line fill="none" stroke="#AAAAAA" stroke-miterlimit="10" x1="59.782" y1="342.539" x2="59.782" y2="340.592"/>
<line fill="none" stroke="#AAAAAA" stroke-miterlimit="10" x1="59.782" y1="340.592" x2="59.225" y2="338.368"/>
<line fill="none" stroke="#AAAAAA" stroke-miterlimit="10" x1="59.225" y1="338.368" x2="58.113" y2="336.699"/>
<line fill="none" stroke="#AAAAAA" stroke-miterlimit="10" x1="58.113" y1="336.699" x2="56.167" y2="335.031"/>
<line fill="none" stroke="#AAAAAA" stroke-miterlimit="10" x1="56.167" y1="335.031" x2="53.942" y2="333.642"/>
<line fill="none" stroke="#AAAAAA" stroke-miterlimit="10" x1="53.942" y1="333.642" x2="51.44" y2="332.527"/>
<line fill="none" stroke="#AAAAAA" stroke-miterlimit="10" x1="51.44" y1="332.528" x2="48.382" y2="331.693"/>
<line fill="none" stroke="#AAAAAA" stroke-miterlimit="10" x1="48.382" y1="331.693" x2="45.322" y2="331.693"/>
<line fill="none" stroke="#AAAAAA" stroke-miterlimit="10" x1="45.322" y1="331.693" x2="42.264" y2="331.693"/>
<line fill="none" stroke="#AAAAAA" stroke-miterlimit="10" x1="42.264" y1="331.693" x2="39.483" y2="332.251"/>
<line fill="none" stroke="#AAAAAA" stroke-miterlimit="10" x1="39.484" y1="332.251" x2="34.2" y2="332.251"/>
<line fill="none" stroke="#AAAAAA" stroke-miterlimit="10" x1="34.201" y1="332.251" x2="34.757" y2="332.806"/>
<line fill="none" stroke="#AAAAAA" stroke-miterlimit="10" x1="34.757" y1="332.806" x2="35.034" y2="333.362"/>
<line fill="none" stroke="#AAAAAA" stroke-miterlimit="10" x1="35.034" y1="333.362" x2="35.034" y2="333.918"/>
<line fill="none" stroke="#AAAAAA" stroke-miterlimit="10" x1="25.025" y1="348.933" x2="25.303" y2="349.489"/>
<line fill="none" stroke="#AAAAAA" stroke-miterlimit="10" x1="25.303" y1="349.489" x2="25.303" y2="350.323"/>
<line fill="none" stroke="#AAAAAA" stroke-miterlimit="10" x1="25.303" y1="350.324" x2="25.859" y2="350.602"/>
<line fill="none" stroke="#AAAAAA" stroke-miterlimit="10" x1="25.859" y1="350.602" x2="26.416" y2="351.158"/>
<line fill="none" stroke="#AAAAAA" stroke-miterlimit="10" x1="26.416" y1="351.157" x2="26.97" y2="351.436"/>
<line fill="none" stroke="#AAAAAA" stroke-miterlimit="10" x1="26.971" y1="351.436" x2="27.528" y2="351.436"/>
<line fill="none" stroke="#AAAAAA" stroke-miterlimit="10" x1="27.527" y1="351.436" x2="32.533" y2="351.436"/>
<line fill="none" stroke="#AAAAAA" stroke-miterlimit="10" x1="32.532" y1="351.436" x2="33.088" y2="351.436"/>
<line fill="none" stroke="#AAAAAA" stroke-miterlimit="10" x1="33.088" y1="351.436" x2="33.922" y2="351.157"/>
<line fill="none" stroke="#AAAAAA" stroke-miterlimit="10" x1="33.922" y1="351.157" x2="34.2" y2="350.602"/>
<line fill="none" stroke="#AAAAAA" stroke-miterlimit="10" x1="34.201" y1="350.602" x2="34.757" y2="350.324"/>
<line fill="none" stroke="#AAAAAA" stroke-miterlimit="10" x1="34.757" y1="350.324" x2="35.034" y2="349.49"/>
<line fill="none" stroke="#AAAAAA" stroke-miterlimit="10" x1="35.034" y1="349.489" x2="35.034" y2="348.934"/>
<line fill="none" stroke="#AAAAAA" stroke-miterlimit="10" x1="35.034" y1="348.933" x2="35.034" y2="333.919"/>
<line fill="none" stroke="#AAAAAA" stroke-miterlimit="10" x1="35.034" y1="333.919" x2="35.034" y2="333.362"/>
<line fill="none" stroke="#AAAAAA" stroke-miterlimit="10" x1="35.034" y1="333.362" x2="34.757" y2="332.806"/>
<line fill="none" stroke="#AAAAAA" stroke-miterlimit="10" x1="34.757" y1="332.806" x2="34.201" y2="332.251"/>
<line fill="none" stroke="#AAAAAA" stroke-miterlimit="10" x1="34.201" y1="332.251" x2="33.923" y2="331.972"/>
<line fill="none" stroke="#AAAAAA" stroke-miterlimit="10" x1="33.922" y1="331.973" x2="33.088" y2="331.693"/>
<line fill="none" stroke="#AAAAAA" stroke-miterlimit="10" x1="33.088" y1="331.693" x2="32.531" y2="331.693"/>
<line fill="none" stroke="#AAAAAA" stroke-miterlimit="10" x1="32.533" y1="331.693" x2="27.528" y2="331.693"/>
<line fill="none" stroke="#AAAAAA" stroke-miterlimit="10" x1="27.527" y1="331.693" x2="26.971" y2="331.693"/>
<line fill="none" stroke="#AAAAAA" stroke-miterlimit="10" x1="26.971" y1="331.693" x2="26.416" y2="331.973"/>
<line fill="none" stroke="#AAAAAA" stroke-miterlimit="10" x1="26.416" y1="331.973" x2="25.858" y2="332.251"/>
<line fill="none" stroke="#AAAAAA" stroke-miterlimit="10" x1="25.859" y1="332.251" x2="25.303" y2="332.806"/>
<line fill="none" stroke="#AAAAAA" stroke-miterlimit="10" x1="25.303" y1="332.806" x2="25.303" y2="333.362"/>
<line fill="none" stroke="#AAAAAA" stroke-miterlimit="10" x1="25.303" y1="333.362" x2="25.025" y2="333.918"/>
<line fill="none" stroke="#AAAAAA" stroke-miterlimit="10" x1="25.025" y1="333.919" x2="25.025" y2="348.933"/>
</svg>
