<?xml version="1.0" encoding="utf-8"?>
<!-- Generator: Adobe Illustrator 15.0.2, SVG Export Plug-In  -->
<!DOCTYPE svg PUBLIC "-//W3C//DTD SVG 1.1//EN" "http://www.w3.org/Graphics/SVG/1.1/DTD/svg11.dtd" [
	<!ENTITY ns_flows "http://ns.adobe.com/Flows/1.0/">
]>
<svg version="1.1"
	 xmlns="http://www.w3.org/2000/svg" xmlns:xlink="http://www.w3.org/1999/xlink" xmlns:a="http://ns.adobe.com/AdobeSVGViewerExtensions/3.0/"
	 x="0px" y="0px" width="54px" height="35px" viewBox="-0.6069336 -0.7045898 54 35"
	 enable-background="new -0.6069336 -0.7045898 54 35" xml:space="preserve">
<defs>
</defs>
<path fill="#1490e7" d="M51.8930664,6.5639648H4.7167969V2.6679688c0-0.5336914,0.3232422-0.9848633,0.7050781-0.9848633h9.7631836
	c0.2290039,0,0.4838867,0.296875,0.4838867,0.7241211v0.8208008c0,0.4648438,0.3769531,0.8422852,0.8417969,0.8422852
	c0.465332,0,0.8432617-0.3774414,0.8432617-0.8422852V2.4072266C17.3540039,1.0791016,16.3808594,0,15.1850586,0H5.421875
	C4.1040039,0,3.0317383,1.1972656,3.0317383,2.6679688v3.8959961H0.8417969C0.3769531,6.5639648,0,6.940918,0,7.4052734v3.1987305
	c0,0.4638672,0.3769531,0.8413086,0.8417969,0.8413086h1.1791992v9.6870117c0,3.1826172,1.7299805,5.9677734,4.2978516,7.4726563
	v2.9121094c0,1.3691406,1.1137695,2.4833984,2.4838867,2.4833984s2.4853516-1.1142578,2.4853516-2.4833984v-1.7255859h22.0131836
	c0.9648438,0,1.9160156-0.0917969,2.8378906-0.2675781v1.9931641c0,1.3691406,1.1152344,2.4833984,2.4863281,2.4833984
	s2.4863281-1.1142578,2.4863281-2.4833984v-3.890625c3.296875-1.9785156,5.8183594-5.1835938,6.8652344-9.0820313
	l1.9082031-7.0991211h2.0078125c0.4648438,0,0.84375-0.3774414,0.84375-0.8413086V7.4052734
	C52.7368164,6.940918,52.3579102,6.5639648,51.8930664,6.5639648 M8.8027344,32.315918
	c-0.440918,0-0.7988281-0.3574219-0.7988281-0.7988281V29.362793c0.5141602,0.1679688,1.0478516,0.2890625,1.5991211,0.3583984
	v1.7958984C9.6030273,31.9584961,9.2436523,32.315918,8.8027344,32.315918 M39.4262695,31.5170898
	c0,0.4414063-0.359375,0.7988281-0.8007813,0.7988281c-0.4433594,0-0.8007813-0.3574219-0.8007813-0.7988281v-2.4160156
	c0.546875-0.1708984,1.0820313-0.3720703,1.6015625-0.6005859V31.5170898z M46.3500977,18.1079102
	c-1.5800781,5.8886719-6.9453125,10-13.0488281,10H10.690918c-3.8520508,0-6.9848633-3.1298828-6.9848633-6.9755859v-9.6870117
	h44.4331055L46.3500977,18.1079102z M51.0512695,9.762207H1.6850586V8.2470703h49.3662109V9.762207z"/>
</svg>
