<?xml version="1.0" encoding="utf-8"?>
<!-- Generator: Adobe Illustrator 15.0.2, SVG Export Plug-In  -->
<!DOCTYPE svg PUBLIC "-//W3C//DTD SVG 1.1//EN" "http://www.w3.org/Graphics/SVG/1.1/DTD/svg11.dtd" [
	<!ENTITY ns_flows "http://ns.adobe.com/Flows/1.0/">
]>
<svg version="1.1"
	 xmlns="http://www.w3.org/2000/svg" xmlns:xlink="http://www.w3.org/1999/xlink" xmlns:a="http://ns.adobe.com/AdobeSVGViewerExtensions/3.0/"
	 x="0px" y="0px" width="49px" height="37px" viewBox="-0.3432617 -0.6118164 49 37"
	 enable-background="new -0.3432617 -0.6118164 49 37" xml:space="preserve">
<defs>
</defs>
<path fill="#1490e7" d="M43.5083008,16.824707V8.7949219C43.5083008,3.9448242,39.5512695,0,34.684082,0H13.3261719
	C8.4599609,0,4.5009766,3.9448242,4.5009766,8.7949219v8.0297852C1.8833008,17.7436523,0,20.2319336,0,23.1518555v1.5400391
	c0,2.6318359,1.5302734,4.9130859,3.7509766,6.0107422v5.1796875h1.5v-4.6503906
	c0.4760742,0.1074219,0.9702148,0.1650391,1.4780273,0.1650391h34.5527344c0.5078125,0,1-0.0576172,1.4765625-0.1650391v4.6503906
	h1.5019531v-5.1796875c2.21875-1.0966797,3.75-3.3789063,3.75-6.0107422v-1.5400391
	C48.0102539,20.2319336,46.1274414,17.7436523,43.5083008,16.824707 M6.0009766,8.7949219
	c0-4.0249023,3.2861328-7.2998047,7.3251953-7.2998047H34.684082c4.0390625,0,7.3242188,3.2749023,7.3242188,7.2998047v5.9389648
	c-0.7929688-0.8916016-1.8417969-1.5351563-3-1.8359375v-2.237793c0-1.7563477-1.4335938-3.184082-3.1953125-3.184082H28.699707
	c-1.7617188,0-3.1933594,1.4277344-3.1933594,3.184082v2.0458984h-3.0009766v-2.0458984
	c0-1.7563477-1.434082-3.184082-3.1962891-3.184082h-7.1118164c-1.762207,0-3.1953125,1.4277344-3.1953125,3.184082v2.237793
	c-1.1586914,0.3007813-2.2070313,0.9443359-3.0009766,1.8359375V8.7949219z M37.5083008,14.2006836
	c1.609375,0,3.1035156,0.8720703,3.9003906,2.2480469c-0.0429688-0.0009766-0.0859375-0.0029297-0.1269531-0.0029297H6.7290039
	c-0.0429688,0-0.0859375,0.0019531-0.1289063,0.0029297c0.7978516-1.3759766,2.2929688-2.2480469,3.9018555-2.2480469H37.5083008z
	 M10.5019531,12.7060547v-2.0458984c0-0.9321289,0.7602539-1.6889648,1.6953125-1.6889648h7.1118164
	c0.9350586,0,1.6948242,0.7568359,1.6948242,1.6889648v2.0458984H10.5019531z M37.5083008,12.7060547H27.0063477v-2.0458984
	c0-0.9321289,0.7597656-1.6889648,1.6933594-1.6889648h7.1132813c0.9335938,0,1.6953125,0.7568359,1.6953125,1.6889648V12.7060547z
	 M41.2817383,29.9018555H6.7290039C3.8452148,29.9018555,1.5,27.5639648,1.5,24.6918945v-1.5400391
	c0-2.8730469,2.3452148-5.2109375,5.2290039-5.2109375h34.5527344c2.8808594,0,5.2285156,2.3378906,5.2285156,5.2109375v1.5400391
	C46.5102539,27.5639648,44.1625977,29.9018555,41.2817383,29.9018555"/>
<rect x="5.2509766" y="26.1635742" fill="#1490e7" width="37.5073242" height="1.4951172"/>
</svg>
