<?xml version="1.0" encoding="utf-8"?>
<!-- Generator: Adobe Illustrator 15.0.2, SVG Export Plug-In  -->
<!DOCTYPE svg PUBLIC "-//W3C//DTD SVG 1.1//EN" "http://www.w3.org/Graphics/SVG/1.1/DTD/svg11.dtd" [
	<!ENTITY ns_flows "http://ns.adobe.com/Flows/1.0/">
]>
<svg version="1.1"
	 xmlns="http://www.w3.org/2000/svg" xmlns:xlink="http://www.w3.org/1999/xlink" xmlns:a="http://ns.adobe.com/AdobeSVGViewerExtensions/3.0/"
	 x="0px" y="0px" width="360px" height="487px" viewBox="0 0 360 487" enable-background="new 0 0 360 487" xml:space="preserve">
<defs>
</defs>
<rect x="121.653" y="401.327" fill="none" stroke="#AAAAAA" stroke-miterlimit="10" width="5.241" height="40.268"/>
<polygon fill="none" stroke="#AAAAAA" stroke-miterlimit="10" points="37.435,311.229 128.021,311.229 128.021,362.451 
	121.653,362.451 121.653,317.377 37.435,317.377 "/>
<polyline fill="none" stroke="#AAAAAA" stroke-miterlimit="10" points="345.695,442.474 345.695,136.786 331.646,136.786 
	331.646,365.961 239.01,365.961 219.693,347.961 215.303,352.352 231.986,368.157 231.986,401.326 239.888,401.326 239.888,372.182 
	331.646,372.182 331.646,442.474 345.695,442.474 "/>
<polygon fill="none" stroke="#AAAAAA" stroke-miterlimit="10" points="175.205,139.422 175.205,311.228 166.424,311.228 
	166.424,318.547 175.205,318.547 185.157,327.912 190.13,322.937 181.938,314.741 181.938,139.422 "/>
<polyline fill="none" stroke="#AAAAAA" stroke-miterlimit="10" points="55.495,137.666 71.592,137.666 71.592,311.229 "/>
<polyline fill="none" stroke="#AAAAAA" stroke-miterlimit="10" points="195.985,116.593 195.985,26.591 137.594,26.591 
	115.203,5.078 35.299,5.078 "/>
<path fill="none" stroke="#AAAAAA" stroke-miterlimit="10" d="M126.054,366.04l6.99,0.434 M133.044,366.474l6.709,1.521
	 M139.753,367.994l6.428,2.173"/>
<line fill="none" stroke="#AAAAAA" stroke-miterlimit="10" x1="146.181" y1="370.167" x2="126.054" y2="397.096"/>
<line fill="none" stroke="#AAAAAA" stroke-miterlimit="10" x1="126.056" y1="397.096" x2="126.056" y2="400.898"/>
<line fill="none" stroke="#AAAAAA" stroke-miterlimit="10" x1="126.056" y1="363.425" x2="126.056" y2="366.293"/>
<path fill="none" stroke="#AAAAAA" stroke-miterlimit="10" d="M226.682,405.773l6.992-0.435 M219.974,407.294l6.708-1.521
	 M213.545,409.467l6.429-2.173"/>
<line fill="none" stroke="#AAAAAA" stroke-miterlimit="10" x1="213.545" y1="409.467" x2="233.674" y2="436.395"/>
<line fill="none" stroke="#AAAAAA" stroke-miterlimit="10" x1="233.672" y1="436.396" x2="233.672" y2="441.954"/>
<line fill="none" stroke="#AAAAAA" stroke-miterlimit="10" x1="233.672" y1="402.724" x2="233.672" y2="405.592"/>
<path fill="none" stroke="#AAAAAA" stroke-miterlimit="10" d="M213.773,348.9l-4.764,5.135 M209.01,354.035l-5.426,4.229
	 M203.584,358.264l-5.754,3.598"/>
<line fill="none" stroke="#AAAAAA" stroke-miterlimit="10" x1="197.83" y1="361.861" x2="189.74" y2="329.228"/>
<line fill="none" stroke="#AAAAAA" stroke-miterlimit="10" x1="189.741" y1="329.229" x2="186.798" y2="326.82"/>
<line fill="none" stroke="#AAAAAA" stroke-miterlimit="10" x1="215.797" y1="350.559" x2="213.577" y2="348.741"/>
<path fill="none" stroke="#AAAAAA" stroke-miterlimit="10" d="M162.881,316.73l-0.463,6.988 M162.418,323.719l-1.549,6.701
	 M160.87,330.42l-2.2,6.42"/>
<line fill="none" stroke="#AAAAAA" stroke-miterlimit="10" x1="158.669" y1="336.84" x2="131.825" y2="316.604"/>
<line fill="none" stroke="#AAAAAA" stroke-miterlimit="10" x1="131.825" y1="316.607" x2="128.021" y2="316.592"/>
<line fill="none" stroke="#AAAAAA" stroke-miterlimit="10" x1="165.496" y1="316.742" x2="162.627" y2="316.73"/>
<g>
	<defs>
		<rect id="SVGID_2_" width="359.5" height="486.5"/>
	</defs>
	<clipPath id="SVGID_3_">
		<use xlink:href="#SVGID_2_"  overflow="visible"/>
	</clipPath>
	<path clip-path="url(#SVGID_3_)" fill="none" stroke="#AAAAAA" stroke-miterlimit="10" d="M137.148,470.209l-0.522-8.406
		 M138.976,478.274l-1.828-8.065 M141.588,486.004l-2.612-7.729"/>
	
		<line clip-path="url(#SVGID_3_)" fill="none" stroke="#AAAAAA" stroke-miterlimit="10" x1="141.588" y1="486.004" x2="173.965" y2="461.803"/>
</g>
<line fill="none" stroke="#AAAAAA" stroke-miterlimit="10" x1="173.965" y1="461.805" x2="178.537" y2="461.805"/>
<line fill="none" stroke="#AAAAAA" stroke-miterlimit="10" x1="133.481" y1="461.805" x2="136.93" y2="461.805"/>
<g>
	<defs>
		<rect id="SVGID_1_" width="359.5" height="486.5"/>
	</defs>
	<clipPath id="SVGID_4_">
		<use xlink:href="#SVGID_1_"  overflow="visible"/>
	</clipPath>
	<polygon clip-path="url(#SVGID_4_)" fill="none" stroke="#AAAAAA" stroke-miterlimit="10" points="0.695,442.792 17.738,442.792 
		17.738,20.004 6.344,20.004 6.344,0.688 35.3,0.688 35.3,118.787 55.495,118.787 55.495,137.666 37.056,137.666 36.178,442.792 
		131.887,442.792 131.887,462.109 0.695,462.109 	"/>
	
		<rect x="179.741" y="442.792" clip-path="url(#SVGID_4_)" fill="none" stroke="#AAAAAA" stroke-miterlimit="10" width="179.108" height="21.513"/>
</g>
<path fill="#AAAAAA" d="M236.815,138.543H130.656v-20.195h106.159V138.543z M237.815,117.348h-1H130.656h-1v1v20.195v1h1h106.159h1
	v-1v-20.195V117.348z"/>
<rect x="314.762" y="116.592" fill="none" stroke="#AAAAAA" stroke-miterlimit="10" width="41.61" height="20.195"/>
<path fill="#AAAAAA" d="M313.973,122.233v11.547l-75.399-0.001v-11.546H313.973z M314.973,121.233h-1h-75.399h-1v1v11.546v1h1
	l75.399,0.001h1v-1v-11.547V121.233z"/>
<line fill="none" stroke="#AAAAAA" stroke-miterlimit="10" x1="46.205" y1="420.428" x2="45.91" y2="420.428"/>
<line fill="none" stroke="#AAAAAA" stroke-miterlimit="10" x1="45.91" y1="420.428" x2="45.614" y2="420.428"/>
<line fill="none" stroke="#AAAAAA" stroke-miterlimit="10" x1="45.614" y1="420.428" x2="45.614" y2="420.725"/>
<line fill="none" stroke="#AAAAAA" stroke-miterlimit="10" x1="45.614" y1="420.724" x2="45.318" y2="421.018"/>
<line fill="none" stroke="#AAAAAA" stroke-miterlimit="10" x1="45.318" y1="421.018" x2="45.318" y2="421.314"/>
<line fill="none" stroke="#AAAAAA" stroke-miterlimit="10" x1="45.318" y1="421.314" x2="45.318" y2="421.609"/>
<line fill="none" stroke="#AAAAAA" stroke-miterlimit="10" x1="45.318" y1="421.609" x2="45.318" y2="421.902"/>
<line fill="none" stroke="#AAAAAA" stroke-miterlimit="10" x1="45.318" y1="421.902" x2="45.614" y2="422.199"/>
<line fill="none" stroke="#AAAAAA" stroke-miterlimit="10" x1="45.614" y1="422.199" x2="45.91" y2="422.494"/>
<line fill="none" stroke="#AAAAAA" stroke-miterlimit="10" x1="45.91" y1="422.494" x2="46.205" y2="422.494"/>
<line fill="none" stroke="#AAAAAA" stroke-miterlimit="10" x1="46.205" y1="422.494" x2="46.499" y2="422.494"/>
<line fill="none" stroke="#AAAAAA" stroke-miterlimit="10" x1="46.499" y1="422.494" x2="46.795" y2="422.199"/>
<line fill="none" stroke="#AAAAAA" stroke-miterlimit="10" x1="46.795" y1="422.199" x2="47.09" y2="422.199"/>
<line fill="none" stroke="#AAAAAA" stroke-miterlimit="10" x1="47.09" y1="422.199" x2="47.09" y2="421.902"/>
<line fill="none" stroke="#AAAAAA" stroke-miterlimit="10" x1="47.09" y1="421.902" x2="47.386" y2="421.609"/>
<line fill="none" stroke="#AAAAAA" stroke-miterlimit="10" x1="47.386" y1="421.609" x2="47.386" y2="421.314"/>
<line fill="none" stroke="#AAAAAA" stroke-miterlimit="10" x1="47.386" y1="421.314" x2="47.386" y2="421.018"/>
<line fill="none" stroke="#AAAAAA" stroke-miterlimit="10" x1="47.386" y1="421.018" x2="47.09" y2="421.018"/>
<line fill="none" stroke="#AAAAAA" stroke-miterlimit="10" x1="47.09" y1="421.018" x2="47.09" y2="420.725"/>
<line fill="none" stroke="#AAAAAA" stroke-miterlimit="10" x1="47.09" y1="420.724" x2="46.795" y2="420.427"/>
<line fill="none" stroke="#AAAAAA" stroke-miterlimit="10" x1="46.795" y1="420.428" x2="46.499" y2="420.428"/>
<line fill="none" stroke="#AAAAAA" stroke-miterlimit="10" x1="46.499" y1="420.428" x2="46.205" y2="420.428"/>
<line fill="none" stroke="#AAAAAA" stroke-miterlimit="10" x1="54.174" y1="427.809" x2="56.535" y2="428.693"/>
<line fill="none" stroke="#AAAAAA" stroke-miterlimit="10" x1="56.536" y1="428.693" x2="59.488" y2="429.283"/>
<line fill="none" stroke="#AAAAAA" stroke-miterlimit="10" x1="59.488" y1="429.283" x2="62.44" y2="429.283"/>
<line fill="none" stroke="#AAAAAA" stroke-miterlimit="10" x1="62.44" y1="429.283" x2="65.392" y2="428.988"/>
<line fill="none" stroke="#AAAAAA" stroke-miterlimit="10" x1="65.392" y1="428.988" x2="68.048" y2="428.396"/>
<line fill="none" stroke="#AAAAAA" stroke-miterlimit="10" x1="68.048" y1="428.396" x2="70.41" y2="427.512"/>
<line fill="none" stroke="#AAAAAA" stroke-miterlimit="10" x1="70.41" y1="427.512" x2="72.477" y2="426.332"/>
<line fill="none" stroke="#AAAAAA" stroke-miterlimit="10" x1="72.477" y1="426.332" x2="73.954" y2="424.855"/>
<line fill="none" stroke="#AAAAAA" stroke-miterlimit="10" x1="73.953" y1="424.855" x2="74.838" y2="423.086"/>
<line fill="none" stroke="#AAAAAA" stroke-miterlimit="10" x1="74.838" y1="423.086" x2="75.428" y2="421.314"/>
<line fill="none" stroke="#AAAAAA" stroke-miterlimit="10" x1="75.428" y1="421.314" x2="74.838" y2="419.542"/>
<line fill="none" stroke="#AAAAAA" stroke-miterlimit="10" x1="74.838" y1="419.543" x2="73.953" y2="418.067"/>
<line fill="none" stroke="#AAAAAA" stroke-miterlimit="10" x1="73.953" y1="418.067" x2="72.476" y2="416.591"/>
<line fill="none" stroke="#AAAAAA" stroke-miterlimit="10" x1="72.477" y1="416.591" x2="70.41" y2="415.409"/>
<line fill="none" stroke="#AAAAAA" stroke-miterlimit="10" x1="70.41" y1="415.409" x2="68.049" y2="414.229"/>
<line fill="none" stroke="#AAAAAA" stroke-miterlimit="10" x1="68.048" y1="414.229" x2="65.393" y2="413.638"/>
<line fill="none" stroke="#AAAAAA" stroke-miterlimit="10" x1="65.392" y1="413.638" x2="62.44" y2="413.343"/>
<line fill="none" stroke="#AAAAAA" stroke-miterlimit="10" x1="62.44" y1="413.343" x2="59.488" y2="413.638"/>
<line fill="none" stroke="#AAAAAA" stroke-miterlimit="10" x1="59.488" y1="413.638" x2="56.536" y2="414.229"/>
<line fill="none" stroke="#AAAAAA" stroke-miterlimit="10" x1="56.536" y1="414.229" x2="54.175" y2="415.114"/>
<line fill="none" stroke="#AAAAAA" stroke-miterlimit="10" x1="54.174" y1="415.114" x2="54.174" y2="427.809"/>
<line fill="none" stroke="#AAAAAA" stroke-miterlimit="10" x1="51.518" y1="413.343" x2="51.518" y2="429.284"/>
<line fill="none" stroke="#AAAAAA" stroke-miterlimit="10" x1="51.518" y1="429.283" x2="51.518" y2="429.873"/>
<line fill="none" stroke="#AAAAAA" stroke-miterlimit="10" x1="51.518" y1="429.873" x2="51.223" y2="430.761"/>
<line fill="none" stroke="#AAAAAA" stroke-miterlimit="10" x1="51.223" y1="430.76" x2="50.633" y2="431.055"/>
<line fill="none" stroke="#AAAAAA" stroke-miterlimit="10" x1="50.633" y1="431.055" x2="56.242" y2="431.055"/>
<line fill="none" stroke="#AAAAAA" stroke-miterlimit="10" x1="56.241" y1="431.055" x2="59.192" y2="431.94"/>
<line fill="none" stroke="#AAAAAA" stroke-miterlimit="10" x1="59.192" y1="431.94" x2="62.439" y2="431.94"/>
<line fill="none" stroke="#AAAAAA" stroke-miterlimit="10" x1="62.44" y1="431.94" x2="65.688" y2="431.645"/>
<line fill="none" stroke="#AAAAAA" stroke-miterlimit="10" x1="65.688" y1="431.645" x2="68.935" y2="431.055"/>
<line fill="none" stroke="#AAAAAA" stroke-miterlimit="10" x1="68.935" y1="431.055" x2="71.591" y2="429.873"/>
<line fill="none" stroke="#AAAAAA" stroke-miterlimit="10" x1="71.592" y1="429.873" x2="73.954" y2="428.396"/>
<line fill="none" stroke="#AAAAAA" stroke-miterlimit="10" x1="73.953" y1="428.396" x2="76.019" y2="426.627"/>
<line fill="none" stroke="#AAAAAA" stroke-miterlimit="10" x1="76.019" y1="426.627" x2="77.2" y2="424.56"/>
<line fill="none" stroke="#AAAAAA" stroke-miterlimit="10" x1="77.2" y1="424.561" x2="77.791" y2="422.493"/>
<line fill="none" stroke="#AAAAAA" stroke-miterlimit="10" x1="77.791" y1="422.494" x2="77.791" y2="420.427"/>
<line fill="none" stroke="#AAAAAA" stroke-miterlimit="10" x1="77.791" y1="420.428" x2="77.199" y2="418.067"/>
<line fill="none" stroke="#AAAAAA" stroke-miterlimit="10" x1="77.2" y1="418.067" x2="76.019" y2="416.295"/>
<line fill="none" stroke="#AAAAAA" stroke-miterlimit="10" x1="76.019" y1="416.294" x2="73.953" y2="414.524"/>
<line fill="none" stroke="#AAAAAA" stroke-miterlimit="10" x1="73.953" y1="414.524" x2="71.591" y2="413.05"/>
<line fill="none" stroke="#AAAAAA" stroke-miterlimit="10" x1="71.592" y1="413.05" x2="68.936" y2="411.867"/>
<line fill="none" stroke="#AAAAAA" stroke-miterlimit="10" x1="68.935" y1="411.868" x2="65.688" y2="410.981"/>
<line fill="none" stroke="#AAAAAA" stroke-miterlimit="10" x1="65.688" y1="410.981" x2="62.44" y2="410.981"/>
<line fill="none" stroke="#AAAAAA" stroke-miterlimit="10" x1="62.44" y1="410.981" x2="59.193" y2="410.981"/>
<line fill="none" stroke="#AAAAAA" stroke-miterlimit="10" x1="59.192" y1="410.981" x2="56.241" y2="411.573"/>
<line fill="none" stroke="#AAAAAA" stroke-miterlimit="10" x1="56.242" y1="411.573" x2="50.633" y2="411.573"/>
<line fill="none" stroke="#AAAAAA" stroke-miterlimit="10" x1="50.633" y1="411.573" x2="51.223" y2="412.161"/>
<line fill="none" stroke="#AAAAAA" stroke-miterlimit="10" x1="51.223" y1="412.161" x2="51.518" y2="412.753"/>
<line fill="none" stroke="#AAAAAA" stroke-miterlimit="10" x1="51.518" y1="412.753" x2="51.518" y2="413.343"/>
<line fill="none" stroke="#AAAAAA" stroke-miterlimit="10" x1="40.891" y1="429.283" x2="41.187" y2="429.873"/>
<line fill="none" stroke="#AAAAAA" stroke-miterlimit="10" x1="41.187" y1="429.873" x2="41.187" y2="430.761"/>
<line fill="none" stroke="#AAAAAA" stroke-miterlimit="10" x1="41.187" y1="430.76" x2="41.777" y2="431.055"/>
<line fill="none" stroke="#AAAAAA" stroke-miterlimit="10" x1="41.777" y1="431.055" x2="42.367" y2="431.646"/>
<line fill="none" stroke="#AAAAAA" stroke-miterlimit="10" x1="42.367" y1="431.645" x2="42.957" y2="431.94"/>
<line fill="none" stroke="#AAAAAA" stroke-miterlimit="10" x1="42.957" y1="431.94" x2="43.549" y2="431.94"/>
<line fill="none" stroke="#AAAAAA" stroke-miterlimit="10" x1="43.548" y1="431.94" x2="48.861" y2="431.94"/>
<line fill="none" stroke="#AAAAAA" stroke-miterlimit="10" x1="48.86" y1="431.94" x2="49.452" y2="431.94"/>
<line fill="none" stroke="#AAAAAA" stroke-miterlimit="10" x1="49.451" y1="431.94" x2="50.337" y2="431.645"/>
<line fill="none" stroke="#AAAAAA" stroke-miterlimit="10" x1="50.337" y1="431.645" x2="50.633" y2="431.055"/>
<line fill="none" stroke="#AAAAAA" stroke-miterlimit="10" x1="50.633" y1="431.055" x2="51.223" y2="430.76"/>
<line fill="none" stroke="#AAAAAA" stroke-miterlimit="10" x1="51.223" y1="430.76" x2="51.518" y2="429.873"/>
<line fill="none" stroke="#AAAAAA" stroke-miterlimit="10" x1="51.518" y1="429.873" x2="51.518" y2="429.283"/>
<line fill="none" stroke="#AAAAAA" stroke-miterlimit="10" x1="51.518" y1="429.283" x2="51.518" y2="413.343"/>
<line fill="none" stroke="#AAAAAA" stroke-miterlimit="10" x1="51.518" y1="413.343" x2="51.518" y2="412.753"/>
<line fill="none" stroke="#AAAAAA" stroke-miterlimit="10" x1="51.518" y1="412.753" x2="51.223" y2="412.161"/>
<line fill="none" stroke="#AAAAAA" stroke-miterlimit="10" x1="51.223" y1="412.161" x2="50.633" y2="411.573"/>
<line fill="none" stroke="#AAAAAA" stroke-miterlimit="10" x1="50.633" y1="411.573" x2="50.337" y2="411.276"/>
<line fill="none" stroke="#AAAAAA" stroke-miterlimit="10" x1="50.337" y1="411.276" x2="49.451" y2="410.981"/>
<line fill="none" stroke="#AAAAAA" stroke-miterlimit="10" x1="49.451" y1="410.981" x2="48.86" y2="410.981"/>
<line fill="none" stroke="#AAAAAA" stroke-miterlimit="10" x1="48.861" y1="410.981" x2="43.548" y2="410.981"/>
<line fill="none" stroke="#AAAAAA" stroke-miterlimit="10" x1="43.548" y1="410.981" x2="42.957" y2="410.981"/>
<line fill="none" stroke="#AAAAAA" stroke-miterlimit="10" x1="42.957" y1="410.981" x2="42.367" y2="411.276"/>
<line fill="none" stroke="#AAAAAA" stroke-miterlimit="10" x1="42.367" y1="411.276" x2="41.777" y2="411.573"/>
<line fill="none" stroke="#AAAAAA" stroke-miterlimit="10" x1="41.777" y1="411.573" x2="41.187" y2="412.161"/>
<line fill="none" stroke="#AAAAAA" stroke-miterlimit="10" x1="41.187" y1="412.161" x2="41.187" y2="412.753"/>
<line fill="none" stroke="#AAAAAA" stroke-miterlimit="10" x1="41.187" y1="412.753" x2="40.891" y2="413.343"/>
<line fill="none" stroke="#AAAAAA" stroke-miterlimit="10" x1="40.891" y1="413.343" x2="40.891" y2="429.284"/>
<line fill="none" stroke="#AAAAAA" stroke-miterlimit="10" x1="48.441" y1="285.164" x2="48.723" y2="285.164"/>
<line fill="none" stroke="#AAAAAA" stroke-miterlimit="10" x1="48.724" y1="285.164" x2="49.007" y2="285.164"/>
<line fill="none" stroke="#AAAAAA" stroke-miterlimit="10" x1="49.007" y1="285.164" x2="49.292" y2="284.881"/>
<line fill="none" stroke="#AAAAAA" stroke-miterlimit="10" x1="49.292" y1="284.88" x2="49.576" y2="284.597"/>
<line fill="none" stroke="#AAAAAA" stroke-miterlimit="10" x1="49.576" y1="284.597" x2="49.576" y2="284.314"/>
<line fill="none" stroke="#AAAAAA" stroke-miterlimit="10" x1="49.576" y1="284.313" x2="49.576" y2="284.03"/>
<line fill="none" stroke="#AAAAAA" stroke-miterlimit="10" x1="49.576" y1="284.029" x2="49.292" y2="283.746"/>
<line fill="none" stroke="#AAAAAA" stroke-miterlimit="10" x1="49.292" y1="283.746" x2="49.292" y2="283.463"/>
<line fill="none" stroke="#AAAAAA" stroke-miterlimit="10" x1="49.292" y1="283.462" x2="49.007" y2="283.462"/>
<line fill="none" stroke="#AAAAAA" stroke-miterlimit="10" x1="49.007" y1="283.462" x2="48.723" y2="283.18"/>
<line fill="none" stroke="#AAAAAA" stroke-miterlimit="10" x1="48.724" y1="283.179" x2="48.441" y2="283.179"/>
<line fill="none" stroke="#AAAAAA" stroke-miterlimit="10" x1="48.441" y1="283.179" x2="48.156" y2="283.179"/>
<line fill="none" stroke="#AAAAAA" stroke-miterlimit="10" x1="48.157" y1="283.179" x2="47.873" y2="283.462"/>
<line fill="none" stroke="#AAAAAA" stroke-miterlimit="10" x1="47.873" y1="283.462" x2="47.589" y2="283.745"/>
<line fill="none" stroke="#AAAAAA" stroke-miterlimit="10" x1="47.589" y1="283.746" x2="47.589" y2="284.03"/>
<line fill="none" stroke="#AAAAAA" stroke-miterlimit="10" x1="47.589" y1="284.029" x2="47.589" y2="284.313"/>
<line fill="none" stroke="#AAAAAA" stroke-miterlimit="10" x1="47.589" y1="284.313" x2="47.589" y2="284.596"/>
<line fill="none" stroke="#AAAAAA" stroke-miterlimit="10" x1="47.589" y1="284.597" x2="47.589" y2="284.881"/>
<line fill="none" stroke="#AAAAAA" stroke-miterlimit="10" x1="47.589" y1="284.88" x2="47.873" y2="284.88"/>
<line fill="none" stroke="#AAAAAA" stroke-miterlimit="10" x1="47.873" y1="284.88" x2="47.873" y2="285.164"/>
<line fill="none" stroke="#AAAAAA" stroke-miterlimit="10" x1="47.873" y1="285.164" x2="48.157" y2="285.164"/>
<line fill="none" stroke="#AAAAAA" stroke-miterlimit="10" x1="48.157" y1="285.164" x2="48.441" y2="285.164"/>
<line fill="none" stroke="#AAAAAA" stroke-miterlimit="10" x1="45.886" y1="292.259" x2="45.886" y2="292.543"/>
<line fill="none" stroke="#AAAAAA" stroke-miterlimit="10" x1="45.886" y1="292.543" x2="46.171" y2="292.543"/>
<line fill="none" stroke="#AAAAAA" stroke-miterlimit="10" x1="46.171" y1="292.543" x2="46.171" y2="292.827"/>
<line fill="none" stroke="#AAAAAA" stroke-miterlimit="10" x1="46.171" y1="292.827" x2="46.454" y2="293.11"/>
<line fill="none" stroke="#AAAAAA" stroke-miterlimit="10" x1="46.454" y1="293.11" x2="46.737" y2="293.11"/>
<line fill="none" stroke="#AAAAAA" stroke-miterlimit="10" x1="46.737" y1="293.11" x2="47.021" y2="293.11"/>
<line fill="none" stroke="#AAAAAA" stroke-miterlimit="10" x1="47.021" y1="293.11" x2="60.074" y2="293.11"/>
<line fill="none" stroke="#AAAAAA" stroke-miterlimit="10" x1="60.075" y1="293.11" x2="60.359" y2="293.11"/>
<line fill="none" stroke="#AAAAAA" stroke-miterlimit="10" x1="60.358" y1="293.11" x2="60.643" y2="293.11"/>
<line fill="none" stroke="#AAAAAA" stroke-miterlimit="10" x1="60.643" y1="293.11" x2="60.926" y2="292.827"/>
<line fill="none" stroke="#AAAAAA" stroke-miterlimit="10" x1="60.926" y1="292.827" x2="60.926" y2="292.543"/>
<line fill="none" stroke="#AAAAAA" stroke-miterlimit="10" x1="60.926" y1="292.543" x2="61.21" y2="292.543"/>
<line fill="none" stroke="#AAAAAA" stroke-miterlimit="10" x1="61.21" y1="292.543" x2="61.21" y2="292.258"/>
<line fill="none" stroke="#AAAAAA" stroke-miterlimit="10" x1="61.21" y1="292.259" x2="61.21" y2="276.368"/>
<line fill="none" stroke="#AAAAAA" stroke-miterlimit="10" x1="61.21" y1="276.368" x2="61.21" y2="276.083"/>
<line fill="none" stroke="#AAAAAA" stroke-miterlimit="10" x1="61.21" y1="276.084" x2="60.926" y2="275.8"/>
<line fill="none" stroke="#AAAAAA" stroke-miterlimit="10" x1="60.926" y1="275.8" x2="60.642" y2="275.516"/>
<line fill="none" stroke="#AAAAAA" stroke-miterlimit="10" x1="60.643" y1="275.516" x2="60.358" y2="275.516"/>
<line fill="none" stroke="#AAAAAA" stroke-miterlimit="10" x1="60.358" y1="275.516" x2="60.075" y2="275.516"/>
<line fill="none" stroke="#AAAAAA" stroke-miterlimit="10" x1="60.075" y1="275.516" x2="47.021" y2="275.516"/>
<line fill="none" stroke="#AAAAAA" stroke-miterlimit="10" x1="47.021" y1="275.516" x2="46.736" y2="275.516"/>
<line fill="none" stroke="#AAAAAA" stroke-miterlimit="10" x1="46.737" y1="275.516" x2="46.454" y2="275.516"/>
<line fill="none" stroke="#AAAAAA" stroke-miterlimit="10" x1="46.454" y1="275.516" x2="46.17" y2="275.8"/>
<line fill="none" stroke="#AAAAAA" stroke-miterlimit="10" x1="46.171" y1="275.8" x2="45.886" y2="276.084"/>
<line fill="none" stroke="#AAAAAA" stroke-miterlimit="10" x1="45.886" y1="276.084" x2="45.886" y2="276.369"/>
<line fill="none" stroke="#AAAAAA" stroke-miterlimit="10" x1="45.886" y1="276.368" x2="45.886" y2="292.259"/>
<line fill="none" stroke="#AAAAAA" stroke-miterlimit="10" x1="43.333" y1="255.085" x2="43.333" y2="295.664"/>
<line fill="none" stroke="#AAAAAA" stroke-miterlimit="10" x1="43.333" y1="295.664" x2="63.764" y2="295.664"/>
<line fill="none" stroke="#AAAAAA" stroke-miterlimit="10" x1="63.765" y1="295.664" x2="63.765" y2="255.085"/>
<line fill="none" stroke="#AAAAAA" stroke-miterlimit="10" x1="63.765" y1="255.085" x2="43.333" y2="255.085"/>
<line fill="none" stroke="#AAAAAA" stroke-miterlimit="10" x1="58.657" y1="257.638" x2="58.657" y2="272.962"/>
<line fill="none" stroke="#AAAAAA" stroke-miterlimit="10" x1="56.102" y1="257.638" x2="56.102" y2="272.962"/>
<line fill="none" stroke="#AAAAAA" stroke-miterlimit="10" x1="53.548" y1="257.638" x2="53.548" y2="272.962"/>
<line fill="none" stroke="#AAAAAA" stroke-miterlimit="10" x1="50.993" y1="257.638" x2="50.993" y2="272.962"/>
<line fill="none" stroke="#AAAAAA" stroke-miterlimit="10" x1="48.441" y1="257.638" x2="48.441" y2="272.962"/>
<line fill="none" stroke="#AAAAAA" stroke-miterlimit="10" x1="61.21" y1="272.962" x2="61.21" y2="257.638"/>
<line fill="none" stroke="#AAAAAA" stroke-miterlimit="10" x1="45.886" y1="257.638" x2="45.886" y2="272.962"/>
<line fill="none" stroke="#AAAAAA" stroke-miterlimit="10" x1="62.659" y1="211.933" x2="63.651" y2="211.933"/>
<line fill="none" stroke="#AAAAAA" stroke-miterlimit="10" x1="63.651" y1="211.933" x2="64.892" y2="211.436"/>
<line fill="none" stroke="#AAAAAA" stroke-miterlimit="10" x1="64.892" y1="211.437" x2="65.884" y2="210.692"/>
<line fill="none" stroke="#AAAAAA" stroke-miterlimit="10" x1="65.884" y1="210.692" x2="66.38" y2="209.701"/>
<line fill="none" stroke="#AAAAAA" stroke-miterlimit="10" x1="66.38" y1="209.701" x2="66.876" y2="208.708"/>
<line fill="none" stroke="#AAAAAA" stroke-miterlimit="10" x1="66.876" y1="208.708" x2="67.123" y2="207.468"/>
<line fill="none" stroke="#AAAAAA" stroke-miterlimit="10" x1="67.124" y1="207.468" x2="66.876" y2="206.476"/>
<line fill="none" stroke="#AAAAAA" stroke-miterlimit="10" x1="66.876" y1="206.476" x2="66.38" y2="205.235"/>
<line fill="none" stroke="#AAAAAA" stroke-miterlimit="10" x1="66.38" y1="205.235" x2="65.884" y2="204.491"/>
<line fill="none" stroke="#AAAAAA" stroke-miterlimit="10" x1="65.884" y1="204.491" x2="64.892" y2="203.748"/>
<line fill="none" stroke="#AAAAAA" stroke-miterlimit="10" x1="64.892" y1="203.747" x2="63.651" y2="203.251"/>
<line fill="none" stroke="#AAAAAA" stroke-miterlimit="10" x1="63.651" y1="203.25" x2="62.659" y2="203.002"/>
<line fill="none" stroke="#AAAAAA" stroke-miterlimit="10" x1="62.659" y1="203.002" x2="61.418" y2="203.25"/>
<line fill="none" stroke="#AAAAAA" stroke-miterlimit="10" x1="61.418" y1="203.25" x2="60.427" y2="203.747"/>
<line fill="none" stroke="#AAAAAA" stroke-miterlimit="10" x1="60.427" y1="203.748" x2="59.435" y2="204.491"/>
<line fill="none" stroke="#AAAAAA" stroke-miterlimit="10" x1="59.435" y1="204.491" x2="58.691" y2="205.235"/>
<line fill="none" stroke="#AAAAAA" stroke-miterlimit="10" x1="58.691" y1="205.235" x2="58.443" y2="206.476"/>
<line fill="none" stroke="#AAAAAA" stroke-miterlimit="10" x1="58.443" y1="206.476" x2="58.194" y2="207.468"/>
<line fill="none" stroke="#AAAAAA" stroke-miterlimit="10" x1="58.194" y1="207.468" x2="58.443" y2="208.708"/>
<line fill="none" stroke="#AAAAAA" stroke-miterlimit="10" x1="58.443" y1="208.708" x2="58.691" y2="209.701"/>
<line fill="none" stroke="#AAAAAA" stroke-miterlimit="10" x1="58.691" y1="209.701" x2="59.435" y2="210.692"/>
<line fill="none" stroke="#AAAAAA" stroke-miterlimit="10" x1="59.435" y1="210.692" x2="60.427" y2="211.436"/>
<line fill="none" stroke="#AAAAAA" stroke-miterlimit="10" x1="60.427" y1="211.437" x2="61.418" y2="211.933"/>
<line fill="none" stroke="#AAAAAA" stroke-miterlimit="10" x1="61.418" y1="211.933" x2="62.659" y2="211.933"/>
<line fill="none" stroke="#AAAAAA" stroke-miterlimit="10" x1="49.264" y1="198.538" x2="50.504" y2="198.538"/>
<line fill="none" stroke="#AAAAAA" stroke-miterlimit="10" x1="50.504" y1="198.538" x2="51.497" y2="198.041"/>
<line fill="none" stroke="#AAAAAA" stroke-miterlimit="10" x1="51.497" y1="198.042" x2="52.49" y2="197.298"/>
<line fill="none" stroke="#AAAAAA" stroke-miterlimit="10" x1="52.49" y1="197.298" x2="53.233" y2="196.555"/>
<line fill="none" stroke="#AAAAAA" stroke-miterlimit="10" x1="53.234" y1="196.555" x2="53.482" y2="195.313"/>
<line fill="none" stroke="#AAAAAA" stroke-miterlimit="10" x1="53.481" y1="195.314" x2="53.73" y2="194.322"/>
<line fill="none" stroke="#AAAAAA" stroke-miterlimit="10" x1="53.73" y1="194.322" x2="53.481" y2="193.081"/>
<line fill="none" stroke="#AAAAAA" stroke-miterlimit="10" x1="53.481" y1="193.081" x2="53.233" y2="192.089"/>
<line fill="none" stroke="#AAAAAA" stroke-miterlimit="10" x1="53.234" y1="192.089" x2="52.491" y2="191.097"/>
<line fill="none" stroke="#AAAAAA" stroke-miterlimit="10" x1="52.49" y1="191.097" x2="51.497" y2="190.353"/>
<line fill="none" stroke="#AAAAAA" stroke-miterlimit="10" x1="51.497" y1="190.353" x2="50.504" y2="189.857"/>
<line fill="none" stroke="#AAAAAA" stroke-miterlimit="10" x1="50.504" y1="189.856" x2="49.264" y2="189.856"/>
<line fill="none" stroke="#AAAAAA" stroke-miterlimit="10" x1="49.264" y1="189.856" x2="48.273" y2="189.856"/>
<line fill="none" stroke="#AAAAAA" stroke-miterlimit="10" x1="48.273" y1="189.856" x2="47.032" y2="190.353"/>
<line fill="none" stroke="#AAAAAA" stroke-miterlimit="10" x1="47.032" y1="190.353" x2="46.29" y2="191.097"/>
<line fill="none" stroke="#AAAAAA" stroke-miterlimit="10" x1="46.287" y1="191.097" x2="45.543" y2="192.089"/>
<line fill="none" stroke="#AAAAAA" stroke-miterlimit="10" x1="45.543" y1="192.089" x2="45.048" y2="193.081"/>
<line fill="none" stroke="#AAAAAA" stroke-miterlimit="10" x1="45.048" y1="193.081" x2="44.8" y2="194.322"/>
<line fill="none" stroke="#AAAAAA" stroke-miterlimit="10" x1="44.8" y1="194.322" x2="45.048" y2="195.314"/>
<line fill="none" stroke="#AAAAAA" stroke-miterlimit="10" x1="45.048" y1="195.314" x2="45.543" y2="196.555"/>
<line fill="none" stroke="#AAAAAA" stroke-miterlimit="10" x1="45.543" y1="196.555" x2="46.287" y2="197.298"/>
<line fill="none" stroke="#AAAAAA" stroke-miterlimit="10" x1="46.289" y1="197.298" x2="47.032" y2="198.041"/>
<line fill="none" stroke="#AAAAAA" stroke-miterlimit="10" x1="47.032" y1="198.042" x2="48.273" y2="198.539"/>
<line fill="none" stroke="#AAAAAA" stroke-miterlimit="10" x1="48.273" y1="198.538" x2="49.264" y2="198.538"/>
<line fill="none" stroke="#AAAAAA" stroke-miterlimit="10" x1="49.264" y1="210.692" x2="50.008" y2="210.444"/>
<line fill="none" stroke="#AAAAAA" stroke-miterlimit="10" x1="50.009" y1="210.444" x2="50.753" y2="210.195"/>
<line fill="none" stroke="#AAAAAA" stroke-miterlimit="10" x1="50.753" y1="210.195" x2="51.497" y2="209.701"/>
<line fill="none" stroke="#AAAAAA" stroke-miterlimit="10" x1="51.497" y1="209.701" x2="51.993" y2="209.204"/>
<line fill="none" stroke="#AAAAAA" stroke-miterlimit="10" x1="51.993" y1="209.205" x2="52.242" y2="208.211"/>
<line fill="none" stroke="#AAAAAA" stroke-miterlimit="10" x1="52.242" y1="208.211" x2="52.491" y2="207.468"/>
<line fill="none" stroke="#AAAAAA" stroke-miterlimit="10" x1="52.49" y1="207.468" x2="52.241" y2="206.724"/>
<line fill="none" stroke="#AAAAAA" stroke-miterlimit="10" x1="52.242" y1="206.724" x2="51.993" y2="205.979"/>
<line fill="none" stroke="#AAAAAA" stroke-miterlimit="10" x1="51.993" y1="205.979" x2="51.497" y2="205.235"/>
<line fill="none" stroke="#AAAAAA" stroke-miterlimit="10" x1="51.497" y1="205.235" x2="50.753" y2="204.739"/>
<line fill="none" stroke="#AAAAAA" stroke-miterlimit="10" x1="50.753" y1="204.739" x2="50.009" y2="204.491"/>
<line fill="none" stroke="#AAAAAA" stroke-miterlimit="10" x1="50.009" y1="204.491" x2="49.265" y2="204.491"/>
<line fill="none" stroke="#AAAAAA" stroke-miterlimit="10" x1="49.264" y1="204.491" x2="48.521" y2="204.491"/>
<line fill="none" stroke="#AAAAAA" stroke-miterlimit="10" x1="48.52" y1="204.491" x2="47.776" y2="204.739"/>
<line fill="none" stroke="#AAAAAA" stroke-miterlimit="10" x1="47.776" y1="204.739" x2="47.033" y2="205.235"/>
<line fill="none" stroke="#AAAAAA" stroke-miterlimit="10" x1="47.032" y1="205.235" x2="46.537" y2="205.979"/>
<line fill="none" stroke="#AAAAAA" stroke-miterlimit="10" x1="46.536" y1="205.979" x2="46.289" y2="206.724"/>
<line fill="none" stroke="#AAAAAA" stroke-miterlimit="10" x1="46.289" y1="206.724" x2="46.289" y2="207.468"/>
<line fill="none" stroke="#AAAAAA" stroke-miterlimit="10" x1="46.289" y1="207.468" x2="46.289" y2="208.211"/>
<line fill="none" stroke="#AAAAAA" stroke-miterlimit="10" x1="46.289" y1="208.211" x2="46.536" y2="209.205"/>
<line fill="none" stroke="#AAAAAA" stroke-miterlimit="10" x1="46.536" y1="209.204" x2="47.032" y2="209.701"/>
<line fill="none" stroke="#AAAAAA" stroke-miterlimit="10" x1="47.032" y1="209.701" x2="47.775" y2="210.196"/>
<line fill="none" stroke="#AAAAAA" stroke-miterlimit="10" x1="47.776" y1="210.195" x2="48.52" y2="210.444"/>
<line fill="none" stroke="#AAAAAA" stroke-miterlimit="10" x1="48.52" y1="210.444" x2="49.264" y2="210.692"/>
<line fill="none" stroke="#AAAAAA" stroke-miterlimit="10" x1="62.659" y1="197.298" x2="63.403" y2="197.298"/>
<line fill="none" stroke="#AAAAAA" stroke-miterlimit="10" x1="63.403" y1="197.298" x2="64.146" y2="196.801"/>
<line fill="none" stroke="#AAAAAA" stroke-miterlimit="10" x1="64.147" y1="196.802" x2="64.891" y2="196.306"/>
<line fill="none" stroke="#AAAAAA" stroke-miterlimit="10" x1="64.892" y1="196.305" x2="65.388" y2="195.809"/>
<line fill="none" stroke="#AAAAAA" stroke-miterlimit="10" x1="65.388" y1="195.809" x2="65.636" y2="195.066"/>
<line fill="none" stroke="#AAAAAA" stroke-miterlimit="10" x1="65.636" y1="195.065" x2="65.636" y2="194.322"/>
<line fill="none" stroke="#AAAAAA" stroke-miterlimit="10" x1="65.636" y1="194.322" x2="65.636" y2="193.33"/>
<line fill="none" stroke="#AAAAAA" stroke-miterlimit="10" x1="65.636" y1="193.33" x2="65.388" y2="192.586"/>
<line fill="none" stroke="#AAAAAA" stroke-miterlimit="10" x1="65.388" y1="192.586" x2="64.892" y2="192.089"/>
<line fill="none" stroke="#AAAAAA" stroke-miterlimit="10" x1="64.891" y1="192.089" x2="64.147" y2="191.593"/>
<line fill="none" stroke="#AAAAAA" stroke-miterlimit="10" x1="64.147" y1="191.592" x2="63.404" y2="191.097"/>
<line fill="none" stroke="#AAAAAA" stroke-miterlimit="10" x1="63.403" y1="191.097" x2="62.659" y2="191.097"/>
<line fill="none" stroke="#AAAAAA" stroke-miterlimit="10" x1="62.659" y1="191.097" x2="61.916" y2="191.097"/>
<line fill="none" stroke="#AAAAAA" stroke-miterlimit="10" x1="61.916" y1="191.097" x2="61.171" y2="191.593"/>
<line fill="none" stroke="#AAAAAA" stroke-miterlimit="10" x1="61.17" y1="191.592" x2="60.428" y2="192.088"/>
<line fill="none" stroke="#AAAAAA" stroke-miterlimit="10" x1="60.427" y1="192.089" x2="59.93" y2="192.586"/>
<line fill="none" stroke="#AAAAAA" stroke-miterlimit="10" x1="59.932" y1="192.586" x2="59.683" y2="193.33"/>
<line fill="none" stroke="#AAAAAA" stroke-miterlimit="10" x1="59.683" y1="193.33" x2="59.435" y2="194.322"/>
<line fill="none" stroke="#AAAAAA" stroke-miterlimit="10" x1="59.435" y1="194.322" x2="59.683" y2="195.065"/>
<line fill="none" stroke="#AAAAAA" stroke-miterlimit="10" x1="59.683" y1="195.065" x2="59.932" y2="195.808"/>
<line fill="none" stroke="#AAAAAA" stroke-miterlimit="10" x1="59.93" y1="195.809" x2="60.427" y2="196.305"/>
<line fill="none" stroke="#AAAAAA" stroke-miterlimit="10" x1="60.427" y1="196.305" x2="61.17" y2="196.801"/>
<line fill="none" stroke="#AAAAAA" stroke-miterlimit="10" x1="61.17" y1="196.802" x2="61.916" y2="197.299"/>
<line fill="none" stroke="#AAAAAA" stroke-miterlimit="10" x1="61.916" y1="197.298" x2="62.659" y2="197.298"/>
<line fill="none" stroke="#AAAAAA" stroke-miterlimit="10" x1="42.567" y1="187.625" x2="42.567" y2="214.165"/>
<line fill="none" stroke="#AAAAAA" stroke-miterlimit="10" x1="42.567" y1="214.165" x2="69.356" y2="214.165"/>
<line fill="none" stroke="#AAAAAA" stroke-miterlimit="10" x1="69.356" y1="214.165" x2="69.356" y2="187.625"/>
<line fill="none" stroke="#AAAAAA" stroke-miterlimit="10" x1="69.356" y1="187.625" x2="42.567" y2="187.625"/>
</svg>
