<?xml version="1.0" encoding="utf-8"?>
<!-- Generator: Adobe Illustrator 15.0.2, SVG Export Plug-In  -->
<!DOCTYPE svg PUBLIC "-//W3C//DTD SVG 1.1//EN" "http://www.w3.org/Graphics/SVG/1.1/DTD/svg11.dtd" [
	<!ENTITY ns_flows "http://ns.adobe.com/Flows/1.0/">
]>
<svg version="1.1"
	 xmlns="http://www.w3.org/2000/svg" xmlns:xlink="http://www.w3.org/1999/xlink" xmlns:a="http://ns.adobe.com/AdobeSVGViewerExtensions/3.0/"
	 x="0px" y="0px" width="872px" height="458px" viewBox="0 0 872 458" enable-background="new 0 0 872 458" xml:space="preserve">
<defs>
</defs>
<rect x="418.34" y="269.821" fill="none" stroke="#AAAAAA" stroke-miterlimit="10" width="329.848" height="9.59"/>
<rect x="361.279" y="20.009" fill="none" stroke="#AAAAAA" stroke-miterlimit="10" width="31.647" height="11.987"/>
<polygon fill="none" stroke="#AAAAAA" stroke-miterlimit="10" points="292.233,20.009 172.841,20.009 172.841,31.996 
	321.002,31.996 321.002,20.009 298.946,20.009 "/>
<polyline fill="none" stroke="#AAAAAA" stroke-miterlimit="10" points="748.704,406.477 748.704,401.201 558.348,401.201 
	558.348,436.684 "/>
<g>
	<defs>
		<rect id="SVGID_3_" width="872.125" height="457.5"/>
	</defs>
	<clipPath id="SVGID_4_">
		<use xlink:href="#SVGID_3_"  overflow="visible"/>
	</clipPath>
	<polyline clip-path="url(#SVGID_4_)" fill="none" stroke="#AAAAAA" stroke-miterlimit="10" points="771.24,456.342 
		871.453,456.342 871.453,288.521 771.24,288.521 	"/>
</g>
<line fill="none" stroke="#AAAAAA" stroke-miterlimit="10" x1="393.886" y1="342.703" x2="297.987" y2="342.703"/>
<line fill="none" stroke="#AAAAAA" stroke-miterlimit="10" x1="296.078" y1="333.196" x2="296.078" y2="437.643"/>
<line fill="none" stroke="#AAAAAA" stroke-miterlimit="10" x1="296.078" y1="294.656" x2="297.028" y2="183.462"/>
<line fill="none" stroke="#AAAAAA" stroke-miterlimit="10" x1="172.841" y1="229.546" x2="296.082" y2="229.546"/>
<line fill="none" stroke="#AAAAAA" stroke-miterlimit="10" x1="174.759" y1="97.686" x2="298" y2="97.686"/>
<line fill="none" stroke="#AAAAAA" stroke-miterlimit="10" x1="298.946" y1="82.885" x2="298.946" y2="144.923"/>
<g>
	<defs>
		<rect id="SVGID_2_" width="872.125" height="457.5"/>
	</defs>
	<clipPath id="SVGID_5_">
		<use xlink:href="#SVGID_2_"  overflow="visible"/>
	</clipPath>
	<path clip-path="url(#SVGID_5_)" fill="none" stroke="#AAAAAA" stroke-miterlimit="10" d="M356.978,14.058l0.448,7.189
		 M355.416,7.159l1.562,6.899 M353.18,0.547l2.236,6.612"/>
	
		<line clip-path="url(#SVGID_5_)" fill="none" stroke="#AAAAAA" stroke-miterlimit="10" x1="353.18" y1="0.547" x2="325.486" y2="21.247"/>
</g>
<line fill="none" stroke="#AAAAAA" stroke-miterlimit="10" x1="325.486" y1="21.246" x2="321.575" y2="21.246"/>
<line fill="none" stroke="#AAAAAA" stroke-miterlimit="10" x1="360.116" y1="21.246" x2="357.166" y2="21.246"/>
<path fill="none" stroke="#AAAAAA" stroke-miterlimit="10" d="M299.933,47.035l7.189,0.447 M307.122,47.482l6.9,1.563
	 M314.021,49.045l6.612,2.235"/>
<line fill="none" stroke="#AAAAAA" stroke-miterlimit="10" x1="320.633" y1="51.281" x2="299.933" y2="78.975"/>
<line fill="none" stroke="#AAAAAA" stroke-miterlimit="10" x1="299.935" y1="78.975" x2="299.935" y2="82.886"/>
<line fill="none" stroke="#AAAAAA" stroke-miterlimit="10" x1="299.935" y1="31.871" x2="299.935" y2="47.296"/>
<path fill="none" stroke="#AAAAAA" stroke-miterlimit="10" d="M305.186,180.326l-7.188,0.447 M312.086,178.763l-6.9,1.563
	 M318.698,176.528l-6.612,2.235"/>
<line fill="none" stroke="#AAAAAA" stroke-miterlimit="10" x1="318.698" y1="176.528" x2="297.998" y2="148.834"/>
<line fill="none" stroke="#AAAAAA" stroke-miterlimit="10" x1="298" y1="148.833" x2="298" y2="144.923"/>
<line fill="none" stroke="#AAAAAA" stroke-miterlimit="10" x1="298" y1="183.462" x2="298" y2="180.513"/>
<path fill="none" stroke="#AAAAAA" stroke-miterlimit="10" d="M412.584,163.854l10.736,0.667 M423.32,164.521l10.301,2.335
	 M433.622,166.855l9.873,3.337"/>
<line fill="none" stroke="#AAAAAA" stroke-miterlimit="10" x1="443.494" y1="170.192" x2="412.584" y2="211.545"/>
<line fill="none" stroke="#AAAAAA" stroke-miterlimit="10" x1="412.586" y1="211.545" x2="412.586" y2="229.859"/>
<line fill="none" stroke="#AAAAAA" stroke-miterlimit="10" x1="412.586" y1="159.837" x2="412.586" y2="164.243"/>
<path fill="none" stroke="#AAAAAA" stroke-miterlimit="10" d="M414.635,302.521l5.057,0.315 M419.692,302.836l4.853,1.099
	 M424.545,303.935l4.653,1.572"/>
<line fill="none" stroke="#AAAAAA" stroke-miterlimit="10" x1="429.197" y1="305.507" x2="414.634" y2="324.989"/>
<line fill="none" stroke="#AAAAAA" stroke-miterlimit="10" x1="414.635" y1="324.989" x2="414.635" y2="327.74"/>
<line fill="none" stroke="#AAAAAA" stroke-miterlimit="10" x1="414.635" y1="300.629" x2="414.635" y2="302.703"/>
<path fill="none" stroke="#AAAAAA" stroke-miterlimit="10" d="M288.89,297.793l7.19-0.446 M281.992,299.356l6.898-1.563
	 M275.379,301.592l6.612-2.235"/>
<line fill="none" stroke="#AAAAAA" stroke-miterlimit="10" x1="275.379" y1="301.592" x2="296.08" y2="329.285"/>
<line fill="none" stroke="#AAAAAA" stroke-miterlimit="10" x1="296.078" y1="329.285" x2="296.078" y2="333.196"/>
<line fill="none" stroke="#AAAAAA" stroke-miterlimit="10" x1="296.078" y1="294.656" x2="296.078" y2="297.606"/>
<path fill="#AAAAAA" d="M771.239,172.965h-22.535V87.628h22.535V172.965z M772.239,86.628h-1h-22.535h-1v1v85.337v1h1h22.535h1v-1
	V87.628V86.628z"/>
<path fill="#AAAAAA" d="M771.239,320.898h-22.535v-64.752h22.535V320.898z M772.239,255.146h-1h-22.535h-1v1v64.752v1h1h22.535h1v-1
	v-64.752V255.146z"/>
<path fill="#AAAAAA" d="M765.007,255h-10.549v-81.125h10.549V255z M766.007,172.875h-1h-10.549h-1v1V255v1h1h10.549h1v-1v-81.125
	V172.875z"/>
<path fill="#AAAAAA" d="M395.322,437.641V329.278h19.659v107.404h333.723v-30.207l22.536-0.001v49.867H1.184v-52.264h18.701v33.563
	H395.322z M414.981,328.278h-19.659h-1v1v107.363H20.885v-32.563v-1h-1H1.184h-1v1v52.264v1h1H771.24h1v-1v-49.867v-1h-1
	l-22.536,0.001h-1v1v29.207H415.982V329.278v-1H414.981z"/>
<polygon fill="none" stroke="#AAAAAA" stroke-miterlimit="10" points="392.925,2.77 392.925,159.06 417.379,159.06 417.379,114.946 
	747.265,114.946 747.265,101.045 417.379,101.046 417.379,2.77 "/>
<path fill="#AAAAAA" d="M417.379,298.591h-24.454v-66.648h24.454V298.591z M418.379,230.942h-1h-24.454h-1v1v66.648v1h1h24.454h1v-1
	v-66.648V230.942z"/>
<path fill="#AAAAAA" d="M16.049,402.224H5.021v-81.639h11.028V402.224z M17.049,319.585h-1H5.021h-1v1v81.639v1h1h11.028h1v-1
	v-81.639V319.585z"/>
<line fill="none" stroke="#AAAAAA" stroke-miterlimit="10" x1="183.268" y1="59.469" x2="182.946" y2="59.469"/>
<line fill="none" stroke="#AAAAAA" stroke-miterlimit="10" x1="182.945" y1="59.469" x2="182.622" y2="59.469"/>
<line fill="none" stroke="#AAAAAA" stroke-miterlimit="10" x1="182.622" y1="59.469" x2="182.622" y2="59.792"/>
<line fill="none" stroke="#AAAAAA" stroke-miterlimit="10" x1="182.622" y1="59.792" x2="182.299" y2="60.114"/>
<line fill="none" stroke="#AAAAAA" stroke-miterlimit="10" x1="182.299" y1="60.114" x2="182.299" y2="60.436"/>
<line fill="none" stroke="#AAAAAA" stroke-miterlimit="10" x1="182.299" y1="60.436" x2="182.299" y2="60.76"/>
<line fill="none" stroke="#AAAAAA" stroke-miterlimit="10" x1="182.299" y1="60.76" x2="182.299" y2="61.08"/>
<line fill="none" stroke="#AAAAAA" stroke-miterlimit="10" x1="182.299" y1="61.08" x2="182.621" y2="61.402"/>
<line fill="none" stroke="#AAAAAA" stroke-miterlimit="10" x1="182.622" y1="61.402" x2="182.945" y2="61.727"/>
<line fill="none" stroke="#AAAAAA" stroke-miterlimit="10" x1="182.945" y1="61.727" x2="183.268" y2="61.727"/>
<line fill="none" stroke="#AAAAAA" stroke-miterlimit="10" x1="183.268" y1="61.727" x2="183.588" y2="61.727"/>
<line fill="none" stroke="#AAAAAA" stroke-miterlimit="10" x1="183.588" y1="61.727" x2="183.912" y2="61.402"/>
<line fill="none" stroke="#AAAAAA" stroke-miterlimit="10" x1="183.912" y1="61.402" x2="184.234" y2="61.402"/>
<line fill="none" stroke="#AAAAAA" stroke-miterlimit="10" x1="184.234" y1="61.402" x2="184.234" y2="61.081"/>
<line fill="none" stroke="#AAAAAA" stroke-miterlimit="10" x1="184.234" y1="61.08" x2="184.556" y2="60.76"/>
<line fill="none" stroke="#AAAAAA" stroke-miterlimit="10" x1="184.556" y1="60.76" x2="184.556" y2="60.436"/>
<line fill="none" stroke="#AAAAAA" stroke-miterlimit="10" x1="184.556" y1="60.436" x2="184.556" y2="60.114"/>
<line fill="none" stroke="#AAAAAA" stroke-miterlimit="10" x1="184.556" y1="60.114" x2="184.234" y2="60.114"/>
<line fill="none" stroke="#AAAAAA" stroke-miterlimit="10" x1="184.234" y1="60.114" x2="184.234" y2="59.792"/>
<line fill="none" stroke="#AAAAAA" stroke-miterlimit="10" x1="184.234" y1="59.792" x2="183.912" y2="59.47"/>
<line fill="none" stroke="#AAAAAA" stroke-miterlimit="10" x1="183.912" y1="59.469" x2="183.588" y2="59.469"/>
<line fill="none" stroke="#AAAAAA" stroke-miterlimit="10" x1="183.588" y1="59.469" x2="183.268" y2="59.469"/>
<line fill="none" stroke="#AAAAAA" stroke-miterlimit="10" x1="191.972" y1="67.529" x2="194.55" y2="68.497"/>
<line fill="none" stroke="#AAAAAA" stroke-miterlimit="10" x1="194.551" y1="68.497" x2="197.773" y2="69.139"/>
<line fill="none" stroke="#AAAAAA" stroke-miterlimit="10" x1="197.774" y1="69.14" x2="200.997" y2="69.14"/>
<line fill="none" stroke="#AAAAAA" stroke-miterlimit="10" x1="200.998" y1="69.14" x2="204.223" y2="68.818"/>
<line fill="none" stroke="#AAAAAA" stroke-miterlimit="10" x1="204.223" y1="68.817" x2="207.124" y2="68.174"/>
<line fill="none" stroke="#AAAAAA" stroke-miterlimit="10" x1="207.124" y1="68.173" x2="209.703" y2="67.207"/>
<line fill="none" stroke="#AAAAAA" stroke-miterlimit="10" x1="209.703" y1="67.207" x2="211.96" y2="65.917"/>
<line fill="none" stroke="#AAAAAA" stroke-miterlimit="10" x1="211.96" y1="65.917" x2="213.573" y2="64.305"/>
<line fill="none" stroke="#AAAAAA" stroke-miterlimit="10" x1="213.573" y1="64.306" x2="214.539" y2="62.371"/>
<line fill="none" stroke="#AAAAAA" stroke-miterlimit="10" x1="214.539" y1="62.371" x2="215.183" y2="60.436"/>
<line fill="none" stroke="#AAAAAA" stroke-miterlimit="10" x1="215.184" y1="60.436" x2="214.54" y2="58.501"/>
<line fill="none" stroke="#AAAAAA" stroke-miterlimit="10" x1="214.539" y1="58.501" x2="213.573" y2="56.89"/>
<line fill="none" stroke="#AAAAAA" stroke-miterlimit="10" x1="213.573" y1="56.891" x2="211.96" y2="55.277"/>
<line fill="none" stroke="#AAAAAA" stroke-miterlimit="10" x1="211.96" y1="55.278" x2="209.703" y2="53.989"/>
<line fill="none" stroke="#AAAAAA" stroke-miterlimit="10" x1="209.703" y1="53.989" x2="207.124" y2="52.699"/>
<line fill="none" stroke="#AAAAAA" stroke-miterlimit="10" x1="207.124" y1="52.699" x2="204.223" y2="52.055"/>
<line fill="none" stroke="#AAAAAA" stroke-miterlimit="10" x1="204.223" y1="52.054" x2="200.998" y2="51.732"/>
<line fill="none" stroke="#AAAAAA" stroke-miterlimit="10" x1="200.998" y1="51.732" x2="197.774" y2="52.054"/>
<line fill="none" stroke="#AAAAAA" stroke-miterlimit="10" x1="197.774" y1="52.054" x2="194.551" y2="52.698"/>
<line fill="none" stroke="#AAAAAA" stroke-miterlimit="10" x1="194.551" y1="52.699" x2="191.972" y2="53.667"/>
<line fill="none" stroke="#AAAAAA" stroke-miterlimit="10" x1="191.972" y1="53.667" x2="191.972" y2="67.529"/>
<line fill="none" stroke="#AAAAAA" stroke-miterlimit="10" x1="189.07" y1="51.732" x2="189.07" y2="69.14"/>
<line fill="none" stroke="#AAAAAA" stroke-miterlimit="10" x1="189.07" y1="69.14" x2="189.07" y2="69.786"/>
<line fill="none" stroke="#AAAAAA" stroke-miterlimit="10" x1="189.07" y1="69.786" x2="188.748" y2="70.752"/>
<line fill="none" stroke="#AAAAAA" stroke-miterlimit="10" x1="188.748" y1="70.752" x2="188.104" y2="71.074"/>
<line fill="none" stroke="#AAAAAA" stroke-miterlimit="10" x1="188.104" y1="71.075" x2="194.229" y2="71.075"/>
<line fill="none" stroke="#AAAAAA" stroke-miterlimit="10" x1="194.229" y1="71.075" x2="197.452" y2="72.041"/>
<line fill="none" stroke="#AAAAAA" stroke-miterlimit="10" x1="197.452" y1="72.041" x2="200.998" y2="72.041"/>
<line fill="none" stroke="#AAAAAA" stroke-miterlimit="10" x1="200.998" y1="72.041" x2="204.544" y2="71.719"/>
<line fill="none" stroke="#AAAAAA" stroke-miterlimit="10" x1="204.545" y1="71.719" x2="208.092" y2="71.075"/>
<line fill="none" stroke="#AAAAAA" stroke-miterlimit="10" x1="208.092" y1="71.075" x2="210.993" y2="69.786"/>
<line fill="none" stroke="#AAAAAA" stroke-miterlimit="10" x1="210.994" y1="69.786" x2="213.573" y2="68.173"/>
<line fill="none" stroke="#AAAAAA" stroke-miterlimit="10" x1="213.573" y1="68.173" x2="215.828" y2="66.238"/>
<line fill="none" stroke="#AAAAAA" stroke-miterlimit="10" x1="215.828" y1="66.24" x2="217.118" y2="63.981"/>
<line fill="none" stroke="#AAAAAA" stroke-miterlimit="10" x1="217.118" y1="63.981" x2="217.762" y2="61.727"/>
<line fill="none" stroke="#AAAAAA" stroke-miterlimit="10" x1="217.763" y1="61.727" x2="217.763" y2="59.469"/>
<line fill="none" stroke="#AAAAAA" stroke-miterlimit="10" x1="217.763" y1="59.469" x2="217.119" y2="56.891"/>
<line fill="none" stroke="#AAAAAA" stroke-miterlimit="10" x1="217.118" y1="56.891" x2="215.828" y2="54.956"/>
<line fill="none" stroke="#AAAAAA" stroke-miterlimit="10" x1="215.828" y1="54.956" x2="213.573" y2="53.021"/>
<line fill="none" stroke="#AAAAAA" stroke-miterlimit="10" x1="213.573" y1="53.021" x2="210.994" y2="51.41"/>
<line fill="none" stroke="#AAAAAA" stroke-miterlimit="10" x1="210.994" y1="51.41" x2="208.093" y2="50.12"/>
<line fill="none" stroke="#AAAAAA" stroke-miterlimit="10" x1="208.092" y1="50.119" x2="204.545" y2="49.151"/>
<line fill="none" stroke="#AAAAAA" stroke-miterlimit="10" x1="204.545" y1="49.151" x2="200.998" y2="49.151"/>
<line fill="none" stroke="#AAAAAA" stroke-miterlimit="10" x1="200.998" y1="49.151" x2="197.452" y2="49.151"/>
<line fill="none" stroke="#AAAAAA" stroke-miterlimit="10" x1="197.452" y1="49.151" x2="194.229" y2="49.797"/>
<line fill="none" stroke="#AAAAAA" stroke-miterlimit="10" x1="194.229" y1="49.797" x2="188.104" y2="49.797"/>
<line fill="none" stroke="#AAAAAA" stroke-miterlimit="10" x1="188.104" y1="49.797" x2="188.748" y2="50.441"/>
<line fill="none" stroke="#AAAAAA" stroke-miterlimit="10" x1="188.748" y1="50.442" x2="189.07" y2="51.086"/>
<line fill="none" stroke="#AAAAAA" stroke-miterlimit="10" x1="189.07" y1="51.086" x2="189.07" y2="51.732"/>
<line fill="none" stroke="#AAAAAA" stroke-miterlimit="10" x1="177.463" y1="69.14" x2="177.787" y2="69.786"/>
<line fill="none" stroke="#AAAAAA" stroke-miterlimit="10" x1="177.787" y1="69.786" x2="177.787" y2="70.752"/>
<line fill="none" stroke="#AAAAAA" stroke-miterlimit="10" x1="177.787" y1="70.752" x2="178.431" y2="71.074"/>
<line fill="none" stroke="#AAAAAA" stroke-miterlimit="10" x1="178.432" y1="71.075" x2="179.076" y2="71.719"/>
<line fill="none" stroke="#AAAAAA" stroke-miterlimit="10" x1="179.076" y1="71.719" x2="179.72" y2="72.041"/>
<line fill="none" stroke="#AAAAAA" stroke-miterlimit="10" x1="179.72" y1="72.041" x2="180.366" y2="72.041"/>
<line fill="none" stroke="#AAAAAA" stroke-miterlimit="10" x1="180.366" y1="72.041" x2="186.169" y2="72.041"/>
<line fill="none" stroke="#AAAAAA" stroke-miterlimit="10" x1="186.167" y1="72.041" x2="186.813" y2="72.041"/>
<line fill="none" stroke="#AAAAAA" stroke-miterlimit="10" x1="186.813" y1="72.041" x2="187.779" y2="71.719"/>
<line fill="none" stroke="#AAAAAA" stroke-miterlimit="10" x1="187.78" y1="71.719" x2="188.104" y2="71.075"/>
<line fill="none" stroke="#AAAAAA" stroke-miterlimit="10" x1="188.104" y1="71.075" x2="188.748" y2="70.752"/>
<line fill="none" stroke="#AAAAAA" stroke-miterlimit="10" x1="188.748" y1="70.752" x2="189.07" y2="69.787"/>
<line fill="none" stroke="#AAAAAA" stroke-miterlimit="10" x1="189.07" y1="69.786" x2="189.07" y2="69.14"/>
<line fill="none" stroke="#AAAAAA" stroke-miterlimit="10" x1="189.07" y1="69.14" x2="189.07" y2="51.732"/>
<line fill="none" stroke="#AAAAAA" stroke-miterlimit="10" x1="189.07" y1="51.732" x2="189.07" y2="51.086"/>
<line fill="none" stroke="#AAAAAA" stroke-miterlimit="10" x1="189.07" y1="51.086" x2="188.748" y2="50.442"/>
<line fill="none" stroke="#AAAAAA" stroke-miterlimit="10" x1="188.748" y1="50.442" x2="188.104" y2="49.798"/>
<line fill="none" stroke="#AAAAAA" stroke-miterlimit="10" x1="188.104" y1="49.797" x2="187.78" y2="49.475"/>
<line fill="none" stroke="#AAAAAA" stroke-miterlimit="10" x1="187.78" y1="49.475" x2="186.813" y2="49.151"/>
<line fill="none" stroke="#AAAAAA" stroke-miterlimit="10" x1="186.813" y1="49.151" x2="186.167" y2="49.151"/>
<line fill="none" stroke="#AAAAAA" stroke-miterlimit="10" x1="186.169" y1="49.151" x2="180.366" y2="49.151"/>
<line fill="none" stroke="#AAAAAA" stroke-miterlimit="10" x1="180.366" y1="49.151" x2="179.72" y2="49.151"/>
<line fill="none" stroke="#AAAAAA" stroke-miterlimit="10" x1="179.72" y1="49.151" x2="179.076" y2="49.475"/>
<line fill="none" stroke="#AAAAAA" stroke-miterlimit="10" x1="179.076" y1="49.475" x2="178.432" y2="49.797"/>
<line fill="none" stroke="#AAAAAA" stroke-miterlimit="10" x1="178.432" y1="49.797" x2="177.788" y2="50.441"/>
<line fill="none" stroke="#AAAAAA" stroke-miterlimit="10" x1="177.787" y1="50.442" x2="177.787" y2="51.086"/>
<line fill="none" stroke="#AAAAAA" stroke-miterlimit="10" x1="177.787" y1="51.086" x2="177.463" y2="51.732"/>
<line fill="none" stroke="#AAAAAA" stroke-miterlimit="10" x1="177.463" y1="51.732" x2="177.463" y2="69.14"/>
<line fill="none" stroke="#AAAAAA" stroke-miterlimit="10" x1="655.153" y1="420.211" x2="655.153" y2="419.901"/>
<line fill="none" stroke="#AAAAAA" stroke-miterlimit="10" x1="655.153" y1="419.901" x2="655.153" y2="419.591"/>
<line fill="none" stroke="#AAAAAA" stroke-miterlimit="10" x1="655.153" y1="419.591" x2="654.845" y2="419.281"/>
<line fill="none" stroke="#AAAAAA" stroke-miterlimit="10" x1="654.845" y1="419.281" x2="654.533" y2="418.971"/>
<line fill="none" stroke="#AAAAAA" stroke-miterlimit="10" x1="654.533" y1="418.971" x2="654.225" y2="418.971"/>
<line fill="none" stroke="#AAAAAA" stroke-miterlimit="10" x1="654.225" y1="418.971" x2="653.915" y2="418.971"/>
<line fill="none" stroke="#AAAAAA" stroke-miterlimit="10" x1="653.915" y1="418.971" x2="653.604" y2="419.281"/>
<line fill="none" stroke="#AAAAAA" stroke-miterlimit="10" x1="653.604" y1="419.281" x2="653.296" y2="419.281"/>
<line fill="none" stroke="#AAAAAA" stroke-miterlimit="10" x1="653.296" y1="419.281" x2="653.296" y2="419.591"/>
<line fill="none" stroke="#AAAAAA" stroke-miterlimit="10" x1="653.296" y1="419.591" x2="652.986" y2="419.902"/>
<line fill="none" stroke="#AAAAAA" stroke-miterlimit="10" x1="652.986" y1="419.901" x2="652.986" y2="420.211"/>
<line fill="none" stroke="#AAAAAA" stroke-miterlimit="10" x1="652.986" y1="420.211" x2="652.986" y2="420.521"/>
<line fill="none" stroke="#AAAAAA" stroke-miterlimit="10" x1="652.986" y1="420.521" x2="653.296" y2="420.831"/>
<line fill="none" stroke="#AAAAAA" stroke-miterlimit="10" x1="653.296" y1="420.831" x2="653.604" y2="421.142"/>
<line fill="none" stroke="#AAAAAA" stroke-miterlimit="10" x1="653.604" y1="421.142" x2="653.916" y2="421.142"/>
<line fill="none" stroke="#AAAAAA" stroke-miterlimit="10" x1="653.915" y1="421.142" x2="654.225" y2="421.142"/>
<line fill="none" stroke="#AAAAAA" stroke-miterlimit="10" x1="654.225" y1="421.142" x2="654.533" y2="421.142"/>
<line fill="none" stroke="#AAAAAA" stroke-miterlimit="10" x1="654.533" y1="421.142" x2="654.845" y2="421.142"/>
<line fill="none" stroke="#AAAAAA" stroke-miterlimit="10" x1="654.845" y1="421.142" x2="654.845" y2="420.831"/>
<line fill="none" stroke="#AAAAAA" stroke-miterlimit="10" x1="654.845" y1="420.831" x2="655.153" y2="420.831"/>
<line fill="none" stroke="#AAAAAA" stroke-miterlimit="10" x1="655.153" y1="420.831" x2="655.153" y2="420.521"/>
<line fill="none" stroke="#AAAAAA" stroke-miterlimit="10" x1="655.153" y1="420.521" x2="655.153" y2="420.211"/>
<line fill="none" stroke="#AAAAAA" stroke-miterlimit="10" x1="662.902" y1="423.001" x2="663.213" y2="423.001"/>
<line fill="none" stroke="#AAAAAA" stroke-miterlimit="10" x1="663.213" y1="423.001" x2="663.213" y2="422.69"/>
<line fill="none" stroke="#AAAAAA" stroke-miterlimit="10" x1="663.213" y1="422.69" x2="663.524" y2="422.69"/>
<line fill="none" stroke="#AAAAAA" stroke-miterlimit="10" x1="663.523" y1="422.69" x2="663.831" y2="422.382"/>
<line fill="none" stroke="#AAAAAA" stroke-miterlimit="10" x1="663.831" y1="422.382" x2="663.831" y2="422.07"/>
<line fill="none" stroke="#AAAAAA" stroke-miterlimit="10" x1="663.831" y1="422.07" x2="663.831" y2="421.76"/>
<line fill="none" stroke="#AAAAAA" stroke-miterlimit="10" x1="663.831" y1="421.76" x2="663.831" y2="407.505"/>
<line fill="none" stroke="#AAAAAA" stroke-miterlimit="10" x1="663.831" y1="407.505" x2="663.831" y2="407.193"/>
<line fill="none" stroke="#AAAAAA" stroke-miterlimit="10" x1="663.831" y1="407.193" x2="663.831" y2="406.885"/>
<line fill="none" stroke="#AAAAAA" stroke-miterlimit="10" x1="663.831" y1="406.885" x2="663.524" y2="406.575"/>
<line fill="none" stroke="#AAAAAA" stroke-miterlimit="10" x1="663.523" y1="406.575" x2="663.213" y2="406.575"/>
<line fill="none" stroke="#AAAAAA" stroke-miterlimit="10" x1="663.213" y1="406.575" x2="663.213" y2="406.265"/>
<line fill="none" stroke="#AAAAAA" stroke-miterlimit="10" x1="663.213" y1="406.265" x2="662.902" y2="406.265"/>
<line fill="none" stroke="#AAAAAA" stroke-miterlimit="10" x1="662.902" y1="406.265" x2="645.547" y2="406.265"/>
<line fill="none" stroke="#AAAAAA" stroke-miterlimit="10" x1="645.547" y1="406.265" x2="645.236" y2="406.265"/>
<line fill="none" stroke="#AAAAAA" stroke-miterlimit="10" x1="645.236" y1="406.265" x2="644.927" y2="406.575"/>
<line fill="none" stroke="#AAAAAA" stroke-miterlimit="10" x1="644.927" y1="406.575" x2="644.616" y2="406.885"/>
<line fill="none" stroke="#AAAAAA" stroke-miterlimit="10" x1="644.616" y1="406.885" x2="644.616" y2="407.193"/>
<line fill="none" stroke="#AAAAAA" stroke-miterlimit="10" x1="644.616" y1="407.193" x2="644.616" y2="407.505"/>
<line fill="none" stroke="#AAAAAA" stroke-miterlimit="10" x1="644.616" y1="407.505" x2="644.616" y2="421.76"/>
<line fill="none" stroke="#AAAAAA" stroke-miterlimit="10" x1="644.616" y1="421.76" x2="644.616" y2="422.071"/>
<line fill="none" stroke="#AAAAAA" stroke-miterlimit="10" x1="644.616" y1="422.07" x2="644.616" y2="422.382"/>
<line fill="none" stroke="#AAAAAA" stroke-miterlimit="10" x1="644.616" y1="422.382" x2="644.927" y2="422.69"/>
<line fill="none" stroke="#AAAAAA" stroke-miterlimit="10" x1="644.927" y1="422.69" x2="645.236" y2="423.001"/>
<line fill="none" stroke="#AAAAAA" stroke-miterlimit="10" x1="645.236" y1="423.001" x2="645.547" y2="423.001"/>
<line fill="none" stroke="#AAAAAA" stroke-miterlimit="10" x1="645.547" y1="423.001" x2="662.902" y2="423.001"/>
<line fill="none" stroke="#AAAAAA" stroke-miterlimit="10" x1="622.303" y1="425.79" x2="666.622" y2="425.79"/>
<line fill="none" stroke="#AAAAAA" stroke-miterlimit="10" x1="666.622" y1="425.79" x2="666.622" y2="403.475"/>
<line fill="none" stroke="#AAAAAA" stroke-miterlimit="10" x1="666.622" y1="403.475" x2="622.303" y2="403.475"/>
<line fill="none" stroke="#AAAAAA" stroke-miterlimit="10" x1="622.303" y1="403.475" x2="622.303" y2="425.791"/>
<line fill="none" stroke="#AAAAAA" stroke-miterlimit="10" x1="625.092" y1="409.054" x2="641.827" y2="409.054"/>
<line fill="none" stroke="#AAAAAA" stroke-miterlimit="10" x1="625.092" y1="411.844" x2="641.827" y2="411.844"/>
<line fill="none" stroke="#AAAAAA" stroke-miterlimit="10" x1="625.092" y1="414.633" x2="641.827" y2="414.633"/>
<line fill="none" stroke="#AAAAAA" stroke-miterlimit="10" x1="625.092" y1="417.423" x2="641.827" y2="417.423"/>
<line fill="none" stroke="#AAAAAA" stroke-miterlimit="10" x1="625.092" y1="420.211" x2="641.827" y2="420.211"/>
<line fill="none" stroke="#AAAAAA" stroke-miterlimit="10" x1="641.827" y1="406.265" x2="625.092" y2="406.265"/>
<line fill="none" stroke="#AAAAAA" stroke-miterlimit="10" x1="625.092" y1="423.001" x2="641.827" y2="423.001"/>
<line fill="none" stroke="#AAAAAA" stroke-miterlimit="10" x1="723.102" y1="430.614" x2="724.185" y2="430.614"/>
<line fill="none" stroke="#AAAAAA" stroke-miterlimit="10" x1="724.185" y1="430.614" x2="725.541" y2="430.073"/>
<line fill="none" stroke="#AAAAAA" stroke-miterlimit="10" x1="725.541" y1="430.073" x2="726.623" y2="429.26"/>
<line fill="none" stroke="#AAAAAA" stroke-miterlimit="10" x1="726.623" y1="429.261" x2="727.164" y2="428.178"/>
<line fill="none" stroke="#AAAAAA" stroke-miterlimit="10" x1="727.164" y1="428.178" x2="727.707" y2="427.093"/>
<line fill="none" stroke="#AAAAAA" stroke-miterlimit="10" x1="727.708" y1="427.093" x2="727.978" y2="425.739"/>
<line fill="none" stroke="#AAAAAA" stroke-miterlimit="10" x1="727.978" y1="425.739" x2="727.707" y2="424.654"/>
<line fill="none" stroke="#AAAAAA" stroke-miterlimit="10" x1="727.708" y1="424.654" x2="727.164" y2="423.301"/>
<line fill="none" stroke="#AAAAAA" stroke-miterlimit="10" x1="727.164" y1="423.301" x2="726.623" y2="422.487"/>
<line fill="none" stroke="#AAAAAA" stroke-miterlimit="10" x1="726.623" y1="422.487" x2="725.54" y2="421.676"/>
<line fill="none" stroke="#AAAAAA" stroke-miterlimit="10" x1="725.541" y1="421.675" x2="724.185" y2="421.133"/>
<line fill="none" stroke="#AAAAAA" stroke-miterlimit="10" x1="724.185" y1="421.133" x2="723.102" y2="420.861"/>
<line fill="none" stroke="#AAAAAA" stroke-miterlimit="10" x1="723.102" y1="420.861" x2="721.746" y2="421.133"/>
<line fill="none" stroke="#AAAAAA" stroke-miterlimit="10" x1="721.746" y1="421.133" x2="720.663" y2="421.675"/>
<line fill="none" stroke="#AAAAAA" stroke-miterlimit="10" x1="720.663" y1="421.676" x2="719.58" y2="422.487"/>
<line fill="none" stroke="#AAAAAA" stroke-miterlimit="10" x1="719.581" y1="422.487" x2="718.768" y2="423.301"/>
<line fill="none" stroke="#AAAAAA" stroke-miterlimit="10" x1="718.768" y1="423.301" x2="718.496" y2="424.654"/>
<line fill="none" stroke="#AAAAAA" stroke-miterlimit="10" x1="718.496" y1="424.654" x2="718.225" y2="425.739"/>
<line fill="none" stroke="#AAAAAA" stroke-miterlimit="10" x1="718.225" y1="425.739" x2="718.497" y2="427.093"/>
<line fill="none" stroke="#AAAAAA" stroke-miterlimit="10" x1="718.496" y1="427.093" x2="718.769" y2="428.178"/>
<line fill="none" stroke="#AAAAAA" stroke-miterlimit="10" x1="718.768" y1="428.178" x2="719.581" y2="429.261"/>
<line fill="none" stroke="#AAAAAA" stroke-miterlimit="10" x1="719.581" y1="429.261" x2="720.664" y2="430.073"/>
<line fill="none" stroke="#AAAAAA" stroke-miterlimit="10" x1="720.663" y1="430.073" x2="721.746" y2="430.614"/>
<line fill="none" stroke="#AAAAAA" stroke-miterlimit="10" x1="721.746" y1="430.614" x2="723.102" y2="430.614"/>
<line fill="none" stroke="#AAAAAA" stroke-miterlimit="10" x1="708.472" y1="415.986" x2="709.826" y2="415.986"/>
<line fill="none" stroke="#AAAAAA" stroke-miterlimit="10" x1="709.826" y1="415.986" x2="710.911" y2="415.443"/>
<line fill="none" stroke="#AAAAAA" stroke-miterlimit="10" x1="710.91" y1="415.443" x2="711.994" y2="414.632"/>
<line fill="none" stroke="#AAAAAA" stroke-miterlimit="10" x1="711.995" y1="414.632" x2="712.809" y2="413.819"/>
<line fill="none" stroke="#AAAAAA" stroke-miterlimit="10" x1="712.808" y1="413.819" x2="713.078" y2="412.465"/>
<line fill="none" stroke="#AAAAAA" stroke-miterlimit="10" x1="713.078" y1="412.465" x2="713.35" y2="411.38"/>
<line fill="none" stroke="#AAAAAA" stroke-miterlimit="10" x1="713.35" y1="411.381" x2="713.077" y2="410.026"/>
<line fill="none" stroke="#AAAAAA" stroke-miterlimit="10" x1="713.078" y1="410.026" x2="712.808" y2="408.942"/>
<line fill="none" stroke="#AAAAAA" stroke-miterlimit="10" x1="712.808" y1="408.942" x2="711.995" y2="407.859"/>
<line fill="none" stroke="#AAAAAA" stroke-miterlimit="10" x1="711.995" y1="407.859" x2="710.911" y2="407.047"/>
<line fill="none" stroke="#AAAAAA" stroke-miterlimit="10" x1="710.91" y1="407.047" x2="709.825" y2="406.505"/>
<line fill="none" stroke="#AAAAAA" stroke-miterlimit="10" x1="709.826" y1="406.504" x2="708.472" y2="406.504"/>
<line fill="none" stroke="#AAAAAA" stroke-miterlimit="10" x1="708.472" y1="406.504" x2="707.389" y2="406.504"/>
<line fill="none" stroke="#AAAAAA" stroke-miterlimit="10" x1="707.39" y1="406.504" x2="706.035" y2="407.046"/>
<line fill="none" stroke="#AAAAAA" stroke-miterlimit="10" x1="706.035" y1="407.047" x2="705.223" y2="407.859"/>
<line fill="none" stroke="#AAAAAA" stroke-miterlimit="10" x1="705.221" y1="407.859" x2="704.407" y2="408.942"/>
<line fill="none" stroke="#AAAAAA" stroke-miterlimit="10" x1="704.407" y1="408.942" x2="703.868" y2="410.026"/>
<line fill="none" stroke="#AAAAAA" stroke-miterlimit="10" x1="703.868" y1="410.026" x2="703.596" y2="411.381"/>
<line fill="none" stroke="#AAAAAA" stroke-miterlimit="10" x1="703.597" y1="411.381" x2="703.868" y2="412.466"/>
<line fill="none" stroke="#AAAAAA" stroke-miterlimit="10" x1="703.868" y1="412.465" x2="704.407" y2="413.819"/>
<line fill="none" stroke="#AAAAAA" stroke-miterlimit="10" x1="704.407" y1="413.819" x2="705.221" y2="414.632"/>
<line fill="none" stroke="#AAAAAA" stroke-miterlimit="10" x1="705.223" y1="414.632" x2="706.035" y2="415.443"/>
<line fill="none" stroke="#AAAAAA" stroke-miterlimit="10" x1="706.035" y1="415.443" x2="707.389" y2="415.986"/>
<line fill="none" stroke="#AAAAAA" stroke-miterlimit="10" x1="707.39" y1="415.986" x2="708.473" y2="415.986"/>
<line fill="none" stroke="#AAAAAA" stroke-miterlimit="10" x1="708.472" y1="429.261" x2="709.285" y2="428.988"/>
<line fill="none" stroke="#AAAAAA" stroke-miterlimit="10" x1="709.285" y1="428.988" x2="710.098" y2="428.717"/>
<line fill="none" stroke="#AAAAAA" stroke-miterlimit="10" x1="710.098" y1="428.717" x2="710.911" y2="428.178"/>
<line fill="none" stroke="#AAAAAA" stroke-miterlimit="10" x1="710.91" y1="428.178" x2="711.451" y2="427.635"/>
<line fill="none" stroke="#AAAAAA" stroke-miterlimit="10" x1="711.452" y1="427.637" x2="711.724" y2="426.551"/>
<line fill="none" stroke="#AAAAAA" stroke-miterlimit="10" x1="711.724" y1="426.55" x2="711.995" y2="425.739"/>
<line fill="none" stroke="#AAAAAA" stroke-miterlimit="10" x1="711.995" y1="425.739" x2="711.723" y2="424.926"/>
<line fill="none" stroke="#AAAAAA" stroke-miterlimit="10" x1="711.724" y1="424.926" x2="711.451" y2="424.113"/>
<line fill="none" stroke="#AAAAAA" stroke-miterlimit="10" x1="711.452" y1="424.113" x2="710.911" y2="423.301"/>
<line fill="none" stroke="#AAAAAA" stroke-miterlimit="10" x1="710.91" y1="423.301" x2="710.098" y2="422.758"/>
<line fill="none" stroke="#AAAAAA" stroke-miterlimit="10" x1="710.098" y1="422.758" x2="709.285" y2="422.487"/>
<line fill="none" stroke="#AAAAAA" stroke-miterlimit="10" x1="709.285" y1="422.487" x2="708.472" y2="422.487"/>
<line fill="none" stroke="#AAAAAA" stroke-miterlimit="10" x1="708.472" y1="422.487" x2="707.659" y2="422.487"/>
<line fill="none" stroke="#AAAAAA" stroke-miterlimit="10" x1="707.659" y1="422.487" x2="706.846" y2="422.759"/>
<line fill="none" stroke="#AAAAAA" stroke-miterlimit="10" x1="706.847" y1="422.758" x2="706.035" y2="423.3"/>
<line fill="none" stroke="#AAAAAA" stroke-miterlimit="10" x1="706.035" y1="423.301" x2="705.492" y2="424.113"/>
<line fill="none" stroke="#AAAAAA" stroke-miterlimit="10" x1="705.492" y1="424.113" x2="705.222" y2="424.927"/>
<line fill="none" stroke="#AAAAAA" stroke-miterlimit="10" x1="705.223" y1="424.926" x2="705.223" y2="425.739"/>
<line fill="none" stroke="#AAAAAA" stroke-miterlimit="10" x1="705.223" y1="425.739" x2="705.223" y2="426.55"/>
<line fill="none" stroke="#AAAAAA" stroke-miterlimit="10" x1="705.223" y1="426.55" x2="705.492" y2="427.636"/>
<line fill="none" stroke="#AAAAAA" stroke-miterlimit="10" x1="705.492" y1="427.635" x2="706.035" y2="428.178"/>
<line fill="none" stroke="#AAAAAA" stroke-miterlimit="10" x1="706.035" y1="428.178" x2="706.846" y2="428.717"/>
<line fill="none" stroke="#AAAAAA" stroke-miterlimit="10" x1="706.847" y1="428.717" x2="707.659" y2="428.989"/>
<line fill="none" stroke="#AAAAAA" stroke-miterlimit="10" x1="707.659" y1="428.988" x2="708.472" y2="429.261"/>
<line fill="none" stroke="#AAAAAA" stroke-miterlimit="10" x1="723.102" y1="414.632" x2="723.915" y2="414.632"/>
<line fill="none" stroke="#AAAAAA" stroke-miterlimit="10" x1="723.915" y1="414.632" x2="724.726" y2="414.089"/>
<line fill="none" stroke="#AAAAAA" stroke-miterlimit="10" x1="724.726" y1="414.089" x2="725.539" y2="413.548"/>
<line fill="none" stroke="#AAAAAA" stroke-miterlimit="10" x1="725.541" y1="413.548" x2="726.082" y2="413.005"/>
<line fill="none" stroke="#AAAAAA" stroke-miterlimit="10" x1="726.082" y1="413.005" x2="726.352" y2="412.193"/>
<line fill="none" stroke="#AAAAAA" stroke-miterlimit="10" x1="726.352" y1="412.193" x2="726.352" y2="411.381"/>
<line fill="none" stroke="#AAAAAA" stroke-miterlimit="10" x1="726.352" y1="411.381" x2="726.352" y2="410.298"/>
<line fill="none" stroke="#AAAAAA" stroke-miterlimit="10" x1="726.352" y1="410.298" x2="726.082" y2="409.485"/>
<line fill="none" stroke="#AAAAAA" stroke-miterlimit="10" x1="726.082" y1="409.485" x2="725.541" y2="408.942"/>
<line fill="none" stroke="#AAAAAA" stroke-miterlimit="10" x1="725.539" y1="408.942" x2="724.726" y2="408.401"/>
<line fill="none" stroke="#AAAAAA" stroke-miterlimit="10" x1="724.726" y1="408.4" x2="723.915" y2="407.859"/>
<line fill="none" stroke="#AAAAAA" stroke-miterlimit="10" x1="723.915" y1="407.859" x2="723.102" y2="407.859"/>
<line fill="none" stroke="#AAAAAA" stroke-miterlimit="10" x1="723.102" y1="407.859" x2="722.289" y2="407.859"/>
<line fill="none" stroke="#AAAAAA" stroke-miterlimit="10" x1="722.289" y1="407.859" x2="721.477" y2="408.4"/>
<line fill="none" stroke="#AAAAAA" stroke-miterlimit="10" x1="721.477" y1="408.4" x2="720.663" y2="408.941"/>
<line fill="none" stroke="#AAAAAA" stroke-miterlimit="10" x1="720.663" y1="408.942" x2="720.12" y2="409.485"/>
<line fill="none" stroke="#AAAAAA" stroke-miterlimit="10" x1="720.122" y1="409.485" x2="719.85" y2="410.298"/>
<line fill="none" stroke="#AAAAAA" stroke-miterlimit="10" x1="719.851" y1="410.298" x2="719.58" y2="411.381"/>
<line fill="none" stroke="#AAAAAA" stroke-miterlimit="10" x1="719.581" y1="411.381" x2="719.851" y2="412.193"/>
<line fill="none" stroke="#AAAAAA" stroke-miterlimit="10" x1="719.851" y1="412.193" x2="720.122" y2="413.005"/>
<line fill="none" stroke="#AAAAAA" stroke-miterlimit="10" x1="720.12" y1="413.005" x2="720.663" y2="413.548"/>
<line fill="none" stroke="#AAAAAA" stroke-miterlimit="10" x1="720.663" y1="413.548" x2="721.477" y2="414.089"/>
<line fill="none" stroke="#AAAAAA" stroke-miterlimit="10" x1="721.477" y1="414.089" x2="722.289" y2="414.632"/>
<line fill="none" stroke="#AAAAAA" stroke-miterlimit="10" x1="722.289" y1="414.632" x2="723.103" y2="414.632"/>
<line fill="none" stroke="#AAAAAA" stroke-miterlimit="10" x1="701.158" y1="404.066" x2="701.158" y2="433.053"/>
<line fill="none" stroke="#AAAAAA" stroke-miterlimit="10" x1="701.158" y1="433.052" x2="730.416" y2="433.052"/>
<line fill="none" stroke="#AAAAAA" stroke-miterlimit="10" x1="730.416" y1="433.052" x2="730.416" y2="404.066"/>
<line fill="none" stroke="#AAAAAA" stroke-miterlimit="10" x1="730.416" y1="404.066" x2="701.158" y2="404.066"/>
<g>
	<defs>
		<rect id="SVGID_1_" width="872.125" height="457.5"/>
	</defs>
	<clipPath id="SVGID_6_">
		<use xlink:href="#SVGID_1_"  overflow="visible"/>
	</clipPath>
	<polygon clip-path="url(#SVGID_6_)" fill="none" stroke="#AAAAAA" stroke-miterlimit="10" points="172.841,3.802 172.841,229.545 
		19.885,229.545 19.885,318.729 1.185,318.729 1.185,208.487 19.885,208.49 19.885,208.447 152.703,208.447 152.762,3.802 	"/>
</g>
</svg>
