<?xml version="1.0" encoding="utf-8"?>
<!-- Generator: Adobe Illustrator 15.0.2, SVG Export Plug-In  -->
<!DOCTYPE svg PUBLIC "-//W3C//DTD SVG 1.1//EN" "http://www.w3.org/Graphics/SVG/1.1/DTD/svg11.dtd" [
	<!ENTITY ns_flows "http://ns.adobe.com/Flows/1.0/">
]>
<svg version="1.1"
	 xmlns="http://www.w3.org/2000/svg" xmlns:xlink="http://www.w3.org/1999/xlink" xmlns:a="http://ns.adobe.com/AdobeSVGViewerExtensions/3.0/"
	 x="0px" y="0px" width="47px" height="43px" viewBox="-0.4697266 -0.0131836 47 43"
	 enable-background="new -0.4697266 -0.0131836 47 43" xml:space="preserve">
<defs>
</defs>
<path fill="#1490e7" d="M40.1865234,17.3012695c-0.4804688,0-0.9462891,0.059082-1.3925781,0.1669922V8.5073242
	C38.7939453,3.8164063,34.8955078,0,30.1025391,0H15.8974609c-4.7929688,0-8.6923828,3.8164063-8.6923828,8.5073242v8.9609375
	c-0.4462891-0.1079102-0.9121094-0.1669922-1.3916016-0.1669922C2.6074219,17.3012695,0,19.8540039,0,22.9916992
	c0,1.9599609,1.0195313,3.7597656,2.6914063,4.7998047v8.1494141c0,1.4121094,0.9169922,2.6191406,2.1982422,3.0800781v2.2285156
	c0,0.4150391,0.3447266,0.7509766,0.7675781,0.7509766h5.8320313c0.4228516,0,0.765625-0.3359375,0.765625-0.7509766v-2.0292969
	h21.4892578v2.0292969c0,0.4150391,0.3427734,0.7509766,0.765625,0.7509766h5.8320313
	c0.4228516,0,0.7675781-0.3359375,0.7675781-0.7509766v-2.2285156c1.2822266-0.4609375,2.1992188-1.6679688,2.1992188-3.0800781
	v-8.1494141C44.9804688,26.7514648,46,24.9516602,46,22.9916992C46,19.8540039,43.3925781,17.3012695,40.1865234,17.3012695
	 M8.7392578,8.5073242c0-3.8632813,3.2109375-7.0063477,7.1582031-7.0063477h14.2050781
	c3.9462891,0,7.1572266,3.1430664,7.1572266,7.0063477v9.5708008c-1.7246094,0.9882813-2.8867188,2.8198242-2.8867188,4.9135742
	v2.265625H11.6259766v-2.265625c0-2.09375-1.1621094-3.925293-2.8867188-4.9135742V8.5073242z M34.3730469,33.4858398H11.6259766
	v-6.7285156h22.7470703V33.4858398z M11.6259766,34.9868164h22.7470703v2.7324219H11.6259766V34.9868164z M4.2246094,35.940918
	v-8.5400391c0.0019531-0.0224609,0.0019531-0.046875,0.0009766-0.0693359
	c-0.0117188-0.2675781-0.1660156-0.5097656-0.4082031-0.6347656c-1.4091797-0.7275391-2.2841797-2.1474609-2.2841797-3.7050781
	c0-2.3105469,1.9199219-4.1894531,4.2802734-4.1894531c2.359375,0,4.2792969,1.8789063,4.2792969,4.1894531v14.7275391H6.0410156
	C5.0390625,37.7192383,4.2246094,36.9213867,4.2246094,35.940918 M10.7216797,40.4995117H6.4238281v-1.2792969h4.2978516V40.4995117
	z M39.5751953,40.4995117h-4.2978516v-1.2792969h4.2978516V40.4995117z M42.1826172,26.6967773
	c-0.2412109,0.125-0.3964844,0.3671875-0.4072266,0.6347656c-0.0009766,0.0195313-0.0009766,0.0390625,0,0.0576172v8.5517578
	c0,0.9804688-0.8154297,1.7783203-1.8173828,1.7783203h-4.0507813V22.9916992c0-2.3105469,1.9199219-4.1894531,4.2792969-4.1894531
	s4.2792969,1.8789063,4.2792969,4.1894531C44.4658203,24.5493164,43.5908203,25.9692383,42.1826172,26.6967773"/>
</svg>
